M48
;DRILL file {KiCad (5.0.1)-3} date 03/04/2019 20:36:32
;FORMAT={-:-/ absolute / metric / decimal}
FMAT,2
METRIC,TZ
T1C1.800
T2C4.000
T3C5.700
%
G90
G05
M71
T1
X6.101Y22.298
X6.101Y18.098
X6.101Y13.898
X6.101Y9.698
X10.301Y22.298
X10.301Y18.098
X10.301Y13.898
X10.301Y9.698
X25.701Y51.298
X25.701Y47.098
X25.701Y42.898
X25.701Y38.698
X29.901Y51.298
X29.901Y47.098
X29.901Y42.898
X29.901Y38.698
X25.701Y22.298
X25.701Y18.098
X25.701Y13.898
X25.701Y9.698
X29.901Y22.298
X29.901Y18.098
X29.901Y13.898
X29.901Y9.698
X25.701Y81.298
X25.701Y77.098
X25.701Y72.898
X25.701Y68.698
X29.901Y81.298
X29.901Y77.098
X29.901Y72.898
X29.901Y68.698
X6.101Y51.298
X6.101Y47.098
X6.101Y42.898
X6.101Y38.698
X10.301Y51.298
X10.301Y47.098
X10.301Y42.898
X10.301Y38.698
X6.101Y81.298
X6.101Y77.098
X6.101Y72.898
X6.101Y68.698
X10.301Y81.298
X10.301Y77.098
X10.301Y72.898
X10.301Y68.698
T2
X0.001Y-0.002
X0.001Y89.998
X140.001Y89.998
X140.001Y-0.002
T3
X114.989Y35.748
X114.989Y80.748
X54.989Y32.998
X114.989Y13.248
X54.989Y77.998
X54.989Y55.498
X54.989Y10.498
X114.989Y58.248
T0
M30
