G04 #@! TF.GenerationSoftware,KiCad,Pcbnew,(5.0.1)-3*
G04 #@! TF.CreationDate,2019-04-10T15:36:06+02:00*
G04 #@! TF.ProjectId,discovery,646973636F766572792E6B696361645F,rev?*
G04 #@! TF.SameCoordinates,PX4c4640PY8a48028*
G04 #@! TF.FileFunction,Copper,L2,Bot,Signal*
G04 #@! TF.FilePolarity,Positive*
%FSLAX46Y46*%
G04 Gerber Fmt 4.6, Leading zero omitted, Abs format (unit mm)*
G04 Created by KiCad (PCBNEW (5.0.1)-3) date 10/04/2019 15:36:06*
%MOMM*%
%LPD*%
G01*
G04 APERTURE LIST*
G04 #@! TA.AperFunction,WasherPad*
%ADD10C,4.000000*%
G04 #@! TD*
G04 #@! TA.AperFunction,ComponentPad*
%ADD11C,2.500000*%
G04 #@! TD*
G04 #@! TA.AperFunction,ComponentPad*
%ADD12C,5.000000*%
G04 #@! TD*
G04 #@! TA.AperFunction,ComponentPad*
%ADD13C,15.000000*%
G04 #@! TD*
G04 #@! TA.AperFunction,Conductor*
%ADD14C,0.254000*%
G04 #@! TD*
G04 #@! TA.AperFunction,Conductor*
%ADD15C,0.124000*%
G04 #@! TD*
G04 APERTURE END LIST*
D10*
G04 #@! TO.P,J2,*
G04 #@! TO.N,*
X30101280Y53498440D03*
X30101280Y35698440D03*
D11*
G04 #@! TO.P,J2,1*
G04 #@! TO.N,+12V*
X25901280Y40398440D03*
G04 #@! TO.P,J2,2*
X25901280Y44598440D03*
G04 #@! TO.P,J2,3*
X25901280Y48798440D03*
G04 #@! TO.P,J2,4*
G04 #@! TO.N,GND*
X30101280Y40398440D03*
G04 #@! TO.P,J2,5*
X30101280Y44598440D03*
G04 #@! TO.P,J2,6*
X30101280Y48798440D03*
G04 #@! TD*
G04 #@! TO.P,J4,6*
G04 #@! TO.N,GND*
X5901280Y40398440D03*
G04 #@! TO.P,J4,5*
X5901280Y44598440D03*
G04 #@! TO.P,J4,4*
X5901280Y48798440D03*
G04 #@! TO.P,J4,3*
G04 #@! TO.N,+12V*
X10101280Y40398440D03*
G04 #@! TO.P,J4,2*
X10101280Y44598440D03*
G04 #@! TO.P,J4,1*
X10101280Y48798440D03*
D10*
G04 #@! TO.P,J4,*
G04 #@! TO.N,*
X5901280Y53498440D03*
X5901280Y35698440D03*
G04 #@! TD*
G04 #@! TO.P,J5,*
G04 #@! TO.N,*
X5901280Y6865840D03*
X5901280Y24665840D03*
D11*
G04 #@! TO.P,J5,1*
G04 #@! TO.N,+12V*
X10101280Y19965840D03*
G04 #@! TO.P,J5,2*
X10101280Y15765840D03*
G04 #@! TO.P,J5,3*
X10101280Y11565840D03*
G04 #@! TO.P,J5,4*
G04 #@! TO.N,GND*
X5901280Y19965840D03*
G04 #@! TO.P,J5,5*
X5901280Y15765840D03*
G04 #@! TO.P,J5,6*
X5901280Y11565840D03*
G04 #@! TD*
G04 #@! TO.P,J6,6*
G04 #@! TO.N,GND*
X30101280Y19965840D03*
G04 #@! TO.P,J6,5*
X30101280Y15765840D03*
G04 #@! TO.P,J6,4*
X30101280Y11565840D03*
G04 #@! TO.P,J6,3*
G04 #@! TO.N,+12V*
X25901280Y19965840D03*
G04 #@! TO.P,J6,2*
X25901280Y15765840D03*
G04 #@! TO.P,J6,1*
X25901280Y11565840D03*
D10*
G04 #@! TO.P,J6,*
G04 #@! TO.N,*
X30101280Y6865840D03*
X30101280Y24665840D03*
G04 #@! TD*
D11*
G04 #@! TO.P,J1,8*
G04 #@! TO.N,+12V*
X6101280Y66398440D03*
G04 #@! TO.P,J1,7*
X6101280Y70598440D03*
G04 #@! TO.P,J1,6*
X6101280Y74798440D03*
G04 #@! TO.P,J1,5*
X6101280Y78998440D03*
G04 #@! TO.P,J1,4*
G04 #@! TO.N,GND*
X10301280Y66398440D03*
G04 #@! TO.P,J1,3*
X10301280Y70598440D03*
G04 #@! TO.P,J1,2*
X10301280Y74798440D03*
G04 #@! TO.P,J1,1*
X10301280Y78998440D03*
D10*
G04 #@! TO.P,J1,*
G04 #@! TO.N,*
X5901280Y83698440D03*
X5901280Y61698440D03*
G04 #@! TD*
G04 #@! TO.P,J3,*
G04 #@! TO.N,*
X30101280Y83698440D03*
X30101280Y61698440D03*
D11*
G04 #@! TO.P,J3,1*
G04 #@! TO.N,GND*
X25701280Y66398440D03*
G04 #@! TO.P,J3,2*
X25701280Y70598440D03*
G04 #@! TO.P,J3,3*
X25701280Y74798440D03*
G04 #@! TO.P,J3,4*
X25701280Y78998440D03*
G04 #@! TO.P,J3,5*
G04 #@! TO.N,+12V*
X29901280Y66398440D03*
G04 #@! TO.P,J3,6*
X29901280Y70598440D03*
G04 #@! TO.P,J3,7*
X29901280Y74798440D03*
G04 #@! TO.P,J3,8*
X29901280Y78998440D03*
G04 #@! TD*
D12*
G04 #@! TO.P,W1,1*
G04 #@! TO.N,GND*
X140001280Y-1560D03*
G04 #@! TD*
G04 #@! TO.P,W2,1*
G04 #@! TO.N,GND*
X1280Y89998440D03*
G04 #@! TD*
G04 #@! TO.P,W3,1*
G04 #@! TO.N,GND*
X140001280Y89998440D03*
G04 #@! TD*
G04 #@! TO.P,W4,1*
G04 #@! TO.N,GND*
X1280Y-1560D03*
G04 #@! TD*
D13*
G04 #@! TO.P,W5,1*
G04 #@! TO.N,+12V*
X55001280Y77998440D03*
G04 #@! TD*
G04 #@! TO.P,W6,1*
G04 #@! TO.N,+12V*
X55001280Y55498440D03*
G04 #@! TD*
G04 #@! TO.P,W7,1*
G04 #@! TO.N,+12V*
X55001280Y32998440D03*
G04 #@! TD*
G04 #@! TO.P,W8,1*
G04 #@! TO.N,+12V*
X55001280Y10498440D03*
G04 #@! TD*
G04 #@! TO.P,W9,1*
G04 #@! TO.N,GND*
X115001280Y80748440D03*
G04 #@! TD*
G04 #@! TO.P,W10,1*
G04 #@! TO.N,GND*
X115001280Y58248440D03*
G04 #@! TD*
G04 #@! TO.P,W11,1*
G04 #@! TO.N,GND*
X115001280Y13248440D03*
G04 #@! TD*
G04 #@! TO.P,W12,1*
G04 #@! TO.N,GND*
X115001280Y35748440D03*
G04 #@! TD*
D14*
G04 #@! TO.N,GND*
G36*
X143799280Y92500555D02*
X143799281Y-2503674D01*
X142503396Y-3799560D01*
X-2500835Y-3799560D01*
X-3609414Y-2690981D01*
X-920374Y-2690981D01*
X-550566Y-2887738D01*
X553126Y-2887738D01*
X922934Y-2690981D01*
X139079626Y-2690981D01*
X139449434Y-2887738D01*
X140553126Y-2887738D01*
X140922934Y-2690981D01*
X140001280Y-1769327D01*
X139079626Y-2690981D01*
X922934Y-2690981D01*
X1280Y-1769327D01*
X-920374Y-2690981D01*
X-3609414Y-2690981D01*
X-3796720Y-2503676D01*
X-3796720Y550286D01*
X-2884898Y550286D01*
X-2884898Y-553406D01*
X-2688141Y-923214D01*
X-1766487Y-1560D01*
X1769047Y-1560D01*
X2690701Y-923214D01*
X2887458Y-553406D01*
X2887458Y550286D01*
X2690701Y920094D01*
X1769047Y-1560D01*
X-1766487Y-1560D01*
X-2688141Y920094D01*
X-2884898Y550286D01*
X-3796720Y550286D01*
X-3796720Y2687861D01*
X-920374Y2687861D01*
X1280Y1766207D01*
X922934Y2687861D01*
X553126Y2884618D01*
X-550566Y2884618D01*
X-920374Y2687861D01*
X-3796720Y2687861D01*
X-3796720Y7487839D01*
X2774280Y7487839D01*
X2774280Y6243841D01*
X3250337Y5094537D01*
X4129977Y4214897D01*
X5279281Y3738840D01*
X6523279Y3738840D01*
X7672583Y4214897D01*
X8552223Y5094537D01*
X9028280Y6243841D01*
X9028280Y7487839D01*
X26974280Y7487839D01*
X26974280Y6243841D01*
X27450337Y5094537D01*
X28329977Y4214897D01*
X29479281Y3738840D01*
X30723279Y3738840D01*
X31872583Y4214897D01*
X32752223Y5094537D01*
X33228280Y6243841D01*
X33228280Y7487839D01*
X32752223Y8637143D01*
X31872583Y9516783D01*
X30723279Y9992840D01*
X30549094Y9992840D01*
X30676561Y10106676D01*
X30101280Y10681957D01*
X29525999Y10106676D01*
X29653466Y9992840D01*
X29479281Y9992840D01*
X28329977Y9516783D01*
X27450337Y8637143D01*
X26974280Y7487839D01*
X9028280Y7487839D01*
X8552223Y8637143D01*
X7672583Y9516783D01*
X6523279Y9992840D01*
X6349094Y9992840D01*
X6476561Y10106676D01*
X5901280Y10681957D01*
X5325999Y10106676D01*
X5453466Y9992840D01*
X5279281Y9992840D01*
X4129977Y9516783D01*
X3250337Y8637143D01*
X2774280Y7487839D01*
X-3796720Y7487839D01*
X-3796720Y11318114D01*
X4255851Y11318114D01*
X4286301Y11165031D01*
X4442116Y10990559D01*
X5017397Y11565840D01*
X6785163Y11565840D01*
X7360444Y10990559D01*
X7516259Y11165031D01*
X7546709Y11813566D01*
X7516259Y11966649D01*
X7360444Y12141121D01*
X6785163Y11565840D01*
X5017397Y11565840D01*
X4442116Y12141121D01*
X4286301Y11966649D01*
X4255851Y11318114D01*
X-3796720Y11318114D01*
X-3796720Y13025004D01*
X5325999Y13025004D01*
X5901280Y12449723D01*
X6476561Y13025004D01*
X6302089Y13180819D01*
X5653554Y13211269D01*
X5500471Y13180819D01*
X5325999Y13025004D01*
X-3796720Y13025004D01*
X-3796720Y14306676D01*
X5325999Y14306676D01*
X5500471Y14150861D01*
X6149006Y14120411D01*
X6302089Y14150861D01*
X6476561Y14306676D01*
X5901280Y14881957D01*
X5325999Y14306676D01*
X-3796720Y14306676D01*
X-3796720Y15518114D01*
X4255851Y15518114D01*
X4286301Y15365031D01*
X4442116Y15190559D01*
X5017397Y15765840D01*
X6785163Y15765840D01*
X7360444Y15190559D01*
X7516259Y15365031D01*
X7546709Y16013566D01*
X7516259Y16166649D01*
X7360444Y16341121D01*
X6785163Y15765840D01*
X5017397Y15765840D01*
X4442116Y16341121D01*
X4286301Y16166649D01*
X4255851Y15518114D01*
X-3796720Y15518114D01*
X-3796720Y17225004D01*
X5325999Y17225004D01*
X5901280Y16649723D01*
X6476561Y17225004D01*
X6302089Y17380819D01*
X5653554Y17411269D01*
X5500471Y17380819D01*
X5325999Y17225004D01*
X-3796720Y17225004D01*
X-3796720Y18506676D01*
X5325999Y18506676D01*
X5500471Y18350861D01*
X6149006Y18320411D01*
X6302089Y18350861D01*
X6476561Y18506676D01*
X5901280Y19081957D01*
X5325999Y18506676D01*
X-3796720Y18506676D01*
X-3796720Y19718114D01*
X4255851Y19718114D01*
X4286301Y19565031D01*
X4442116Y19390559D01*
X5017397Y19965840D01*
X6785163Y19965840D01*
X7360444Y19390559D01*
X7516259Y19565031D01*
X7546709Y20213566D01*
X7516259Y20366649D01*
X7451953Y20438655D01*
X7724280Y20438655D01*
X7724280Y19493025D01*
X8086157Y18619378D01*
X8754818Y17950717D01*
X8959729Y17865840D01*
X8754818Y17780963D01*
X8086157Y17112302D01*
X7724280Y16238655D01*
X7724280Y15293025D01*
X8086157Y14419378D01*
X8754818Y13750717D01*
X8959729Y13665840D01*
X8754818Y13580963D01*
X8086157Y12912302D01*
X7724280Y12038655D01*
X7724280Y11093025D01*
X8086157Y10219378D01*
X8754818Y9550717D01*
X9628465Y9188840D01*
X10574095Y9188840D01*
X11447742Y9550717D01*
X12116403Y10219378D01*
X12478280Y11093025D01*
X12478280Y12038655D01*
X12116403Y12912302D01*
X11447742Y13580963D01*
X11242831Y13665840D01*
X11447742Y13750717D01*
X12116403Y14419378D01*
X12478280Y15293025D01*
X12478280Y16238655D01*
X12116403Y17112302D01*
X11447742Y17780963D01*
X11242831Y17865840D01*
X11447742Y17950717D01*
X12116403Y18619378D01*
X12478280Y19493025D01*
X12478280Y20438655D01*
X23524280Y20438655D01*
X23524280Y19493025D01*
X23886157Y18619378D01*
X24554818Y17950717D01*
X24759729Y17865840D01*
X24554818Y17780963D01*
X23886157Y17112302D01*
X23524280Y16238655D01*
X23524280Y15293025D01*
X23886157Y14419378D01*
X24554818Y13750717D01*
X24759729Y13665840D01*
X24554818Y13580963D01*
X23886157Y12912302D01*
X23524280Y12038655D01*
X23524280Y11093025D01*
X23886157Y10219378D01*
X24554818Y9550717D01*
X25428465Y9188840D01*
X26374095Y9188840D01*
X27247742Y9550717D01*
X27916403Y10219378D01*
X28278280Y11093025D01*
X28278280Y11318114D01*
X28455851Y11318114D01*
X28486301Y11165031D01*
X28642116Y10990559D01*
X29217397Y11565840D01*
X30985163Y11565840D01*
X31560444Y10990559D01*
X31716259Y11165031D01*
X31746709Y11813566D01*
X31716259Y11966649D01*
X31560444Y12141121D01*
X30985163Y11565840D01*
X29217397Y11565840D01*
X28642116Y12141121D01*
X28486301Y11966649D01*
X28455851Y11318114D01*
X28278280Y11318114D01*
X28278280Y12038655D01*
X27916403Y12912302D01*
X27803701Y13025004D01*
X29525999Y13025004D01*
X30101280Y12449723D01*
X30676561Y13025004D01*
X30502089Y13180819D01*
X29853554Y13211269D01*
X29700471Y13180819D01*
X29525999Y13025004D01*
X27803701Y13025004D01*
X27247742Y13580963D01*
X27042831Y13665840D01*
X27247742Y13750717D01*
X27803701Y14306676D01*
X29525999Y14306676D01*
X29700471Y14150861D01*
X30349006Y14120411D01*
X30502089Y14150861D01*
X30676561Y14306676D01*
X30101280Y14881957D01*
X29525999Y14306676D01*
X27803701Y14306676D01*
X27916403Y14419378D01*
X28278280Y15293025D01*
X28278280Y15518114D01*
X28455851Y15518114D01*
X28486301Y15365031D01*
X28642116Y15190559D01*
X29217397Y15765840D01*
X30985163Y15765840D01*
X31560444Y15190559D01*
X31716259Y15365031D01*
X31746709Y16013566D01*
X31716259Y16166649D01*
X31560444Y16341121D01*
X30985163Y15765840D01*
X29217397Y15765840D01*
X28642116Y16341121D01*
X28486301Y16166649D01*
X28455851Y15518114D01*
X28278280Y15518114D01*
X28278280Y16238655D01*
X27916403Y17112302D01*
X27803701Y17225004D01*
X29525999Y17225004D01*
X30101280Y16649723D01*
X30676561Y17225004D01*
X30502089Y17380819D01*
X29853554Y17411269D01*
X29700471Y17380819D01*
X29525999Y17225004D01*
X27803701Y17225004D01*
X27247742Y17780963D01*
X27042831Y17865840D01*
X27247742Y17950717D01*
X27803701Y18506676D01*
X29525999Y18506676D01*
X29700471Y18350861D01*
X30349006Y18320411D01*
X30502089Y18350861D01*
X30676561Y18506676D01*
X30101280Y19081957D01*
X29525999Y18506676D01*
X27803701Y18506676D01*
X27916403Y18619378D01*
X28278280Y19493025D01*
X28278280Y19718114D01*
X28455851Y19718114D01*
X28486301Y19565031D01*
X28642116Y19390559D01*
X29217397Y19965840D01*
X30985163Y19965840D01*
X31560444Y19390559D01*
X31716259Y19565031D01*
X31746709Y20213566D01*
X31716259Y20366649D01*
X31560444Y20541121D01*
X30985163Y19965840D01*
X29217397Y19965840D01*
X28642116Y20541121D01*
X28486301Y20366649D01*
X28455851Y19718114D01*
X28278280Y19718114D01*
X28278280Y20438655D01*
X27916403Y21312302D01*
X27247742Y21980963D01*
X26374095Y22342840D01*
X25428465Y22342840D01*
X24554818Y21980963D01*
X23886157Y21312302D01*
X23524280Y20438655D01*
X12478280Y20438655D01*
X12116403Y21312302D01*
X11447742Y21980963D01*
X10574095Y22342840D01*
X9628465Y22342840D01*
X8754818Y21980963D01*
X8086157Y21312302D01*
X7724280Y20438655D01*
X7451953Y20438655D01*
X7360444Y20541121D01*
X6785163Y19965840D01*
X5017397Y19965840D01*
X4442116Y20541121D01*
X4286301Y20366649D01*
X4255851Y19718114D01*
X-3796720Y19718114D01*
X-3796720Y25287839D01*
X2774280Y25287839D01*
X2774280Y24043841D01*
X3250337Y22894537D01*
X4129977Y22014897D01*
X5279281Y21538840D01*
X5453466Y21538840D01*
X5325999Y21425004D01*
X5901280Y20849723D01*
X6476561Y21425004D01*
X6349094Y21538840D01*
X6523279Y21538840D01*
X7672583Y22014897D01*
X8552223Y22894537D01*
X9028280Y24043841D01*
X9028280Y25287839D01*
X26974280Y25287839D01*
X26974280Y24043841D01*
X27450337Y22894537D01*
X28329977Y22014897D01*
X29479281Y21538840D01*
X29653466Y21538840D01*
X29525999Y21425004D01*
X30101280Y20849723D01*
X30676561Y21425004D01*
X30549094Y21538840D01*
X30723279Y21538840D01*
X31872583Y22014897D01*
X32752223Y22894537D01*
X33228280Y24043841D01*
X33228280Y25287839D01*
X32752223Y26437143D01*
X31872583Y27316783D01*
X30723279Y27792840D01*
X29479281Y27792840D01*
X28329977Y27316783D01*
X27450337Y26437143D01*
X26974280Y25287839D01*
X9028280Y25287839D01*
X8552223Y26437143D01*
X7672583Y27316783D01*
X6523279Y27792840D01*
X5279281Y27792840D01*
X4129977Y27316783D01*
X3250337Y26437143D01*
X2774280Y25287839D01*
X-3796720Y25287839D01*
X-3796720Y36320439D01*
X2774280Y36320439D01*
X2774280Y35076441D01*
X3250337Y33927137D01*
X4129977Y33047497D01*
X5279281Y32571440D01*
X6523279Y32571440D01*
X7672583Y33047497D01*
X8552223Y33927137D01*
X9028280Y35076441D01*
X9028280Y36320439D01*
X26974280Y36320439D01*
X26974280Y35076441D01*
X27450337Y33927137D01*
X28329977Y33047497D01*
X29479281Y32571440D01*
X30723279Y32571440D01*
X31872583Y33047497D01*
X32752223Y33927137D01*
X33228280Y35076441D01*
X33228280Y36320439D01*
X32752223Y37469743D01*
X31872583Y38349383D01*
X30723279Y38825440D01*
X30549094Y38825440D01*
X30676561Y38939276D01*
X30101280Y39514557D01*
X29525999Y38939276D01*
X29653466Y38825440D01*
X29479281Y38825440D01*
X28329977Y38349383D01*
X27450337Y37469743D01*
X26974280Y36320439D01*
X9028280Y36320439D01*
X8552223Y37469743D01*
X7672583Y38349383D01*
X6523279Y38825440D01*
X6349094Y38825440D01*
X6476561Y38939276D01*
X5901280Y39514557D01*
X5325999Y38939276D01*
X5453466Y38825440D01*
X5279281Y38825440D01*
X4129977Y38349383D01*
X3250337Y37469743D01*
X2774280Y36320439D01*
X-3796720Y36320439D01*
X-3796720Y40150714D01*
X4255851Y40150714D01*
X4286301Y39997631D01*
X4442116Y39823159D01*
X5017397Y40398440D01*
X6785163Y40398440D01*
X7360444Y39823159D01*
X7516259Y39997631D01*
X7546709Y40646166D01*
X7516259Y40799249D01*
X7360444Y40973721D01*
X6785163Y40398440D01*
X5017397Y40398440D01*
X4442116Y40973721D01*
X4286301Y40799249D01*
X4255851Y40150714D01*
X-3796720Y40150714D01*
X-3796720Y41857604D01*
X5325999Y41857604D01*
X5901280Y41282323D01*
X6476561Y41857604D01*
X6302089Y42013419D01*
X5653554Y42043869D01*
X5500471Y42013419D01*
X5325999Y41857604D01*
X-3796720Y41857604D01*
X-3796720Y43139276D01*
X5325999Y43139276D01*
X5500471Y42983461D01*
X6149006Y42953011D01*
X6302089Y42983461D01*
X6476561Y43139276D01*
X5901280Y43714557D01*
X5325999Y43139276D01*
X-3796720Y43139276D01*
X-3796720Y44350714D01*
X4255851Y44350714D01*
X4286301Y44197631D01*
X4442116Y44023159D01*
X5017397Y44598440D01*
X6785163Y44598440D01*
X7360444Y44023159D01*
X7516259Y44197631D01*
X7546709Y44846166D01*
X7516259Y44999249D01*
X7360444Y45173721D01*
X6785163Y44598440D01*
X5017397Y44598440D01*
X4442116Y45173721D01*
X4286301Y44999249D01*
X4255851Y44350714D01*
X-3796720Y44350714D01*
X-3796720Y46057604D01*
X5325999Y46057604D01*
X5901280Y45482323D01*
X6476561Y46057604D01*
X6302089Y46213419D01*
X5653554Y46243869D01*
X5500471Y46213419D01*
X5325999Y46057604D01*
X-3796720Y46057604D01*
X-3796720Y47339276D01*
X5325999Y47339276D01*
X5500471Y47183461D01*
X6149006Y47153011D01*
X6302089Y47183461D01*
X6476561Y47339276D01*
X5901280Y47914557D01*
X5325999Y47339276D01*
X-3796720Y47339276D01*
X-3796720Y48550714D01*
X4255851Y48550714D01*
X4286301Y48397631D01*
X4442116Y48223159D01*
X5017397Y48798440D01*
X6785163Y48798440D01*
X7360444Y48223159D01*
X7516259Y48397631D01*
X7546709Y49046166D01*
X7516259Y49199249D01*
X7451953Y49271255D01*
X7724280Y49271255D01*
X7724280Y48325625D01*
X8086157Y47451978D01*
X8754818Y46783317D01*
X8959729Y46698440D01*
X8754818Y46613563D01*
X8086157Y45944902D01*
X7724280Y45071255D01*
X7724280Y44125625D01*
X8086157Y43251978D01*
X8754818Y42583317D01*
X8959729Y42498440D01*
X8754818Y42413563D01*
X8086157Y41744902D01*
X7724280Y40871255D01*
X7724280Y39925625D01*
X8086157Y39051978D01*
X8754818Y38383317D01*
X9628465Y38021440D01*
X10574095Y38021440D01*
X11447742Y38383317D01*
X12116403Y39051978D01*
X12478280Y39925625D01*
X12478280Y40871255D01*
X12116403Y41744902D01*
X11447742Y42413563D01*
X11242831Y42498440D01*
X11447742Y42583317D01*
X12116403Y43251978D01*
X12478280Y44125625D01*
X12478280Y45071255D01*
X12116403Y45944902D01*
X11447742Y46613563D01*
X11242831Y46698440D01*
X11447742Y46783317D01*
X12116403Y47451978D01*
X12478280Y48325625D01*
X12478280Y49271255D01*
X23524280Y49271255D01*
X23524280Y48325625D01*
X23886157Y47451978D01*
X24554818Y46783317D01*
X24759729Y46698440D01*
X24554818Y46613563D01*
X23886157Y45944902D01*
X23524280Y45071255D01*
X23524280Y44125625D01*
X23886157Y43251978D01*
X24554818Y42583317D01*
X24759729Y42498440D01*
X24554818Y42413563D01*
X23886157Y41744902D01*
X23524280Y40871255D01*
X23524280Y39925625D01*
X23886157Y39051978D01*
X24554818Y38383317D01*
X25428465Y38021440D01*
X26374095Y38021440D01*
X27247742Y38383317D01*
X27916403Y39051978D01*
X28278280Y39925625D01*
X28278280Y40150714D01*
X28455851Y40150714D01*
X28486301Y39997631D01*
X28642116Y39823159D01*
X29217397Y40398440D01*
X30985163Y40398440D01*
X31560444Y39823159D01*
X31716259Y39997631D01*
X31746709Y40646166D01*
X31716259Y40799249D01*
X31560444Y40973721D01*
X30985163Y40398440D01*
X29217397Y40398440D01*
X28642116Y40973721D01*
X28486301Y40799249D01*
X28455851Y40150714D01*
X28278280Y40150714D01*
X28278280Y40871255D01*
X27916403Y41744902D01*
X27803701Y41857604D01*
X29525999Y41857604D01*
X30101280Y41282323D01*
X30676561Y41857604D01*
X30502089Y42013419D01*
X29853554Y42043869D01*
X29700471Y42013419D01*
X29525999Y41857604D01*
X27803701Y41857604D01*
X27247742Y42413563D01*
X27042831Y42498440D01*
X27247742Y42583317D01*
X27803701Y43139276D01*
X29525999Y43139276D01*
X29700471Y42983461D01*
X30349006Y42953011D01*
X30502089Y42983461D01*
X30676561Y43139276D01*
X30101280Y43714557D01*
X29525999Y43139276D01*
X27803701Y43139276D01*
X27916403Y43251978D01*
X28278280Y44125625D01*
X28278280Y44350714D01*
X28455851Y44350714D01*
X28486301Y44197631D01*
X28642116Y44023159D01*
X29217397Y44598440D01*
X30985163Y44598440D01*
X31560444Y44023159D01*
X31716259Y44197631D01*
X31746709Y44846166D01*
X31716259Y44999249D01*
X31560444Y45173721D01*
X30985163Y44598440D01*
X29217397Y44598440D01*
X28642116Y45173721D01*
X28486301Y44999249D01*
X28455851Y44350714D01*
X28278280Y44350714D01*
X28278280Y45071255D01*
X27916403Y45944902D01*
X27803701Y46057604D01*
X29525999Y46057604D01*
X30101280Y45482323D01*
X30676561Y46057604D01*
X30502089Y46213419D01*
X29853554Y46243869D01*
X29700471Y46213419D01*
X29525999Y46057604D01*
X27803701Y46057604D01*
X27247742Y46613563D01*
X27042831Y46698440D01*
X27247742Y46783317D01*
X27803701Y47339276D01*
X29525999Y47339276D01*
X29700471Y47183461D01*
X30349006Y47153011D01*
X30502089Y47183461D01*
X30676561Y47339276D01*
X30101280Y47914557D01*
X29525999Y47339276D01*
X27803701Y47339276D01*
X27916403Y47451978D01*
X28278280Y48325625D01*
X28278280Y48550714D01*
X28455851Y48550714D01*
X28486301Y48397631D01*
X28642116Y48223159D01*
X29217397Y48798440D01*
X30985163Y48798440D01*
X31560444Y48223159D01*
X31716259Y48397631D01*
X31746709Y49046166D01*
X31716259Y49199249D01*
X31560444Y49373721D01*
X30985163Y48798440D01*
X29217397Y48798440D01*
X28642116Y49373721D01*
X28486301Y49199249D01*
X28455851Y48550714D01*
X28278280Y48550714D01*
X28278280Y49271255D01*
X27916403Y50144902D01*
X27247742Y50813563D01*
X26374095Y51175440D01*
X25428465Y51175440D01*
X24554818Y50813563D01*
X23886157Y50144902D01*
X23524280Y49271255D01*
X12478280Y49271255D01*
X12116403Y50144902D01*
X11447742Y50813563D01*
X10574095Y51175440D01*
X9628465Y51175440D01*
X8754818Y50813563D01*
X8086157Y50144902D01*
X7724280Y49271255D01*
X7451953Y49271255D01*
X7360444Y49373721D01*
X6785163Y48798440D01*
X5017397Y48798440D01*
X4442116Y49373721D01*
X4286301Y49199249D01*
X4255851Y48550714D01*
X-3796720Y48550714D01*
X-3796720Y54120439D01*
X2774280Y54120439D01*
X2774280Y52876441D01*
X3250337Y51727137D01*
X4129977Y50847497D01*
X5279281Y50371440D01*
X5453466Y50371440D01*
X5325999Y50257604D01*
X5901280Y49682323D01*
X6476561Y50257604D01*
X6349094Y50371440D01*
X6523279Y50371440D01*
X7672583Y50847497D01*
X8552223Y51727137D01*
X9028280Y52876441D01*
X9028280Y54120439D01*
X26974280Y54120439D01*
X26974280Y52876441D01*
X27450337Y51727137D01*
X28329977Y50847497D01*
X29479281Y50371440D01*
X29653466Y50371440D01*
X29525999Y50257604D01*
X30101280Y49682323D01*
X30676561Y50257604D01*
X30549094Y50371440D01*
X30723279Y50371440D01*
X31872583Y50847497D01*
X32752223Y51727137D01*
X33228280Y52876441D01*
X33228280Y54120439D01*
X32752223Y55269743D01*
X31872583Y56149383D01*
X30723279Y56625440D01*
X29479281Y56625440D01*
X28329977Y56149383D01*
X27450337Y55269743D01*
X26974280Y54120439D01*
X9028280Y54120439D01*
X8552223Y55269743D01*
X7672583Y56149383D01*
X6523279Y56625440D01*
X5279281Y56625440D01*
X4129977Y56149383D01*
X3250337Y55269743D01*
X2774280Y54120439D01*
X-3796720Y54120439D01*
X-3796720Y84320439D01*
X2774280Y84320439D01*
X2774280Y83076441D01*
X3250337Y81927137D01*
X4129977Y81047497D01*
X4595801Y80854546D01*
X4086157Y80344902D01*
X3724280Y79471255D01*
X3724280Y78525625D01*
X4086157Y77651978D01*
X4754818Y76983317D01*
X4959729Y76898440D01*
X4754818Y76813563D01*
X4086157Y76144902D01*
X3724280Y75271255D01*
X3724280Y74325625D01*
X4086157Y73451978D01*
X4754818Y72783317D01*
X4959729Y72698440D01*
X4754818Y72613563D01*
X4086157Y71944902D01*
X3724280Y71071255D01*
X3724280Y70125625D01*
X4086157Y69251978D01*
X4754818Y68583317D01*
X4959729Y68498440D01*
X4754818Y68413563D01*
X4086157Y67744902D01*
X3724280Y66871255D01*
X3724280Y65925625D01*
X4086157Y65051978D01*
X4595801Y64542334D01*
X4129977Y64349383D01*
X3250337Y63469743D01*
X2774280Y62320439D01*
X2774280Y61076441D01*
X3250337Y59927137D01*
X4129977Y59047497D01*
X5279281Y58571440D01*
X6523279Y58571440D01*
X7672583Y59047497D01*
X8552223Y59927137D01*
X9028280Y61076441D01*
X9028280Y62320439D01*
X8552223Y63469743D01*
X7672583Y64349383D01*
X7489601Y64425176D01*
X8003701Y64939276D01*
X9725999Y64939276D01*
X9900471Y64783461D01*
X10549006Y64753011D01*
X10702089Y64783461D01*
X10876561Y64939276D01*
X25125999Y64939276D01*
X25300471Y64783461D01*
X25949006Y64753011D01*
X26102089Y64783461D01*
X26276561Y64939276D01*
X25701280Y65514557D01*
X25125999Y64939276D01*
X10876561Y64939276D01*
X10301280Y65514557D01*
X9725999Y64939276D01*
X8003701Y64939276D01*
X8116403Y65051978D01*
X8478280Y65925625D01*
X8478280Y66150714D01*
X8655851Y66150714D01*
X8686301Y65997631D01*
X8842116Y65823159D01*
X9417397Y66398440D01*
X11185163Y66398440D01*
X11760444Y65823159D01*
X11916259Y65997631D01*
X11923446Y66150714D01*
X24055851Y66150714D01*
X24086301Y65997631D01*
X24242116Y65823159D01*
X24817397Y66398440D01*
X26585163Y66398440D01*
X27160444Y65823159D01*
X27316259Y65997631D01*
X27346709Y66646166D01*
X27316259Y66799249D01*
X27160444Y66973721D01*
X26585163Y66398440D01*
X24817397Y66398440D01*
X24242116Y66973721D01*
X24086301Y66799249D01*
X24055851Y66150714D01*
X11923446Y66150714D01*
X11946709Y66646166D01*
X11916259Y66799249D01*
X11760444Y66973721D01*
X11185163Y66398440D01*
X9417397Y66398440D01*
X8842116Y66973721D01*
X8686301Y66799249D01*
X8655851Y66150714D01*
X8478280Y66150714D01*
X8478280Y66871255D01*
X8116403Y67744902D01*
X8003701Y67857604D01*
X9725999Y67857604D01*
X10301280Y67282323D01*
X10876561Y67857604D01*
X25125999Y67857604D01*
X25701280Y67282323D01*
X26276561Y67857604D01*
X26102089Y68013419D01*
X25453554Y68043869D01*
X25300471Y68013419D01*
X25125999Y67857604D01*
X10876561Y67857604D01*
X10702089Y68013419D01*
X10053554Y68043869D01*
X9900471Y68013419D01*
X9725999Y67857604D01*
X8003701Y67857604D01*
X7447742Y68413563D01*
X7242831Y68498440D01*
X7447742Y68583317D01*
X8003701Y69139276D01*
X9725999Y69139276D01*
X9900471Y68983461D01*
X10549006Y68953011D01*
X10702089Y68983461D01*
X10876561Y69139276D01*
X25125999Y69139276D01*
X25300471Y68983461D01*
X25949006Y68953011D01*
X26102089Y68983461D01*
X26276561Y69139276D01*
X25701280Y69714557D01*
X25125999Y69139276D01*
X10876561Y69139276D01*
X10301280Y69714557D01*
X9725999Y69139276D01*
X8003701Y69139276D01*
X8116403Y69251978D01*
X8478280Y70125625D01*
X8478280Y70350714D01*
X8655851Y70350714D01*
X8686301Y70197631D01*
X8842116Y70023159D01*
X9417397Y70598440D01*
X11185163Y70598440D01*
X11760444Y70023159D01*
X11916259Y70197631D01*
X11923446Y70350714D01*
X24055851Y70350714D01*
X24086301Y70197631D01*
X24242116Y70023159D01*
X24817397Y70598440D01*
X26585163Y70598440D01*
X27160444Y70023159D01*
X27316259Y70197631D01*
X27346709Y70846166D01*
X27316259Y70999249D01*
X27160444Y71173721D01*
X26585163Y70598440D01*
X24817397Y70598440D01*
X24242116Y71173721D01*
X24086301Y70999249D01*
X24055851Y70350714D01*
X11923446Y70350714D01*
X11946709Y70846166D01*
X11916259Y70999249D01*
X11760444Y71173721D01*
X11185163Y70598440D01*
X9417397Y70598440D01*
X8842116Y71173721D01*
X8686301Y70999249D01*
X8655851Y70350714D01*
X8478280Y70350714D01*
X8478280Y71071255D01*
X8116403Y71944902D01*
X8003701Y72057604D01*
X9725999Y72057604D01*
X10301280Y71482323D01*
X10876561Y72057604D01*
X25125999Y72057604D01*
X25701280Y71482323D01*
X26276561Y72057604D01*
X26102089Y72213419D01*
X25453554Y72243869D01*
X25300471Y72213419D01*
X25125999Y72057604D01*
X10876561Y72057604D01*
X10702089Y72213419D01*
X10053554Y72243869D01*
X9900471Y72213419D01*
X9725999Y72057604D01*
X8003701Y72057604D01*
X7447742Y72613563D01*
X7242831Y72698440D01*
X7447742Y72783317D01*
X8003701Y73339276D01*
X9725999Y73339276D01*
X9900471Y73183461D01*
X10549006Y73153011D01*
X10702089Y73183461D01*
X10876561Y73339276D01*
X25125999Y73339276D01*
X25300471Y73183461D01*
X25949006Y73153011D01*
X26102089Y73183461D01*
X26276561Y73339276D01*
X25701280Y73914557D01*
X25125999Y73339276D01*
X10876561Y73339276D01*
X10301280Y73914557D01*
X9725999Y73339276D01*
X8003701Y73339276D01*
X8116403Y73451978D01*
X8478280Y74325625D01*
X8478280Y74550714D01*
X8655851Y74550714D01*
X8686301Y74397631D01*
X8842116Y74223159D01*
X9417397Y74798440D01*
X11185163Y74798440D01*
X11760444Y74223159D01*
X11916259Y74397631D01*
X11923446Y74550714D01*
X24055851Y74550714D01*
X24086301Y74397631D01*
X24242116Y74223159D01*
X24817397Y74798440D01*
X26585163Y74798440D01*
X27160444Y74223159D01*
X27316259Y74397631D01*
X27346709Y75046166D01*
X27316259Y75199249D01*
X27160444Y75373721D01*
X26585163Y74798440D01*
X24817397Y74798440D01*
X24242116Y75373721D01*
X24086301Y75199249D01*
X24055851Y74550714D01*
X11923446Y74550714D01*
X11946709Y75046166D01*
X11916259Y75199249D01*
X11760444Y75373721D01*
X11185163Y74798440D01*
X9417397Y74798440D01*
X8842116Y75373721D01*
X8686301Y75199249D01*
X8655851Y74550714D01*
X8478280Y74550714D01*
X8478280Y75271255D01*
X8116403Y76144902D01*
X8003701Y76257604D01*
X9725999Y76257604D01*
X10301280Y75682323D01*
X10876561Y76257604D01*
X25125999Y76257604D01*
X25701280Y75682323D01*
X26276561Y76257604D01*
X26102089Y76413419D01*
X25453554Y76443869D01*
X25300471Y76413419D01*
X25125999Y76257604D01*
X10876561Y76257604D01*
X10702089Y76413419D01*
X10053554Y76443869D01*
X9900471Y76413419D01*
X9725999Y76257604D01*
X8003701Y76257604D01*
X7447742Y76813563D01*
X7242831Y76898440D01*
X7447742Y76983317D01*
X8003701Y77539276D01*
X9725999Y77539276D01*
X9900471Y77383461D01*
X10549006Y77353011D01*
X10702089Y77383461D01*
X10876561Y77539276D01*
X25125999Y77539276D01*
X25300471Y77383461D01*
X25949006Y77353011D01*
X26102089Y77383461D01*
X26276561Y77539276D01*
X25701280Y78114557D01*
X25125999Y77539276D01*
X10876561Y77539276D01*
X10301280Y78114557D01*
X9725999Y77539276D01*
X8003701Y77539276D01*
X8116403Y77651978D01*
X8478280Y78525625D01*
X8478280Y78750714D01*
X8655851Y78750714D01*
X8686301Y78597631D01*
X8842116Y78423159D01*
X9417397Y78998440D01*
X11185163Y78998440D01*
X11760444Y78423159D01*
X11916259Y78597631D01*
X11923446Y78750714D01*
X24055851Y78750714D01*
X24086301Y78597631D01*
X24242116Y78423159D01*
X24817397Y78998440D01*
X26585163Y78998440D01*
X27160444Y78423159D01*
X27316259Y78597631D01*
X27346709Y79246166D01*
X27316259Y79399249D01*
X27160444Y79573721D01*
X26585163Y78998440D01*
X24817397Y78998440D01*
X24242116Y79573721D01*
X24086301Y79399249D01*
X24055851Y78750714D01*
X11923446Y78750714D01*
X11946709Y79246166D01*
X11916259Y79399249D01*
X11760444Y79573721D01*
X11185163Y78998440D01*
X9417397Y78998440D01*
X8842116Y79573721D01*
X8686301Y79399249D01*
X8655851Y78750714D01*
X8478280Y78750714D01*
X8478280Y79471255D01*
X8116403Y80344902D01*
X8003701Y80457604D01*
X9725999Y80457604D01*
X10301280Y79882323D01*
X10876561Y80457604D01*
X25125999Y80457604D01*
X25701280Y79882323D01*
X26276561Y80457604D01*
X26102089Y80613419D01*
X25453554Y80643869D01*
X25300471Y80613419D01*
X25125999Y80457604D01*
X10876561Y80457604D01*
X10702089Y80613419D01*
X10053554Y80643869D01*
X9900471Y80613419D01*
X9725999Y80457604D01*
X8003701Y80457604D01*
X7489601Y80971704D01*
X7672583Y81047497D01*
X8552223Y81927137D01*
X9028280Y83076441D01*
X9028280Y84320439D01*
X26974280Y84320439D01*
X26974280Y83076441D01*
X27450337Y81927137D01*
X28329977Y81047497D01*
X28512959Y80971704D01*
X27886157Y80344902D01*
X27524280Y79471255D01*
X27524280Y78525625D01*
X27886157Y77651978D01*
X28554818Y76983317D01*
X28759729Y76898440D01*
X28554818Y76813563D01*
X27886157Y76144902D01*
X27524280Y75271255D01*
X27524280Y74325625D01*
X27886157Y73451978D01*
X28554818Y72783317D01*
X28759729Y72698440D01*
X28554818Y72613563D01*
X27886157Y71944902D01*
X27524280Y71071255D01*
X27524280Y70125625D01*
X27886157Y69251978D01*
X28554818Y68583317D01*
X28759729Y68498440D01*
X28554818Y68413563D01*
X27886157Y67744902D01*
X27524280Y66871255D01*
X27524280Y65925625D01*
X27886157Y65051978D01*
X28512959Y64425176D01*
X28329977Y64349383D01*
X27450337Y63469743D01*
X26974280Y62320439D01*
X26974280Y61076441D01*
X27450337Y59927137D01*
X28329977Y59047497D01*
X29479281Y58571440D01*
X30723279Y58571440D01*
X31872583Y59047497D01*
X32752223Y59927137D01*
X33228280Y61076441D01*
X33228280Y62320439D01*
X32752223Y63469743D01*
X31872583Y64349383D01*
X31406759Y64542334D01*
X31916403Y65051978D01*
X32278280Y65925625D01*
X32278280Y66871255D01*
X31916403Y67744902D01*
X31247742Y68413563D01*
X31042831Y68498440D01*
X31247742Y68583317D01*
X31916403Y69251978D01*
X32278280Y70125625D01*
X32278280Y71071255D01*
X31916403Y71944902D01*
X31247742Y72613563D01*
X31042831Y72698440D01*
X31247742Y72783317D01*
X31916403Y73451978D01*
X32278280Y74325625D01*
X32278280Y75271255D01*
X31916403Y76144902D01*
X31247742Y76813563D01*
X31042831Y76898440D01*
X31247742Y76983317D01*
X31916403Y77651978D01*
X32278280Y78525625D01*
X32278280Y79471255D01*
X31916403Y80344902D01*
X31406759Y80854546D01*
X31872583Y81047497D01*
X32752223Y81927137D01*
X32939158Y82378440D01*
X38914280Y82378440D01*
X38914280Y75108440D01*
X38923947Y75059839D01*
X38951477Y75018637D01*
X38992679Y74991107D01*
X39034280Y74982832D01*
X39034280Y268440D01*
X39044281Y219042D01*
X39072090Y178029D01*
X41292090Y-2011971D01*
X41332679Y-2038893D01*
X41381280Y-2048560D01*
X68881280Y-2048560D01*
X68929613Y-2039003D01*
X68970878Y-2011567D01*
X71170878Y178433D01*
X71198613Y219839D01*
X71208280Y268440D01*
X71208280Y550286D01*
X137115102Y550286D01*
X137115102Y-553406D01*
X137311859Y-923214D01*
X138233513Y-1560D01*
X141769047Y-1560D01*
X142690701Y-923214D01*
X142887458Y-553406D01*
X142887458Y550286D01*
X142690701Y920094D01*
X141769047Y-1560D01*
X138233513Y-1560D01*
X137311859Y920094D01*
X137115102Y550286D01*
X71208280Y550286D01*
X71208280Y2687861D01*
X139079626Y2687861D01*
X140001280Y1766207D01*
X140922934Y2687861D01*
X140553126Y2884618D01*
X139449434Y2884618D01*
X139079626Y2687861D01*
X71208280Y2687861D01*
X71208280Y5647261D01*
X112703401Y5647261D01*
X113857205Y5293875D01*
X116145355Y5293875D01*
X117299159Y5647261D01*
X115001280Y7945139D01*
X112703401Y5647261D01*
X71208280Y5647261D01*
X71208280Y14392515D01*
X107046715Y14392515D01*
X107046715Y12104365D01*
X107400101Y10950561D01*
X109697979Y13248440D01*
X120304581Y13248440D01*
X122602459Y10950561D01*
X122955845Y12104365D01*
X122955845Y14392515D01*
X122602459Y15546319D01*
X120304581Y13248440D01*
X109697979Y13248440D01*
X107400101Y15546319D01*
X107046715Y14392515D01*
X71208280Y14392515D01*
X71208280Y20849619D01*
X112703401Y20849619D01*
X115001280Y18551741D01*
X117299159Y20849619D01*
X116145355Y21203005D01*
X113857205Y21203005D01*
X112703401Y20849619D01*
X71208280Y20849619D01*
X71208280Y28147261D01*
X112703401Y28147261D01*
X113857205Y27793875D01*
X116145355Y27793875D01*
X117299159Y28147261D01*
X115001280Y30445139D01*
X112703401Y28147261D01*
X71208280Y28147261D01*
X71208280Y36892515D01*
X107046715Y36892515D01*
X107046715Y34604365D01*
X107400101Y33450561D01*
X109697979Y35748440D01*
X120304581Y35748440D01*
X122602459Y33450561D01*
X122955845Y34604365D01*
X122955845Y36892515D01*
X122602459Y38046319D01*
X120304581Y35748440D01*
X109697979Y35748440D01*
X107400101Y38046319D01*
X107046715Y36892515D01*
X71208280Y36892515D01*
X71208280Y43349619D01*
X112703401Y43349619D01*
X115001280Y41051741D01*
X117299159Y43349619D01*
X116145355Y43703005D01*
X113857205Y43703005D01*
X112703401Y43349619D01*
X71208280Y43349619D01*
X71208280Y50647261D01*
X112703401Y50647261D01*
X113857205Y50293875D01*
X116145355Y50293875D01*
X117299159Y50647261D01*
X115001280Y52945139D01*
X112703401Y50647261D01*
X71208280Y50647261D01*
X71208280Y59392515D01*
X107046715Y59392515D01*
X107046715Y57104365D01*
X107400101Y55950561D01*
X109697979Y58248440D01*
X120304581Y58248440D01*
X122602459Y55950561D01*
X122955845Y57104365D01*
X122955845Y59392515D01*
X122602459Y60546319D01*
X120304581Y58248440D01*
X109697979Y58248440D01*
X107400101Y60546319D01*
X107046715Y59392515D01*
X71208280Y59392515D01*
X71208280Y65849619D01*
X112703401Y65849619D01*
X115001280Y63551741D01*
X117299159Y65849619D01*
X116145355Y66203005D01*
X113857205Y66203005D01*
X112703401Y65849619D01*
X71208280Y65849619D01*
X71208280Y73147261D01*
X112703401Y73147261D01*
X113857205Y72793875D01*
X116145355Y72793875D01*
X117299159Y73147261D01*
X115001280Y75445139D01*
X112703401Y73147261D01*
X71208280Y73147261D01*
X71208280Y81892515D01*
X107046715Y81892515D01*
X107046715Y79604365D01*
X107400101Y78450561D01*
X109697979Y80748440D01*
X120304581Y80748440D01*
X122602459Y78450561D01*
X122955845Y79604365D01*
X122955845Y81892515D01*
X122602459Y83046319D01*
X120304581Y80748440D01*
X109697979Y80748440D01*
X107400101Y83046319D01*
X107046715Y81892515D01*
X71208280Y81892515D01*
X71208280Y82408440D01*
X71199266Y82455434D01*
X71172301Y82497007D01*
X65477442Y88349619D01*
X112703401Y88349619D01*
X115001280Y86051741D01*
X116258558Y87309019D01*
X139079626Y87309019D01*
X139449434Y87112262D01*
X140553126Y87112262D01*
X140922934Y87309019D01*
X140001280Y88230673D01*
X139079626Y87309019D01*
X116258558Y87309019D01*
X117299159Y88349619D01*
X116145355Y88703005D01*
X113857205Y88703005D01*
X112703401Y88349619D01*
X65477442Y88349619D01*
X63952301Y89917007D01*
X63909613Y89945883D01*
X63860991Y89955440D01*
X46310991Y89915440D01*
X46261417Y89905242D01*
X46220514Y89877269D01*
X39801018Y83317784D01*
X38951477Y82468243D01*
X38923947Y82427041D01*
X38914280Y82378440D01*
X32939158Y82378440D01*
X33228280Y83076441D01*
X33228280Y84320439D01*
X32752223Y85469743D01*
X31872583Y86349383D01*
X30723279Y86825440D01*
X29479281Y86825440D01*
X28329977Y86349383D01*
X27450337Y85469743D01*
X26974280Y84320439D01*
X9028280Y84320439D01*
X8552223Y85469743D01*
X7672583Y86349383D01*
X6523279Y86825440D01*
X5279281Y86825440D01*
X4129977Y86349383D01*
X3250337Y85469743D01*
X2774280Y84320439D01*
X-3796720Y84320439D01*
X-3796720Y87309019D01*
X-920374Y87309019D01*
X-550566Y87112262D01*
X553126Y87112262D01*
X922934Y87309019D01*
X1280Y88230673D01*
X-920374Y87309019D01*
X-3796720Y87309019D01*
X-3796720Y90550286D01*
X-2884898Y90550286D01*
X-2884898Y89446594D01*
X-2688141Y89076786D01*
X-1766487Y89998440D01*
X1769047Y89998440D01*
X2690701Y89076786D01*
X2887458Y89446594D01*
X2887458Y90550286D01*
X137115102Y90550286D01*
X137115102Y89446594D01*
X137311859Y89076786D01*
X138233513Y89998440D01*
X141769047Y89998440D01*
X142690701Y89076786D01*
X142887458Y89446594D01*
X142887458Y90550286D01*
X142690701Y90920094D01*
X141769047Y89998440D01*
X138233513Y89998440D01*
X137311859Y90920094D01*
X137115102Y90550286D01*
X2887458Y90550286D01*
X2690701Y90920094D01*
X1769047Y89998440D01*
X-1766487Y89998440D01*
X-2688141Y90920094D01*
X-2884898Y90550286D01*
X-3796720Y90550286D01*
X-3796720Y92500556D01*
X-3609415Y92687861D01*
X-920374Y92687861D01*
X1280Y91766207D01*
X922934Y92687861D01*
X139079626Y92687861D01*
X140001280Y91766207D01*
X140922934Y92687861D01*
X140553126Y92884618D01*
X139449434Y92884618D01*
X139079626Y92687861D01*
X922934Y92687861D01*
X553126Y92884618D01*
X-550566Y92884618D01*
X-920374Y92687861D01*
X-3609415Y92687861D01*
X-2500835Y93796440D01*
X142503396Y93796440D01*
X143799280Y92500555D01*
X143799280Y92500555D01*
G37*
X143799280Y92500555D02*
X143799281Y-2503674D01*
X142503396Y-3799560D01*
X-2500835Y-3799560D01*
X-3609414Y-2690981D01*
X-920374Y-2690981D01*
X-550566Y-2887738D01*
X553126Y-2887738D01*
X922934Y-2690981D01*
X139079626Y-2690981D01*
X139449434Y-2887738D01*
X140553126Y-2887738D01*
X140922934Y-2690981D01*
X140001280Y-1769327D01*
X139079626Y-2690981D01*
X922934Y-2690981D01*
X1280Y-1769327D01*
X-920374Y-2690981D01*
X-3609414Y-2690981D01*
X-3796720Y-2503676D01*
X-3796720Y550286D01*
X-2884898Y550286D01*
X-2884898Y-553406D01*
X-2688141Y-923214D01*
X-1766487Y-1560D01*
X1769047Y-1560D01*
X2690701Y-923214D01*
X2887458Y-553406D01*
X2887458Y550286D01*
X2690701Y920094D01*
X1769047Y-1560D01*
X-1766487Y-1560D01*
X-2688141Y920094D01*
X-2884898Y550286D01*
X-3796720Y550286D01*
X-3796720Y2687861D01*
X-920374Y2687861D01*
X1280Y1766207D01*
X922934Y2687861D01*
X553126Y2884618D01*
X-550566Y2884618D01*
X-920374Y2687861D01*
X-3796720Y2687861D01*
X-3796720Y7487839D01*
X2774280Y7487839D01*
X2774280Y6243841D01*
X3250337Y5094537D01*
X4129977Y4214897D01*
X5279281Y3738840D01*
X6523279Y3738840D01*
X7672583Y4214897D01*
X8552223Y5094537D01*
X9028280Y6243841D01*
X9028280Y7487839D01*
X26974280Y7487839D01*
X26974280Y6243841D01*
X27450337Y5094537D01*
X28329977Y4214897D01*
X29479281Y3738840D01*
X30723279Y3738840D01*
X31872583Y4214897D01*
X32752223Y5094537D01*
X33228280Y6243841D01*
X33228280Y7487839D01*
X32752223Y8637143D01*
X31872583Y9516783D01*
X30723279Y9992840D01*
X30549094Y9992840D01*
X30676561Y10106676D01*
X30101280Y10681957D01*
X29525999Y10106676D01*
X29653466Y9992840D01*
X29479281Y9992840D01*
X28329977Y9516783D01*
X27450337Y8637143D01*
X26974280Y7487839D01*
X9028280Y7487839D01*
X8552223Y8637143D01*
X7672583Y9516783D01*
X6523279Y9992840D01*
X6349094Y9992840D01*
X6476561Y10106676D01*
X5901280Y10681957D01*
X5325999Y10106676D01*
X5453466Y9992840D01*
X5279281Y9992840D01*
X4129977Y9516783D01*
X3250337Y8637143D01*
X2774280Y7487839D01*
X-3796720Y7487839D01*
X-3796720Y11318114D01*
X4255851Y11318114D01*
X4286301Y11165031D01*
X4442116Y10990559D01*
X5017397Y11565840D01*
X6785163Y11565840D01*
X7360444Y10990559D01*
X7516259Y11165031D01*
X7546709Y11813566D01*
X7516259Y11966649D01*
X7360444Y12141121D01*
X6785163Y11565840D01*
X5017397Y11565840D01*
X4442116Y12141121D01*
X4286301Y11966649D01*
X4255851Y11318114D01*
X-3796720Y11318114D01*
X-3796720Y13025004D01*
X5325999Y13025004D01*
X5901280Y12449723D01*
X6476561Y13025004D01*
X6302089Y13180819D01*
X5653554Y13211269D01*
X5500471Y13180819D01*
X5325999Y13025004D01*
X-3796720Y13025004D01*
X-3796720Y14306676D01*
X5325999Y14306676D01*
X5500471Y14150861D01*
X6149006Y14120411D01*
X6302089Y14150861D01*
X6476561Y14306676D01*
X5901280Y14881957D01*
X5325999Y14306676D01*
X-3796720Y14306676D01*
X-3796720Y15518114D01*
X4255851Y15518114D01*
X4286301Y15365031D01*
X4442116Y15190559D01*
X5017397Y15765840D01*
X6785163Y15765840D01*
X7360444Y15190559D01*
X7516259Y15365031D01*
X7546709Y16013566D01*
X7516259Y16166649D01*
X7360444Y16341121D01*
X6785163Y15765840D01*
X5017397Y15765840D01*
X4442116Y16341121D01*
X4286301Y16166649D01*
X4255851Y15518114D01*
X-3796720Y15518114D01*
X-3796720Y17225004D01*
X5325999Y17225004D01*
X5901280Y16649723D01*
X6476561Y17225004D01*
X6302089Y17380819D01*
X5653554Y17411269D01*
X5500471Y17380819D01*
X5325999Y17225004D01*
X-3796720Y17225004D01*
X-3796720Y18506676D01*
X5325999Y18506676D01*
X5500471Y18350861D01*
X6149006Y18320411D01*
X6302089Y18350861D01*
X6476561Y18506676D01*
X5901280Y19081957D01*
X5325999Y18506676D01*
X-3796720Y18506676D01*
X-3796720Y19718114D01*
X4255851Y19718114D01*
X4286301Y19565031D01*
X4442116Y19390559D01*
X5017397Y19965840D01*
X6785163Y19965840D01*
X7360444Y19390559D01*
X7516259Y19565031D01*
X7546709Y20213566D01*
X7516259Y20366649D01*
X7451953Y20438655D01*
X7724280Y20438655D01*
X7724280Y19493025D01*
X8086157Y18619378D01*
X8754818Y17950717D01*
X8959729Y17865840D01*
X8754818Y17780963D01*
X8086157Y17112302D01*
X7724280Y16238655D01*
X7724280Y15293025D01*
X8086157Y14419378D01*
X8754818Y13750717D01*
X8959729Y13665840D01*
X8754818Y13580963D01*
X8086157Y12912302D01*
X7724280Y12038655D01*
X7724280Y11093025D01*
X8086157Y10219378D01*
X8754818Y9550717D01*
X9628465Y9188840D01*
X10574095Y9188840D01*
X11447742Y9550717D01*
X12116403Y10219378D01*
X12478280Y11093025D01*
X12478280Y12038655D01*
X12116403Y12912302D01*
X11447742Y13580963D01*
X11242831Y13665840D01*
X11447742Y13750717D01*
X12116403Y14419378D01*
X12478280Y15293025D01*
X12478280Y16238655D01*
X12116403Y17112302D01*
X11447742Y17780963D01*
X11242831Y17865840D01*
X11447742Y17950717D01*
X12116403Y18619378D01*
X12478280Y19493025D01*
X12478280Y20438655D01*
X23524280Y20438655D01*
X23524280Y19493025D01*
X23886157Y18619378D01*
X24554818Y17950717D01*
X24759729Y17865840D01*
X24554818Y17780963D01*
X23886157Y17112302D01*
X23524280Y16238655D01*
X23524280Y15293025D01*
X23886157Y14419378D01*
X24554818Y13750717D01*
X24759729Y13665840D01*
X24554818Y13580963D01*
X23886157Y12912302D01*
X23524280Y12038655D01*
X23524280Y11093025D01*
X23886157Y10219378D01*
X24554818Y9550717D01*
X25428465Y9188840D01*
X26374095Y9188840D01*
X27247742Y9550717D01*
X27916403Y10219378D01*
X28278280Y11093025D01*
X28278280Y11318114D01*
X28455851Y11318114D01*
X28486301Y11165031D01*
X28642116Y10990559D01*
X29217397Y11565840D01*
X30985163Y11565840D01*
X31560444Y10990559D01*
X31716259Y11165031D01*
X31746709Y11813566D01*
X31716259Y11966649D01*
X31560444Y12141121D01*
X30985163Y11565840D01*
X29217397Y11565840D01*
X28642116Y12141121D01*
X28486301Y11966649D01*
X28455851Y11318114D01*
X28278280Y11318114D01*
X28278280Y12038655D01*
X27916403Y12912302D01*
X27803701Y13025004D01*
X29525999Y13025004D01*
X30101280Y12449723D01*
X30676561Y13025004D01*
X30502089Y13180819D01*
X29853554Y13211269D01*
X29700471Y13180819D01*
X29525999Y13025004D01*
X27803701Y13025004D01*
X27247742Y13580963D01*
X27042831Y13665840D01*
X27247742Y13750717D01*
X27803701Y14306676D01*
X29525999Y14306676D01*
X29700471Y14150861D01*
X30349006Y14120411D01*
X30502089Y14150861D01*
X30676561Y14306676D01*
X30101280Y14881957D01*
X29525999Y14306676D01*
X27803701Y14306676D01*
X27916403Y14419378D01*
X28278280Y15293025D01*
X28278280Y15518114D01*
X28455851Y15518114D01*
X28486301Y15365031D01*
X28642116Y15190559D01*
X29217397Y15765840D01*
X30985163Y15765840D01*
X31560444Y15190559D01*
X31716259Y15365031D01*
X31746709Y16013566D01*
X31716259Y16166649D01*
X31560444Y16341121D01*
X30985163Y15765840D01*
X29217397Y15765840D01*
X28642116Y16341121D01*
X28486301Y16166649D01*
X28455851Y15518114D01*
X28278280Y15518114D01*
X28278280Y16238655D01*
X27916403Y17112302D01*
X27803701Y17225004D01*
X29525999Y17225004D01*
X30101280Y16649723D01*
X30676561Y17225004D01*
X30502089Y17380819D01*
X29853554Y17411269D01*
X29700471Y17380819D01*
X29525999Y17225004D01*
X27803701Y17225004D01*
X27247742Y17780963D01*
X27042831Y17865840D01*
X27247742Y17950717D01*
X27803701Y18506676D01*
X29525999Y18506676D01*
X29700471Y18350861D01*
X30349006Y18320411D01*
X30502089Y18350861D01*
X30676561Y18506676D01*
X30101280Y19081957D01*
X29525999Y18506676D01*
X27803701Y18506676D01*
X27916403Y18619378D01*
X28278280Y19493025D01*
X28278280Y19718114D01*
X28455851Y19718114D01*
X28486301Y19565031D01*
X28642116Y19390559D01*
X29217397Y19965840D01*
X30985163Y19965840D01*
X31560444Y19390559D01*
X31716259Y19565031D01*
X31746709Y20213566D01*
X31716259Y20366649D01*
X31560444Y20541121D01*
X30985163Y19965840D01*
X29217397Y19965840D01*
X28642116Y20541121D01*
X28486301Y20366649D01*
X28455851Y19718114D01*
X28278280Y19718114D01*
X28278280Y20438655D01*
X27916403Y21312302D01*
X27247742Y21980963D01*
X26374095Y22342840D01*
X25428465Y22342840D01*
X24554818Y21980963D01*
X23886157Y21312302D01*
X23524280Y20438655D01*
X12478280Y20438655D01*
X12116403Y21312302D01*
X11447742Y21980963D01*
X10574095Y22342840D01*
X9628465Y22342840D01*
X8754818Y21980963D01*
X8086157Y21312302D01*
X7724280Y20438655D01*
X7451953Y20438655D01*
X7360444Y20541121D01*
X6785163Y19965840D01*
X5017397Y19965840D01*
X4442116Y20541121D01*
X4286301Y20366649D01*
X4255851Y19718114D01*
X-3796720Y19718114D01*
X-3796720Y25287839D01*
X2774280Y25287839D01*
X2774280Y24043841D01*
X3250337Y22894537D01*
X4129977Y22014897D01*
X5279281Y21538840D01*
X5453466Y21538840D01*
X5325999Y21425004D01*
X5901280Y20849723D01*
X6476561Y21425004D01*
X6349094Y21538840D01*
X6523279Y21538840D01*
X7672583Y22014897D01*
X8552223Y22894537D01*
X9028280Y24043841D01*
X9028280Y25287839D01*
X26974280Y25287839D01*
X26974280Y24043841D01*
X27450337Y22894537D01*
X28329977Y22014897D01*
X29479281Y21538840D01*
X29653466Y21538840D01*
X29525999Y21425004D01*
X30101280Y20849723D01*
X30676561Y21425004D01*
X30549094Y21538840D01*
X30723279Y21538840D01*
X31872583Y22014897D01*
X32752223Y22894537D01*
X33228280Y24043841D01*
X33228280Y25287839D01*
X32752223Y26437143D01*
X31872583Y27316783D01*
X30723279Y27792840D01*
X29479281Y27792840D01*
X28329977Y27316783D01*
X27450337Y26437143D01*
X26974280Y25287839D01*
X9028280Y25287839D01*
X8552223Y26437143D01*
X7672583Y27316783D01*
X6523279Y27792840D01*
X5279281Y27792840D01*
X4129977Y27316783D01*
X3250337Y26437143D01*
X2774280Y25287839D01*
X-3796720Y25287839D01*
X-3796720Y36320439D01*
X2774280Y36320439D01*
X2774280Y35076441D01*
X3250337Y33927137D01*
X4129977Y33047497D01*
X5279281Y32571440D01*
X6523279Y32571440D01*
X7672583Y33047497D01*
X8552223Y33927137D01*
X9028280Y35076441D01*
X9028280Y36320439D01*
X26974280Y36320439D01*
X26974280Y35076441D01*
X27450337Y33927137D01*
X28329977Y33047497D01*
X29479281Y32571440D01*
X30723279Y32571440D01*
X31872583Y33047497D01*
X32752223Y33927137D01*
X33228280Y35076441D01*
X33228280Y36320439D01*
X32752223Y37469743D01*
X31872583Y38349383D01*
X30723279Y38825440D01*
X30549094Y38825440D01*
X30676561Y38939276D01*
X30101280Y39514557D01*
X29525999Y38939276D01*
X29653466Y38825440D01*
X29479281Y38825440D01*
X28329977Y38349383D01*
X27450337Y37469743D01*
X26974280Y36320439D01*
X9028280Y36320439D01*
X8552223Y37469743D01*
X7672583Y38349383D01*
X6523279Y38825440D01*
X6349094Y38825440D01*
X6476561Y38939276D01*
X5901280Y39514557D01*
X5325999Y38939276D01*
X5453466Y38825440D01*
X5279281Y38825440D01*
X4129977Y38349383D01*
X3250337Y37469743D01*
X2774280Y36320439D01*
X-3796720Y36320439D01*
X-3796720Y40150714D01*
X4255851Y40150714D01*
X4286301Y39997631D01*
X4442116Y39823159D01*
X5017397Y40398440D01*
X6785163Y40398440D01*
X7360444Y39823159D01*
X7516259Y39997631D01*
X7546709Y40646166D01*
X7516259Y40799249D01*
X7360444Y40973721D01*
X6785163Y40398440D01*
X5017397Y40398440D01*
X4442116Y40973721D01*
X4286301Y40799249D01*
X4255851Y40150714D01*
X-3796720Y40150714D01*
X-3796720Y41857604D01*
X5325999Y41857604D01*
X5901280Y41282323D01*
X6476561Y41857604D01*
X6302089Y42013419D01*
X5653554Y42043869D01*
X5500471Y42013419D01*
X5325999Y41857604D01*
X-3796720Y41857604D01*
X-3796720Y43139276D01*
X5325999Y43139276D01*
X5500471Y42983461D01*
X6149006Y42953011D01*
X6302089Y42983461D01*
X6476561Y43139276D01*
X5901280Y43714557D01*
X5325999Y43139276D01*
X-3796720Y43139276D01*
X-3796720Y44350714D01*
X4255851Y44350714D01*
X4286301Y44197631D01*
X4442116Y44023159D01*
X5017397Y44598440D01*
X6785163Y44598440D01*
X7360444Y44023159D01*
X7516259Y44197631D01*
X7546709Y44846166D01*
X7516259Y44999249D01*
X7360444Y45173721D01*
X6785163Y44598440D01*
X5017397Y44598440D01*
X4442116Y45173721D01*
X4286301Y44999249D01*
X4255851Y44350714D01*
X-3796720Y44350714D01*
X-3796720Y46057604D01*
X5325999Y46057604D01*
X5901280Y45482323D01*
X6476561Y46057604D01*
X6302089Y46213419D01*
X5653554Y46243869D01*
X5500471Y46213419D01*
X5325999Y46057604D01*
X-3796720Y46057604D01*
X-3796720Y47339276D01*
X5325999Y47339276D01*
X5500471Y47183461D01*
X6149006Y47153011D01*
X6302089Y47183461D01*
X6476561Y47339276D01*
X5901280Y47914557D01*
X5325999Y47339276D01*
X-3796720Y47339276D01*
X-3796720Y48550714D01*
X4255851Y48550714D01*
X4286301Y48397631D01*
X4442116Y48223159D01*
X5017397Y48798440D01*
X6785163Y48798440D01*
X7360444Y48223159D01*
X7516259Y48397631D01*
X7546709Y49046166D01*
X7516259Y49199249D01*
X7451953Y49271255D01*
X7724280Y49271255D01*
X7724280Y48325625D01*
X8086157Y47451978D01*
X8754818Y46783317D01*
X8959729Y46698440D01*
X8754818Y46613563D01*
X8086157Y45944902D01*
X7724280Y45071255D01*
X7724280Y44125625D01*
X8086157Y43251978D01*
X8754818Y42583317D01*
X8959729Y42498440D01*
X8754818Y42413563D01*
X8086157Y41744902D01*
X7724280Y40871255D01*
X7724280Y39925625D01*
X8086157Y39051978D01*
X8754818Y38383317D01*
X9628465Y38021440D01*
X10574095Y38021440D01*
X11447742Y38383317D01*
X12116403Y39051978D01*
X12478280Y39925625D01*
X12478280Y40871255D01*
X12116403Y41744902D01*
X11447742Y42413563D01*
X11242831Y42498440D01*
X11447742Y42583317D01*
X12116403Y43251978D01*
X12478280Y44125625D01*
X12478280Y45071255D01*
X12116403Y45944902D01*
X11447742Y46613563D01*
X11242831Y46698440D01*
X11447742Y46783317D01*
X12116403Y47451978D01*
X12478280Y48325625D01*
X12478280Y49271255D01*
X23524280Y49271255D01*
X23524280Y48325625D01*
X23886157Y47451978D01*
X24554818Y46783317D01*
X24759729Y46698440D01*
X24554818Y46613563D01*
X23886157Y45944902D01*
X23524280Y45071255D01*
X23524280Y44125625D01*
X23886157Y43251978D01*
X24554818Y42583317D01*
X24759729Y42498440D01*
X24554818Y42413563D01*
X23886157Y41744902D01*
X23524280Y40871255D01*
X23524280Y39925625D01*
X23886157Y39051978D01*
X24554818Y38383317D01*
X25428465Y38021440D01*
X26374095Y38021440D01*
X27247742Y38383317D01*
X27916403Y39051978D01*
X28278280Y39925625D01*
X28278280Y40150714D01*
X28455851Y40150714D01*
X28486301Y39997631D01*
X28642116Y39823159D01*
X29217397Y40398440D01*
X30985163Y40398440D01*
X31560444Y39823159D01*
X31716259Y39997631D01*
X31746709Y40646166D01*
X31716259Y40799249D01*
X31560444Y40973721D01*
X30985163Y40398440D01*
X29217397Y40398440D01*
X28642116Y40973721D01*
X28486301Y40799249D01*
X28455851Y40150714D01*
X28278280Y40150714D01*
X28278280Y40871255D01*
X27916403Y41744902D01*
X27803701Y41857604D01*
X29525999Y41857604D01*
X30101280Y41282323D01*
X30676561Y41857604D01*
X30502089Y42013419D01*
X29853554Y42043869D01*
X29700471Y42013419D01*
X29525999Y41857604D01*
X27803701Y41857604D01*
X27247742Y42413563D01*
X27042831Y42498440D01*
X27247742Y42583317D01*
X27803701Y43139276D01*
X29525999Y43139276D01*
X29700471Y42983461D01*
X30349006Y42953011D01*
X30502089Y42983461D01*
X30676561Y43139276D01*
X30101280Y43714557D01*
X29525999Y43139276D01*
X27803701Y43139276D01*
X27916403Y43251978D01*
X28278280Y44125625D01*
X28278280Y44350714D01*
X28455851Y44350714D01*
X28486301Y44197631D01*
X28642116Y44023159D01*
X29217397Y44598440D01*
X30985163Y44598440D01*
X31560444Y44023159D01*
X31716259Y44197631D01*
X31746709Y44846166D01*
X31716259Y44999249D01*
X31560444Y45173721D01*
X30985163Y44598440D01*
X29217397Y44598440D01*
X28642116Y45173721D01*
X28486301Y44999249D01*
X28455851Y44350714D01*
X28278280Y44350714D01*
X28278280Y45071255D01*
X27916403Y45944902D01*
X27803701Y46057604D01*
X29525999Y46057604D01*
X30101280Y45482323D01*
X30676561Y46057604D01*
X30502089Y46213419D01*
X29853554Y46243869D01*
X29700471Y46213419D01*
X29525999Y46057604D01*
X27803701Y46057604D01*
X27247742Y46613563D01*
X27042831Y46698440D01*
X27247742Y46783317D01*
X27803701Y47339276D01*
X29525999Y47339276D01*
X29700471Y47183461D01*
X30349006Y47153011D01*
X30502089Y47183461D01*
X30676561Y47339276D01*
X30101280Y47914557D01*
X29525999Y47339276D01*
X27803701Y47339276D01*
X27916403Y47451978D01*
X28278280Y48325625D01*
X28278280Y48550714D01*
X28455851Y48550714D01*
X28486301Y48397631D01*
X28642116Y48223159D01*
X29217397Y48798440D01*
X30985163Y48798440D01*
X31560444Y48223159D01*
X31716259Y48397631D01*
X31746709Y49046166D01*
X31716259Y49199249D01*
X31560444Y49373721D01*
X30985163Y48798440D01*
X29217397Y48798440D01*
X28642116Y49373721D01*
X28486301Y49199249D01*
X28455851Y48550714D01*
X28278280Y48550714D01*
X28278280Y49271255D01*
X27916403Y50144902D01*
X27247742Y50813563D01*
X26374095Y51175440D01*
X25428465Y51175440D01*
X24554818Y50813563D01*
X23886157Y50144902D01*
X23524280Y49271255D01*
X12478280Y49271255D01*
X12116403Y50144902D01*
X11447742Y50813563D01*
X10574095Y51175440D01*
X9628465Y51175440D01*
X8754818Y50813563D01*
X8086157Y50144902D01*
X7724280Y49271255D01*
X7451953Y49271255D01*
X7360444Y49373721D01*
X6785163Y48798440D01*
X5017397Y48798440D01*
X4442116Y49373721D01*
X4286301Y49199249D01*
X4255851Y48550714D01*
X-3796720Y48550714D01*
X-3796720Y54120439D01*
X2774280Y54120439D01*
X2774280Y52876441D01*
X3250337Y51727137D01*
X4129977Y50847497D01*
X5279281Y50371440D01*
X5453466Y50371440D01*
X5325999Y50257604D01*
X5901280Y49682323D01*
X6476561Y50257604D01*
X6349094Y50371440D01*
X6523279Y50371440D01*
X7672583Y50847497D01*
X8552223Y51727137D01*
X9028280Y52876441D01*
X9028280Y54120439D01*
X26974280Y54120439D01*
X26974280Y52876441D01*
X27450337Y51727137D01*
X28329977Y50847497D01*
X29479281Y50371440D01*
X29653466Y50371440D01*
X29525999Y50257604D01*
X30101280Y49682323D01*
X30676561Y50257604D01*
X30549094Y50371440D01*
X30723279Y50371440D01*
X31872583Y50847497D01*
X32752223Y51727137D01*
X33228280Y52876441D01*
X33228280Y54120439D01*
X32752223Y55269743D01*
X31872583Y56149383D01*
X30723279Y56625440D01*
X29479281Y56625440D01*
X28329977Y56149383D01*
X27450337Y55269743D01*
X26974280Y54120439D01*
X9028280Y54120439D01*
X8552223Y55269743D01*
X7672583Y56149383D01*
X6523279Y56625440D01*
X5279281Y56625440D01*
X4129977Y56149383D01*
X3250337Y55269743D01*
X2774280Y54120439D01*
X-3796720Y54120439D01*
X-3796720Y84320439D01*
X2774280Y84320439D01*
X2774280Y83076441D01*
X3250337Y81927137D01*
X4129977Y81047497D01*
X4595801Y80854546D01*
X4086157Y80344902D01*
X3724280Y79471255D01*
X3724280Y78525625D01*
X4086157Y77651978D01*
X4754818Y76983317D01*
X4959729Y76898440D01*
X4754818Y76813563D01*
X4086157Y76144902D01*
X3724280Y75271255D01*
X3724280Y74325625D01*
X4086157Y73451978D01*
X4754818Y72783317D01*
X4959729Y72698440D01*
X4754818Y72613563D01*
X4086157Y71944902D01*
X3724280Y71071255D01*
X3724280Y70125625D01*
X4086157Y69251978D01*
X4754818Y68583317D01*
X4959729Y68498440D01*
X4754818Y68413563D01*
X4086157Y67744902D01*
X3724280Y66871255D01*
X3724280Y65925625D01*
X4086157Y65051978D01*
X4595801Y64542334D01*
X4129977Y64349383D01*
X3250337Y63469743D01*
X2774280Y62320439D01*
X2774280Y61076441D01*
X3250337Y59927137D01*
X4129977Y59047497D01*
X5279281Y58571440D01*
X6523279Y58571440D01*
X7672583Y59047497D01*
X8552223Y59927137D01*
X9028280Y61076441D01*
X9028280Y62320439D01*
X8552223Y63469743D01*
X7672583Y64349383D01*
X7489601Y64425176D01*
X8003701Y64939276D01*
X9725999Y64939276D01*
X9900471Y64783461D01*
X10549006Y64753011D01*
X10702089Y64783461D01*
X10876561Y64939276D01*
X25125999Y64939276D01*
X25300471Y64783461D01*
X25949006Y64753011D01*
X26102089Y64783461D01*
X26276561Y64939276D01*
X25701280Y65514557D01*
X25125999Y64939276D01*
X10876561Y64939276D01*
X10301280Y65514557D01*
X9725999Y64939276D01*
X8003701Y64939276D01*
X8116403Y65051978D01*
X8478280Y65925625D01*
X8478280Y66150714D01*
X8655851Y66150714D01*
X8686301Y65997631D01*
X8842116Y65823159D01*
X9417397Y66398440D01*
X11185163Y66398440D01*
X11760444Y65823159D01*
X11916259Y65997631D01*
X11923446Y66150714D01*
X24055851Y66150714D01*
X24086301Y65997631D01*
X24242116Y65823159D01*
X24817397Y66398440D01*
X26585163Y66398440D01*
X27160444Y65823159D01*
X27316259Y65997631D01*
X27346709Y66646166D01*
X27316259Y66799249D01*
X27160444Y66973721D01*
X26585163Y66398440D01*
X24817397Y66398440D01*
X24242116Y66973721D01*
X24086301Y66799249D01*
X24055851Y66150714D01*
X11923446Y66150714D01*
X11946709Y66646166D01*
X11916259Y66799249D01*
X11760444Y66973721D01*
X11185163Y66398440D01*
X9417397Y66398440D01*
X8842116Y66973721D01*
X8686301Y66799249D01*
X8655851Y66150714D01*
X8478280Y66150714D01*
X8478280Y66871255D01*
X8116403Y67744902D01*
X8003701Y67857604D01*
X9725999Y67857604D01*
X10301280Y67282323D01*
X10876561Y67857604D01*
X25125999Y67857604D01*
X25701280Y67282323D01*
X26276561Y67857604D01*
X26102089Y68013419D01*
X25453554Y68043869D01*
X25300471Y68013419D01*
X25125999Y67857604D01*
X10876561Y67857604D01*
X10702089Y68013419D01*
X10053554Y68043869D01*
X9900471Y68013419D01*
X9725999Y67857604D01*
X8003701Y67857604D01*
X7447742Y68413563D01*
X7242831Y68498440D01*
X7447742Y68583317D01*
X8003701Y69139276D01*
X9725999Y69139276D01*
X9900471Y68983461D01*
X10549006Y68953011D01*
X10702089Y68983461D01*
X10876561Y69139276D01*
X25125999Y69139276D01*
X25300471Y68983461D01*
X25949006Y68953011D01*
X26102089Y68983461D01*
X26276561Y69139276D01*
X25701280Y69714557D01*
X25125999Y69139276D01*
X10876561Y69139276D01*
X10301280Y69714557D01*
X9725999Y69139276D01*
X8003701Y69139276D01*
X8116403Y69251978D01*
X8478280Y70125625D01*
X8478280Y70350714D01*
X8655851Y70350714D01*
X8686301Y70197631D01*
X8842116Y70023159D01*
X9417397Y70598440D01*
X11185163Y70598440D01*
X11760444Y70023159D01*
X11916259Y70197631D01*
X11923446Y70350714D01*
X24055851Y70350714D01*
X24086301Y70197631D01*
X24242116Y70023159D01*
X24817397Y70598440D01*
X26585163Y70598440D01*
X27160444Y70023159D01*
X27316259Y70197631D01*
X27346709Y70846166D01*
X27316259Y70999249D01*
X27160444Y71173721D01*
X26585163Y70598440D01*
X24817397Y70598440D01*
X24242116Y71173721D01*
X24086301Y70999249D01*
X24055851Y70350714D01*
X11923446Y70350714D01*
X11946709Y70846166D01*
X11916259Y70999249D01*
X11760444Y71173721D01*
X11185163Y70598440D01*
X9417397Y70598440D01*
X8842116Y71173721D01*
X8686301Y70999249D01*
X8655851Y70350714D01*
X8478280Y70350714D01*
X8478280Y71071255D01*
X8116403Y71944902D01*
X8003701Y72057604D01*
X9725999Y72057604D01*
X10301280Y71482323D01*
X10876561Y72057604D01*
X25125999Y72057604D01*
X25701280Y71482323D01*
X26276561Y72057604D01*
X26102089Y72213419D01*
X25453554Y72243869D01*
X25300471Y72213419D01*
X25125999Y72057604D01*
X10876561Y72057604D01*
X10702089Y72213419D01*
X10053554Y72243869D01*
X9900471Y72213419D01*
X9725999Y72057604D01*
X8003701Y72057604D01*
X7447742Y72613563D01*
X7242831Y72698440D01*
X7447742Y72783317D01*
X8003701Y73339276D01*
X9725999Y73339276D01*
X9900471Y73183461D01*
X10549006Y73153011D01*
X10702089Y73183461D01*
X10876561Y73339276D01*
X25125999Y73339276D01*
X25300471Y73183461D01*
X25949006Y73153011D01*
X26102089Y73183461D01*
X26276561Y73339276D01*
X25701280Y73914557D01*
X25125999Y73339276D01*
X10876561Y73339276D01*
X10301280Y73914557D01*
X9725999Y73339276D01*
X8003701Y73339276D01*
X8116403Y73451978D01*
X8478280Y74325625D01*
X8478280Y74550714D01*
X8655851Y74550714D01*
X8686301Y74397631D01*
X8842116Y74223159D01*
X9417397Y74798440D01*
X11185163Y74798440D01*
X11760444Y74223159D01*
X11916259Y74397631D01*
X11923446Y74550714D01*
X24055851Y74550714D01*
X24086301Y74397631D01*
X24242116Y74223159D01*
X24817397Y74798440D01*
X26585163Y74798440D01*
X27160444Y74223159D01*
X27316259Y74397631D01*
X27346709Y75046166D01*
X27316259Y75199249D01*
X27160444Y75373721D01*
X26585163Y74798440D01*
X24817397Y74798440D01*
X24242116Y75373721D01*
X24086301Y75199249D01*
X24055851Y74550714D01*
X11923446Y74550714D01*
X11946709Y75046166D01*
X11916259Y75199249D01*
X11760444Y75373721D01*
X11185163Y74798440D01*
X9417397Y74798440D01*
X8842116Y75373721D01*
X8686301Y75199249D01*
X8655851Y74550714D01*
X8478280Y74550714D01*
X8478280Y75271255D01*
X8116403Y76144902D01*
X8003701Y76257604D01*
X9725999Y76257604D01*
X10301280Y75682323D01*
X10876561Y76257604D01*
X25125999Y76257604D01*
X25701280Y75682323D01*
X26276561Y76257604D01*
X26102089Y76413419D01*
X25453554Y76443869D01*
X25300471Y76413419D01*
X25125999Y76257604D01*
X10876561Y76257604D01*
X10702089Y76413419D01*
X10053554Y76443869D01*
X9900471Y76413419D01*
X9725999Y76257604D01*
X8003701Y76257604D01*
X7447742Y76813563D01*
X7242831Y76898440D01*
X7447742Y76983317D01*
X8003701Y77539276D01*
X9725999Y77539276D01*
X9900471Y77383461D01*
X10549006Y77353011D01*
X10702089Y77383461D01*
X10876561Y77539276D01*
X25125999Y77539276D01*
X25300471Y77383461D01*
X25949006Y77353011D01*
X26102089Y77383461D01*
X26276561Y77539276D01*
X25701280Y78114557D01*
X25125999Y77539276D01*
X10876561Y77539276D01*
X10301280Y78114557D01*
X9725999Y77539276D01*
X8003701Y77539276D01*
X8116403Y77651978D01*
X8478280Y78525625D01*
X8478280Y78750714D01*
X8655851Y78750714D01*
X8686301Y78597631D01*
X8842116Y78423159D01*
X9417397Y78998440D01*
X11185163Y78998440D01*
X11760444Y78423159D01*
X11916259Y78597631D01*
X11923446Y78750714D01*
X24055851Y78750714D01*
X24086301Y78597631D01*
X24242116Y78423159D01*
X24817397Y78998440D01*
X26585163Y78998440D01*
X27160444Y78423159D01*
X27316259Y78597631D01*
X27346709Y79246166D01*
X27316259Y79399249D01*
X27160444Y79573721D01*
X26585163Y78998440D01*
X24817397Y78998440D01*
X24242116Y79573721D01*
X24086301Y79399249D01*
X24055851Y78750714D01*
X11923446Y78750714D01*
X11946709Y79246166D01*
X11916259Y79399249D01*
X11760444Y79573721D01*
X11185163Y78998440D01*
X9417397Y78998440D01*
X8842116Y79573721D01*
X8686301Y79399249D01*
X8655851Y78750714D01*
X8478280Y78750714D01*
X8478280Y79471255D01*
X8116403Y80344902D01*
X8003701Y80457604D01*
X9725999Y80457604D01*
X10301280Y79882323D01*
X10876561Y80457604D01*
X25125999Y80457604D01*
X25701280Y79882323D01*
X26276561Y80457604D01*
X26102089Y80613419D01*
X25453554Y80643869D01*
X25300471Y80613419D01*
X25125999Y80457604D01*
X10876561Y80457604D01*
X10702089Y80613419D01*
X10053554Y80643869D01*
X9900471Y80613419D01*
X9725999Y80457604D01*
X8003701Y80457604D01*
X7489601Y80971704D01*
X7672583Y81047497D01*
X8552223Y81927137D01*
X9028280Y83076441D01*
X9028280Y84320439D01*
X26974280Y84320439D01*
X26974280Y83076441D01*
X27450337Y81927137D01*
X28329977Y81047497D01*
X28512959Y80971704D01*
X27886157Y80344902D01*
X27524280Y79471255D01*
X27524280Y78525625D01*
X27886157Y77651978D01*
X28554818Y76983317D01*
X28759729Y76898440D01*
X28554818Y76813563D01*
X27886157Y76144902D01*
X27524280Y75271255D01*
X27524280Y74325625D01*
X27886157Y73451978D01*
X28554818Y72783317D01*
X28759729Y72698440D01*
X28554818Y72613563D01*
X27886157Y71944902D01*
X27524280Y71071255D01*
X27524280Y70125625D01*
X27886157Y69251978D01*
X28554818Y68583317D01*
X28759729Y68498440D01*
X28554818Y68413563D01*
X27886157Y67744902D01*
X27524280Y66871255D01*
X27524280Y65925625D01*
X27886157Y65051978D01*
X28512959Y64425176D01*
X28329977Y64349383D01*
X27450337Y63469743D01*
X26974280Y62320439D01*
X26974280Y61076441D01*
X27450337Y59927137D01*
X28329977Y59047497D01*
X29479281Y58571440D01*
X30723279Y58571440D01*
X31872583Y59047497D01*
X32752223Y59927137D01*
X33228280Y61076441D01*
X33228280Y62320439D01*
X32752223Y63469743D01*
X31872583Y64349383D01*
X31406759Y64542334D01*
X31916403Y65051978D01*
X32278280Y65925625D01*
X32278280Y66871255D01*
X31916403Y67744902D01*
X31247742Y68413563D01*
X31042831Y68498440D01*
X31247742Y68583317D01*
X31916403Y69251978D01*
X32278280Y70125625D01*
X32278280Y71071255D01*
X31916403Y71944902D01*
X31247742Y72613563D01*
X31042831Y72698440D01*
X31247742Y72783317D01*
X31916403Y73451978D01*
X32278280Y74325625D01*
X32278280Y75271255D01*
X31916403Y76144902D01*
X31247742Y76813563D01*
X31042831Y76898440D01*
X31247742Y76983317D01*
X31916403Y77651978D01*
X32278280Y78525625D01*
X32278280Y79471255D01*
X31916403Y80344902D01*
X31406759Y80854546D01*
X31872583Y81047497D01*
X32752223Y81927137D01*
X32939158Y82378440D01*
X38914280Y82378440D01*
X38914280Y75108440D01*
X38923947Y75059839D01*
X38951477Y75018637D01*
X38992679Y74991107D01*
X39034280Y74982832D01*
X39034280Y268440D01*
X39044281Y219042D01*
X39072090Y178029D01*
X41292090Y-2011971D01*
X41332679Y-2038893D01*
X41381280Y-2048560D01*
X68881280Y-2048560D01*
X68929613Y-2039003D01*
X68970878Y-2011567D01*
X71170878Y178433D01*
X71198613Y219839D01*
X71208280Y268440D01*
X71208280Y550286D01*
X137115102Y550286D01*
X137115102Y-553406D01*
X137311859Y-923214D01*
X138233513Y-1560D01*
X141769047Y-1560D01*
X142690701Y-923214D01*
X142887458Y-553406D01*
X142887458Y550286D01*
X142690701Y920094D01*
X141769047Y-1560D01*
X138233513Y-1560D01*
X137311859Y920094D01*
X137115102Y550286D01*
X71208280Y550286D01*
X71208280Y2687861D01*
X139079626Y2687861D01*
X140001280Y1766207D01*
X140922934Y2687861D01*
X140553126Y2884618D01*
X139449434Y2884618D01*
X139079626Y2687861D01*
X71208280Y2687861D01*
X71208280Y5647261D01*
X112703401Y5647261D01*
X113857205Y5293875D01*
X116145355Y5293875D01*
X117299159Y5647261D01*
X115001280Y7945139D01*
X112703401Y5647261D01*
X71208280Y5647261D01*
X71208280Y14392515D01*
X107046715Y14392515D01*
X107046715Y12104365D01*
X107400101Y10950561D01*
X109697979Y13248440D01*
X120304581Y13248440D01*
X122602459Y10950561D01*
X122955845Y12104365D01*
X122955845Y14392515D01*
X122602459Y15546319D01*
X120304581Y13248440D01*
X109697979Y13248440D01*
X107400101Y15546319D01*
X107046715Y14392515D01*
X71208280Y14392515D01*
X71208280Y20849619D01*
X112703401Y20849619D01*
X115001280Y18551741D01*
X117299159Y20849619D01*
X116145355Y21203005D01*
X113857205Y21203005D01*
X112703401Y20849619D01*
X71208280Y20849619D01*
X71208280Y28147261D01*
X112703401Y28147261D01*
X113857205Y27793875D01*
X116145355Y27793875D01*
X117299159Y28147261D01*
X115001280Y30445139D01*
X112703401Y28147261D01*
X71208280Y28147261D01*
X71208280Y36892515D01*
X107046715Y36892515D01*
X107046715Y34604365D01*
X107400101Y33450561D01*
X109697979Y35748440D01*
X120304581Y35748440D01*
X122602459Y33450561D01*
X122955845Y34604365D01*
X122955845Y36892515D01*
X122602459Y38046319D01*
X120304581Y35748440D01*
X109697979Y35748440D01*
X107400101Y38046319D01*
X107046715Y36892515D01*
X71208280Y36892515D01*
X71208280Y43349619D01*
X112703401Y43349619D01*
X115001280Y41051741D01*
X117299159Y43349619D01*
X116145355Y43703005D01*
X113857205Y43703005D01*
X112703401Y43349619D01*
X71208280Y43349619D01*
X71208280Y50647261D01*
X112703401Y50647261D01*
X113857205Y50293875D01*
X116145355Y50293875D01*
X117299159Y50647261D01*
X115001280Y52945139D01*
X112703401Y50647261D01*
X71208280Y50647261D01*
X71208280Y59392515D01*
X107046715Y59392515D01*
X107046715Y57104365D01*
X107400101Y55950561D01*
X109697979Y58248440D01*
X120304581Y58248440D01*
X122602459Y55950561D01*
X122955845Y57104365D01*
X122955845Y59392515D01*
X122602459Y60546319D01*
X120304581Y58248440D01*
X109697979Y58248440D01*
X107400101Y60546319D01*
X107046715Y59392515D01*
X71208280Y59392515D01*
X71208280Y65849619D01*
X112703401Y65849619D01*
X115001280Y63551741D01*
X117299159Y65849619D01*
X116145355Y66203005D01*
X113857205Y66203005D01*
X112703401Y65849619D01*
X71208280Y65849619D01*
X71208280Y73147261D01*
X112703401Y73147261D01*
X113857205Y72793875D01*
X116145355Y72793875D01*
X117299159Y73147261D01*
X115001280Y75445139D01*
X112703401Y73147261D01*
X71208280Y73147261D01*
X71208280Y81892515D01*
X107046715Y81892515D01*
X107046715Y79604365D01*
X107400101Y78450561D01*
X109697979Y80748440D01*
X120304581Y80748440D01*
X122602459Y78450561D01*
X122955845Y79604365D01*
X122955845Y81892515D01*
X122602459Y83046319D01*
X120304581Y80748440D01*
X109697979Y80748440D01*
X107400101Y83046319D01*
X107046715Y81892515D01*
X71208280Y81892515D01*
X71208280Y82408440D01*
X71199266Y82455434D01*
X71172301Y82497007D01*
X65477442Y88349619D01*
X112703401Y88349619D01*
X115001280Y86051741D01*
X116258558Y87309019D01*
X139079626Y87309019D01*
X139449434Y87112262D01*
X140553126Y87112262D01*
X140922934Y87309019D01*
X140001280Y88230673D01*
X139079626Y87309019D01*
X116258558Y87309019D01*
X117299159Y88349619D01*
X116145355Y88703005D01*
X113857205Y88703005D01*
X112703401Y88349619D01*
X65477442Y88349619D01*
X63952301Y89917007D01*
X63909613Y89945883D01*
X63860991Y89955440D01*
X46310991Y89915440D01*
X46261417Y89905242D01*
X46220514Y89877269D01*
X39801018Y83317784D01*
X38951477Y82468243D01*
X38923947Y82427041D01*
X38914280Y82378440D01*
X32939158Y82378440D01*
X33228280Y83076441D01*
X33228280Y84320439D01*
X32752223Y85469743D01*
X31872583Y86349383D01*
X30723279Y86825440D01*
X29479281Y86825440D01*
X28329977Y86349383D01*
X27450337Y85469743D01*
X26974280Y84320439D01*
X9028280Y84320439D01*
X8552223Y85469743D01*
X7672583Y86349383D01*
X6523279Y86825440D01*
X5279281Y86825440D01*
X4129977Y86349383D01*
X3250337Y85469743D01*
X2774280Y84320439D01*
X-3796720Y84320439D01*
X-3796720Y87309019D01*
X-920374Y87309019D01*
X-550566Y87112262D01*
X553126Y87112262D01*
X922934Y87309019D01*
X1280Y88230673D01*
X-920374Y87309019D01*
X-3796720Y87309019D01*
X-3796720Y90550286D01*
X-2884898Y90550286D01*
X-2884898Y89446594D01*
X-2688141Y89076786D01*
X-1766487Y89998440D01*
X1769047Y89998440D01*
X2690701Y89076786D01*
X2887458Y89446594D01*
X2887458Y90550286D01*
X137115102Y90550286D01*
X137115102Y89446594D01*
X137311859Y89076786D01*
X138233513Y89998440D01*
X141769047Y89998440D01*
X142690701Y89076786D01*
X142887458Y89446594D01*
X142887458Y90550286D01*
X142690701Y90920094D01*
X141769047Y89998440D01*
X138233513Y89998440D01*
X137311859Y90920094D01*
X137115102Y90550286D01*
X2887458Y90550286D01*
X2690701Y90920094D01*
X1769047Y89998440D01*
X-1766487Y89998440D01*
X-2688141Y90920094D01*
X-2884898Y90550286D01*
X-3796720Y90550286D01*
X-3796720Y92500556D01*
X-3609415Y92687861D01*
X-920374Y92687861D01*
X1280Y91766207D01*
X922934Y92687861D01*
X139079626Y92687861D01*
X140001280Y91766207D01*
X140922934Y92687861D01*
X140553126Y92884618D01*
X139449434Y92884618D01*
X139079626Y92687861D01*
X922934Y92687861D01*
X553126Y92884618D01*
X-550566Y92884618D01*
X-920374Y92687861D01*
X-3609415Y92687861D01*
X-2500835Y93796440D01*
X142503396Y93796440D01*
X143799280Y92500555D01*
D15*
G36*
X71019280Y82383254D02*
X71019280Y294204D01*
X68855681Y-1859560D01*
X41406714Y-1859560D01*
X39223280Y294368D01*
X39223280Y12599352D01*
X44439280Y12599352D01*
X44439280Y8397528D01*
X46047249Y4515547D01*
X49018387Y1544409D01*
X52900368Y-63560D01*
X57102192Y-63560D01*
X60984173Y1544409D01*
X63955311Y4515547D01*
X65563280Y8397528D01*
X65563280Y12599352D01*
X63955311Y16481333D01*
X60984173Y19452471D01*
X57102192Y21060440D01*
X52900368Y21060440D01*
X49018387Y19452471D01*
X46047249Y16481333D01*
X44439280Y12599352D01*
X39223280Y12599352D01*
X39223280Y35099352D01*
X44439280Y35099352D01*
X44439280Y30897528D01*
X46047249Y27015547D01*
X49018387Y24044409D01*
X52900368Y22436440D01*
X57102192Y22436440D01*
X60984173Y24044409D01*
X63955311Y27015547D01*
X65563280Y30897528D01*
X65563280Y35099352D01*
X63955311Y38981333D01*
X60984173Y41952471D01*
X57102192Y43560440D01*
X52900368Y43560440D01*
X49018387Y41952471D01*
X46047249Y38981333D01*
X44439280Y35099352D01*
X39223280Y35099352D01*
X39223280Y57599352D01*
X44439280Y57599352D01*
X44439280Y53397528D01*
X46047249Y49515547D01*
X49018387Y46544409D01*
X52900368Y44936440D01*
X57102192Y44936440D01*
X60984173Y46544409D01*
X63955311Y49515547D01*
X65563280Y53397528D01*
X65563280Y57599352D01*
X63955311Y61481333D01*
X60984173Y64452471D01*
X57102192Y66060440D01*
X52900368Y66060440D01*
X49018387Y64452471D01*
X46047249Y61481333D01*
X44439280Y57599352D01*
X39223280Y57599352D01*
X39223280Y75118440D01*
X39218561Y75142166D01*
X39205121Y75162281D01*
X39185006Y75175721D01*
X39161280Y75180440D01*
X39146243Y75178589D01*
X39113647Y75170440D01*
X39103280Y75170440D01*
X39103280Y80099352D01*
X44439280Y80099352D01*
X44439280Y75897528D01*
X46047249Y72015547D01*
X49018387Y69044409D01*
X52900368Y67436440D01*
X57102192Y67436440D01*
X60984173Y69044409D01*
X63955311Y72015547D01*
X65563280Y75897528D01*
X65563280Y80099352D01*
X63955311Y83981333D01*
X60984173Y86952471D01*
X57102192Y88560440D01*
X52900368Y88560440D01*
X49018387Y86952471D01*
X46047249Y83981333D01*
X44439280Y80099352D01*
X39103280Y80099352D01*
X39103280Y82352758D01*
X39935121Y83184599D01*
X39935591Y83185075D01*
X46337412Y89726499D01*
X63835160Y89766380D01*
X71019280Y82383254D01*
X71019280Y82383254D01*
G37*
X71019280Y82383254D02*
X71019280Y294204D01*
X68855681Y-1859560D01*
X41406714Y-1859560D01*
X39223280Y294368D01*
X39223280Y12599352D01*
X44439280Y12599352D01*
X44439280Y8397528D01*
X46047249Y4515547D01*
X49018387Y1544409D01*
X52900368Y-63560D01*
X57102192Y-63560D01*
X60984173Y1544409D01*
X63955311Y4515547D01*
X65563280Y8397528D01*
X65563280Y12599352D01*
X63955311Y16481333D01*
X60984173Y19452471D01*
X57102192Y21060440D01*
X52900368Y21060440D01*
X49018387Y19452471D01*
X46047249Y16481333D01*
X44439280Y12599352D01*
X39223280Y12599352D01*
X39223280Y35099352D01*
X44439280Y35099352D01*
X44439280Y30897528D01*
X46047249Y27015547D01*
X49018387Y24044409D01*
X52900368Y22436440D01*
X57102192Y22436440D01*
X60984173Y24044409D01*
X63955311Y27015547D01*
X65563280Y30897528D01*
X65563280Y35099352D01*
X63955311Y38981333D01*
X60984173Y41952471D01*
X57102192Y43560440D01*
X52900368Y43560440D01*
X49018387Y41952471D01*
X46047249Y38981333D01*
X44439280Y35099352D01*
X39223280Y35099352D01*
X39223280Y57599352D01*
X44439280Y57599352D01*
X44439280Y53397528D01*
X46047249Y49515547D01*
X49018387Y46544409D01*
X52900368Y44936440D01*
X57102192Y44936440D01*
X60984173Y46544409D01*
X63955311Y49515547D01*
X65563280Y53397528D01*
X65563280Y57599352D01*
X63955311Y61481333D01*
X60984173Y64452471D01*
X57102192Y66060440D01*
X52900368Y66060440D01*
X49018387Y64452471D01*
X46047249Y61481333D01*
X44439280Y57599352D01*
X39223280Y57599352D01*
X39223280Y75118440D01*
X39218561Y75142166D01*
X39205121Y75162281D01*
X39185006Y75175721D01*
X39161280Y75180440D01*
X39146243Y75178589D01*
X39113647Y75170440D01*
X39103280Y75170440D01*
X39103280Y80099352D01*
X44439280Y80099352D01*
X44439280Y75897528D01*
X46047249Y72015547D01*
X49018387Y69044409D01*
X52900368Y67436440D01*
X57102192Y67436440D01*
X60984173Y69044409D01*
X63955311Y72015547D01*
X65563280Y75897528D01*
X65563280Y80099352D01*
X63955311Y83981333D01*
X60984173Y86952471D01*
X57102192Y88560440D01*
X52900368Y88560440D01*
X49018387Y86952471D01*
X46047249Y83981333D01*
X44439280Y80099352D01*
X39103280Y80099352D01*
X39103280Y82352758D01*
X39935121Y83184599D01*
X39935591Y83185075D01*
X46337412Y89726499D01*
X63835160Y89766380D01*
X71019280Y82383254D01*
G04 #@! TD*
M02*
