G04 #@! TF.GenerationSoftware,KiCad,Pcbnew,(5.0.1)-3*
G04 #@! TF.CreationDate,2019-04-10T15:36:06+02:00*
G04 #@! TF.ProjectId,discovery,646973636F766572792E6B696361645F,rev?*
G04 #@! TF.SameCoordinates,PX4c4640PY8a48028*
G04 #@! TF.FileFunction,Soldermask,Top*
G04 #@! TF.FilePolarity,Negative*
%FSLAX46Y46*%
G04 Gerber Fmt 4.6, Leading zero omitted, Abs format (unit mm)*
G04 Created by KiCad (PCBNEW (5.0.1)-3) date 10/04/2019 15:36:06*
%MOMM*%
%LPD*%
G01*
G04 APERTURE LIST*
%ADD10C,0.100000*%
G04 APERTURE END LIST*
D10*
G36*
X140745376Y2451407D02*
X140745378Y2451406D01*
X140745379Y2451406D01*
X141209632Y2259107D01*
X141625564Y1981190D01*
X141627451Y1979929D01*
X141982769Y1624611D01*
X141982771Y1624608D01*
X142261947Y1206792D01*
X142454246Y742539D01*
X142552280Y249692D01*
X142552280Y-252812D01*
X142454246Y-745659D01*
X142261947Y-1209912D01*
X141984030Y-1625844D01*
X141982769Y-1627731D01*
X141627451Y-1983049D01*
X141627448Y-1983051D01*
X141209632Y-2262227D01*
X140745379Y-2454526D01*
X140745378Y-2454526D01*
X140745376Y-2454527D01*
X140252533Y-2552560D01*
X139750027Y-2552560D01*
X139257184Y-2454527D01*
X139257182Y-2454526D01*
X139257181Y-2454526D01*
X138792928Y-2262227D01*
X138375112Y-1983051D01*
X138375109Y-1983049D01*
X138019791Y-1627731D01*
X138018530Y-1625844D01*
X137740613Y-1209912D01*
X137548314Y-745659D01*
X137450280Y-252812D01*
X137450280Y249692D01*
X137548314Y742539D01*
X137740613Y1206792D01*
X138019789Y1624608D01*
X138019791Y1624611D01*
X138375109Y1979929D01*
X138376996Y1981190D01*
X138792928Y2259107D01*
X139257181Y2451406D01*
X139257182Y2451406D01*
X139257184Y2451407D01*
X139750027Y2549440D01*
X140252533Y2549440D01*
X140745376Y2451407D01*
X140745376Y2451407D01*
G37*
G36*
X745376Y2451407D02*
X745378Y2451406D01*
X745379Y2451406D01*
X1209632Y2259107D01*
X1625564Y1981190D01*
X1627451Y1979929D01*
X1982769Y1624611D01*
X1982771Y1624608D01*
X2261947Y1206792D01*
X2454246Y742539D01*
X2552280Y249692D01*
X2552280Y-252812D01*
X2454246Y-745659D01*
X2261947Y-1209912D01*
X1984030Y-1625844D01*
X1982769Y-1627731D01*
X1627451Y-1983049D01*
X1627448Y-1983051D01*
X1209632Y-2262227D01*
X745379Y-2454526D01*
X745378Y-2454526D01*
X745376Y-2454527D01*
X252533Y-2552560D01*
X-249973Y-2552560D01*
X-742816Y-2454527D01*
X-742818Y-2454526D01*
X-742819Y-2454526D01*
X-1207072Y-2262227D01*
X-1624888Y-1983051D01*
X-1624891Y-1983049D01*
X-1980209Y-1627731D01*
X-1981470Y-1625844D01*
X-2259387Y-1209912D01*
X-2451686Y-745659D01*
X-2549720Y-252812D01*
X-2549720Y249692D01*
X-2451686Y742539D01*
X-2259387Y1206792D01*
X-1980211Y1624608D01*
X-1980209Y1624611D01*
X-1624891Y1979929D01*
X-1623004Y1981190D01*
X-1207072Y2259107D01*
X-742819Y2451406D01*
X-742818Y2451406D01*
X-742816Y2451407D01*
X-249973Y2549440D01*
X252533Y2549440D01*
X745376Y2451407D01*
X745376Y2451407D01*
G37*
G36*
X57203825Y17759260D02*
X58578018Y17190050D01*
X58578020Y17190049D01*
X59787209Y16382095D01*
X59814765Y16363683D01*
X60866523Y15311925D01*
X60866525Y15311922D01*
X61432527Y14464840D01*
X61692890Y14075178D01*
X62262100Y12700985D01*
X62552280Y11242150D01*
X62552280Y9754730D01*
X62262100Y8295895D01*
X61753425Y7067847D01*
X61692889Y6921700D01*
X61068758Y5987621D01*
X60866523Y5684955D01*
X59814765Y4633197D01*
X59814762Y4633195D01*
X58578020Y3806831D01*
X58578019Y3806830D01*
X58578018Y3806830D01*
X57203825Y3237620D01*
X55744990Y2947440D01*
X54257570Y2947440D01*
X52798735Y3237620D01*
X51424542Y3806830D01*
X51424541Y3806830D01*
X51424540Y3806831D01*
X50187798Y4633195D01*
X50187795Y4633197D01*
X49136037Y5684955D01*
X48933802Y5987621D01*
X48309671Y6921700D01*
X48249135Y7067847D01*
X47740460Y8295895D01*
X47450280Y9754730D01*
X47450280Y11242150D01*
X47740460Y12700985D01*
X48309670Y14075178D01*
X48570034Y14464840D01*
X49136035Y15311922D01*
X49136037Y15311925D01*
X50187795Y16363683D01*
X50215351Y16382095D01*
X51424540Y17190049D01*
X51424542Y17190050D01*
X52798735Y17759260D01*
X54257570Y18049440D01*
X55744990Y18049440D01*
X57203825Y17759260D01*
X57203825Y17759260D01*
G37*
G36*
X6499532Y8838022D02*
X6499534Y8838021D01*
X6499535Y8838021D01*
X6872793Y8683413D01*
X6872794Y8683412D01*
X7208719Y8458954D01*
X7494394Y8173279D01*
X7494396Y8173276D01*
X7718853Y7837353D01*
X7873461Y7464095D01*
X7952280Y7067846D01*
X7952280Y6663834D01*
X7873461Y6267585D01*
X7718853Y5894327D01*
X7718852Y5894326D01*
X7494394Y5558401D01*
X7208719Y5272726D01*
X7208716Y5272724D01*
X6872793Y5048267D01*
X6499535Y4893659D01*
X6499534Y4893659D01*
X6499532Y4893658D01*
X6103287Y4814840D01*
X5699273Y4814840D01*
X5303028Y4893658D01*
X5303026Y4893659D01*
X5303025Y4893659D01*
X4929767Y5048267D01*
X4593844Y5272724D01*
X4593841Y5272726D01*
X4308166Y5558401D01*
X4083708Y5894326D01*
X4083707Y5894327D01*
X3929099Y6267585D01*
X3850280Y6663834D01*
X3850280Y7067846D01*
X3929099Y7464095D01*
X4083707Y7837353D01*
X4308164Y8173276D01*
X4308166Y8173279D01*
X4593841Y8458954D01*
X4929766Y8683412D01*
X4929767Y8683413D01*
X5303025Y8838021D01*
X5303026Y8838021D01*
X5303028Y8838022D01*
X5699273Y8916840D01*
X6103287Y8916840D01*
X6499532Y8838022D01*
X6499532Y8838022D01*
G37*
G36*
X30699532Y8838022D02*
X30699534Y8838021D01*
X30699535Y8838021D01*
X31072793Y8683413D01*
X31072794Y8683412D01*
X31408719Y8458954D01*
X31694394Y8173279D01*
X31694396Y8173276D01*
X31918853Y7837353D01*
X32073461Y7464095D01*
X32152280Y7067846D01*
X32152280Y6663834D01*
X32073461Y6267585D01*
X31918853Y5894327D01*
X31918852Y5894326D01*
X31694394Y5558401D01*
X31408719Y5272726D01*
X31408716Y5272724D01*
X31072793Y5048267D01*
X30699535Y4893659D01*
X30699534Y4893659D01*
X30699532Y4893658D01*
X30303287Y4814840D01*
X29899273Y4814840D01*
X29503028Y4893658D01*
X29503026Y4893659D01*
X29503025Y4893659D01*
X29129767Y5048267D01*
X28793844Y5272724D01*
X28793841Y5272726D01*
X28508166Y5558401D01*
X28283708Y5894326D01*
X28283707Y5894327D01*
X28129099Y6267585D01*
X28050280Y6663834D01*
X28050280Y7067846D01*
X28129099Y7464095D01*
X28283707Y7837353D01*
X28508164Y8173276D01*
X28508166Y8173279D01*
X28793841Y8458954D01*
X29129766Y8683412D01*
X29129767Y8683413D01*
X29503025Y8838021D01*
X29503026Y8838021D01*
X29503028Y8838022D01*
X29899273Y8916840D01*
X30303287Y8916840D01*
X30699532Y8838022D01*
X30699532Y8838022D01*
G37*
G36*
X117203825Y20509260D02*
X118578018Y19940050D01*
X118578020Y19940049D01*
X119107361Y19586355D01*
X119814765Y19113683D01*
X120866523Y18061925D01*
X120866525Y18061922D01*
X121630354Y16918771D01*
X121692890Y16825178D01*
X122262100Y15450985D01*
X122552280Y13992150D01*
X122552280Y12504730D01*
X122262100Y11045895D01*
X121959285Y10314836D01*
X121692889Y9671700D01*
X120882560Y8458956D01*
X120866523Y8434955D01*
X119814765Y7383197D01*
X119814762Y7383195D01*
X118578020Y6556831D01*
X118578019Y6556830D01*
X118578018Y6556830D01*
X117203825Y5987620D01*
X115744990Y5697440D01*
X114257570Y5697440D01*
X112798735Y5987620D01*
X111424542Y6556830D01*
X111424541Y6556830D01*
X111424540Y6556831D01*
X110187798Y7383195D01*
X110187795Y7383197D01*
X109136037Y8434955D01*
X109120000Y8458956D01*
X108309671Y9671700D01*
X108043275Y10314836D01*
X107740460Y11045895D01*
X107450280Y12504730D01*
X107450280Y13992150D01*
X107740460Y15450985D01*
X108309670Y16825178D01*
X108372207Y16918771D01*
X109136035Y18061922D01*
X109136037Y18061925D01*
X110187795Y19113683D01*
X110895199Y19586355D01*
X111424540Y19940049D01*
X111424542Y19940050D01*
X112798735Y20509260D01*
X114257570Y20799440D01*
X115744990Y20799440D01*
X117203825Y20509260D01*
X117203825Y20509260D01*
G37*
G36*
X10480765Y12816844D02*
X10480767Y12816843D01*
X10480768Y12816843D01*
X10717535Y12718771D01*
X10930622Y12576391D01*
X11111831Y12395182D01*
X11254211Y12182095D01*
X11352284Y11945325D01*
X11402280Y11693979D01*
X11402280Y11437701D01*
X11352284Y11186355D01*
X11254211Y10949585D01*
X11111831Y10736498D01*
X10930622Y10555289D01*
X10930619Y10555287D01*
X10717535Y10412909D01*
X10480768Y10314837D01*
X10480767Y10314837D01*
X10480765Y10314836D01*
X10229419Y10264840D01*
X9973141Y10264840D01*
X9721795Y10314836D01*
X9721793Y10314837D01*
X9721792Y10314837D01*
X9485025Y10412909D01*
X9271941Y10555287D01*
X9271938Y10555289D01*
X9090729Y10736498D01*
X8948349Y10949585D01*
X8850276Y11186355D01*
X8800280Y11437701D01*
X8800280Y11693979D01*
X8850276Y11945325D01*
X8948349Y12182095D01*
X9090729Y12395182D01*
X9271938Y12576391D01*
X9485025Y12718771D01*
X9721792Y12816843D01*
X9721793Y12816843D01*
X9721795Y12816844D01*
X9973141Y12866840D01*
X10229419Y12866840D01*
X10480765Y12816844D01*
X10480765Y12816844D01*
G37*
G36*
X6280765Y12816844D02*
X6280767Y12816843D01*
X6280768Y12816843D01*
X6517535Y12718771D01*
X6730622Y12576391D01*
X6911831Y12395182D01*
X7054211Y12182095D01*
X7152284Y11945325D01*
X7202280Y11693979D01*
X7202280Y11437701D01*
X7152284Y11186355D01*
X7054211Y10949585D01*
X6911831Y10736498D01*
X6730622Y10555289D01*
X6730619Y10555287D01*
X6517535Y10412909D01*
X6280768Y10314837D01*
X6280767Y10314837D01*
X6280765Y10314836D01*
X6029419Y10264840D01*
X5773141Y10264840D01*
X5521795Y10314836D01*
X5521793Y10314837D01*
X5521792Y10314837D01*
X5285025Y10412909D01*
X5071941Y10555287D01*
X5071938Y10555289D01*
X4890729Y10736498D01*
X4748349Y10949585D01*
X4650276Y11186355D01*
X4600280Y11437701D01*
X4600280Y11693979D01*
X4650276Y11945325D01*
X4748349Y12182095D01*
X4890729Y12395182D01*
X5071938Y12576391D01*
X5285025Y12718771D01*
X5521792Y12816843D01*
X5521793Y12816843D01*
X5521795Y12816844D01*
X5773141Y12866840D01*
X6029419Y12866840D01*
X6280765Y12816844D01*
X6280765Y12816844D01*
G37*
G36*
X30480765Y12816844D02*
X30480767Y12816843D01*
X30480768Y12816843D01*
X30717535Y12718771D01*
X30930622Y12576391D01*
X31111831Y12395182D01*
X31254211Y12182095D01*
X31352284Y11945325D01*
X31402280Y11693979D01*
X31402280Y11437701D01*
X31352284Y11186355D01*
X31254211Y10949585D01*
X31111831Y10736498D01*
X30930622Y10555289D01*
X30930619Y10555287D01*
X30717535Y10412909D01*
X30480768Y10314837D01*
X30480767Y10314837D01*
X30480765Y10314836D01*
X30229419Y10264840D01*
X29973141Y10264840D01*
X29721795Y10314836D01*
X29721793Y10314837D01*
X29721792Y10314837D01*
X29485025Y10412909D01*
X29271941Y10555287D01*
X29271938Y10555289D01*
X29090729Y10736498D01*
X28948349Y10949585D01*
X28850276Y11186355D01*
X28800280Y11437701D01*
X28800280Y11693979D01*
X28850276Y11945325D01*
X28948349Y12182095D01*
X29090729Y12395182D01*
X29271938Y12576391D01*
X29485025Y12718771D01*
X29721792Y12816843D01*
X29721793Y12816843D01*
X29721795Y12816844D01*
X29973141Y12866840D01*
X30229419Y12866840D01*
X30480765Y12816844D01*
X30480765Y12816844D01*
G37*
G36*
X26280765Y12816844D02*
X26280767Y12816843D01*
X26280768Y12816843D01*
X26517535Y12718771D01*
X26730622Y12576391D01*
X26911831Y12395182D01*
X27054211Y12182095D01*
X27152284Y11945325D01*
X27202280Y11693979D01*
X27202280Y11437701D01*
X27152284Y11186355D01*
X27054211Y10949585D01*
X26911831Y10736498D01*
X26730622Y10555289D01*
X26730619Y10555287D01*
X26517535Y10412909D01*
X26280768Y10314837D01*
X26280767Y10314837D01*
X26280765Y10314836D01*
X26029419Y10264840D01*
X25773141Y10264840D01*
X25521795Y10314836D01*
X25521793Y10314837D01*
X25521792Y10314837D01*
X25285025Y10412909D01*
X25071941Y10555287D01*
X25071938Y10555289D01*
X24890729Y10736498D01*
X24748349Y10949585D01*
X24650276Y11186355D01*
X24600280Y11437701D01*
X24600280Y11693979D01*
X24650276Y11945325D01*
X24748349Y12182095D01*
X24890729Y12395182D01*
X25071938Y12576391D01*
X25285025Y12718771D01*
X25521792Y12816843D01*
X25521793Y12816843D01*
X25521795Y12816844D01*
X25773141Y12866840D01*
X26029419Y12866840D01*
X26280765Y12816844D01*
X26280765Y12816844D01*
G37*
G36*
X26280765Y17016844D02*
X26280767Y17016843D01*
X26280768Y17016843D01*
X26517535Y16918771D01*
X26730622Y16776391D01*
X26911831Y16595182D01*
X27054211Y16382095D01*
X27152284Y16145325D01*
X27202280Y15893979D01*
X27202280Y15637701D01*
X27152284Y15386355D01*
X27054211Y15149585D01*
X26911831Y14936498D01*
X26730622Y14755289D01*
X26730619Y14755287D01*
X26517535Y14612909D01*
X26280768Y14514837D01*
X26280767Y14514837D01*
X26280765Y14514836D01*
X26029419Y14464840D01*
X25773141Y14464840D01*
X25521795Y14514836D01*
X25521793Y14514837D01*
X25521792Y14514837D01*
X25285025Y14612909D01*
X25071941Y14755287D01*
X25071938Y14755289D01*
X24890729Y14936498D01*
X24748349Y15149585D01*
X24650276Y15386355D01*
X24600280Y15637701D01*
X24600280Y15893979D01*
X24650276Y16145325D01*
X24748349Y16382095D01*
X24890729Y16595182D01*
X25071938Y16776391D01*
X25285025Y16918771D01*
X25521792Y17016843D01*
X25521793Y17016843D01*
X25521795Y17016844D01*
X25773141Y17066840D01*
X26029419Y17066840D01*
X26280765Y17016844D01*
X26280765Y17016844D01*
G37*
G36*
X10480765Y17016844D02*
X10480767Y17016843D01*
X10480768Y17016843D01*
X10717535Y16918771D01*
X10930622Y16776391D01*
X11111831Y16595182D01*
X11254211Y16382095D01*
X11352284Y16145325D01*
X11402280Y15893979D01*
X11402280Y15637701D01*
X11352284Y15386355D01*
X11254211Y15149585D01*
X11111831Y14936498D01*
X10930622Y14755289D01*
X10930619Y14755287D01*
X10717535Y14612909D01*
X10480768Y14514837D01*
X10480767Y14514837D01*
X10480765Y14514836D01*
X10229419Y14464840D01*
X9973141Y14464840D01*
X9721795Y14514836D01*
X9721793Y14514837D01*
X9721792Y14514837D01*
X9485025Y14612909D01*
X9271941Y14755287D01*
X9271938Y14755289D01*
X9090729Y14936498D01*
X8948349Y15149585D01*
X8850276Y15386355D01*
X8800280Y15637701D01*
X8800280Y15893979D01*
X8850276Y16145325D01*
X8948349Y16382095D01*
X9090729Y16595182D01*
X9271938Y16776391D01*
X9485025Y16918771D01*
X9721792Y17016843D01*
X9721793Y17016843D01*
X9721795Y17016844D01*
X9973141Y17066840D01*
X10229419Y17066840D01*
X10480765Y17016844D01*
X10480765Y17016844D01*
G37*
G36*
X6280765Y17016844D02*
X6280767Y17016843D01*
X6280768Y17016843D01*
X6517535Y16918771D01*
X6730622Y16776391D01*
X6911831Y16595182D01*
X7054211Y16382095D01*
X7152284Y16145325D01*
X7202280Y15893979D01*
X7202280Y15637701D01*
X7152284Y15386355D01*
X7054211Y15149585D01*
X6911831Y14936498D01*
X6730622Y14755289D01*
X6730619Y14755287D01*
X6517535Y14612909D01*
X6280768Y14514837D01*
X6280767Y14514837D01*
X6280765Y14514836D01*
X6029419Y14464840D01*
X5773141Y14464840D01*
X5521795Y14514836D01*
X5521793Y14514837D01*
X5521792Y14514837D01*
X5285025Y14612909D01*
X5071941Y14755287D01*
X5071938Y14755289D01*
X4890729Y14936498D01*
X4748349Y15149585D01*
X4650276Y15386355D01*
X4600280Y15637701D01*
X4600280Y15893979D01*
X4650276Y16145325D01*
X4748349Y16382095D01*
X4890729Y16595182D01*
X5071938Y16776391D01*
X5285025Y16918771D01*
X5521792Y17016843D01*
X5521793Y17016843D01*
X5521795Y17016844D01*
X5773141Y17066840D01*
X6029419Y17066840D01*
X6280765Y17016844D01*
X6280765Y17016844D01*
G37*
G36*
X30480765Y17016844D02*
X30480767Y17016843D01*
X30480768Y17016843D01*
X30717535Y16918771D01*
X30930622Y16776391D01*
X31111831Y16595182D01*
X31254211Y16382095D01*
X31352284Y16145325D01*
X31402280Y15893979D01*
X31402280Y15637701D01*
X31352284Y15386355D01*
X31254211Y15149585D01*
X31111831Y14936498D01*
X30930622Y14755289D01*
X30930619Y14755287D01*
X30717535Y14612909D01*
X30480768Y14514837D01*
X30480767Y14514837D01*
X30480765Y14514836D01*
X30229419Y14464840D01*
X29973141Y14464840D01*
X29721795Y14514836D01*
X29721793Y14514837D01*
X29721792Y14514837D01*
X29485025Y14612909D01*
X29271941Y14755287D01*
X29271938Y14755289D01*
X29090729Y14936498D01*
X28948349Y15149585D01*
X28850276Y15386355D01*
X28800280Y15637701D01*
X28800280Y15893979D01*
X28850276Y16145325D01*
X28948349Y16382095D01*
X29090729Y16595182D01*
X29271938Y16776391D01*
X29485025Y16918771D01*
X29721792Y17016843D01*
X29721793Y17016843D01*
X29721795Y17016844D01*
X29973141Y17066840D01*
X30229419Y17066840D01*
X30480765Y17016844D01*
X30480765Y17016844D01*
G37*
G36*
X26280765Y21216844D02*
X26280767Y21216843D01*
X26280768Y21216843D01*
X26517535Y21118771D01*
X26730622Y20976391D01*
X26911831Y20795182D01*
X27054211Y20582095D01*
X27152284Y20345325D01*
X27202280Y20093979D01*
X27202280Y19837701D01*
X27152284Y19586355D01*
X27054211Y19349585D01*
X26911831Y19136498D01*
X26730622Y18955289D01*
X26730619Y18955287D01*
X26517535Y18812909D01*
X26280768Y18714837D01*
X26280767Y18714837D01*
X26280765Y18714836D01*
X26029419Y18664840D01*
X25773141Y18664840D01*
X25521795Y18714836D01*
X25521793Y18714837D01*
X25521792Y18714837D01*
X25285025Y18812909D01*
X25071941Y18955287D01*
X25071938Y18955289D01*
X24890729Y19136498D01*
X24748349Y19349585D01*
X24650276Y19586355D01*
X24600280Y19837701D01*
X24600280Y20093979D01*
X24650276Y20345325D01*
X24748349Y20582095D01*
X24890729Y20795182D01*
X25071938Y20976391D01*
X25285025Y21118771D01*
X25521792Y21216843D01*
X25521793Y21216843D01*
X25521795Y21216844D01*
X25773141Y21266840D01*
X26029419Y21266840D01*
X26280765Y21216844D01*
X26280765Y21216844D01*
G37*
G36*
X6280765Y21216844D02*
X6280767Y21216843D01*
X6280768Y21216843D01*
X6517535Y21118771D01*
X6730622Y20976391D01*
X6911831Y20795182D01*
X7054211Y20582095D01*
X7152284Y20345325D01*
X7202280Y20093979D01*
X7202280Y19837701D01*
X7152284Y19586355D01*
X7054211Y19349585D01*
X6911831Y19136498D01*
X6730622Y18955289D01*
X6730619Y18955287D01*
X6517535Y18812909D01*
X6280768Y18714837D01*
X6280767Y18714837D01*
X6280765Y18714836D01*
X6029419Y18664840D01*
X5773141Y18664840D01*
X5521795Y18714836D01*
X5521793Y18714837D01*
X5521792Y18714837D01*
X5285025Y18812909D01*
X5071941Y18955287D01*
X5071938Y18955289D01*
X4890729Y19136498D01*
X4748349Y19349585D01*
X4650276Y19586355D01*
X4600280Y19837701D01*
X4600280Y20093979D01*
X4650276Y20345325D01*
X4748349Y20582095D01*
X4890729Y20795182D01*
X5071938Y20976391D01*
X5285025Y21118771D01*
X5521792Y21216843D01*
X5521793Y21216843D01*
X5521795Y21216844D01*
X5773141Y21266840D01*
X6029419Y21266840D01*
X6280765Y21216844D01*
X6280765Y21216844D01*
G37*
G36*
X10480765Y21216844D02*
X10480767Y21216843D01*
X10480768Y21216843D01*
X10717535Y21118771D01*
X10930622Y20976391D01*
X11111831Y20795182D01*
X11254211Y20582095D01*
X11352284Y20345325D01*
X11402280Y20093979D01*
X11402280Y19837701D01*
X11352284Y19586355D01*
X11254211Y19349585D01*
X11111831Y19136498D01*
X10930622Y18955289D01*
X10930619Y18955287D01*
X10717535Y18812909D01*
X10480768Y18714837D01*
X10480767Y18714837D01*
X10480765Y18714836D01*
X10229419Y18664840D01*
X9973141Y18664840D01*
X9721795Y18714836D01*
X9721793Y18714837D01*
X9721792Y18714837D01*
X9485025Y18812909D01*
X9271941Y18955287D01*
X9271938Y18955289D01*
X9090729Y19136498D01*
X8948349Y19349585D01*
X8850276Y19586355D01*
X8800280Y19837701D01*
X8800280Y20093979D01*
X8850276Y20345325D01*
X8948349Y20582095D01*
X9090729Y20795182D01*
X9271938Y20976391D01*
X9485025Y21118771D01*
X9721792Y21216843D01*
X9721793Y21216843D01*
X9721795Y21216844D01*
X9973141Y21266840D01*
X10229419Y21266840D01*
X10480765Y21216844D01*
X10480765Y21216844D01*
G37*
G36*
X30480765Y21216844D02*
X30480767Y21216843D01*
X30480768Y21216843D01*
X30717535Y21118771D01*
X30930622Y20976391D01*
X31111831Y20795182D01*
X31254211Y20582095D01*
X31352284Y20345325D01*
X31402280Y20093979D01*
X31402280Y19837701D01*
X31352284Y19586355D01*
X31254211Y19349585D01*
X31111831Y19136498D01*
X30930622Y18955289D01*
X30930619Y18955287D01*
X30717535Y18812909D01*
X30480768Y18714837D01*
X30480767Y18714837D01*
X30480765Y18714836D01*
X30229419Y18664840D01*
X29973141Y18664840D01*
X29721795Y18714836D01*
X29721793Y18714837D01*
X29721792Y18714837D01*
X29485025Y18812909D01*
X29271941Y18955287D01*
X29271938Y18955289D01*
X29090729Y19136498D01*
X28948349Y19349585D01*
X28850276Y19586355D01*
X28800280Y19837701D01*
X28800280Y20093979D01*
X28850276Y20345325D01*
X28948349Y20582095D01*
X29090729Y20795182D01*
X29271938Y20976391D01*
X29485025Y21118771D01*
X29721792Y21216843D01*
X29721793Y21216843D01*
X29721795Y21216844D01*
X29973141Y21266840D01*
X30229419Y21266840D01*
X30480765Y21216844D01*
X30480765Y21216844D01*
G37*
G36*
X30699532Y26638022D02*
X30699534Y26638021D01*
X30699535Y26638021D01*
X31072793Y26483413D01*
X31072794Y26483412D01*
X31408719Y26258954D01*
X31694394Y25973279D01*
X31694396Y25973276D01*
X31918853Y25637353D01*
X32073461Y25264095D01*
X32152280Y24867846D01*
X32152280Y24463834D01*
X32073461Y24067585D01*
X31918853Y23694327D01*
X31918852Y23694326D01*
X31694394Y23358401D01*
X31408719Y23072726D01*
X31408716Y23072724D01*
X31072793Y22848267D01*
X30699535Y22693659D01*
X30699534Y22693659D01*
X30699532Y22693658D01*
X30303287Y22614840D01*
X29899273Y22614840D01*
X29503028Y22693658D01*
X29503026Y22693659D01*
X29503025Y22693659D01*
X29129767Y22848267D01*
X28793844Y23072724D01*
X28793841Y23072726D01*
X28508166Y23358401D01*
X28283708Y23694326D01*
X28283707Y23694327D01*
X28129099Y24067585D01*
X28050280Y24463834D01*
X28050280Y24867846D01*
X28129099Y25264095D01*
X28283707Y25637353D01*
X28508164Y25973276D01*
X28508166Y25973279D01*
X28793841Y26258954D01*
X29129766Y26483412D01*
X29129767Y26483413D01*
X29503025Y26638021D01*
X29503026Y26638021D01*
X29503028Y26638022D01*
X29899273Y26716840D01*
X30303287Y26716840D01*
X30699532Y26638022D01*
X30699532Y26638022D01*
G37*
G36*
X6499532Y26638022D02*
X6499534Y26638021D01*
X6499535Y26638021D01*
X6872793Y26483413D01*
X6872794Y26483412D01*
X7208719Y26258954D01*
X7494394Y25973279D01*
X7494396Y25973276D01*
X7718853Y25637353D01*
X7873461Y25264095D01*
X7952280Y24867846D01*
X7952280Y24463834D01*
X7873461Y24067585D01*
X7718853Y23694327D01*
X7718852Y23694326D01*
X7494394Y23358401D01*
X7208719Y23072726D01*
X7208716Y23072724D01*
X6872793Y22848267D01*
X6499535Y22693659D01*
X6499534Y22693659D01*
X6499532Y22693658D01*
X6103287Y22614840D01*
X5699273Y22614840D01*
X5303028Y22693658D01*
X5303026Y22693659D01*
X5303025Y22693659D01*
X4929767Y22848267D01*
X4593844Y23072724D01*
X4593841Y23072726D01*
X4308166Y23358401D01*
X4083708Y23694326D01*
X4083707Y23694327D01*
X3929099Y24067585D01*
X3850280Y24463834D01*
X3850280Y24867846D01*
X3929099Y25264095D01*
X4083707Y25637353D01*
X4308164Y25973276D01*
X4308166Y25973279D01*
X4593841Y26258954D01*
X4929766Y26483412D01*
X4929767Y26483413D01*
X5303025Y26638021D01*
X5303026Y26638021D01*
X5303028Y26638022D01*
X5699273Y26716840D01*
X6103287Y26716840D01*
X6499532Y26638022D01*
X6499532Y26638022D01*
G37*
G36*
X57203825Y40259260D02*
X58578018Y39690050D01*
X58578020Y39690049D01*
X59390097Y39147437D01*
X59814765Y38863683D01*
X60866523Y37811925D01*
X60866525Y37811922D01*
X61629564Y36669953D01*
X61692890Y36575178D01*
X62262100Y35200985D01*
X62552280Y33742150D01*
X62552280Y32254730D01*
X62262100Y30795895D01*
X61692890Y29421702D01*
X61692889Y29421700D01*
X61449091Y29056830D01*
X60866523Y28184955D01*
X59814765Y27133197D01*
X59814762Y27133195D01*
X58578020Y26306831D01*
X58578019Y26306830D01*
X58578018Y26306830D01*
X57203825Y25737620D01*
X55744990Y25447440D01*
X54257570Y25447440D01*
X52798735Y25737620D01*
X51424542Y26306830D01*
X51424541Y26306830D01*
X51424540Y26306831D01*
X50187798Y27133195D01*
X50187795Y27133197D01*
X49136037Y28184955D01*
X48553469Y29056830D01*
X48309671Y29421700D01*
X48309670Y29421702D01*
X47740460Y30795895D01*
X47450280Y32254730D01*
X47450280Y33742150D01*
X47740460Y35200985D01*
X48309670Y36575178D01*
X48372997Y36669953D01*
X49136035Y37811922D01*
X49136037Y37811925D01*
X50187795Y38863683D01*
X50612463Y39147437D01*
X51424540Y39690049D01*
X51424542Y39690050D01*
X52798735Y40259260D01*
X54257570Y40549440D01*
X55744990Y40549440D01*
X57203825Y40259260D01*
X57203825Y40259260D01*
G37*
G36*
X117203825Y43009260D02*
X118578018Y42440050D01*
X118578020Y42440049D01*
X119686420Y41699440D01*
X119814765Y41613683D01*
X120866523Y40561925D01*
X120866525Y40561922D01*
X121650990Y39387887D01*
X121692890Y39325178D01*
X122262100Y37950985D01*
X122552280Y36492150D01*
X122552280Y35004730D01*
X122262100Y33545895D01*
X121692890Y32171702D01*
X120866523Y30934955D01*
X119814765Y29883197D01*
X119814762Y29883195D01*
X118578020Y29056831D01*
X118578019Y29056830D01*
X118578018Y29056830D01*
X117203825Y28487620D01*
X115744990Y28197440D01*
X114257570Y28197440D01*
X112798735Y28487620D01*
X111424542Y29056830D01*
X111424541Y29056830D01*
X111424540Y29056831D01*
X110187798Y29883195D01*
X110187795Y29883197D01*
X109136037Y30934955D01*
X108309670Y32171702D01*
X107740460Y33545895D01*
X107450280Y35004730D01*
X107450280Y36492150D01*
X107740460Y37950985D01*
X108309670Y39325178D01*
X108351571Y39387887D01*
X109136035Y40561922D01*
X109136037Y40561925D01*
X110187795Y41613683D01*
X110316140Y41699440D01*
X111424540Y42440049D01*
X111424542Y42440050D01*
X112798735Y43009260D01*
X114257570Y43299440D01*
X115744990Y43299440D01*
X117203825Y43009260D01*
X117203825Y43009260D01*
G37*
G36*
X30699532Y37670622D02*
X30699534Y37670621D01*
X30699535Y37670621D01*
X31072793Y37516013D01*
X31072794Y37516012D01*
X31408719Y37291554D01*
X31694394Y37005879D01*
X31694396Y37005876D01*
X31918853Y36669953D01*
X32073461Y36296695D01*
X32073462Y36296692D01*
X32152280Y35900447D01*
X32152280Y35496433D01*
X32093512Y35200985D01*
X32073461Y35100185D01*
X31918853Y34726927D01*
X31918852Y34726926D01*
X31694394Y34391001D01*
X31408719Y34105326D01*
X31408716Y34105324D01*
X31072793Y33880867D01*
X30699535Y33726259D01*
X30699534Y33726259D01*
X30699532Y33726258D01*
X30303287Y33647440D01*
X29899273Y33647440D01*
X29503028Y33726258D01*
X29503026Y33726259D01*
X29503025Y33726259D01*
X29129767Y33880867D01*
X28793844Y34105324D01*
X28793841Y34105326D01*
X28508166Y34391001D01*
X28283708Y34726926D01*
X28283707Y34726927D01*
X28129099Y35100185D01*
X28109049Y35200985D01*
X28050280Y35496433D01*
X28050280Y35900447D01*
X28129098Y36296692D01*
X28129099Y36296695D01*
X28283707Y36669953D01*
X28508164Y37005876D01*
X28508166Y37005879D01*
X28793841Y37291554D01*
X29129766Y37516012D01*
X29129767Y37516013D01*
X29503025Y37670621D01*
X29503026Y37670621D01*
X29503028Y37670622D01*
X29899273Y37749440D01*
X30303287Y37749440D01*
X30699532Y37670622D01*
X30699532Y37670622D01*
G37*
G36*
X6499532Y37670622D02*
X6499534Y37670621D01*
X6499535Y37670621D01*
X6872793Y37516013D01*
X6872794Y37516012D01*
X7208719Y37291554D01*
X7494394Y37005879D01*
X7494396Y37005876D01*
X7718853Y36669953D01*
X7873461Y36296695D01*
X7873462Y36296692D01*
X7952280Y35900447D01*
X7952280Y35496433D01*
X7893512Y35200985D01*
X7873461Y35100185D01*
X7718853Y34726927D01*
X7718852Y34726926D01*
X7494394Y34391001D01*
X7208719Y34105326D01*
X7208716Y34105324D01*
X6872793Y33880867D01*
X6499535Y33726259D01*
X6499534Y33726259D01*
X6499532Y33726258D01*
X6103287Y33647440D01*
X5699273Y33647440D01*
X5303028Y33726258D01*
X5303026Y33726259D01*
X5303025Y33726259D01*
X4929767Y33880867D01*
X4593844Y34105324D01*
X4593841Y34105326D01*
X4308166Y34391001D01*
X4083708Y34726926D01*
X4083707Y34726927D01*
X3929099Y35100185D01*
X3909049Y35200985D01*
X3850280Y35496433D01*
X3850280Y35900447D01*
X3929098Y36296692D01*
X3929099Y36296695D01*
X4083707Y36669953D01*
X4308164Y37005876D01*
X4308166Y37005879D01*
X4593841Y37291554D01*
X4929766Y37516012D01*
X4929767Y37516013D01*
X5303025Y37670621D01*
X5303026Y37670621D01*
X5303028Y37670622D01*
X5699273Y37749440D01*
X6103287Y37749440D01*
X6499532Y37670622D01*
X6499532Y37670622D01*
G37*
G36*
X10480765Y41649444D02*
X10480767Y41649443D01*
X10480768Y41649443D01*
X10567100Y41613683D01*
X10717535Y41551371D01*
X10930622Y41408991D01*
X11111831Y41227782D01*
X11254211Y41014695D01*
X11352284Y40777925D01*
X11402280Y40526579D01*
X11402280Y40270301D01*
X11352284Y40018955D01*
X11254211Y39782185D01*
X11111831Y39569098D01*
X10930622Y39387889D01*
X10930619Y39387887D01*
X10717535Y39245509D01*
X10480768Y39147437D01*
X10480767Y39147437D01*
X10480765Y39147436D01*
X10229419Y39097440D01*
X9973141Y39097440D01*
X9721795Y39147436D01*
X9721793Y39147437D01*
X9721792Y39147437D01*
X9485025Y39245509D01*
X9271941Y39387887D01*
X9271938Y39387889D01*
X9090729Y39569098D01*
X8948349Y39782185D01*
X8850276Y40018955D01*
X8800280Y40270301D01*
X8800280Y40526579D01*
X8850276Y40777925D01*
X8948349Y41014695D01*
X9090729Y41227782D01*
X9271938Y41408991D01*
X9485025Y41551371D01*
X9635460Y41613683D01*
X9721792Y41649443D01*
X9721793Y41649443D01*
X9721795Y41649444D01*
X9973141Y41699440D01*
X10229419Y41699440D01*
X10480765Y41649444D01*
X10480765Y41649444D01*
G37*
G36*
X6280765Y41649444D02*
X6280767Y41649443D01*
X6280768Y41649443D01*
X6367100Y41613683D01*
X6517535Y41551371D01*
X6730622Y41408991D01*
X6911831Y41227782D01*
X7054211Y41014695D01*
X7152284Y40777925D01*
X7202280Y40526579D01*
X7202280Y40270301D01*
X7152284Y40018955D01*
X7054211Y39782185D01*
X6911831Y39569098D01*
X6730622Y39387889D01*
X6730619Y39387887D01*
X6517535Y39245509D01*
X6280768Y39147437D01*
X6280767Y39147437D01*
X6280765Y39147436D01*
X6029419Y39097440D01*
X5773141Y39097440D01*
X5521795Y39147436D01*
X5521793Y39147437D01*
X5521792Y39147437D01*
X5285025Y39245509D01*
X5071941Y39387887D01*
X5071938Y39387889D01*
X4890729Y39569098D01*
X4748349Y39782185D01*
X4650276Y40018955D01*
X4600280Y40270301D01*
X4600280Y40526579D01*
X4650276Y40777925D01*
X4748349Y41014695D01*
X4890729Y41227782D01*
X5071938Y41408991D01*
X5285025Y41551371D01*
X5435460Y41613683D01*
X5521792Y41649443D01*
X5521793Y41649443D01*
X5521795Y41649444D01*
X5773141Y41699440D01*
X6029419Y41699440D01*
X6280765Y41649444D01*
X6280765Y41649444D01*
G37*
G36*
X30480765Y41649444D02*
X30480767Y41649443D01*
X30480768Y41649443D01*
X30567100Y41613683D01*
X30717535Y41551371D01*
X30930622Y41408991D01*
X31111831Y41227782D01*
X31254211Y41014695D01*
X31352284Y40777925D01*
X31402280Y40526579D01*
X31402280Y40270301D01*
X31352284Y40018955D01*
X31254211Y39782185D01*
X31111831Y39569098D01*
X30930622Y39387889D01*
X30930619Y39387887D01*
X30717535Y39245509D01*
X30480768Y39147437D01*
X30480767Y39147437D01*
X30480765Y39147436D01*
X30229419Y39097440D01*
X29973141Y39097440D01*
X29721795Y39147436D01*
X29721793Y39147437D01*
X29721792Y39147437D01*
X29485025Y39245509D01*
X29271941Y39387887D01*
X29271938Y39387889D01*
X29090729Y39569098D01*
X28948349Y39782185D01*
X28850276Y40018955D01*
X28800280Y40270301D01*
X28800280Y40526579D01*
X28850276Y40777925D01*
X28948349Y41014695D01*
X29090729Y41227782D01*
X29271938Y41408991D01*
X29485025Y41551371D01*
X29635460Y41613683D01*
X29721792Y41649443D01*
X29721793Y41649443D01*
X29721795Y41649444D01*
X29973141Y41699440D01*
X30229419Y41699440D01*
X30480765Y41649444D01*
X30480765Y41649444D01*
G37*
G36*
X26280765Y41649444D02*
X26280767Y41649443D01*
X26280768Y41649443D01*
X26367100Y41613683D01*
X26517535Y41551371D01*
X26730622Y41408991D01*
X26911831Y41227782D01*
X27054211Y41014695D01*
X27152284Y40777925D01*
X27202280Y40526579D01*
X27202280Y40270301D01*
X27152284Y40018955D01*
X27054211Y39782185D01*
X26911831Y39569098D01*
X26730622Y39387889D01*
X26730619Y39387887D01*
X26517535Y39245509D01*
X26280768Y39147437D01*
X26280767Y39147437D01*
X26280765Y39147436D01*
X26029419Y39097440D01*
X25773141Y39097440D01*
X25521795Y39147436D01*
X25521793Y39147437D01*
X25521792Y39147437D01*
X25285025Y39245509D01*
X25071941Y39387887D01*
X25071938Y39387889D01*
X24890729Y39569098D01*
X24748349Y39782185D01*
X24650276Y40018955D01*
X24600280Y40270301D01*
X24600280Y40526579D01*
X24650276Y40777925D01*
X24748349Y41014695D01*
X24890729Y41227782D01*
X25071938Y41408991D01*
X25285025Y41551371D01*
X25435460Y41613683D01*
X25521792Y41649443D01*
X25521793Y41649443D01*
X25521795Y41649444D01*
X25773141Y41699440D01*
X26029419Y41699440D01*
X26280765Y41649444D01*
X26280765Y41649444D01*
G37*
G36*
X30480765Y45849444D02*
X30480767Y45849443D01*
X30480768Y45849443D01*
X30717535Y45751371D01*
X30930622Y45608991D01*
X31111831Y45427782D01*
X31254211Y45214695D01*
X31352284Y44977925D01*
X31402280Y44726579D01*
X31402280Y44470301D01*
X31352284Y44218955D01*
X31254211Y43982185D01*
X31111831Y43769098D01*
X30930622Y43587889D01*
X30930619Y43587887D01*
X30717535Y43445509D01*
X30480768Y43347437D01*
X30480767Y43347437D01*
X30480765Y43347436D01*
X30229419Y43297440D01*
X29973141Y43297440D01*
X29721795Y43347436D01*
X29721793Y43347437D01*
X29721792Y43347437D01*
X29485025Y43445509D01*
X29271941Y43587887D01*
X29271938Y43587889D01*
X29090729Y43769098D01*
X28948349Y43982185D01*
X28850276Y44218955D01*
X28800280Y44470301D01*
X28800280Y44726579D01*
X28850276Y44977925D01*
X28948349Y45214695D01*
X29090729Y45427782D01*
X29271938Y45608991D01*
X29485025Y45751371D01*
X29721792Y45849443D01*
X29721793Y45849443D01*
X29721795Y45849444D01*
X29973141Y45899440D01*
X30229419Y45899440D01*
X30480765Y45849444D01*
X30480765Y45849444D01*
G37*
G36*
X6280765Y45849444D02*
X6280767Y45849443D01*
X6280768Y45849443D01*
X6517535Y45751371D01*
X6730622Y45608991D01*
X6911831Y45427782D01*
X7054211Y45214695D01*
X7152284Y44977925D01*
X7202280Y44726579D01*
X7202280Y44470301D01*
X7152284Y44218955D01*
X7054211Y43982185D01*
X6911831Y43769098D01*
X6730622Y43587889D01*
X6730619Y43587887D01*
X6517535Y43445509D01*
X6280768Y43347437D01*
X6280767Y43347437D01*
X6280765Y43347436D01*
X6029419Y43297440D01*
X5773141Y43297440D01*
X5521795Y43347436D01*
X5521793Y43347437D01*
X5521792Y43347437D01*
X5285025Y43445509D01*
X5071941Y43587887D01*
X5071938Y43587889D01*
X4890729Y43769098D01*
X4748349Y43982185D01*
X4650276Y44218955D01*
X4600280Y44470301D01*
X4600280Y44726579D01*
X4650276Y44977925D01*
X4748349Y45214695D01*
X4890729Y45427782D01*
X5071938Y45608991D01*
X5285025Y45751371D01*
X5521792Y45849443D01*
X5521793Y45849443D01*
X5521795Y45849444D01*
X5773141Y45899440D01*
X6029419Y45899440D01*
X6280765Y45849444D01*
X6280765Y45849444D01*
G37*
G36*
X26280765Y45849444D02*
X26280767Y45849443D01*
X26280768Y45849443D01*
X26517535Y45751371D01*
X26730622Y45608991D01*
X26911831Y45427782D01*
X27054211Y45214695D01*
X27152284Y44977925D01*
X27202280Y44726579D01*
X27202280Y44470301D01*
X27152284Y44218955D01*
X27054211Y43982185D01*
X26911831Y43769098D01*
X26730622Y43587889D01*
X26730619Y43587887D01*
X26517535Y43445509D01*
X26280768Y43347437D01*
X26280767Y43347437D01*
X26280765Y43347436D01*
X26029419Y43297440D01*
X25773141Y43297440D01*
X25521795Y43347436D01*
X25521793Y43347437D01*
X25521792Y43347437D01*
X25285025Y43445509D01*
X25071941Y43587887D01*
X25071938Y43587889D01*
X24890729Y43769098D01*
X24748349Y43982185D01*
X24650276Y44218955D01*
X24600280Y44470301D01*
X24600280Y44726579D01*
X24650276Y44977925D01*
X24748349Y45214695D01*
X24890729Y45427782D01*
X25071938Y45608991D01*
X25285025Y45751371D01*
X25521792Y45849443D01*
X25521793Y45849443D01*
X25521795Y45849444D01*
X25773141Y45899440D01*
X26029419Y45899440D01*
X26280765Y45849444D01*
X26280765Y45849444D01*
G37*
G36*
X10480765Y45849444D02*
X10480767Y45849443D01*
X10480768Y45849443D01*
X10717535Y45751371D01*
X10930622Y45608991D01*
X11111831Y45427782D01*
X11254211Y45214695D01*
X11352284Y44977925D01*
X11402280Y44726579D01*
X11402280Y44470301D01*
X11352284Y44218955D01*
X11254211Y43982185D01*
X11111831Y43769098D01*
X10930622Y43587889D01*
X10930619Y43587887D01*
X10717535Y43445509D01*
X10480768Y43347437D01*
X10480767Y43347437D01*
X10480765Y43347436D01*
X10229419Y43297440D01*
X9973141Y43297440D01*
X9721795Y43347436D01*
X9721793Y43347437D01*
X9721792Y43347437D01*
X9485025Y43445509D01*
X9271941Y43587887D01*
X9271938Y43587889D01*
X9090729Y43769098D01*
X8948349Y43982185D01*
X8850276Y44218955D01*
X8800280Y44470301D01*
X8800280Y44726579D01*
X8850276Y44977925D01*
X8948349Y45214695D01*
X9090729Y45427782D01*
X9271938Y45608991D01*
X9485025Y45751371D01*
X9721792Y45849443D01*
X9721793Y45849443D01*
X9721795Y45849444D01*
X9973141Y45899440D01*
X10229419Y45899440D01*
X10480765Y45849444D01*
X10480765Y45849444D01*
G37*
G36*
X30480765Y50049444D02*
X30480767Y50049443D01*
X30480768Y50049443D01*
X30717535Y49951371D01*
X30930622Y49808991D01*
X31111831Y49627782D01*
X31254211Y49414695D01*
X31352284Y49177925D01*
X31402280Y48926579D01*
X31402280Y48670301D01*
X31352284Y48418955D01*
X31254211Y48182185D01*
X31111831Y47969098D01*
X30930622Y47787889D01*
X30930619Y47787887D01*
X30717535Y47645509D01*
X30480768Y47547437D01*
X30480767Y47547437D01*
X30480765Y47547436D01*
X30229419Y47497440D01*
X29973141Y47497440D01*
X29721795Y47547436D01*
X29721793Y47547437D01*
X29721792Y47547437D01*
X29485025Y47645509D01*
X29271941Y47787887D01*
X29271938Y47787889D01*
X29090729Y47969098D01*
X28948349Y48182185D01*
X28850276Y48418955D01*
X28800280Y48670301D01*
X28800280Y48926579D01*
X28850276Y49177925D01*
X28948349Y49414695D01*
X29090729Y49627782D01*
X29271938Y49808991D01*
X29485025Y49951371D01*
X29721792Y50049443D01*
X29721793Y50049443D01*
X29721795Y50049444D01*
X29973141Y50099440D01*
X30229419Y50099440D01*
X30480765Y50049444D01*
X30480765Y50049444D01*
G37*
G36*
X6280765Y50049444D02*
X6280767Y50049443D01*
X6280768Y50049443D01*
X6517535Y49951371D01*
X6730622Y49808991D01*
X6911831Y49627782D01*
X7054211Y49414695D01*
X7152284Y49177925D01*
X7202280Y48926579D01*
X7202280Y48670301D01*
X7152284Y48418955D01*
X7054211Y48182185D01*
X6911831Y47969098D01*
X6730622Y47787889D01*
X6730619Y47787887D01*
X6517535Y47645509D01*
X6280768Y47547437D01*
X6280767Y47547437D01*
X6280765Y47547436D01*
X6029419Y47497440D01*
X5773141Y47497440D01*
X5521795Y47547436D01*
X5521793Y47547437D01*
X5521792Y47547437D01*
X5285025Y47645509D01*
X5071941Y47787887D01*
X5071938Y47787889D01*
X4890729Y47969098D01*
X4748349Y48182185D01*
X4650276Y48418955D01*
X4600280Y48670301D01*
X4600280Y48926579D01*
X4650276Y49177925D01*
X4748349Y49414695D01*
X4890729Y49627782D01*
X5071938Y49808991D01*
X5285025Y49951371D01*
X5521792Y50049443D01*
X5521793Y50049443D01*
X5521795Y50049444D01*
X5773141Y50099440D01*
X6029419Y50099440D01*
X6280765Y50049444D01*
X6280765Y50049444D01*
G37*
G36*
X10480765Y50049444D02*
X10480767Y50049443D01*
X10480768Y50049443D01*
X10717535Y49951371D01*
X10930622Y49808991D01*
X11111831Y49627782D01*
X11254211Y49414695D01*
X11352284Y49177925D01*
X11402280Y48926579D01*
X11402280Y48670301D01*
X11352284Y48418955D01*
X11254211Y48182185D01*
X11111831Y47969098D01*
X10930622Y47787889D01*
X10930619Y47787887D01*
X10717535Y47645509D01*
X10480768Y47547437D01*
X10480767Y47547437D01*
X10480765Y47547436D01*
X10229419Y47497440D01*
X9973141Y47497440D01*
X9721795Y47547436D01*
X9721793Y47547437D01*
X9721792Y47547437D01*
X9485025Y47645509D01*
X9271941Y47787887D01*
X9271938Y47787889D01*
X9090729Y47969098D01*
X8948349Y48182185D01*
X8850276Y48418955D01*
X8800280Y48670301D01*
X8800280Y48926579D01*
X8850276Y49177925D01*
X8948349Y49414695D01*
X9090729Y49627782D01*
X9271938Y49808991D01*
X9485025Y49951371D01*
X9721792Y50049443D01*
X9721793Y50049443D01*
X9721795Y50049444D01*
X9973141Y50099440D01*
X10229419Y50099440D01*
X10480765Y50049444D01*
X10480765Y50049444D01*
G37*
G36*
X26280765Y50049444D02*
X26280767Y50049443D01*
X26280768Y50049443D01*
X26517535Y49951371D01*
X26730622Y49808991D01*
X26911831Y49627782D01*
X27054211Y49414695D01*
X27152284Y49177925D01*
X27202280Y48926579D01*
X27202280Y48670301D01*
X27152284Y48418955D01*
X27054211Y48182185D01*
X26911831Y47969098D01*
X26730622Y47787889D01*
X26730619Y47787887D01*
X26517535Y47645509D01*
X26280768Y47547437D01*
X26280767Y47547437D01*
X26280765Y47547436D01*
X26029419Y47497440D01*
X25773141Y47497440D01*
X25521795Y47547436D01*
X25521793Y47547437D01*
X25521792Y47547437D01*
X25285025Y47645509D01*
X25071941Y47787887D01*
X25071938Y47787889D01*
X24890729Y47969098D01*
X24748349Y48182185D01*
X24650276Y48418955D01*
X24600280Y48670301D01*
X24600280Y48926579D01*
X24650276Y49177925D01*
X24748349Y49414695D01*
X24890729Y49627782D01*
X25071938Y49808991D01*
X25285025Y49951371D01*
X25521792Y50049443D01*
X25521793Y50049443D01*
X25521795Y50049444D01*
X25773141Y50099440D01*
X26029419Y50099440D01*
X26280765Y50049444D01*
X26280765Y50049444D01*
G37*
G36*
X57203825Y62759260D02*
X58578018Y62190050D01*
X58578020Y62190049D01*
X59011440Y61900447D01*
X59814765Y61363683D01*
X60866523Y60311925D01*
X60866525Y60311922D01*
X61154547Y59880867D01*
X61692890Y59075178D01*
X62262100Y57700985D01*
X62552280Y56242150D01*
X62552280Y54754730D01*
X62262100Y53295895D01*
X61804437Y52191001D01*
X61692889Y51921700D01*
X61449091Y51556830D01*
X60866523Y50684955D01*
X59814765Y49633197D01*
X59814762Y49633195D01*
X58578020Y48806831D01*
X58578019Y48806830D01*
X58578018Y48806830D01*
X57203825Y48237620D01*
X55744990Y47947440D01*
X54257570Y47947440D01*
X52798735Y48237620D01*
X51424542Y48806830D01*
X51424541Y48806830D01*
X51424540Y48806831D01*
X50187798Y49633195D01*
X50187795Y49633197D01*
X49136037Y50684955D01*
X48553469Y51556830D01*
X48309671Y51921700D01*
X48198123Y52191001D01*
X47740460Y53295895D01*
X47450280Y54754730D01*
X47450280Y56242150D01*
X47740460Y57700985D01*
X48309670Y59075178D01*
X48848014Y59880867D01*
X49136035Y60311922D01*
X49136037Y60311925D01*
X50187795Y61363683D01*
X50991120Y61900447D01*
X51424540Y62190049D01*
X51424542Y62190050D01*
X52798735Y62759260D01*
X54257570Y63049440D01*
X55744990Y63049440D01*
X57203825Y62759260D01*
X57203825Y62759260D01*
G37*
G36*
X117203825Y65509260D02*
X118578018Y64940050D01*
X118578020Y64940049D01*
X119798314Y64124675D01*
X119814765Y64113683D01*
X120866523Y63061925D01*
X120866525Y63061922D01*
X121449092Y62190049D01*
X121692890Y61825178D01*
X122262100Y60450985D01*
X122552280Y58992150D01*
X122552280Y57504730D01*
X122262100Y56045895D01*
X121727282Y54754731D01*
X121692889Y54671700D01*
X121558086Y54469953D01*
X120866523Y53434955D01*
X119814765Y52383197D01*
X119814762Y52383195D01*
X118578020Y51556831D01*
X118578019Y51556830D01*
X118578018Y51556830D01*
X117203825Y50987620D01*
X115744990Y50697440D01*
X114257570Y50697440D01*
X112798735Y50987620D01*
X111424542Y51556830D01*
X111424541Y51556830D01*
X111424540Y51556831D01*
X110187798Y52383195D01*
X110187795Y52383197D01*
X109136037Y53434955D01*
X108444474Y54469953D01*
X108309671Y54671700D01*
X108275278Y54754731D01*
X107740460Y56045895D01*
X107450280Y57504730D01*
X107450280Y58992150D01*
X107740460Y60450985D01*
X108309670Y61825178D01*
X108553469Y62190049D01*
X109136035Y63061922D01*
X109136037Y63061925D01*
X110187795Y64113683D01*
X110204246Y64124675D01*
X111424540Y64940049D01*
X111424542Y64940050D01*
X112798735Y65509260D01*
X114257570Y65799440D01*
X115744990Y65799440D01*
X117203825Y65509260D01*
X117203825Y65509260D01*
G37*
G36*
X6499532Y55470622D02*
X6499534Y55470621D01*
X6499535Y55470621D01*
X6872793Y55316013D01*
X6872794Y55316012D01*
X7208719Y55091554D01*
X7494394Y54805879D01*
X7494396Y54805876D01*
X7718853Y54469953D01*
X7873461Y54096695D01*
X7952280Y53700446D01*
X7952280Y53296434D01*
X7873461Y52900185D01*
X7718853Y52526927D01*
X7622814Y52383195D01*
X7494394Y52191001D01*
X7208719Y51905326D01*
X7208716Y51905324D01*
X6872793Y51680867D01*
X6499535Y51526259D01*
X6499534Y51526259D01*
X6499532Y51526258D01*
X6103287Y51447440D01*
X5699273Y51447440D01*
X5303028Y51526258D01*
X5303026Y51526259D01*
X5303025Y51526259D01*
X4929767Y51680867D01*
X4593844Y51905324D01*
X4593841Y51905326D01*
X4308166Y52191001D01*
X4179746Y52383195D01*
X4083707Y52526927D01*
X3929099Y52900185D01*
X3850280Y53296434D01*
X3850280Y53700446D01*
X3929099Y54096695D01*
X4083707Y54469953D01*
X4308164Y54805876D01*
X4308166Y54805879D01*
X4593841Y55091554D01*
X4929766Y55316012D01*
X4929767Y55316013D01*
X5303025Y55470621D01*
X5303026Y55470621D01*
X5303028Y55470622D01*
X5699273Y55549440D01*
X6103287Y55549440D01*
X6499532Y55470622D01*
X6499532Y55470622D01*
G37*
G36*
X30699532Y55470622D02*
X30699534Y55470621D01*
X30699535Y55470621D01*
X31072793Y55316013D01*
X31072794Y55316012D01*
X31408719Y55091554D01*
X31694394Y54805879D01*
X31694396Y54805876D01*
X31918853Y54469953D01*
X32073461Y54096695D01*
X32152280Y53700446D01*
X32152280Y53296434D01*
X32073461Y52900185D01*
X31918853Y52526927D01*
X31822814Y52383195D01*
X31694394Y52191001D01*
X31408719Y51905326D01*
X31408716Y51905324D01*
X31072793Y51680867D01*
X30699535Y51526259D01*
X30699534Y51526259D01*
X30699532Y51526258D01*
X30303287Y51447440D01*
X29899273Y51447440D01*
X29503028Y51526258D01*
X29503026Y51526259D01*
X29503025Y51526259D01*
X29129767Y51680867D01*
X28793844Y51905324D01*
X28793841Y51905326D01*
X28508166Y52191001D01*
X28379746Y52383195D01*
X28283707Y52526927D01*
X28129099Y52900185D01*
X28050280Y53296434D01*
X28050280Y53700446D01*
X28129099Y54096695D01*
X28283707Y54469953D01*
X28508164Y54805876D01*
X28508166Y54805879D01*
X28793841Y55091554D01*
X29129766Y55316012D01*
X29129767Y55316013D01*
X29503025Y55470621D01*
X29503026Y55470621D01*
X29503028Y55470622D01*
X29899273Y55549440D01*
X30303287Y55549440D01*
X30699532Y55470622D01*
X30699532Y55470622D01*
G37*
G36*
X30699532Y63670622D02*
X30699534Y63670621D01*
X30699535Y63670621D01*
X31072793Y63516013D01*
X31072794Y63516012D01*
X31408719Y63291554D01*
X31694394Y63005879D01*
X31694396Y63005876D01*
X31918853Y62669953D01*
X32073461Y62296695D01*
X32073462Y62296692D01*
X32152280Y61900447D01*
X32152280Y61496434D01*
X32073461Y61100185D01*
X31918853Y60726927D01*
X31918852Y60726926D01*
X31694394Y60391001D01*
X31408719Y60105326D01*
X31408716Y60105324D01*
X31072793Y59880867D01*
X30699535Y59726259D01*
X30699534Y59726259D01*
X30699532Y59726258D01*
X30303287Y59647440D01*
X29899273Y59647440D01*
X29503028Y59726258D01*
X29503026Y59726259D01*
X29503025Y59726259D01*
X29129767Y59880867D01*
X28793844Y60105324D01*
X28793841Y60105326D01*
X28508166Y60391001D01*
X28283708Y60726926D01*
X28283707Y60726927D01*
X28129099Y61100185D01*
X28050280Y61496434D01*
X28050280Y61900447D01*
X28129098Y62296692D01*
X28129099Y62296695D01*
X28283707Y62669953D01*
X28508164Y63005876D01*
X28508166Y63005879D01*
X28793841Y63291554D01*
X29129766Y63516012D01*
X29129767Y63516013D01*
X29503025Y63670621D01*
X29503026Y63670621D01*
X29503028Y63670622D01*
X29899273Y63749440D01*
X30303287Y63749440D01*
X30699532Y63670622D01*
X30699532Y63670622D01*
G37*
G36*
X6499532Y63670622D02*
X6499534Y63670621D01*
X6499535Y63670621D01*
X6872793Y63516013D01*
X6872794Y63516012D01*
X7208719Y63291554D01*
X7494394Y63005879D01*
X7494396Y63005876D01*
X7718853Y62669953D01*
X7873461Y62296695D01*
X7873462Y62296692D01*
X7952280Y61900447D01*
X7952280Y61496434D01*
X7873461Y61100185D01*
X7718853Y60726927D01*
X7718852Y60726926D01*
X7494394Y60391001D01*
X7208719Y60105326D01*
X7208716Y60105324D01*
X6872793Y59880867D01*
X6499535Y59726259D01*
X6499534Y59726259D01*
X6499532Y59726258D01*
X6103287Y59647440D01*
X5699273Y59647440D01*
X5303028Y59726258D01*
X5303026Y59726259D01*
X5303025Y59726259D01*
X4929767Y59880867D01*
X4593844Y60105324D01*
X4593841Y60105326D01*
X4308166Y60391001D01*
X4083708Y60726926D01*
X4083707Y60726927D01*
X3929099Y61100185D01*
X3850280Y61496434D01*
X3850280Y61900447D01*
X3929098Y62296692D01*
X3929099Y62296695D01*
X4083707Y62669953D01*
X4308164Y63005876D01*
X4308166Y63005879D01*
X4593841Y63291554D01*
X4929766Y63516012D01*
X4929767Y63516013D01*
X5303025Y63670621D01*
X5303026Y63670621D01*
X5303028Y63670622D01*
X5699273Y63749440D01*
X6103287Y63749440D01*
X6499532Y63670622D01*
X6499532Y63670622D01*
G37*
G36*
X10680765Y67649444D02*
X10680767Y67649443D01*
X10680768Y67649443D01*
X10917535Y67551371D01*
X11130622Y67408991D01*
X11311831Y67227782D01*
X11454211Y67014695D01*
X11552284Y66777925D01*
X11602280Y66526579D01*
X11602280Y66270301D01*
X11552284Y66018955D01*
X11454211Y65782185D01*
X11311831Y65569098D01*
X11130622Y65387889D01*
X11130619Y65387887D01*
X10917535Y65245509D01*
X10680768Y65147437D01*
X10680767Y65147437D01*
X10680765Y65147436D01*
X10429419Y65097440D01*
X10173141Y65097440D01*
X9921795Y65147436D01*
X9921793Y65147437D01*
X9921792Y65147437D01*
X9685025Y65245509D01*
X9471941Y65387887D01*
X9471938Y65387889D01*
X9290729Y65569098D01*
X9148349Y65782185D01*
X9050276Y66018955D01*
X9000280Y66270301D01*
X9000280Y66526579D01*
X9050276Y66777925D01*
X9148349Y67014695D01*
X9290729Y67227782D01*
X9471938Y67408991D01*
X9685025Y67551371D01*
X9921792Y67649443D01*
X9921793Y67649443D01*
X9921795Y67649444D01*
X10173141Y67699440D01*
X10429419Y67699440D01*
X10680765Y67649444D01*
X10680765Y67649444D01*
G37*
G36*
X26080765Y67649444D02*
X26080767Y67649443D01*
X26080768Y67649443D01*
X26317535Y67551371D01*
X26530622Y67408991D01*
X26711831Y67227782D01*
X26854211Y67014695D01*
X26952284Y66777925D01*
X27002280Y66526579D01*
X27002280Y66270301D01*
X26952284Y66018955D01*
X26854211Y65782185D01*
X26711831Y65569098D01*
X26530622Y65387889D01*
X26530619Y65387887D01*
X26317535Y65245509D01*
X26080768Y65147437D01*
X26080767Y65147437D01*
X26080765Y65147436D01*
X25829419Y65097440D01*
X25573141Y65097440D01*
X25321795Y65147436D01*
X25321793Y65147437D01*
X25321792Y65147437D01*
X25085025Y65245509D01*
X24871941Y65387887D01*
X24871938Y65387889D01*
X24690729Y65569098D01*
X24548349Y65782185D01*
X24450276Y66018955D01*
X24400280Y66270301D01*
X24400280Y66526579D01*
X24450276Y66777925D01*
X24548349Y67014695D01*
X24690729Y67227782D01*
X24871938Y67408991D01*
X25085025Y67551371D01*
X25321792Y67649443D01*
X25321793Y67649443D01*
X25321795Y67649444D01*
X25573141Y67699440D01*
X25829419Y67699440D01*
X26080765Y67649444D01*
X26080765Y67649444D01*
G37*
G36*
X30280765Y67649444D02*
X30280767Y67649443D01*
X30280768Y67649443D01*
X30517535Y67551371D01*
X30730622Y67408991D01*
X30911831Y67227782D01*
X31054211Y67014695D01*
X31152284Y66777925D01*
X31202280Y66526579D01*
X31202280Y66270301D01*
X31152284Y66018955D01*
X31054211Y65782185D01*
X30911831Y65569098D01*
X30730622Y65387889D01*
X30730619Y65387887D01*
X30517535Y65245509D01*
X30280768Y65147437D01*
X30280767Y65147437D01*
X30280765Y65147436D01*
X30029419Y65097440D01*
X29773141Y65097440D01*
X29521795Y65147436D01*
X29521793Y65147437D01*
X29521792Y65147437D01*
X29285025Y65245509D01*
X29071941Y65387887D01*
X29071938Y65387889D01*
X28890729Y65569098D01*
X28748349Y65782185D01*
X28650276Y66018955D01*
X28600280Y66270301D01*
X28600280Y66526579D01*
X28650276Y66777925D01*
X28748349Y67014695D01*
X28890729Y67227782D01*
X29071938Y67408991D01*
X29285025Y67551371D01*
X29521792Y67649443D01*
X29521793Y67649443D01*
X29521795Y67649444D01*
X29773141Y67699440D01*
X30029419Y67699440D01*
X30280765Y67649444D01*
X30280765Y67649444D01*
G37*
G36*
X6480765Y67649444D02*
X6480767Y67649443D01*
X6480768Y67649443D01*
X6717535Y67551371D01*
X6930622Y67408991D01*
X7111831Y67227782D01*
X7254211Y67014695D01*
X7352284Y66777925D01*
X7402280Y66526579D01*
X7402280Y66270301D01*
X7352284Y66018955D01*
X7254211Y65782185D01*
X7111831Y65569098D01*
X6930622Y65387889D01*
X6930619Y65387887D01*
X6717535Y65245509D01*
X6480768Y65147437D01*
X6480767Y65147437D01*
X6480765Y65147436D01*
X6229419Y65097440D01*
X5973141Y65097440D01*
X5721795Y65147436D01*
X5721793Y65147437D01*
X5721792Y65147437D01*
X5485025Y65245509D01*
X5271941Y65387887D01*
X5271938Y65387889D01*
X5090729Y65569098D01*
X4948349Y65782185D01*
X4850276Y66018955D01*
X4800280Y66270301D01*
X4800280Y66526579D01*
X4850276Y66777925D01*
X4948349Y67014695D01*
X5090729Y67227782D01*
X5271938Y67408991D01*
X5485025Y67551371D01*
X5721792Y67649443D01*
X5721793Y67649443D01*
X5721795Y67649444D01*
X5973141Y67699440D01*
X6229419Y67699440D01*
X6480765Y67649444D01*
X6480765Y67649444D01*
G37*
G36*
X10680765Y71849444D02*
X10680767Y71849443D01*
X10680768Y71849443D01*
X10917535Y71751371D01*
X11130622Y71608991D01*
X11311831Y71427782D01*
X11454211Y71214695D01*
X11552284Y70977925D01*
X11602280Y70726579D01*
X11602280Y70470301D01*
X11552284Y70218955D01*
X11454211Y69982185D01*
X11311831Y69769098D01*
X11130622Y69587889D01*
X11130619Y69587887D01*
X10917535Y69445509D01*
X10680768Y69347437D01*
X10680767Y69347437D01*
X10680765Y69347436D01*
X10429419Y69297440D01*
X10173141Y69297440D01*
X9921795Y69347436D01*
X9921793Y69347437D01*
X9921792Y69347437D01*
X9685025Y69445509D01*
X9471941Y69587887D01*
X9471938Y69587889D01*
X9290729Y69769098D01*
X9148349Y69982185D01*
X9050276Y70218955D01*
X9000280Y70470301D01*
X9000280Y70726579D01*
X9050276Y70977925D01*
X9148349Y71214695D01*
X9290729Y71427782D01*
X9471938Y71608991D01*
X9685025Y71751371D01*
X9921792Y71849443D01*
X9921793Y71849443D01*
X9921795Y71849444D01*
X10173141Y71899440D01*
X10429419Y71899440D01*
X10680765Y71849444D01*
X10680765Y71849444D01*
G37*
G36*
X26080765Y71849444D02*
X26080767Y71849443D01*
X26080768Y71849443D01*
X26317535Y71751371D01*
X26530622Y71608991D01*
X26711831Y71427782D01*
X26854211Y71214695D01*
X26952284Y70977925D01*
X27002280Y70726579D01*
X27002280Y70470301D01*
X26952284Y70218955D01*
X26854211Y69982185D01*
X26711831Y69769098D01*
X26530622Y69587889D01*
X26530619Y69587887D01*
X26317535Y69445509D01*
X26080768Y69347437D01*
X26080767Y69347437D01*
X26080765Y69347436D01*
X25829419Y69297440D01*
X25573141Y69297440D01*
X25321795Y69347436D01*
X25321793Y69347437D01*
X25321792Y69347437D01*
X25085025Y69445509D01*
X24871941Y69587887D01*
X24871938Y69587889D01*
X24690729Y69769098D01*
X24548349Y69982185D01*
X24450276Y70218955D01*
X24400280Y70470301D01*
X24400280Y70726579D01*
X24450276Y70977925D01*
X24548349Y71214695D01*
X24690729Y71427782D01*
X24871938Y71608991D01*
X25085025Y71751371D01*
X25321792Y71849443D01*
X25321793Y71849443D01*
X25321795Y71849444D01*
X25573141Y71899440D01*
X25829419Y71899440D01*
X26080765Y71849444D01*
X26080765Y71849444D01*
G37*
G36*
X30280765Y71849444D02*
X30280767Y71849443D01*
X30280768Y71849443D01*
X30517535Y71751371D01*
X30730622Y71608991D01*
X30911831Y71427782D01*
X31054211Y71214695D01*
X31152284Y70977925D01*
X31202280Y70726579D01*
X31202280Y70470301D01*
X31152284Y70218955D01*
X31054211Y69982185D01*
X30911831Y69769098D01*
X30730622Y69587889D01*
X30730619Y69587887D01*
X30517535Y69445509D01*
X30280768Y69347437D01*
X30280767Y69347437D01*
X30280765Y69347436D01*
X30029419Y69297440D01*
X29773141Y69297440D01*
X29521795Y69347436D01*
X29521793Y69347437D01*
X29521792Y69347437D01*
X29285025Y69445509D01*
X29071941Y69587887D01*
X29071938Y69587889D01*
X28890729Y69769098D01*
X28748349Y69982185D01*
X28650276Y70218955D01*
X28600280Y70470301D01*
X28600280Y70726579D01*
X28650276Y70977925D01*
X28748349Y71214695D01*
X28890729Y71427782D01*
X29071938Y71608991D01*
X29285025Y71751371D01*
X29521792Y71849443D01*
X29521793Y71849443D01*
X29521795Y71849444D01*
X29773141Y71899440D01*
X30029419Y71899440D01*
X30280765Y71849444D01*
X30280765Y71849444D01*
G37*
G36*
X6480765Y71849444D02*
X6480767Y71849443D01*
X6480768Y71849443D01*
X6717535Y71751371D01*
X6930622Y71608991D01*
X7111831Y71427782D01*
X7254211Y71214695D01*
X7352284Y70977925D01*
X7402280Y70726579D01*
X7402280Y70470301D01*
X7352284Y70218955D01*
X7254211Y69982185D01*
X7111831Y69769098D01*
X6930622Y69587889D01*
X6930619Y69587887D01*
X6717535Y69445509D01*
X6480768Y69347437D01*
X6480767Y69347437D01*
X6480765Y69347436D01*
X6229419Y69297440D01*
X5973141Y69297440D01*
X5721795Y69347436D01*
X5721793Y69347437D01*
X5721792Y69347437D01*
X5485025Y69445509D01*
X5271941Y69587887D01*
X5271938Y69587889D01*
X5090729Y69769098D01*
X4948349Y69982185D01*
X4850276Y70218955D01*
X4800280Y70470301D01*
X4800280Y70726579D01*
X4850276Y70977925D01*
X4948349Y71214695D01*
X5090729Y71427782D01*
X5271938Y71608991D01*
X5485025Y71751371D01*
X5721792Y71849443D01*
X5721793Y71849443D01*
X5721795Y71849444D01*
X5973141Y71899440D01*
X6229419Y71899440D01*
X6480765Y71849444D01*
X6480765Y71849444D01*
G37*
G36*
X57203825Y85259260D02*
X58578018Y84690050D01*
X58578020Y84690049D01*
X59124085Y84325180D01*
X59814765Y83863683D01*
X60866523Y82811925D01*
X60866525Y82811922D01*
X61488636Y81880867D01*
X61692890Y81575178D01*
X62262100Y80200985D01*
X62552280Y78742150D01*
X62552280Y77254730D01*
X62262100Y75795895D01*
X61795864Y74670303D01*
X61692889Y74421700D01*
X61108725Y73547436D01*
X60866523Y73184955D01*
X59814765Y72133197D01*
X59814762Y72133195D01*
X58578020Y71306831D01*
X58578019Y71306830D01*
X58578018Y71306830D01*
X57203825Y70737620D01*
X55744990Y70447440D01*
X54257570Y70447440D01*
X52798735Y70737620D01*
X51424542Y71306830D01*
X51424541Y71306830D01*
X51424540Y71306831D01*
X50187798Y72133195D01*
X50187795Y72133197D01*
X49136037Y73184955D01*
X48893835Y73547436D01*
X48309671Y74421700D01*
X48206696Y74670303D01*
X47740460Y75795895D01*
X47450280Y77254730D01*
X47450280Y78742150D01*
X47740460Y80200985D01*
X48309670Y81575178D01*
X48513925Y81880867D01*
X49136035Y82811922D01*
X49136037Y82811925D01*
X50187795Y83863683D01*
X50878475Y84325180D01*
X51424540Y84690049D01*
X51424542Y84690050D01*
X52798735Y85259260D01*
X54257570Y85549440D01*
X55744990Y85549440D01*
X57203825Y85259260D01*
X57203825Y85259260D01*
G37*
G36*
X117203825Y88009260D02*
X118560177Y87447440D01*
X118578020Y87440049D01*
X119798314Y86624675D01*
X119814765Y86613683D01*
X120866523Y85561925D01*
X120866525Y85561922D01*
X121462519Y84669954D01*
X121692890Y84325178D01*
X122262100Y82950985D01*
X122552280Y81492150D01*
X122552280Y80004730D01*
X122262100Y78545895D01*
X121692890Y77171702D01*
X120866523Y75934955D01*
X119814765Y74883197D01*
X119814762Y74883195D01*
X118578020Y74056831D01*
X118578019Y74056830D01*
X118578018Y74056830D01*
X117203825Y73487620D01*
X115744990Y73197440D01*
X114257570Y73197440D01*
X112798735Y73487620D01*
X111424542Y74056830D01*
X111424541Y74056830D01*
X111424540Y74056831D01*
X110187798Y74883195D01*
X110187795Y74883197D01*
X109136037Y75934955D01*
X108309670Y77171702D01*
X107740460Y78545895D01*
X107450280Y80004730D01*
X107450280Y81492150D01*
X107740460Y82950985D01*
X108309670Y84325178D01*
X108540042Y84669954D01*
X109136035Y85561922D01*
X109136037Y85561925D01*
X110187795Y86613683D01*
X110204246Y86624675D01*
X111424540Y87440049D01*
X111442383Y87447440D01*
X112798735Y88009260D01*
X114257570Y88299440D01*
X115744990Y88299440D01*
X117203825Y88009260D01*
X117203825Y88009260D01*
G37*
G36*
X26080765Y76049444D02*
X26080767Y76049443D01*
X26080768Y76049443D01*
X26317535Y75951371D01*
X26530622Y75808991D01*
X26711831Y75627782D01*
X26854211Y75414695D01*
X26952284Y75177925D01*
X27002280Y74926579D01*
X27002280Y74670301D01*
X26952284Y74418955D01*
X26854211Y74182185D01*
X26711831Y73969098D01*
X26530622Y73787889D01*
X26530619Y73787887D01*
X26317535Y73645509D01*
X26080768Y73547437D01*
X26080767Y73547437D01*
X26080765Y73547436D01*
X25829419Y73497440D01*
X25573141Y73497440D01*
X25321795Y73547436D01*
X25321793Y73547437D01*
X25321792Y73547437D01*
X25085025Y73645509D01*
X24871941Y73787887D01*
X24871938Y73787889D01*
X24690729Y73969098D01*
X24548349Y74182185D01*
X24450276Y74418955D01*
X24400280Y74670301D01*
X24400280Y74926579D01*
X24450276Y75177925D01*
X24548349Y75414695D01*
X24690729Y75627782D01*
X24871938Y75808991D01*
X25085025Y75951371D01*
X25321792Y76049443D01*
X25321793Y76049443D01*
X25321795Y76049444D01*
X25573141Y76099440D01*
X25829419Y76099440D01*
X26080765Y76049444D01*
X26080765Y76049444D01*
G37*
G36*
X30280765Y76049444D02*
X30280767Y76049443D01*
X30280768Y76049443D01*
X30517535Y75951371D01*
X30730622Y75808991D01*
X30911831Y75627782D01*
X31054211Y75414695D01*
X31152284Y75177925D01*
X31202280Y74926579D01*
X31202280Y74670301D01*
X31152284Y74418955D01*
X31054211Y74182185D01*
X30911831Y73969098D01*
X30730622Y73787889D01*
X30730619Y73787887D01*
X30517535Y73645509D01*
X30280768Y73547437D01*
X30280767Y73547437D01*
X30280765Y73547436D01*
X30029419Y73497440D01*
X29773141Y73497440D01*
X29521795Y73547436D01*
X29521793Y73547437D01*
X29521792Y73547437D01*
X29285025Y73645509D01*
X29071941Y73787887D01*
X29071938Y73787889D01*
X28890729Y73969098D01*
X28748349Y74182185D01*
X28650276Y74418955D01*
X28600280Y74670301D01*
X28600280Y74926579D01*
X28650276Y75177925D01*
X28748349Y75414695D01*
X28890729Y75627782D01*
X29071938Y75808991D01*
X29285025Y75951371D01*
X29521792Y76049443D01*
X29521793Y76049443D01*
X29521795Y76049444D01*
X29773141Y76099440D01*
X30029419Y76099440D01*
X30280765Y76049444D01*
X30280765Y76049444D01*
G37*
G36*
X10680765Y76049444D02*
X10680767Y76049443D01*
X10680768Y76049443D01*
X10917535Y75951371D01*
X11130622Y75808991D01*
X11311831Y75627782D01*
X11454211Y75414695D01*
X11552284Y75177925D01*
X11602280Y74926579D01*
X11602280Y74670301D01*
X11552284Y74418955D01*
X11454211Y74182185D01*
X11311831Y73969098D01*
X11130622Y73787889D01*
X11130619Y73787887D01*
X10917535Y73645509D01*
X10680768Y73547437D01*
X10680767Y73547437D01*
X10680765Y73547436D01*
X10429419Y73497440D01*
X10173141Y73497440D01*
X9921795Y73547436D01*
X9921793Y73547437D01*
X9921792Y73547437D01*
X9685025Y73645509D01*
X9471941Y73787887D01*
X9471938Y73787889D01*
X9290729Y73969098D01*
X9148349Y74182185D01*
X9050276Y74418955D01*
X9000280Y74670301D01*
X9000280Y74926579D01*
X9050276Y75177925D01*
X9148349Y75414695D01*
X9290729Y75627782D01*
X9471938Y75808991D01*
X9685025Y75951371D01*
X9921792Y76049443D01*
X9921793Y76049443D01*
X9921795Y76049444D01*
X10173141Y76099440D01*
X10429419Y76099440D01*
X10680765Y76049444D01*
X10680765Y76049444D01*
G37*
G36*
X6480765Y76049444D02*
X6480767Y76049443D01*
X6480768Y76049443D01*
X6717535Y75951371D01*
X6930622Y75808991D01*
X7111831Y75627782D01*
X7254211Y75414695D01*
X7352284Y75177925D01*
X7402280Y74926579D01*
X7402280Y74670301D01*
X7352284Y74418955D01*
X7254211Y74182185D01*
X7111831Y73969098D01*
X6930622Y73787889D01*
X6930619Y73787887D01*
X6717535Y73645509D01*
X6480768Y73547437D01*
X6480767Y73547437D01*
X6480765Y73547436D01*
X6229419Y73497440D01*
X5973141Y73497440D01*
X5721795Y73547436D01*
X5721793Y73547437D01*
X5721792Y73547437D01*
X5485025Y73645509D01*
X5271941Y73787887D01*
X5271938Y73787889D01*
X5090729Y73969098D01*
X4948349Y74182185D01*
X4850276Y74418955D01*
X4800280Y74670301D01*
X4800280Y74926579D01*
X4850276Y75177925D01*
X4948349Y75414695D01*
X5090729Y75627782D01*
X5271938Y75808991D01*
X5485025Y75951371D01*
X5721792Y76049443D01*
X5721793Y76049443D01*
X5721795Y76049444D01*
X5973141Y76099440D01*
X6229419Y76099440D01*
X6480765Y76049444D01*
X6480765Y76049444D01*
G37*
G36*
X10680765Y80249444D02*
X10680767Y80249443D01*
X10680768Y80249443D01*
X10797756Y80200985D01*
X10917535Y80151371D01*
X11130622Y80008991D01*
X11311831Y79827782D01*
X11454211Y79614695D01*
X11552284Y79377925D01*
X11602280Y79126579D01*
X11602280Y78870301D01*
X11552284Y78618955D01*
X11454211Y78382185D01*
X11311831Y78169098D01*
X11130622Y77987889D01*
X11130619Y77987887D01*
X10917535Y77845509D01*
X10680768Y77747437D01*
X10680767Y77747437D01*
X10680765Y77747436D01*
X10429419Y77697440D01*
X10173141Y77697440D01*
X9921795Y77747436D01*
X9921793Y77747437D01*
X9921792Y77747437D01*
X9685025Y77845509D01*
X9471941Y77987887D01*
X9471938Y77987889D01*
X9290729Y78169098D01*
X9148349Y78382185D01*
X9050276Y78618955D01*
X9000280Y78870301D01*
X9000280Y79126579D01*
X9050276Y79377925D01*
X9148349Y79614695D01*
X9290729Y79827782D01*
X9471938Y80008991D01*
X9685025Y80151371D01*
X9804804Y80200985D01*
X9921792Y80249443D01*
X9921793Y80249443D01*
X9921795Y80249444D01*
X10173141Y80299440D01*
X10429419Y80299440D01*
X10680765Y80249444D01*
X10680765Y80249444D01*
G37*
G36*
X6480765Y80249444D02*
X6480767Y80249443D01*
X6480768Y80249443D01*
X6597756Y80200985D01*
X6717535Y80151371D01*
X6930622Y80008991D01*
X7111831Y79827782D01*
X7254211Y79614695D01*
X7352284Y79377925D01*
X7402280Y79126579D01*
X7402280Y78870301D01*
X7352284Y78618955D01*
X7254211Y78382185D01*
X7111831Y78169098D01*
X6930622Y77987889D01*
X6930619Y77987887D01*
X6717535Y77845509D01*
X6480768Y77747437D01*
X6480767Y77747437D01*
X6480765Y77747436D01*
X6229419Y77697440D01*
X5973141Y77697440D01*
X5721795Y77747436D01*
X5721793Y77747437D01*
X5721792Y77747437D01*
X5485025Y77845509D01*
X5271941Y77987887D01*
X5271938Y77987889D01*
X5090729Y78169098D01*
X4948349Y78382185D01*
X4850276Y78618955D01*
X4800280Y78870301D01*
X4800280Y79126579D01*
X4850276Y79377925D01*
X4948349Y79614695D01*
X5090729Y79827782D01*
X5271938Y80008991D01*
X5485025Y80151371D01*
X5604804Y80200985D01*
X5721792Y80249443D01*
X5721793Y80249443D01*
X5721795Y80249444D01*
X5973141Y80299440D01*
X6229419Y80299440D01*
X6480765Y80249444D01*
X6480765Y80249444D01*
G37*
G36*
X26080765Y80249444D02*
X26080767Y80249443D01*
X26080768Y80249443D01*
X26197756Y80200985D01*
X26317535Y80151371D01*
X26530622Y80008991D01*
X26711831Y79827782D01*
X26854211Y79614695D01*
X26952284Y79377925D01*
X27002280Y79126579D01*
X27002280Y78870301D01*
X26952284Y78618955D01*
X26854211Y78382185D01*
X26711831Y78169098D01*
X26530622Y77987889D01*
X26530619Y77987887D01*
X26317535Y77845509D01*
X26080768Y77747437D01*
X26080767Y77747437D01*
X26080765Y77747436D01*
X25829419Y77697440D01*
X25573141Y77697440D01*
X25321795Y77747436D01*
X25321793Y77747437D01*
X25321792Y77747437D01*
X25085025Y77845509D01*
X24871941Y77987887D01*
X24871938Y77987889D01*
X24690729Y78169098D01*
X24548349Y78382185D01*
X24450276Y78618955D01*
X24400280Y78870301D01*
X24400280Y79126579D01*
X24450276Y79377925D01*
X24548349Y79614695D01*
X24690729Y79827782D01*
X24871938Y80008991D01*
X25085025Y80151371D01*
X25204804Y80200985D01*
X25321792Y80249443D01*
X25321793Y80249443D01*
X25321795Y80249444D01*
X25573141Y80299440D01*
X25829419Y80299440D01*
X26080765Y80249444D01*
X26080765Y80249444D01*
G37*
G36*
X30280765Y80249444D02*
X30280767Y80249443D01*
X30280768Y80249443D01*
X30397756Y80200985D01*
X30517535Y80151371D01*
X30730622Y80008991D01*
X30911831Y79827782D01*
X31054211Y79614695D01*
X31152284Y79377925D01*
X31202280Y79126579D01*
X31202280Y78870301D01*
X31152284Y78618955D01*
X31054211Y78382185D01*
X30911831Y78169098D01*
X30730622Y77987889D01*
X30730619Y77987887D01*
X30517535Y77845509D01*
X30280768Y77747437D01*
X30280767Y77747437D01*
X30280765Y77747436D01*
X30029419Y77697440D01*
X29773141Y77697440D01*
X29521795Y77747436D01*
X29521793Y77747437D01*
X29521792Y77747437D01*
X29285025Y77845509D01*
X29071941Y77987887D01*
X29071938Y77987889D01*
X28890729Y78169098D01*
X28748349Y78382185D01*
X28650276Y78618955D01*
X28600280Y78870301D01*
X28600280Y79126579D01*
X28650276Y79377925D01*
X28748349Y79614695D01*
X28890729Y79827782D01*
X29071938Y80008991D01*
X29285025Y80151371D01*
X29404804Y80200985D01*
X29521792Y80249443D01*
X29521793Y80249443D01*
X29521795Y80249444D01*
X29773141Y80299440D01*
X30029419Y80299440D01*
X30280765Y80249444D01*
X30280765Y80249444D01*
G37*
G36*
X6499532Y85670622D02*
X6499534Y85670621D01*
X6499535Y85670621D01*
X6872793Y85516013D01*
X6872794Y85516012D01*
X7208719Y85291554D01*
X7494394Y85005879D01*
X7494396Y85005876D01*
X7718853Y84669953D01*
X7873461Y84296695D01*
X7952280Y83900446D01*
X7952280Y83496434D01*
X7873461Y83100185D01*
X7718853Y82726927D01*
X7718852Y82726926D01*
X7494394Y82391001D01*
X7208719Y82105326D01*
X7208716Y82105324D01*
X6872793Y81880867D01*
X6499535Y81726259D01*
X6499534Y81726259D01*
X6499532Y81726258D01*
X6103287Y81647440D01*
X5699273Y81647440D01*
X5303028Y81726258D01*
X5303026Y81726259D01*
X5303025Y81726259D01*
X4929767Y81880867D01*
X4593844Y82105324D01*
X4593841Y82105326D01*
X4308166Y82391001D01*
X4083708Y82726926D01*
X4083707Y82726927D01*
X3929099Y83100185D01*
X3850280Y83496434D01*
X3850280Y83900446D01*
X3929099Y84296695D01*
X4083707Y84669953D01*
X4308164Y85005876D01*
X4308166Y85005879D01*
X4593841Y85291554D01*
X4929766Y85516012D01*
X4929767Y85516013D01*
X5303025Y85670621D01*
X5303026Y85670621D01*
X5303028Y85670622D01*
X5699273Y85749440D01*
X6103287Y85749440D01*
X6499532Y85670622D01*
X6499532Y85670622D01*
G37*
G36*
X30699532Y85670622D02*
X30699534Y85670621D01*
X30699535Y85670621D01*
X31072793Y85516013D01*
X31072794Y85516012D01*
X31408719Y85291554D01*
X31694394Y85005879D01*
X31694396Y85005876D01*
X31918853Y84669953D01*
X32073461Y84296695D01*
X32152280Y83900446D01*
X32152280Y83496434D01*
X32073461Y83100185D01*
X31918853Y82726927D01*
X31918852Y82726926D01*
X31694394Y82391001D01*
X31408719Y82105326D01*
X31408716Y82105324D01*
X31072793Y81880867D01*
X30699535Y81726259D01*
X30699534Y81726259D01*
X30699532Y81726258D01*
X30303287Y81647440D01*
X29899273Y81647440D01*
X29503028Y81726258D01*
X29503026Y81726259D01*
X29503025Y81726259D01*
X29129767Y81880867D01*
X28793844Y82105324D01*
X28793841Y82105326D01*
X28508166Y82391001D01*
X28283708Y82726926D01*
X28283707Y82726927D01*
X28129099Y83100185D01*
X28050280Y83496434D01*
X28050280Y83900446D01*
X28129099Y84296695D01*
X28283707Y84669953D01*
X28508164Y85005876D01*
X28508166Y85005879D01*
X28793841Y85291554D01*
X29129766Y85516012D01*
X29129767Y85516013D01*
X29503025Y85670621D01*
X29503026Y85670621D01*
X29503028Y85670622D01*
X29899273Y85749440D01*
X30303287Y85749440D01*
X30699532Y85670622D01*
X30699532Y85670622D01*
G37*
G36*
X140745376Y92451407D02*
X140745378Y92451406D01*
X140745379Y92451406D01*
X141209632Y92259107D01*
X141625564Y91981190D01*
X141627451Y91979929D01*
X141982769Y91624611D01*
X141982771Y91624608D01*
X142261947Y91206792D01*
X142454246Y90742539D01*
X142552280Y90249692D01*
X142552280Y89747188D01*
X142454246Y89254341D01*
X142261947Y88790088D01*
X141984030Y88374156D01*
X141982769Y88372269D01*
X141627451Y88016951D01*
X141627448Y88016949D01*
X141209632Y87737773D01*
X140745379Y87545474D01*
X140745378Y87545474D01*
X140745376Y87545473D01*
X140252533Y87447440D01*
X139750027Y87447440D01*
X139257184Y87545473D01*
X139257182Y87545474D01*
X139257181Y87545474D01*
X138792928Y87737773D01*
X138375112Y88016949D01*
X138375109Y88016951D01*
X138019791Y88372269D01*
X138018530Y88374156D01*
X137740613Y88790088D01*
X137548314Y89254341D01*
X137450280Y89747188D01*
X137450280Y90249692D01*
X137548314Y90742539D01*
X137740613Y91206792D01*
X138019789Y91624608D01*
X138019791Y91624611D01*
X138375109Y91979929D01*
X138376996Y91981190D01*
X138792928Y92259107D01*
X139257181Y92451406D01*
X139257182Y92451406D01*
X139257184Y92451407D01*
X139750027Y92549440D01*
X140252533Y92549440D01*
X140745376Y92451407D01*
X140745376Y92451407D01*
G37*
G36*
X745376Y92451407D02*
X745378Y92451406D01*
X745379Y92451406D01*
X1209632Y92259107D01*
X1625564Y91981190D01*
X1627451Y91979929D01*
X1982769Y91624611D01*
X1982771Y91624608D01*
X2261947Y91206792D01*
X2454246Y90742539D01*
X2552280Y90249692D01*
X2552280Y89747188D01*
X2454246Y89254341D01*
X2261947Y88790088D01*
X1984030Y88374156D01*
X1982769Y88372269D01*
X1627451Y88016951D01*
X1627448Y88016949D01*
X1209632Y87737773D01*
X745379Y87545474D01*
X745378Y87545474D01*
X745376Y87545473D01*
X252533Y87447440D01*
X-249973Y87447440D01*
X-742816Y87545473D01*
X-742818Y87545474D01*
X-742819Y87545474D01*
X-1207072Y87737773D01*
X-1624888Y88016949D01*
X-1624891Y88016951D01*
X-1980209Y88372269D01*
X-1981470Y88374156D01*
X-2259387Y88790088D01*
X-2451686Y89254341D01*
X-2549720Y89747188D01*
X-2549720Y90249692D01*
X-2451686Y90742539D01*
X-2259387Y91206792D01*
X-1980211Y91624608D01*
X-1980209Y91624611D01*
X-1624891Y91979929D01*
X-1623004Y91981190D01*
X-1207072Y92259107D01*
X-742819Y92451406D01*
X-742818Y92451406D01*
X-742816Y92451407D01*
X-249973Y92549440D01*
X252533Y92549440D01*
X745376Y92451407D01*
X745376Y92451407D01*
G37*
M02*
