G04 #@! TF.GenerationSoftware,KiCad,Pcbnew,(5.0.1)-3*
G04 #@! TF.CreationDate,2019-04-03T23:09:03+02:00*
G04 #@! TF.ProjectId,discovery,646973636F766572792E6B696361645F,rev?*
G04 #@! TF.SameCoordinates,PX4c4640PY8a48028*
G04 #@! TF.FileFunction,Copper,L1,Top,Signal*
G04 #@! TF.FilePolarity,Positive*
%FSLAX46Y46*%
G04 Gerber Fmt 4.6, Leading zero omitted, Abs format (unit mm)*
G04 Created by KiCad (PCBNEW (5.0.1)-3) date 03/04/2019 23:09:03*
%MOMM*%
%LPD*%
G01*
G04 APERTURE LIST*
G04 #@! TA.AperFunction,ComponentPad*
%ADD10C,5.000000*%
G04 #@! TD*
G04 #@! TA.AperFunction,ComponentPad*
%ADD11C,15.000000*%
G04 #@! TD*
G04 #@! TA.AperFunction,ComponentPad*
%ADD12C,2.500000*%
G04 #@! TD*
G04 #@! TA.AperFunction,Conductor*
%ADD13C,0.254000*%
G04 #@! TD*
G04 APERTURE END LIST*
D10*
G04 #@! TO.P,W1,1*
G04 #@! TO.N,GND*
X140001280Y-1560D03*
G04 #@! TD*
G04 #@! TO.P,W2,1*
G04 #@! TO.N,GND*
X1280Y89998440D03*
G04 #@! TD*
G04 #@! TO.P,W3,1*
G04 #@! TO.N,GND*
X140001280Y89998440D03*
G04 #@! TD*
G04 #@! TO.P,W4,1*
G04 #@! TO.N,GND*
X1280Y-1560D03*
G04 #@! TD*
D11*
G04 #@! TO.P,W5,1*
G04 #@! TO.N,+12V*
X54988580Y10498440D03*
G04 #@! TD*
G04 #@! TO.P,W6,1*
G04 #@! TO.N,+12V*
X54988580Y55498440D03*
G04 #@! TD*
G04 #@! TO.P,W7,1*
G04 #@! TO.N,+12V*
X54988580Y32998440D03*
G04 #@! TD*
G04 #@! TO.P,W8,1*
G04 #@! TO.N,+12V*
X54988580Y77998440D03*
G04 #@! TD*
G04 #@! TO.P,W9,1*
G04 #@! TO.N,GND*
X114988580Y13248440D03*
G04 #@! TD*
G04 #@! TO.P,W10,1*
G04 #@! TO.N,GND*
X114988580Y80748440D03*
G04 #@! TD*
G04 #@! TO.P,W11,1*
G04 #@! TO.N,GND*
X114988580Y35748440D03*
G04 #@! TD*
G04 #@! TO.P,W12,1*
G04 #@! TO.N,GND*
X114988580Y58248440D03*
G04 #@! TD*
D12*
G04 #@! TO.P,J1,1*
G04 #@! TO.N,GND*
X10301280Y81298440D03*
G04 #@! TO.P,J1,2*
X10301280Y77098440D03*
G04 #@! TO.P,J1,3*
X10301280Y72898440D03*
G04 #@! TO.P,J1,4*
X10301280Y68698440D03*
G04 #@! TO.P,J1,5*
G04 #@! TO.N,+12V*
X6101280Y81298440D03*
G04 #@! TO.P,J1,6*
X6101280Y77098440D03*
G04 #@! TO.P,J1,7*
X6101280Y72898440D03*
G04 #@! TO.P,J1,8*
X6101280Y68698440D03*
G04 #@! TD*
G04 #@! TO.P,J2,1*
G04 #@! TO.N,+12V*
X10301280Y22298440D03*
G04 #@! TO.P,J2,2*
X10301280Y18098440D03*
G04 #@! TO.P,J2,3*
X10301280Y13898440D03*
G04 #@! TO.P,J2,4*
G04 #@! TO.N,GND*
X10301280Y9698440D03*
G04 #@! TO.P,J2,5*
X6101280Y22298440D03*
G04 #@! TO.P,J2,6*
X6101280Y18098440D03*
G04 #@! TO.P,J2,7*
X6101280Y13898440D03*
G04 #@! TO.P,J2,8*
X6101280Y9698440D03*
G04 #@! TD*
G04 #@! TO.P,J3,8*
G04 #@! TO.N,+12V*
X29901280Y81298440D03*
G04 #@! TO.P,J3,7*
X29901280Y77098440D03*
G04 #@! TO.P,J3,6*
X29901280Y72898440D03*
G04 #@! TO.P,J3,5*
X29901280Y68698440D03*
G04 #@! TO.P,J3,4*
G04 #@! TO.N,GND*
X25701280Y81298440D03*
G04 #@! TO.P,J3,3*
X25701280Y77098440D03*
G04 #@! TO.P,J3,2*
X25701280Y72898440D03*
G04 #@! TO.P,J3,1*
X25701280Y68698440D03*
G04 #@! TD*
G04 #@! TO.P,J4,8*
G04 #@! TO.N,GND*
X6101280Y38698440D03*
G04 #@! TO.P,J4,7*
X6101280Y42898440D03*
G04 #@! TO.P,J4,6*
X6101280Y47098440D03*
G04 #@! TO.P,J4,5*
X6101280Y51298440D03*
G04 #@! TO.P,J4,4*
X10301280Y38698440D03*
G04 #@! TO.P,J4,3*
G04 #@! TO.N,+12V*
X10301280Y42898440D03*
G04 #@! TO.P,J4,2*
X10301280Y47098440D03*
G04 #@! TO.P,J4,1*
X10301280Y51298440D03*
G04 #@! TD*
G04 #@! TO.P,J5,1*
G04 #@! TO.N,+12V*
X25701280Y38698440D03*
G04 #@! TO.P,J5,2*
X25701280Y42898440D03*
G04 #@! TO.P,J5,3*
X25701280Y47098440D03*
G04 #@! TO.P,J5,4*
G04 #@! TO.N,GND*
X25701280Y51298440D03*
G04 #@! TO.P,J5,5*
X29901280Y38698440D03*
G04 #@! TO.P,J5,6*
X29901280Y42898440D03*
G04 #@! TO.P,J5,7*
X29901280Y47098440D03*
G04 #@! TO.P,J5,8*
X29901280Y51298440D03*
G04 #@! TD*
G04 #@! TO.P,J6,8*
G04 #@! TO.N,GND*
X29901280Y22298440D03*
G04 #@! TO.P,J6,7*
X29901280Y18098440D03*
G04 #@! TO.P,J6,6*
X29901280Y13898440D03*
G04 #@! TO.P,J6,5*
X29901280Y9698440D03*
G04 #@! TO.P,J6,4*
X25701280Y22298440D03*
G04 #@! TO.P,J6,3*
G04 #@! TO.N,+12V*
X25701280Y18098440D03*
G04 #@! TO.P,J6,2*
X25701280Y13898440D03*
G04 #@! TO.P,J6,1*
X25701280Y9698440D03*
G04 #@! TD*
D13*
G04 #@! TO.N,+12V*
G36*
X143799280Y92500555D02*
X143799281Y-2503674D01*
X142503396Y-3799560D01*
X-2500835Y-3799560D01*
X-3796720Y-2503676D01*
X-3796720Y719895D01*
X-3625720Y719895D01*
X-3625720Y-723015D01*
X-3073542Y-2056090D01*
X-2053250Y-3076382D01*
X-720175Y-3628560D01*
X722735Y-3628560D01*
X2055810Y-3076382D01*
X3076102Y-2056090D01*
X3628280Y-723015D01*
X3628280Y719895D01*
X136374280Y719895D01*
X136374280Y-723015D01*
X136926458Y-2056090D01*
X137946750Y-3076382D01*
X139279825Y-3628560D01*
X140722735Y-3628560D01*
X142055810Y-3076382D01*
X143076102Y-2056090D01*
X143628280Y-723015D01*
X143628280Y719895D01*
X143076102Y2052970D01*
X142055810Y3073262D01*
X140722735Y3625440D01*
X139279825Y3625440D01*
X137946750Y3073262D01*
X136926458Y2052970D01*
X136374280Y719895D01*
X3628280Y719895D01*
X3076102Y2052970D01*
X2231811Y2897261D01*
X52690701Y2897261D01*
X53844505Y2543875D01*
X56132655Y2543875D01*
X57286459Y2897261D01*
X54988580Y5195139D01*
X52690701Y2897261D01*
X2231811Y2897261D01*
X2055810Y3073262D01*
X722735Y3625440D01*
X-720175Y3625440D01*
X-2053250Y3073262D01*
X-3073542Y2052970D01*
X-3625720Y719895D01*
X-3796720Y719895D01*
X-3796720Y22771255D01*
X3724280Y22771255D01*
X3724280Y21825625D01*
X4086157Y20951978D01*
X4754818Y20283317D01*
X4959729Y20198440D01*
X4754818Y20113563D01*
X4086157Y19444902D01*
X3724280Y18571255D01*
X3724280Y17625625D01*
X4086157Y16751978D01*
X4754818Y16083317D01*
X4959729Y15998440D01*
X4754818Y15913563D01*
X4086157Y15244902D01*
X3724280Y14371255D01*
X3724280Y13425625D01*
X4086157Y12551978D01*
X4754818Y11883317D01*
X4959729Y11798440D01*
X4754818Y11713563D01*
X4086157Y11044902D01*
X3724280Y10171255D01*
X3724280Y9225625D01*
X4086157Y8351978D01*
X4754818Y7683317D01*
X5628465Y7321440D01*
X6574095Y7321440D01*
X7447742Y7683317D01*
X8116403Y8351978D01*
X8201280Y8556889D01*
X8286157Y8351978D01*
X8954818Y7683317D01*
X9828465Y7321440D01*
X10774095Y7321440D01*
X11647742Y7683317D01*
X12203701Y8239276D01*
X25125999Y8239276D01*
X25300471Y8083461D01*
X25949006Y8053011D01*
X26102089Y8083461D01*
X26276561Y8239276D01*
X25701280Y8814557D01*
X25125999Y8239276D01*
X12203701Y8239276D01*
X12316403Y8351978D01*
X12678280Y9225625D01*
X12678280Y9450714D01*
X24055851Y9450714D01*
X24086301Y9297631D01*
X24242116Y9123159D01*
X24817397Y9698440D01*
X26585163Y9698440D01*
X27160444Y9123159D01*
X27316259Y9297631D01*
X27346709Y9946166D01*
X27316259Y10099249D01*
X27160444Y10273721D01*
X26585163Y9698440D01*
X24817397Y9698440D01*
X24242116Y10273721D01*
X24086301Y10099249D01*
X24055851Y9450714D01*
X12678280Y9450714D01*
X12678280Y10171255D01*
X12316403Y11044902D01*
X12203701Y11157604D01*
X25125999Y11157604D01*
X25701280Y10582323D01*
X26276561Y11157604D01*
X26102089Y11313419D01*
X25453554Y11343869D01*
X25300471Y11313419D01*
X25125999Y11157604D01*
X12203701Y11157604D01*
X11647742Y11713563D01*
X10774095Y12075440D01*
X9828465Y12075440D01*
X8954818Y11713563D01*
X8286157Y11044902D01*
X8201280Y10839991D01*
X8116403Y11044902D01*
X7447742Y11713563D01*
X7242831Y11798440D01*
X7447742Y11883317D01*
X8003701Y12439276D01*
X9725999Y12439276D01*
X9900471Y12283461D01*
X10549006Y12253011D01*
X10702089Y12283461D01*
X10876561Y12439276D01*
X25125999Y12439276D01*
X25300471Y12283461D01*
X25949006Y12253011D01*
X26102089Y12283461D01*
X26276561Y12439276D01*
X25701280Y13014557D01*
X25125999Y12439276D01*
X10876561Y12439276D01*
X10301280Y13014557D01*
X9725999Y12439276D01*
X8003701Y12439276D01*
X8116403Y12551978D01*
X8478280Y13425625D01*
X8478280Y13650714D01*
X8655851Y13650714D01*
X8686301Y13497631D01*
X8842116Y13323159D01*
X9417397Y13898440D01*
X11185163Y13898440D01*
X11760444Y13323159D01*
X11916259Y13497631D01*
X11923446Y13650714D01*
X24055851Y13650714D01*
X24086301Y13497631D01*
X24242116Y13323159D01*
X24817397Y13898440D01*
X26585163Y13898440D01*
X27160444Y13323159D01*
X27316259Y13497631D01*
X27346709Y14146166D01*
X27316259Y14299249D01*
X27160444Y14473721D01*
X26585163Y13898440D01*
X24817397Y13898440D01*
X24242116Y14473721D01*
X24086301Y14299249D01*
X24055851Y13650714D01*
X11923446Y13650714D01*
X11946709Y14146166D01*
X11916259Y14299249D01*
X11760444Y14473721D01*
X11185163Y13898440D01*
X9417397Y13898440D01*
X8842116Y14473721D01*
X8686301Y14299249D01*
X8655851Y13650714D01*
X8478280Y13650714D01*
X8478280Y14371255D01*
X8116403Y15244902D01*
X8003701Y15357604D01*
X9725999Y15357604D01*
X10301280Y14782323D01*
X10876561Y15357604D01*
X25125999Y15357604D01*
X25701280Y14782323D01*
X26276561Y15357604D01*
X26102089Y15513419D01*
X25453554Y15543869D01*
X25300471Y15513419D01*
X25125999Y15357604D01*
X10876561Y15357604D01*
X10702089Y15513419D01*
X10053554Y15543869D01*
X9900471Y15513419D01*
X9725999Y15357604D01*
X8003701Y15357604D01*
X7447742Y15913563D01*
X7242831Y15998440D01*
X7447742Y16083317D01*
X8003701Y16639276D01*
X9725999Y16639276D01*
X9900471Y16483461D01*
X10549006Y16453011D01*
X10702089Y16483461D01*
X10876561Y16639276D01*
X25125999Y16639276D01*
X25300471Y16483461D01*
X25949006Y16453011D01*
X26102089Y16483461D01*
X26276561Y16639276D01*
X25701280Y17214557D01*
X25125999Y16639276D01*
X10876561Y16639276D01*
X10301280Y17214557D01*
X9725999Y16639276D01*
X8003701Y16639276D01*
X8116403Y16751978D01*
X8478280Y17625625D01*
X8478280Y17850714D01*
X8655851Y17850714D01*
X8686301Y17697631D01*
X8842116Y17523159D01*
X9417397Y18098440D01*
X11185163Y18098440D01*
X11760444Y17523159D01*
X11916259Y17697631D01*
X11923446Y17850714D01*
X24055851Y17850714D01*
X24086301Y17697631D01*
X24242116Y17523159D01*
X24817397Y18098440D01*
X26585163Y18098440D01*
X27160444Y17523159D01*
X27316259Y17697631D01*
X27346709Y18346166D01*
X27316259Y18499249D01*
X27160444Y18673721D01*
X26585163Y18098440D01*
X24817397Y18098440D01*
X24242116Y18673721D01*
X24086301Y18499249D01*
X24055851Y17850714D01*
X11923446Y17850714D01*
X11946709Y18346166D01*
X11916259Y18499249D01*
X11760444Y18673721D01*
X11185163Y18098440D01*
X9417397Y18098440D01*
X8842116Y18673721D01*
X8686301Y18499249D01*
X8655851Y17850714D01*
X8478280Y17850714D01*
X8478280Y18571255D01*
X8116403Y19444902D01*
X8003701Y19557604D01*
X9725999Y19557604D01*
X10301280Y18982323D01*
X10876561Y19557604D01*
X25125999Y19557604D01*
X25701280Y18982323D01*
X26276561Y19557604D01*
X26102089Y19713419D01*
X25453554Y19743869D01*
X25300471Y19713419D01*
X25125999Y19557604D01*
X10876561Y19557604D01*
X10702089Y19713419D01*
X10053554Y19743869D01*
X9900471Y19713419D01*
X9725999Y19557604D01*
X8003701Y19557604D01*
X7447742Y20113563D01*
X7242831Y20198440D01*
X7447742Y20283317D01*
X8003701Y20839276D01*
X9725999Y20839276D01*
X9900471Y20683461D01*
X10549006Y20653011D01*
X10702089Y20683461D01*
X10876561Y20839276D01*
X10301280Y21414557D01*
X9725999Y20839276D01*
X8003701Y20839276D01*
X8116403Y20951978D01*
X8478280Y21825625D01*
X8478280Y22050714D01*
X8655851Y22050714D01*
X8686301Y21897631D01*
X8842116Y21723159D01*
X9417397Y22298440D01*
X11185163Y22298440D01*
X11760444Y21723159D01*
X11916259Y21897631D01*
X11946709Y22546166D01*
X11916259Y22699249D01*
X11851953Y22771255D01*
X23324280Y22771255D01*
X23324280Y21825625D01*
X23686157Y20951978D01*
X24354818Y20283317D01*
X25228465Y19921440D01*
X26174095Y19921440D01*
X27047742Y20283317D01*
X27716403Y20951978D01*
X27801280Y21156889D01*
X27886157Y20951978D01*
X28554818Y20283317D01*
X28759729Y20198440D01*
X28554818Y20113563D01*
X27886157Y19444902D01*
X27524280Y18571255D01*
X27524280Y17625625D01*
X27886157Y16751978D01*
X28554818Y16083317D01*
X28759729Y15998440D01*
X28554818Y15913563D01*
X27886157Y15244902D01*
X27524280Y14371255D01*
X27524280Y13425625D01*
X27886157Y12551978D01*
X28554818Y11883317D01*
X28759729Y11798440D01*
X28554818Y11713563D01*
X27886157Y11044902D01*
X27524280Y10171255D01*
X27524280Y9225625D01*
X27886157Y8351978D01*
X28554818Y7683317D01*
X29428465Y7321440D01*
X30374095Y7321440D01*
X31247742Y7683317D01*
X31916403Y8351978D01*
X32278280Y9225625D01*
X32278280Y10171255D01*
X31916403Y11044902D01*
X31318790Y11642515D01*
X47034015Y11642515D01*
X47034015Y9354365D01*
X47387401Y8200561D01*
X49685279Y10498440D01*
X60291881Y10498440D01*
X62589759Y8200561D01*
X62943145Y9354365D01*
X62943145Y11642515D01*
X62589759Y12796319D01*
X60291881Y10498440D01*
X49685279Y10498440D01*
X47387401Y12796319D01*
X47034015Y11642515D01*
X31318790Y11642515D01*
X31247742Y11713563D01*
X31042831Y11798440D01*
X31247742Y11883317D01*
X31916403Y12551978D01*
X32278280Y13425625D01*
X32278280Y14371255D01*
X31916403Y15244902D01*
X31247742Y15913563D01*
X31042831Y15998440D01*
X31247742Y16083317D01*
X31916403Y16751978D01*
X32278280Y17625625D01*
X32278280Y18099619D01*
X52690701Y18099619D01*
X54988580Y15801741D01*
X57286459Y18099619D01*
X56132655Y18453005D01*
X53844505Y18453005D01*
X52690701Y18099619D01*
X32278280Y18099619D01*
X32278280Y18571255D01*
X31916403Y19444902D01*
X31247742Y20113563D01*
X31042831Y20198440D01*
X31247742Y20283317D01*
X31916403Y20951978D01*
X32278280Y21825625D01*
X32278280Y22771255D01*
X31916403Y23644902D01*
X31247742Y24313563D01*
X30374095Y24675440D01*
X29428465Y24675440D01*
X28554818Y24313563D01*
X27886157Y23644902D01*
X27801280Y23439991D01*
X27716403Y23644902D01*
X27047742Y24313563D01*
X26174095Y24675440D01*
X25228465Y24675440D01*
X24354818Y24313563D01*
X23686157Y23644902D01*
X23324280Y22771255D01*
X11851953Y22771255D01*
X11760444Y22873721D01*
X11185163Y22298440D01*
X9417397Y22298440D01*
X8842116Y22873721D01*
X8686301Y22699249D01*
X8655851Y22050714D01*
X8478280Y22050714D01*
X8478280Y22771255D01*
X8116403Y23644902D01*
X8003701Y23757604D01*
X9725999Y23757604D01*
X10301280Y23182323D01*
X10876561Y23757604D01*
X10702089Y23913419D01*
X10053554Y23943869D01*
X9900471Y23913419D01*
X9725999Y23757604D01*
X8003701Y23757604D01*
X7447742Y24313563D01*
X6574095Y24675440D01*
X5628465Y24675440D01*
X4754818Y24313563D01*
X4086157Y23644902D01*
X3724280Y22771255D01*
X-3796720Y22771255D01*
X-3796720Y25397261D01*
X52690701Y25397261D01*
X53844505Y25043875D01*
X56132655Y25043875D01*
X57286459Y25397261D01*
X54988580Y27695139D01*
X52690701Y25397261D01*
X-3796720Y25397261D01*
X-3796720Y34142515D01*
X47034015Y34142515D01*
X47034015Y31854365D01*
X47387401Y30700561D01*
X49685279Y32998440D01*
X60291881Y32998440D01*
X62589759Y30700561D01*
X62943145Y31854365D01*
X62943145Y34142515D01*
X62589759Y35296319D01*
X60291881Y32998440D01*
X49685279Y32998440D01*
X47387401Y35296319D01*
X47034015Y34142515D01*
X-3796720Y34142515D01*
X-3796720Y51771255D01*
X3724280Y51771255D01*
X3724280Y50825625D01*
X4086157Y49951978D01*
X4754818Y49283317D01*
X4959729Y49198440D01*
X4754818Y49113563D01*
X4086157Y48444902D01*
X3724280Y47571255D01*
X3724280Y46625625D01*
X4086157Y45751978D01*
X4754818Y45083317D01*
X4959729Y44998440D01*
X4754818Y44913563D01*
X4086157Y44244902D01*
X3724280Y43371255D01*
X3724280Y42425625D01*
X4086157Y41551978D01*
X4754818Y40883317D01*
X4959729Y40798440D01*
X4754818Y40713563D01*
X4086157Y40044902D01*
X3724280Y39171255D01*
X3724280Y38225625D01*
X4086157Y37351978D01*
X4754818Y36683317D01*
X5628465Y36321440D01*
X6574095Y36321440D01*
X7447742Y36683317D01*
X8116403Y37351978D01*
X8201280Y37556889D01*
X8286157Y37351978D01*
X8954818Y36683317D01*
X9828465Y36321440D01*
X10774095Y36321440D01*
X11647742Y36683317D01*
X12203701Y37239276D01*
X25125999Y37239276D01*
X25300471Y37083461D01*
X25949006Y37053011D01*
X26102089Y37083461D01*
X26276561Y37239276D01*
X25701280Y37814557D01*
X25125999Y37239276D01*
X12203701Y37239276D01*
X12316403Y37351978D01*
X12678280Y38225625D01*
X12678280Y38450714D01*
X24055851Y38450714D01*
X24086301Y38297631D01*
X24242116Y38123159D01*
X24817397Y38698440D01*
X26585163Y38698440D01*
X27160444Y38123159D01*
X27316259Y38297631D01*
X27346709Y38946166D01*
X27316259Y39099249D01*
X27160444Y39273721D01*
X26585163Y38698440D01*
X24817397Y38698440D01*
X24242116Y39273721D01*
X24086301Y39099249D01*
X24055851Y38450714D01*
X12678280Y38450714D01*
X12678280Y39171255D01*
X12316403Y40044902D01*
X12203701Y40157604D01*
X25125999Y40157604D01*
X25701280Y39582323D01*
X26276561Y40157604D01*
X26102089Y40313419D01*
X25453554Y40343869D01*
X25300471Y40313419D01*
X25125999Y40157604D01*
X12203701Y40157604D01*
X11647742Y40713563D01*
X10774095Y41075440D01*
X9828465Y41075440D01*
X8954818Y40713563D01*
X8286157Y40044902D01*
X8201280Y39839991D01*
X8116403Y40044902D01*
X7447742Y40713563D01*
X7242831Y40798440D01*
X7447742Y40883317D01*
X8003701Y41439276D01*
X9725999Y41439276D01*
X9900471Y41283461D01*
X10549006Y41253011D01*
X10702089Y41283461D01*
X10876561Y41439276D01*
X25125999Y41439276D01*
X25300471Y41283461D01*
X25949006Y41253011D01*
X26102089Y41283461D01*
X26276561Y41439276D01*
X25701280Y42014557D01*
X25125999Y41439276D01*
X10876561Y41439276D01*
X10301280Y42014557D01*
X9725999Y41439276D01*
X8003701Y41439276D01*
X8116403Y41551978D01*
X8478280Y42425625D01*
X8478280Y42650714D01*
X8655851Y42650714D01*
X8686301Y42497631D01*
X8842116Y42323159D01*
X9417397Y42898440D01*
X11185163Y42898440D01*
X11760444Y42323159D01*
X11916259Y42497631D01*
X11923446Y42650714D01*
X24055851Y42650714D01*
X24086301Y42497631D01*
X24242116Y42323159D01*
X24817397Y42898440D01*
X26585163Y42898440D01*
X27160444Y42323159D01*
X27316259Y42497631D01*
X27346709Y43146166D01*
X27316259Y43299249D01*
X27160444Y43473721D01*
X26585163Y42898440D01*
X24817397Y42898440D01*
X24242116Y43473721D01*
X24086301Y43299249D01*
X24055851Y42650714D01*
X11923446Y42650714D01*
X11946709Y43146166D01*
X11916259Y43299249D01*
X11760444Y43473721D01*
X11185163Y42898440D01*
X9417397Y42898440D01*
X8842116Y43473721D01*
X8686301Y43299249D01*
X8655851Y42650714D01*
X8478280Y42650714D01*
X8478280Y43371255D01*
X8116403Y44244902D01*
X8003701Y44357604D01*
X9725999Y44357604D01*
X10301280Y43782323D01*
X10876561Y44357604D01*
X25125999Y44357604D01*
X25701280Y43782323D01*
X26276561Y44357604D01*
X26102089Y44513419D01*
X25453554Y44543869D01*
X25300471Y44513419D01*
X25125999Y44357604D01*
X10876561Y44357604D01*
X10702089Y44513419D01*
X10053554Y44543869D01*
X9900471Y44513419D01*
X9725999Y44357604D01*
X8003701Y44357604D01*
X7447742Y44913563D01*
X7242831Y44998440D01*
X7447742Y45083317D01*
X8003701Y45639276D01*
X9725999Y45639276D01*
X9900471Y45483461D01*
X10549006Y45453011D01*
X10702089Y45483461D01*
X10876561Y45639276D01*
X25125999Y45639276D01*
X25300471Y45483461D01*
X25949006Y45453011D01*
X26102089Y45483461D01*
X26276561Y45639276D01*
X25701280Y46214557D01*
X25125999Y45639276D01*
X10876561Y45639276D01*
X10301280Y46214557D01*
X9725999Y45639276D01*
X8003701Y45639276D01*
X8116403Y45751978D01*
X8478280Y46625625D01*
X8478280Y46850714D01*
X8655851Y46850714D01*
X8686301Y46697631D01*
X8842116Y46523159D01*
X9417397Y47098440D01*
X11185163Y47098440D01*
X11760444Y46523159D01*
X11916259Y46697631D01*
X11923446Y46850714D01*
X24055851Y46850714D01*
X24086301Y46697631D01*
X24242116Y46523159D01*
X24817397Y47098440D01*
X26585163Y47098440D01*
X27160444Y46523159D01*
X27316259Y46697631D01*
X27346709Y47346166D01*
X27316259Y47499249D01*
X27160444Y47673721D01*
X26585163Y47098440D01*
X24817397Y47098440D01*
X24242116Y47673721D01*
X24086301Y47499249D01*
X24055851Y46850714D01*
X11923446Y46850714D01*
X11946709Y47346166D01*
X11916259Y47499249D01*
X11760444Y47673721D01*
X11185163Y47098440D01*
X9417397Y47098440D01*
X8842116Y47673721D01*
X8686301Y47499249D01*
X8655851Y46850714D01*
X8478280Y46850714D01*
X8478280Y47571255D01*
X8116403Y48444902D01*
X8003701Y48557604D01*
X9725999Y48557604D01*
X10301280Y47982323D01*
X10876561Y48557604D01*
X25125999Y48557604D01*
X25701280Y47982323D01*
X26276561Y48557604D01*
X26102089Y48713419D01*
X25453554Y48743869D01*
X25300471Y48713419D01*
X25125999Y48557604D01*
X10876561Y48557604D01*
X10702089Y48713419D01*
X10053554Y48743869D01*
X9900471Y48713419D01*
X9725999Y48557604D01*
X8003701Y48557604D01*
X7447742Y49113563D01*
X7242831Y49198440D01*
X7447742Y49283317D01*
X8003701Y49839276D01*
X9725999Y49839276D01*
X9900471Y49683461D01*
X10549006Y49653011D01*
X10702089Y49683461D01*
X10876561Y49839276D01*
X10301280Y50414557D01*
X9725999Y49839276D01*
X8003701Y49839276D01*
X8116403Y49951978D01*
X8478280Y50825625D01*
X8478280Y51050714D01*
X8655851Y51050714D01*
X8686301Y50897631D01*
X8842116Y50723159D01*
X9417397Y51298440D01*
X11185163Y51298440D01*
X11760444Y50723159D01*
X11916259Y50897631D01*
X11946709Y51546166D01*
X11916259Y51699249D01*
X11851953Y51771255D01*
X23324280Y51771255D01*
X23324280Y50825625D01*
X23686157Y49951978D01*
X24354818Y49283317D01*
X25228465Y48921440D01*
X26174095Y48921440D01*
X27047742Y49283317D01*
X27716403Y49951978D01*
X27801280Y50156889D01*
X27886157Y49951978D01*
X28554818Y49283317D01*
X28759729Y49198440D01*
X28554818Y49113563D01*
X27886157Y48444902D01*
X27524280Y47571255D01*
X27524280Y46625625D01*
X27886157Y45751978D01*
X28554818Y45083317D01*
X28759729Y44998440D01*
X28554818Y44913563D01*
X27886157Y44244902D01*
X27524280Y43371255D01*
X27524280Y42425625D01*
X27886157Y41551978D01*
X28554818Y40883317D01*
X28759729Y40798440D01*
X28554818Y40713563D01*
X27886157Y40044902D01*
X27524280Y39171255D01*
X27524280Y38225625D01*
X27886157Y37351978D01*
X28554818Y36683317D01*
X29428465Y36321440D01*
X30374095Y36321440D01*
X31247742Y36683317D01*
X31916403Y37351978D01*
X32278280Y38225625D01*
X32278280Y39171255D01*
X31916403Y40044902D01*
X31361686Y40599619D01*
X52690701Y40599619D01*
X54988580Y38301741D01*
X57286459Y40599619D01*
X56132655Y40953005D01*
X53844505Y40953005D01*
X52690701Y40599619D01*
X31361686Y40599619D01*
X31247742Y40713563D01*
X31042831Y40798440D01*
X31247742Y40883317D01*
X31916403Y41551978D01*
X32278280Y42425625D01*
X32278280Y43371255D01*
X31916403Y44244902D01*
X31247742Y44913563D01*
X31042831Y44998440D01*
X31247742Y45083317D01*
X31916403Y45751978D01*
X32278280Y46625625D01*
X32278280Y47571255D01*
X32143244Y47897261D01*
X52690701Y47897261D01*
X53844505Y47543875D01*
X56132655Y47543875D01*
X57286459Y47897261D01*
X54988580Y50195139D01*
X52690701Y47897261D01*
X32143244Y47897261D01*
X31916403Y48444902D01*
X31247742Y49113563D01*
X31042831Y49198440D01*
X31247742Y49283317D01*
X31916403Y49951978D01*
X32278280Y50825625D01*
X32278280Y51771255D01*
X31916403Y52644902D01*
X31247742Y53313563D01*
X30374095Y53675440D01*
X29428465Y53675440D01*
X28554818Y53313563D01*
X27886157Y52644902D01*
X27801280Y52439991D01*
X27716403Y52644902D01*
X27047742Y53313563D01*
X26174095Y53675440D01*
X25228465Y53675440D01*
X24354818Y53313563D01*
X23686157Y52644902D01*
X23324280Y51771255D01*
X11851953Y51771255D01*
X11760444Y51873721D01*
X11185163Y51298440D01*
X9417397Y51298440D01*
X8842116Y51873721D01*
X8686301Y51699249D01*
X8655851Y51050714D01*
X8478280Y51050714D01*
X8478280Y51771255D01*
X8116403Y52644902D01*
X8003701Y52757604D01*
X9725999Y52757604D01*
X10301280Y52182323D01*
X10876561Y52757604D01*
X10702089Y52913419D01*
X10053554Y52943869D01*
X9900471Y52913419D01*
X9725999Y52757604D01*
X8003701Y52757604D01*
X7447742Y53313563D01*
X6574095Y53675440D01*
X5628465Y53675440D01*
X4754818Y53313563D01*
X4086157Y52644902D01*
X3724280Y51771255D01*
X-3796720Y51771255D01*
X-3796720Y56642515D01*
X47034015Y56642515D01*
X47034015Y54354365D01*
X47387401Y53200561D01*
X49685279Y55498440D01*
X60291881Y55498440D01*
X62589759Y53200561D01*
X62943145Y54354365D01*
X62943145Y56642515D01*
X62589759Y57796319D01*
X60291881Y55498440D01*
X49685279Y55498440D01*
X47387401Y57796319D01*
X47034015Y56642515D01*
X-3796720Y56642515D01*
X-3796720Y63099619D01*
X52690701Y63099619D01*
X54988580Y60801741D01*
X57286459Y63099619D01*
X56132655Y63453005D01*
X53844505Y63453005D01*
X52690701Y63099619D01*
X-3796720Y63099619D01*
X-3796720Y67239276D01*
X5525999Y67239276D01*
X5700471Y67083461D01*
X6349006Y67053011D01*
X6502089Y67083461D01*
X6676561Y67239276D01*
X6101280Y67814557D01*
X5525999Y67239276D01*
X-3796720Y67239276D01*
X-3796720Y68450714D01*
X4455851Y68450714D01*
X4486301Y68297631D01*
X4642116Y68123159D01*
X5217397Y68698440D01*
X6985163Y68698440D01*
X7560444Y68123159D01*
X7716259Y68297631D01*
X7746709Y68946166D01*
X7716259Y69099249D01*
X7560444Y69273721D01*
X6985163Y68698440D01*
X5217397Y68698440D01*
X4642116Y69273721D01*
X4486301Y69099249D01*
X4455851Y68450714D01*
X-3796720Y68450714D01*
X-3796720Y70157604D01*
X5525999Y70157604D01*
X6101280Y69582323D01*
X6676561Y70157604D01*
X6502089Y70313419D01*
X5853554Y70343869D01*
X5700471Y70313419D01*
X5525999Y70157604D01*
X-3796720Y70157604D01*
X-3796720Y71439276D01*
X5525999Y71439276D01*
X5700471Y71283461D01*
X6349006Y71253011D01*
X6502089Y71283461D01*
X6676561Y71439276D01*
X6101280Y72014557D01*
X5525999Y71439276D01*
X-3796720Y71439276D01*
X-3796720Y72650714D01*
X4455851Y72650714D01*
X4486301Y72497631D01*
X4642116Y72323159D01*
X5217397Y72898440D01*
X6985163Y72898440D01*
X7560444Y72323159D01*
X7716259Y72497631D01*
X7746709Y73146166D01*
X7716259Y73299249D01*
X7560444Y73473721D01*
X6985163Y72898440D01*
X5217397Y72898440D01*
X4642116Y73473721D01*
X4486301Y73299249D01*
X4455851Y72650714D01*
X-3796720Y72650714D01*
X-3796720Y74357604D01*
X5525999Y74357604D01*
X6101280Y73782323D01*
X6676561Y74357604D01*
X6502089Y74513419D01*
X5853554Y74543869D01*
X5700471Y74513419D01*
X5525999Y74357604D01*
X-3796720Y74357604D01*
X-3796720Y75639276D01*
X5525999Y75639276D01*
X5700471Y75483461D01*
X6349006Y75453011D01*
X6502089Y75483461D01*
X6676561Y75639276D01*
X6101280Y76214557D01*
X5525999Y75639276D01*
X-3796720Y75639276D01*
X-3796720Y76850714D01*
X4455851Y76850714D01*
X4486301Y76697631D01*
X4642116Y76523159D01*
X5217397Y77098440D01*
X6985163Y77098440D01*
X7560444Y76523159D01*
X7716259Y76697631D01*
X7746709Y77346166D01*
X7716259Y77499249D01*
X7560444Y77673721D01*
X6985163Y77098440D01*
X5217397Y77098440D01*
X4642116Y77673721D01*
X4486301Y77499249D01*
X4455851Y76850714D01*
X-3796720Y76850714D01*
X-3796720Y78557604D01*
X5525999Y78557604D01*
X6101280Y77982323D01*
X6676561Y78557604D01*
X6502089Y78713419D01*
X5853554Y78743869D01*
X5700471Y78713419D01*
X5525999Y78557604D01*
X-3796720Y78557604D01*
X-3796720Y79839276D01*
X5525999Y79839276D01*
X5700471Y79683461D01*
X6349006Y79653011D01*
X6502089Y79683461D01*
X6676561Y79839276D01*
X6101280Y80414557D01*
X5525999Y79839276D01*
X-3796720Y79839276D01*
X-3796720Y81050714D01*
X4455851Y81050714D01*
X4486301Y80897631D01*
X4642116Y80723159D01*
X5217397Y81298440D01*
X6985163Y81298440D01*
X7560444Y80723159D01*
X7716259Y80897631D01*
X7746709Y81546166D01*
X7716259Y81699249D01*
X7651953Y81771255D01*
X7924280Y81771255D01*
X7924280Y80825625D01*
X8286157Y79951978D01*
X8954818Y79283317D01*
X9159729Y79198440D01*
X8954818Y79113563D01*
X8286157Y78444902D01*
X7924280Y77571255D01*
X7924280Y76625625D01*
X8286157Y75751978D01*
X8954818Y75083317D01*
X9159729Y74998440D01*
X8954818Y74913563D01*
X8286157Y74244902D01*
X7924280Y73371255D01*
X7924280Y72425625D01*
X8286157Y71551978D01*
X8954818Y70883317D01*
X9159729Y70798440D01*
X8954818Y70713563D01*
X8286157Y70044902D01*
X7924280Y69171255D01*
X7924280Y68225625D01*
X8286157Y67351978D01*
X8954818Y66683317D01*
X9828465Y66321440D01*
X10774095Y66321440D01*
X11647742Y66683317D01*
X12316403Y67351978D01*
X12678280Y68225625D01*
X12678280Y69171255D01*
X12316403Y70044902D01*
X11647742Y70713563D01*
X11442831Y70798440D01*
X11647742Y70883317D01*
X12316403Y71551978D01*
X12678280Y72425625D01*
X12678280Y73371255D01*
X12316403Y74244902D01*
X11647742Y74913563D01*
X11442831Y74998440D01*
X11647742Y75083317D01*
X12316403Y75751978D01*
X12678280Y76625625D01*
X12678280Y77571255D01*
X12316403Y78444902D01*
X11647742Y79113563D01*
X11442831Y79198440D01*
X11647742Y79283317D01*
X12316403Y79951978D01*
X12678280Y80825625D01*
X12678280Y81771255D01*
X23324280Y81771255D01*
X23324280Y80825625D01*
X23686157Y79951978D01*
X24354818Y79283317D01*
X24559729Y79198440D01*
X24354818Y79113563D01*
X23686157Y78444902D01*
X23324280Y77571255D01*
X23324280Y76625625D01*
X23686157Y75751978D01*
X24354818Y75083317D01*
X24559729Y74998440D01*
X24354818Y74913563D01*
X23686157Y74244902D01*
X23324280Y73371255D01*
X23324280Y72425625D01*
X23686157Y71551978D01*
X24354818Y70883317D01*
X24559729Y70798440D01*
X24354818Y70713563D01*
X23686157Y70044902D01*
X23324280Y69171255D01*
X23324280Y68225625D01*
X23686157Y67351978D01*
X24354818Y66683317D01*
X25228465Y66321440D01*
X26174095Y66321440D01*
X27047742Y66683317D01*
X27603701Y67239276D01*
X29325999Y67239276D01*
X29500471Y67083461D01*
X30149006Y67053011D01*
X30302089Y67083461D01*
X30476561Y67239276D01*
X29901280Y67814557D01*
X29325999Y67239276D01*
X27603701Y67239276D01*
X27716403Y67351978D01*
X28078280Y68225625D01*
X28078280Y68450714D01*
X28255851Y68450714D01*
X28286301Y68297631D01*
X28442116Y68123159D01*
X29017397Y68698440D01*
X30785163Y68698440D01*
X31360444Y68123159D01*
X31516259Y68297631D01*
X31546709Y68946166D01*
X31516259Y69099249D01*
X31360444Y69273721D01*
X30785163Y68698440D01*
X29017397Y68698440D01*
X28442116Y69273721D01*
X28286301Y69099249D01*
X28255851Y68450714D01*
X28078280Y68450714D01*
X28078280Y69171255D01*
X27716403Y70044902D01*
X27603701Y70157604D01*
X29325999Y70157604D01*
X29901280Y69582323D01*
X30476561Y70157604D01*
X30302089Y70313419D01*
X29653554Y70343869D01*
X29500471Y70313419D01*
X29325999Y70157604D01*
X27603701Y70157604D01*
X27364044Y70397261D01*
X52690701Y70397261D01*
X53844505Y70043875D01*
X56132655Y70043875D01*
X57286459Y70397261D01*
X54988580Y72695139D01*
X52690701Y70397261D01*
X27364044Y70397261D01*
X27047742Y70713563D01*
X26842831Y70798440D01*
X27047742Y70883317D01*
X27603701Y71439276D01*
X29325999Y71439276D01*
X29500471Y71283461D01*
X30149006Y71253011D01*
X30302089Y71283461D01*
X30476561Y71439276D01*
X29901280Y72014557D01*
X29325999Y71439276D01*
X27603701Y71439276D01*
X27716403Y71551978D01*
X28078280Y72425625D01*
X28078280Y72650714D01*
X28255851Y72650714D01*
X28286301Y72497631D01*
X28442116Y72323159D01*
X29017397Y72898440D01*
X30785163Y72898440D01*
X31360444Y72323159D01*
X31516259Y72497631D01*
X31546709Y73146166D01*
X31516259Y73299249D01*
X31360444Y73473721D01*
X30785163Y72898440D01*
X29017397Y72898440D01*
X28442116Y73473721D01*
X28286301Y73299249D01*
X28255851Y72650714D01*
X28078280Y72650714D01*
X28078280Y73371255D01*
X27716403Y74244902D01*
X27603701Y74357604D01*
X29325999Y74357604D01*
X29901280Y73782323D01*
X30476561Y74357604D01*
X30302089Y74513419D01*
X29653554Y74543869D01*
X29500471Y74513419D01*
X29325999Y74357604D01*
X27603701Y74357604D01*
X27047742Y74913563D01*
X26842831Y74998440D01*
X27047742Y75083317D01*
X27603701Y75639276D01*
X29325999Y75639276D01*
X29500471Y75483461D01*
X30149006Y75453011D01*
X30302089Y75483461D01*
X30476561Y75639276D01*
X29901280Y76214557D01*
X29325999Y75639276D01*
X27603701Y75639276D01*
X27716403Y75751978D01*
X28078280Y76625625D01*
X28078280Y76850714D01*
X28255851Y76850714D01*
X28286301Y76697631D01*
X28442116Y76523159D01*
X29017397Y77098440D01*
X30785163Y77098440D01*
X31360444Y76523159D01*
X31516259Y76697631D01*
X31546709Y77346166D01*
X31516259Y77499249D01*
X31360444Y77673721D01*
X30785163Y77098440D01*
X29017397Y77098440D01*
X28442116Y77673721D01*
X28286301Y77499249D01*
X28255851Y76850714D01*
X28078280Y76850714D01*
X28078280Y77571255D01*
X27716403Y78444902D01*
X27603701Y78557604D01*
X29325999Y78557604D01*
X29901280Y77982323D01*
X30476561Y78557604D01*
X30302089Y78713419D01*
X29653554Y78743869D01*
X29500471Y78713419D01*
X29325999Y78557604D01*
X27603701Y78557604D01*
X27047742Y79113563D01*
X26977846Y79142515D01*
X47034015Y79142515D01*
X47034015Y76854365D01*
X47387401Y75700561D01*
X49685279Y77998440D01*
X60291881Y77998440D01*
X62589759Y75700561D01*
X62943145Y76854365D01*
X62943145Y79142515D01*
X62589759Y80296319D01*
X60291881Y77998440D01*
X49685279Y77998440D01*
X47387401Y80296319D01*
X47034015Y79142515D01*
X26977846Y79142515D01*
X26842831Y79198440D01*
X27047742Y79283317D01*
X27603701Y79839276D01*
X29325999Y79839276D01*
X29500471Y79683461D01*
X30149006Y79653011D01*
X30302089Y79683461D01*
X30476561Y79839276D01*
X29901280Y80414557D01*
X29325999Y79839276D01*
X27603701Y79839276D01*
X27716403Y79951978D01*
X28078280Y80825625D01*
X28078280Y81050714D01*
X28255851Y81050714D01*
X28286301Y80897631D01*
X28442116Y80723159D01*
X29017397Y81298440D01*
X30785163Y81298440D01*
X31360444Y80723159D01*
X31516259Y80897631D01*
X31546709Y81546166D01*
X31516259Y81699249D01*
X31360444Y81873721D01*
X30785163Y81298440D01*
X29017397Y81298440D01*
X28442116Y81873721D01*
X28286301Y81699249D01*
X28255851Y81050714D01*
X28078280Y81050714D01*
X28078280Y81771255D01*
X27716403Y82644902D01*
X27603701Y82757604D01*
X29325999Y82757604D01*
X29901280Y82182323D01*
X30476561Y82757604D01*
X30302089Y82913419D01*
X29653554Y82943869D01*
X29500471Y82913419D01*
X29325999Y82757604D01*
X27603701Y82757604D01*
X27047742Y83313563D01*
X26174095Y83675440D01*
X25228465Y83675440D01*
X24354818Y83313563D01*
X23686157Y82644902D01*
X23324280Y81771255D01*
X12678280Y81771255D01*
X12316403Y82644902D01*
X11647742Y83313563D01*
X10774095Y83675440D01*
X9828465Y83675440D01*
X8954818Y83313563D01*
X8286157Y82644902D01*
X7924280Y81771255D01*
X7651953Y81771255D01*
X7560444Y81873721D01*
X6985163Y81298440D01*
X5217397Y81298440D01*
X4642116Y81873721D01*
X4486301Y81699249D01*
X4455851Y81050714D01*
X-3796720Y81050714D01*
X-3796720Y82757604D01*
X5525999Y82757604D01*
X6101280Y82182323D01*
X6676561Y82757604D01*
X6502089Y82913419D01*
X5853554Y82943869D01*
X5700471Y82913419D01*
X5525999Y82757604D01*
X-3796720Y82757604D01*
X-3796720Y85599619D01*
X52690701Y85599619D01*
X54988580Y83301741D01*
X57286459Y85599619D01*
X56132655Y85953005D01*
X53844505Y85953005D01*
X52690701Y85599619D01*
X-3796720Y85599619D01*
X-3796720Y90719895D01*
X-3625720Y90719895D01*
X-3625720Y89276985D01*
X-3073542Y87943910D01*
X-2053250Y86923618D01*
X-720175Y86371440D01*
X722735Y86371440D01*
X2055810Y86923618D01*
X3076102Y87943910D01*
X3326506Y88548440D01*
X100194280Y88548440D01*
X100194280Y82758440D01*
X100203947Y82709839D01*
X100231477Y82668637D01*
X100264280Y82646719D01*
X100264280Y6828440D01*
X100273947Y6779839D01*
X100301477Y6738637D01*
X105191477Y1848637D01*
X105232679Y1821107D01*
X105281280Y1811440D01*
X121821280Y1811440D01*
X121869881Y1821107D01*
X121911083Y1848637D01*
X127691083Y7628637D01*
X127718613Y7669839D01*
X127728280Y7718440D01*
X127728280Y87728440D01*
X127719075Y87775910D01*
X127691942Y87817375D01*
X124844709Y90719895D01*
X136374280Y90719895D01*
X136374280Y89276985D01*
X136926458Y87943910D01*
X137946750Y86923618D01*
X139279825Y86371440D01*
X140722735Y86371440D01*
X142055810Y86923618D01*
X143076102Y87943910D01*
X143628280Y89276985D01*
X143628280Y90719895D01*
X143076102Y92052970D01*
X142055810Y93073262D01*
X140722735Y93625440D01*
X139279825Y93625440D01*
X137946750Y93073262D01*
X136926458Y92052970D01*
X136374280Y90719895D01*
X124844709Y90719895D01*
X123571942Y92017375D01*
X123529524Y92045920D01*
X123480894Y92055439D01*
X103730894Y91995439D01*
X103684252Y91986412D01*
X103642686Y91959435D01*
X100232686Y88639435D01*
X100203947Y88597041D01*
X100194280Y88548440D01*
X3326506Y88548440D01*
X3628280Y89276985D01*
X3628280Y90719895D01*
X3076102Y92052970D01*
X2055810Y93073262D01*
X722735Y93625440D01*
X-720175Y93625440D01*
X-2053250Y93073262D01*
X-3073542Y92052970D01*
X-3625720Y90719895D01*
X-3796720Y90719895D01*
X-3796720Y92500556D01*
X-2500835Y93796440D01*
X142503396Y93796440D01*
X143799280Y92500555D01*
X143799280Y92500555D01*
G37*
X143799280Y92500555D02*
X143799281Y-2503674D01*
X142503396Y-3799560D01*
X-2500835Y-3799560D01*
X-3796720Y-2503676D01*
X-3796720Y719895D01*
X-3625720Y719895D01*
X-3625720Y-723015D01*
X-3073542Y-2056090D01*
X-2053250Y-3076382D01*
X-720175Y-3628560D01*
X722735Y-3628560D01*
X2055810Y-3076382D01*
X3076102Y-2056090D01*
X3628280Y-723015D01*
X3628280Y719895D01*
X136374280Y719895D01*
X136374280Y-723015D01*
X136926458Y-2056090D01*
X137946750Y-3076382D01*
X139279825Y-3628560D01*
X140722735Y-3628560D01*
X142055810Y-3076382D01*
X143076102Y-2056090D01*
X143628280Y-723015D01*
X143628280Y719895D01*
X143076102Y2052970D01*
X142055810Y3073262D01*
X140722735Y3625440D01*
X139279825Y3625440D01*
X137946750Y3073262D01*
X136926458Y2052970D01*
X136374280Y719895D01*
X3628280Y719895D01*
X3076102Y2052970D01*
X2231811Y2897261D01*
X52690701Y2897261D01*
X53844505Y2543875D01*
X56132655Y2543875D01*
X57286459Y2897261D01*
X54988580Y5195139D01*
X52690701Y2897261D01*
X2231811Y2897261D01*
X2055810Y3073262D01*
X722735Y3625440D01*
X-720175Y3625440D01*
X-2053250Y3073262D01*
X-3073542Y2052970D01*
X-3625720Y719895D01*
X-3796720Y719895D01*
X-3796720Y22771255D01*
X3724280Y22771255D01*
X3724280Y21825625D01*
X4086157Y20951978D01*
X4754818Y20283317D01*
X4959729Y20198440D01*
X4754818Y20113563D01*
X4086157Y19444902D01*
X3724280Y18571255D01*
X3724280Y17625625D01*
X4086157Y16751978D01*
X4754818Y16083317D01*
X4959729Y15998440D01*
X4754818Y15913563D01*
X4086157Y15244902D01*
X3724280Y14371255D01*
X3724280Y13425625D01*
X4086157Y12551978D01*
X4754818Y11883317D01*
X4959729Y11798440D01*
X4754818Y11713563D01*
X4086157Y11044902D01*
X3724280Y10171255D01*
X3724280Y9225625D01*
X4086157Y8351978D01*
X4754818Y7683317D01*
X5628465Y7321440D01*
X6574095Y7321440D01*
X7447742Y7683317D01*
X8116403Y8351978D01*
X8201280Y8556889D01*
X8286157Y8351978D01*
X8954818Y7683317D01*
X9828465Y7321440D01*
X10774095Y7321440D01*
X11647742Y7683317D01*
X12203701Y8239276D01*
X25125999Y8239276D01*
X25300471Y8083461D01*
X25949006Y8053011D01*
X26102089Y8083461D01*
X26276561Y8239276D01*
X25701280Y8814557D01*
X25125999Y8239276D01*
X12203701Y8239276D01*
X12316403Y8351978D01*
X12678280Y9225625D01*
X12678280Y9450714D01*
X24055851Y9450714D01*
X24086301Y9297631D01*
X24242116Y9123159D01*
X24817397Y9698440D01*
X26585163Y9698440D01*
X27160444Y9123159D01*
X27316259Y9297631D01*
X27346709Y9946166D01*
X27316259Y10099249D01*
X27160444Y10273721D01*
X26585163Y9698440D01*
X24817397Y9698440D01*
X24242116Y10273721D01*
X24086301Y10099249D01*
X24055851Y9450714D01*
X12678280Y9450714D01*
X12678280Y10171255D01*
X12316403Y11044902D01*
X12203701Y11157604D01*
X25125999Y11157604D01*
X25701280Y10582323D01*
X26276561Y11157604D01*
X26102089Y11313419D01*
X25453554Y11343869D01*
X25300471Y11313419D01*
X25125999Y11157604D01*
X12203701Y11157604D01*
X11647742Y11713563D01*
X10774095Y12075440D01*
X9828465Y12075440D01*
X8954818Y11713563D01*
X8286157Y11044902D01*
X8201280Y10839991D01*
X8116403Y11044902D01*
X7447742Y11713563D01*
X7242831Y11798440D01*
X7447742Y11883317D01*
X8003701Y12439276D01*
X9725999Y12439276D01*
X9900471Y12283461D01*
X10549006Y12253011D01*
X10702089Y12283461D01*
X10876561Y12439276D01*
X25125999Y12439276D01*
X25300471Y12283461D01*
X25949006Y12253011D01*
X26102089Y12283461D01*
X26276561Y12439276D01*
X25701280Y13014557D01*
X25125999Y12439276D01*
X10876561Y12439276D01*
X10301280Y13014557D01*
X9725999Y12439276D01*
X8003701Y12439276D01*
X8116403Y12551978D01*
X8478280Y13425625D01*
X8478280Y13650714D01*
X8655851Y13650714D01*
X8686301Y13497631D01*
X8842116Y13323159D01*
X9417397Y13898440D01*
X11185163Y13898440D01*
X11760444Y13323159D01*
X11916259Y13497631D01*
X11923446Y13650714D01*
X24055851Y13650714D01*
X24086301Y13497631D01*
X24242116Y13323159D01*
X24817397Y13898440D01*
X26585163Y13898440D01*
X27160444Y13323159D01*
X27316259Y13497631D01*
X27346709Y14146166D01*
X27316259Y14299249D01*
X27160444Y14473721D01*
X26585163Y13898440D01*
X24817397Y13898440D01*
X24242116Y14473721D01*
X24086301Y14299249D01*
X24055851Y13650714D01*
X11923446Y13650714D01*
X11946709Y14146166D01*
X11916259Y14299249D01*
X11760444Y14473721D01*
X11185163Y13898440D01*
X9417397Y13898440D01*
X8842116Y14473721D01*
X8686301Y14299249D01*
X8655851Y13650714D01*
X8478280Y13650714D01*
X8478280Y14371255D01*
X8116403Y15244902D01*
X8003701Y15357604D01*
X9725999Y15357604D01*
X10301280Y14782323D01*
X10876561Y15357604D01*
X25125999Y15357604D01*
X25701280Y14782323D01*
X26276561Y15357604D01*
X26102089Y15513419D01*
X25453554Y15543869D01*
X25300471Y15513419D01*
X25125999Y15357604D01*
X10876561Y15357604D01*
X10702089Y15513419D01*
X10053554Y15543869D01*
X9900471Y15513419D01*
X9725999Y15357604D01*
X8003701Y15357604D01*
X7447742Y15913563D01*
X7242831Y15998440D01*
X7447742Y16083317D01*
X8003701Y16639276D01*
X9725999Y16639276D01*
X9900471Y16483461D01*
X10549006Y16453011D01*
X10702089Y16483461D01*
X10876561Y16639276D01*
X25125999Y16639276D01*
X25300471Y16483461D01*
X25949006Y16453011D01*
X26102089Y16483461D01*
X26276561Y16639276D01*
X25701280Y17214557D01*
X25125999Y16639276D01*
X10876561Y16639276D01*
X10301280Y17214557D01*
X9725999Y16639276D01*
X8003701Y16639276D01*
X8116403Y16751978D01*
X8478280Y17625625D01*
X8478280Y17850714D01*
X8655851Y17850714D01*
X8686301Y17697631D01*
X8842116Y17523159D01*
X9417397Y18098440D01*
X11185163Y18098440D01*
X11760444Y17523159D01*
X11916259Y17697631D01*
X11923446Y17850714D01*
X24055851Y17850714D01*
X24086301Y17697631D01*
X24242116Y17523159D01*
X24817397Y18098440D01*
X26585163Y18098440D01*
X27160444Y17523159D01*
X27316259Y17697631D01*
X27346709Y18346166D01*
X27316259Y18499249D01*
X27160444Y18673721D01*
X26585163Y18098440D01*
X24817397Y18098440D01*
X24242116Y18673721D01*
X24086301Y18499249D01*
X24055851Y17850714D01*
X11923446Y17850714D01*
X11946709Y18346166D01*
X11916259Y18499249D01*
X11760444Y18673721D01*
X11185163Y18098440D01*
X9417397Y18098440D01*
X8842116Y18673721D01*
X8686301Y18499249D01*
X8655851Y17850714D01*
X8478280Y17850714D01*
X8478280Y18571255D01*
X8116403Y19444902D01*
X8003701Y19557604D01*
X9725999Y19557604D01*
X10301280Y18982323D01*
X10876561Y19557604D01*
X25125999Y19557604D01*
X25701280Y18982323D01*
X26276561Y19557604D01*
X26102089Y19713419D01*
X25453554Y19743869D01*
X25300471Y19713419D01*
X25125999Y19557604D01*
X10876561Y19557604D01*
X10702089Y19713419D01*
X10053554Y19743869D01*
X9900471Y19713419D01*
X9725999Y19557604D01*
X8003701Y19557604D01*
X7447742Y20113563D01*
X7242831Y20198440D01*
X7447742Y20283317D01*
X8003701Y20839276D01*
X9725999Y20839276D01*
X9900471Y20683461D01*
X10549006Y20653011D01*
X10702089Y20683461D01*
X10876561Y20839276D01*
X10301280Y21414557D01*
X9725999Y20839276D01*
X8003701Y20839276D01*
X8116403Y20951978D01*
X8478280Y21825625D01*
X8478280Y22050714D01*
X8655851Y22050714D01*
X8686301Y21897631D01*
X8842116Y21723159D01*
X9417397Y22298440D01*
X11185163Y22298440D01*
X11760444Y21723159D01*
X11916259Y21897631D01*
X11946709Y22546166D01*
X11916259Y22699249D01*
X11851953Y22771255D01*
X23324280Y22771255D01*
X23324280Y21825625D01*
X23686157Y20951978D01*
X24354818Y20283317D01*
X25228465Y19921440D01*
X26174095Y19921440D01*
X27047742Y20283317D01*
X27716403Y20951978D01*
X27801280Y21156889D01*
X27886157Y20951978D01*
X28554818Y20283317D01*
X28759729Y20198440D01*
X28554818Y20113563D01*
X27886157Y19444902D01*
X27524280Y18571255D01*
X27524280Y17625625D01*
X27886157Y16751978D01*
X28554818Y16083317D01*
X28759729Y15998440D01*
X28554818Y15913563D01*
X27886157Y15244902D01*
X27524280Y14371255D01*
X27524280Y13425625D01*
X27886157Y12551978D01*
X28554818Y11883317D01*
X28759729Y11798440D01*
X28554818Y11713563D01*
X27886157Y11044902D01*
X27524280Y10171255D01*
X27524280Y9225625D01*
X27886157Y8351978D01*
X28554818Y7683317D01*
X29428465Y7321440D01*
X30374095Y7321440D01*
X31247742Y7683317D01*
X31916403Y8351978D01*
X32278280Y9225625D01*
X32278280Y10171255D01*
X31916403Y11044902D01*
X31318790Y11642515D01*
X47034015Y11642515D01*
X47034015Y9354365D01*
X47387401Y8200561D01*
X49685279Y10498440D01*
X60291881Y10498440D01*
X62589759Y8200561D01*
X62943145Y9354365D01*
X62943145Y11642515D01*
X62589759Y12796319D01*
X60291881Y10498440D01*
X49685279Y10498440D01*
X47387401Y12796319D01*
X47034015Y11642515D01*
X31318790Y11642515D01*
X31247742Y11713563D01*
X31042831Y11798440D01*
X31247742Y11883317D01*
X31916403Y12551978D01*
X32278280Y13425625D01*
X32278280Y14371255D01*
X31916403Y15244902D01*
X31247742Y15913563D01*
X31042831Y15998440D01*
X31247742Y16083317D01*
X31916403Y16751978D01*
X32278280Y17625625D01*
X32278280Y18099619D01*
X52690701Y18099619D01*
X54988580Y15801741D01*
X57286459Y18099619D01*
X56132655Y18453005D01*
X53844505Y18453005D01*
X52690701Y18099619D01*
X32278280Y18099619D01*
X32278280Y18571255D01*
X31916403Y19444902D01*
X31247742Y20113563D01*
X31042831Y20198440D01*
X31247742Y20283317D01*
X31916403Y20951978D01*
X32278280Y21825625D01*
X32278280Y22771255D01*
X31916403Y23644902D01*
X31247742Y24313563D01*
X30374095Y24675440D01*
X29428465Y24675440D01*
X28554818Y24313563D01*
X27886157Y23644902D01*
X27801280Y23439991D01*
X27716403Y23644902D01*
X27047742Y24313563D01*
X26174095Y24675440D01*
X25228465Y24675440D01*
X24354818Y24313563D01*
X23686157Y23644902D01*
X23324280Y22771255D01*
X11851953Y22771255D01*
X11760444Y22873721D01*
X11185163Y22298440D01*
X9417397Y22298440D01*
X8842116Y22873721D01*
X8686301Y22699249D01*
X8655851Y22050714D01*
X8478280Y22050714D01*
X8478280Y22771255D01*
X8116403Y23644902D01*
X8003701Y23757604D01*
X9725999Y23757604D01*
X10301280Y23182323D01*
X10876561Y23757604D01*
X10702089Y23913419D01*
X10053554Y23943869D01*
X9900471Y23913419D01*
X9725999Y23757604D01*
X8003701Y23757604D01*
X7447742Y24313563D01*
X6574095Y24675440D01*
X5628465Y24675440D01*
X4754818Y24313563D01*
X4086157Y23644902D01*
X3724280Y22771255D01*
X-3796720Y22771255D01*
X-3796720Y25397261D01*
X52690701Y25397261D01*
X53844505Y25043875D01*
X56132655Y25043875D01*
X57286459Y25397261D01*
X54988580Y27695139D01*
X52690701Y25397261D01*
X-3796720Y25397261D01*
X-3796720Y34142515D01*
X47034015Y34142515D01*
X47034015Y31854365D01*
X47387401Y30700561D01*
X49685279Y32998440D01*
X60291881Y32998440D01*
X62589759Y30700561D01*
X62943145Y31854365D01*
X62943145Y34142515D01*
X62589759Y35296319D01*
X60291881Y32998440D01*
X49685279Y32998440D01*
X47387401Y35296319D01*
X47034015Y34142515D01*
X-3796720Y34142515D01*
X-3796720Y51771255D01*
X3724280Y51771255D01*
X3724280Y50825625D01*
X4086157Y49951978D01*
X4754818Y49283317D01*
X4959729Y49198440D01*
X4754818Y49113563D01*
X4086157Y48444902D01*
X3724280Y47571255D01*
X3724280Y46625625D01*
X4086157Y45751978D01*
X4754818Y45083317D01*
X4959729Y44998440D01*
X4754818Y44913563D01*
X4086157Y44244902D01*
X3724280Y43371255D01*
X3724280Y42425625D01*
X4086157Y41551978D01*
X4754818Y40883317D01*
X4959729Y40798440D01*
X4754818Y40713563D01*
X4086157Y40044902D01*
X3724280Y39171255D01*
X3724280Y38225625D01*
X4086157Y37351978D01*
X4754818Y36683317D01*
X5628465Y36321440D01*
X6574095Y36321440D01*
X7447742Y36683317D01*
X8116403Y37351978D01*
X8201280Y37556889D01*
X8286157Y37351978D01*
X8954818Y36683317D01*
X9828465Y36321440D01*
X10774095Y36321440D01*
X11647742Y36683317D01*
X12203701Y37239276D01*
X25125999Y37239276D01*
X25300471Y37083461D01*
X25949006Y37053011D01*
X26102089Y37083461D01*
X26276561Y37239276D01*
X25701280Y37814557D01*
X25125999Y37239276D01*
X12203701Y37239276D01*
X12316403Y37351978D01*
X12678280Y38225625D01*
X12678280Y38450714D01*
X24055851Y38450714D01*
X24086301Y38297631D01*
X24242116Y38123159D01*
X24817397Y38698440D01*
X26585163Y38698440D01*
X27160444Y38123159D01*
X27316259Y38297631D01*
X27346709Y38946166D01*
X27316259Y39099249D01*
X27160444Y39273721D01*
X26585163Y38698440D01*
X24817397Y38698440D01*
X24242116Y39273721D01*
X24086301Y39099249D01*
X24055851Y38450714D01*
X12678280Y38450714D01*
X12678280Y39171255D01*
X12316403Y40044902D01*
X12203701Y40157604D01*
X25125999Y40157604D01*
X25701280Y39582323D01*
X26276561Y40157604D01*
X26102089Y40313419D01*
X25453554Y40343869D01*
X25300471Y40313419D01*
X25125999Y40157604D01*
X12203701Y40157604D01*
X11647742Y40713563D01*
X10774095Y41075440D01*
X9828465Y41075440D01*
X8954818Y40713563D01*
X8286157Y40044902D01*
X8201280Y39839991D01*
X8116403Y40044902D01*
X7447742Y40713563D01*
X7242831Y40798440D01*
X7447742Y40883317D01*
X8003701Y41439276D01*
X9725999Y41439276D01*
X9900471Y41283461D01*
X10549006Y41253011D01*
X10702089Y41283461D01*
X10876561Y41439276D01*
X25125999Y41439276D01*
X25300471Y41283461D01*
X25949006Y41253011D01*
X26102089Y41283461D01*
X26276561Y41439276D01*
X25701280Y42014557D01*
X25125999Y41439276D01*
X10876561Y41439276D01*
X10301280Y42014557D01*
X9725999Y41439276D01*
X8003701Y41439276D01*
X8116403Y41551978D01*
X8478280Y42425625D01*
X8478280Y42650714D01*
X8655851Y42650714D01*
X8686301Y42497631D01*
X8842116Y42323159D01*
X9417397Y42898440D01*
X11185163Y42898440D01*
X11760444Y42323159D01*
X11916259Y42497631D01*
X11923446Y42650714D01*
X24055851Y42650714D01*
X24086301Y42497631D01*
X24242116Y42323159D01*
X24817397Y42898440D01*
X26585163Y42898440D01*
X27160444Y42323159D01*
X27316259Y42497631D01*
X27346709Y43146166D01*
X27316259Y43299249D01*
X27160444Y43473721D01*
X26585163Y42898440D01*
X24817397Y42898440D01*
X24242116Y43473721D01*
X24086301Y43299249D01*
X24055851Y42650714D01*
X11923446Y42650714D01*
X11946709Y43146166D01*
X11916259Y43299249D01*
X11760444Y43473721D01*
X11185163Y42898440D01*
X9417397Y42898440D01*
X8842116Y43473721D01*
X8686301Y43299249D01*
X8655851Y42650714D01*
X8478280Y42650714D01*
X8478280Y43371255D01*
X8116403Y44244902D01*
X8003701Y44357604D01*
X9725999Y44357604D01*
X10301280Y43782323D01*
X10876561Y44357604D01*
X25125999Y44357604D01*
X25701280Y43782323D01*
X26276561Y44357604D01*
X26102089Y44513419D01*
X25453554Y44543869D01*
X25300471Y44513419D01*
X25125999Y44357604D01*
X10876561Y44357604D01*
X10702089Y44513419D01*
X10053554Y44543869D01*
X9900471Y44513419D01*
X9725999Y44357604D01*
X8003701Y44357604D01*
X7447742Y44913563D01*
X7242831Y44998440D01*
X7447742Y45083317D01*
X8003701Y45639276D01*
X9725999Y45639276D01*
X9900471Y45483461D01*
X10549006Y45453011D01*
X10702089Y45483461D01*
X10876561Y45639276D01*
X25125999Y45639276D01*
X25300471Y45483461D01*
X25949006Y45453011D01*
X26102089Y45483461D01*
X26276561Y45639276D01*
X25701280Y46214557D01*
X25125999Y45639276D01*
X10876561Y45639276D01*
X10301280Y46214557D01*
X9725999Y45639276D01*
X8003701Y45639276D01*
X8116403Y45751978D01*
X8478280Y46625625D01*
X8478280Y46850714D01*
X8655851Y46850714D01*
X8686301Y46697631D01*
X8842116Y46523159D01*
X9417397Y47098440D01*
X11185163Y47098440D01*
X11760444Y46523159D01*
X11916259Y46697631D01*
X11923446Y46850714D01*
X24055851Y46850714D01*
X24086301Y46697631D01*
X24242116Y46523159D01*
X24817397Y47098440D01*
X26585163Y47098440D01*
X27160444Y46523159D01*
X27316259Y46697631D01*
X27346709Y47346166D01*
X27316259Y47499249D01*
X27160444Y47673721D01*
X26585163Y47098440D01*
X24817397Y47098440D01*
X24242116Y47673721D01*
X24086301Y47499249D01*
X24055851Y46850714D01*
X11923446Y46850714D01*
X11946709Y47346166D01*
X11916259Y47499249D01*
X11760444Y47673721D01*
X11185163Y47098440D01*
X9417397Y47098440D01*
X8842116Y47673721D01*
X8686301Y47499249D01*
X8655851Y46850714D01*
X8478280Y46850714D01*
X8478280Y47571255D01*
X8116403Y48444902D01*
X8003701Y48557604D01*
X9725999Y48557604D01*
X10301280Y47982323D01*
X10876561Y48557604D01*
X25125999Y48557604D01*
X25701280Y47982323D01*
X26276561Y48557604D01*
X26102089Y48713419D01*
X25453554Y48743869D01*
X25300471Y48713419D01*
X25125999Y48557604D01*
X10876561Y48557604D01*
X10702089Y48713419D01*
X10053554Y48743869D01*
X9900471Y48713419D01*
X9725999Y48557604D01*
X8003701Y48557604D01*
X7447742Y49113563D01*
X7242831Y49198440D01*
X7447742Y49283317D01*
X8003701Y49839276D01*
X9725999Y49839276D01*
X9900471Y49683461D01*
X10549006Y49653011D01*
X10702089Y49683461D01*
X10876561Y49839276D01*
X10301280Y50414557D01*
X9725999Y49839276D01*
X8003701Y49839276D01*
X8116403Y49951978D01*
X8478280Y50825625D01*
X8478280Y51050714D01*
X8655851Y51050714D01*
X8686301Y50897631D01*
X8842116Y50723159D01*
X9417397Y51298440D01*
X11185163Y51298440D01*
X11760444Y50723159D01*
X11916259Y50897631D01*
X11946709Y51546166D01*
X11916259Y51699249D01*
X11851953Y51771255D01*
X23324280Y51771255D01*
X23324280Y50825625D01*
X23686157Y49951978D01*
X24354818Y49283317D01*
X25228465Y48921440D01*
X26174095Y48921440D01*
X27047742Y49283317D01*
X27716403Y49951978D01*
X27801280Y50156889D01*
X27886157Y49951978D01*
X28554818Y49283317D01*
X28759729Y49198440D01*
X28554818Y49113563D01*
X27886157Y48444902D01*
X27524280Y47571255D01*
X27524280Y46625625D01*
X27886157Y45751978D01*
X28554818Y45083317D01*
X28759729Y44998440D01*
X28554818Y44913563D01*
X27886157Y44244902D01*
X27524280Y43371255D01*
X27524280Y42425625D01*
X27886157Y41551978D01*
X28554818Y40883317D01*
X28759729Y40798440D01*
X28554818Y40713563D01*
X27886157Y40044902D01*
X27524280Y39171255D01*
X27524280Y38225625D01*
X27886157Y37351978D01*
X28554818Y36683317D01*
X29428465Y36321440D01*
X30374095Y36321440D01*
X31247742Y36683317D01*
X31916403Y37351978D01*
X32278280Y38225625D01*
X32278280Y39171255D01*
X31916403Y40044902D01*
X31361686Y40599619D01*
X52690701Y40599619D01*
X54988580Y38301741D01*
X57286459Y40599619D01*
X56132655Y40953005D01*
X53844505Y40953005D01*
X52690701Y40599619D01*
X31361686Y40599619D01*
X31247742Y40713563D01*
X31042831Y40798440D01*
X31247742Y40883317D01*
X31916403Y41551978D01*
X32278280Y42425625D01*
X32278280Y43371255D01*
X31916403Y44244902D01*
X31247742Y44913563D01*
X31042831Y44998440D01*
X31247742Y45083317D01*
X31916403Y45751978D01*
X32278280Y46625625D01*
X32278280Y47571255D01*
X32143244Y47897261D01*
X52690701Y47897261D01*
X53844505Y47543875D01*
X56132655Y47543875D01*
X57286459Y47897261D01*
X54988580Y50195139D01*
X52690701Y47897261D01*
X32143244Y47897261D01*
X31916403Y48444902D01*
X31247742Y49113563D01*
X31042831Y49198440D01*
X31247742Y49283317D01*
X31916403Y49951978D01*
X32278280Y50825625D01*
X32278280Y51771255D01*
X31916403Y52644902D01*
X31247742Y53313563D01*
X30374095Y53675440D01*
X29428465Y53675440D01*
X28554818Y53313563D01*
X27886157Y52644902D01*
X27801280Y52439991D01*
X27716403Y52644902D01*
X27047742Y53313563D01*
X26174095Y53675440D01*
X25228465Y53675440D01*
X24354818Y53313563D01*
X23686157Y52644902D01*
X23324280Y51771255D01*
X11851953Y51771255D01*
X11760444Y51873721D01*
X11185163Y51298440D01*
X9417397Y51298440D01*
X8842116Y51873721D01*
X8686301Y51699249D01*
X8655851Y51050714D01*
X8478280Y51050714D01*
X8478280Y51771255D01*
X8116403Y52644902D01*
X8003701Y52757604D01*
X9725999Y52757604D01*
X10301280Y52182323D01*
X10876561Y52757604D01*
X10702089Y52913419D01*
X10053554Y52943869D01*
X9900471Y52913419D01*
X9725999Y52757604D01*
X8003701Y52757604D01*
X7447742Y53313563D01*
X6574095Y53675440D01*
X5628465Y53675440D01*
X4754818Y53313563D01*
X4086157Y52644902D01*
X3724280Y51771255D01*
X-3796720Y51771255D01*
X-3796720Y56642515D01*
X47034015Y56642515D01*
X47034015Y54354365D01*
X47387401Y53200561D01*
X49685279Y55498440D01*
X60291881Y55498440D01*
X62589759Y53200561D01*
X62943145Y54354365D01*
X62943145Y56642515D01*
X62589759Y57796319D01*
X60291881Y55498440D01*
X49685279Y55498440D01*
X47387401Y57796319D01*
X47034015Y56642515D01*
X-3796720Y56642515D01*
X-3796720Y63099619D01*
X52690701Y63099619D01*
X54988580Y60801741D01*
X57286459Y63099619D01*
X56132655Y63453005D01*
X53844505Y63453005D01*
X52690701Y63099619D01*
X-3796720Y63099619D01*
X-3796720Y67239276D01*
X5525999Y67239276D01*
X5700471Y67083461D01*
X6349006Y67053011D01*
X6502089Y67083461D01*
X6676561Y67239276D01*
X6101280Y67814557D01*
X5525999Y67239276D01*
X-3796720Y67239276D01*
X-3796720Y68450714D01*
X4455851Y68450714D01*
X4486301Y68297631D01*
X4642116Y68123159D01*
X5217397Y68698440D01*
X6985163Y68698440D01*
X7560444Y68123159D01*
X7716259Y68297631D01*
X7746709Y68946166D01*
X7716259Y69099249D01*
X7560444Y69273721D01*
X6985163Y68698440D01*
X5217397Y68698440D01*
X4642116Y69273721D01*
X4486301Y69099249D01*
X4455851Y68450714D01*
X-3796720Y68450714D01*
X-3796720Y70157604D01*
X5525999Y70157604D01*
X6101280Y69582323D01*
X6676561Y70157604D01*
X6502089Y70313419D01*
X5853554Y70343869D01*
X5700471Y70313419D01*
X5525999Y70157604D01*
X-3796720Y70157604D01*
X-3796720Y71439276D01*
X5525999Y71439276D01*
X5700471Y71283461D01*
X6349006Y71253011D01*
X6502089Y71283461D01*
X6676561Y71439276D01*
X6101280Y72014557D01*
X5525999Y71439276D01*
X-3796720Y71439276D01*
X-3796720Y72650714D01*
X4455851Y72650714D01*
X4486301Y72497631D01*
X4642116Y72323159D01*
X5217397Y72898440D01*
X6985163Y72898440D01*
X7560444Y72323159D01*
X7716259Y72497631D01*
X7746709Y73146166D01*
X7716259Y73299249D01*
X7560444Y73473721D01*
X6985163Y72898440D01*
X5217397Y72898440D01*
X4642116Y73473721D01*
X4486301Y73299249D01*
X4455851Y72650714D01*
X-3796720Y72650714D01*
X-3796720Y74357604D01*
X5525999Y74357604D01*
X6101280Y73782323D01*
X6676561Y74357604D01*
X6502089Y74513419D01*
X5853554Y74543869D01*
X5700471Y74513419D01*
X5525999Y74357604D01*
X-3796720Y74357604D01*
X-3796720Y75639276D01*
X5525999Y75639276D01*
X5700471Y75483461D01*
X6349006Y75453011D01*
X6502089Y75483461D01*
X6676561Y75639276D01*
X6101280Y76214557D01*
X5525999Y75639276D01*
X-3796720Y75639276D01*
X-3796720Y76850714D01*
X4455851Y76850714D01*
X4486301Y76697631D01*
X4642116Y76523159D01*
X5217397Y77098440D01*
X6985163Y77098440D01*
X7560444Y76523159D01*
X7716259Y76697631D01*
X7746709Y77346166D01*
X7716259Y77499249D01*
X7560444Y77673721D01*
X6985163Y77098440D01*
X5217397Y77098440D01*
X4642116Y77673721D01*
X4486301Y77499249D01*
X4455851Y76850714D01*
X-3796720Y76850714D01*
X-3796720Y78557604D01*
X5525999Y78557604D01*
X6101280Y77982323D01*
X6676561Y78557604D01*
X6502089Y78713419D01*
X5853554Y78743869D01*
X5700471Y78713419D01*
X5525999Y78557604D01*
X-3796720Y78557604D01*
X-3796720Y79839276D01*
X5525999Y79839276D01*
X5700471Y79683461D01*
X6349006Y79653011D01*
X6502089Y79683461D01*
X6676561Y79839276D01*
X6101280Y80414557D01*
X5525999Y79839276D01*
X-3796720Y79839276D01*
X-3796720Y81050714D01*
X4455851Y81050714D01*
X4486301Y80897631D01*
X4642116Y80723159D01*
X5217397Y81298440D01*
X6985163Y81298440D01*
X7560444Y80723159D01*
X7716259Y80897631D01*
X7746709Y81546166D01*
X7716259Y81699249D01*
X7651953Y81771255D01*
X7924280Y81771255D01*
X7924280Y80825625D01*
X8286157Y79951978D01*
X8954818Y79283317D01*
X9159729Y79198440D01*
X8954818Y79113563D01*
X8286157Y78444902D01*
X7924280Y77571255D01*
X7924280Y76625625D01*
X8286157Y75751978D01*
X8954818Y75083317D01*
X9159729Y74998440D01*
X8954818Y74913563D01*
X8286157Y74244902D01*
X7924280Y73371255D01*
X7924280Y72425625D01*
X8286157Y71551978D01*
X8954818Y70883317D01*
X9159729Y70798440D01*
X8954818Y70713563D01*
X8286157Y70044902D01*
X7924280Y69171255D01*
X7924280Y68225625D01*
X8286157Y67351978D01*
X8954818Y66683317D01*
X9828465Y66321440D01*
X10774095Y66321440D01*
X11647742Y66683317D01*
X12316403Y67351978D01*
X12678280Y68225625D01*
X12678280Y69171255D01*
X12316403Y70044902D01*
X11647742Y70713563D01*
X11442831Y70798440D01*
X11647742Y70883317D01*
X12316403Y71551978D01*
X12678280Y72425625D01*
X12678280Y73371255D01*
X12316403Y74244902D01*
X11647742Y74913563D01*
X11442831Y74998440D01*
X11647742Y75083317D01*
X12316403Y75751978D01*
X12678280Y76625625D01*
X12678280Y77571255D01*
X12316403Y78444902D01*
X11647742Y79113563D01*
X11442831Y79198440D01*
X11647742Y79283317D01*
X12316403Y79951978D01*
X12678280Y80825625D01*
X12678280Y81771255D01*
X23324280Y81771255D01*
X23324280Y80825625D01*
X23686157Y79951978D01*
X24354818Y79283317D01*
X24559729Y79198440D01*
X24354818Y79113563D01*
X23686157Y78444902D01*
X23324280Y77571255D01*
X23324280Y76625625D01*
X23686157Y75751978D01*
X24354818Y75083317D01*
X24559729Y74998440D01*
X24354818Y74913563D01*
X23686157Y74244902D01*
X23324280Y73371255D01*
X23324280Y72425625D01*
X23686157Y71551978D01*
X24354818Y70883317D01*
X24559729Y70798440D01*
X24354818Y70713563D01*
X23686157Y70044902D01*
X23324280Y69171255D01*
X23324280Y68225625D01*
X23686157Y67351978D01*
X24354818Y66683317D01*
X25228465Y66321440D01*
X26174095Y66321440D01*
X27047742Y66683317D01*
X27603701Y67239276D01*
X29325999Y67239276D01*
X29500471Y67083461D01*
X30149006Y67053011D01*
X30302089Y67083461D01*
X30476561Y67239276D01*
X29901280Y67814557D01*
X29325999Y67239276D01*
X27603701Y67239276D01*
X27716403Y67351978D01*
X28078280Y68225625D01*
X28078280Y68450714D01*
X28255851Y68450714D01*
X28286301Y68297631D01*
X28442116Y68123159D01*
X29017397Y68698440D01*
X30785163Y68698440D01*
X31360444Y68123159D01*
X31516259Y68297631D01*
X31546709Y68946166D01*
X31516259Y69099249D01*
X31360444Y69273721D01*
X30785163Y68698440D01*
X29017397Y68698440D01*
X28442116Y69273721D01*
X28286301Y69099249D01*
X28255851Y68450714D01*
X28078280Y68450714D01*
X28078280Y69171255D01*
X27716403Y70044902D01*
X27603701Y70157604D01*
X29325999Y70157604D01*
X29901280Y69582323D01*
X30476561Y70157604D01*
X30302089Y70313419D01*
X29653554Y70343869D01*
X29500471Y70313419D01*
X29325999Y70157604D01*
X27603701Y70157604D01*
X27364044Y70397261D01*
X52690701Y70397261D01*
X53844505Y70043875D01*
X56132655Y70043875D01*
X57286459Y70397261D01*
X54988580Y72695139D01*
X52690701Y70397261D01*
X27364044Y70397261D01*
X27047742Y70713563D01*
X26842831Y70798440D01*
X27047742Y70883317D01*
X27603701Y71439276D01*
X29325999Y71439276D01*
X29500471Y71283461D01*
X30149006Y71253011D01*
X30302089Y71283461D01*
X30476561Y71439276D01*
X29901280Y72014557D01*
X29325999Y71439276D01*
X27603701Y71439276D01*
X27716403Y71551978D01*
X28078280Y72425625D01*
X28078280Y72650714D01*
X28255851Y72650714D01*
X28286301Y72497631D01*
X28442116Y72323159D01*
X29017397Y72898440D01*
X30785163Y72898440D01*
X31360444Y72323159D01*
X31516259Y72497631D01*
X31546709Y73146166D01*
X31516259Y73299249D01*
X31360444Y73473721D01*
X30785163Y72898440D01*
X29017397Y72898440D01*
X28442116Y73473721D01*
X28286301Y73299249D01*
X28255851Y72650714D01*
X28078280Y72650714D01*
X28078280Y73371255D01*
X27716403Y74244902D01*
X27603701Y74357604D01*
X29325999Y74357604D01*
X29901280Y73782323D01*
X30476561Y74357604D01*
X30302089Y74513419D01*
X29653554Y74543869D01*
X29500471Y74513419D01*
X29325999Y74357604D01*
X27603701Y74357604D01*
X27047742Y74913563D01*
X26842831Y74998440D01*
X27047742Y75083317D01*
X27603701Y75639276D01*
X29325999Y75639276D01*
X29500471Y75483461D01*
X30149006Y75453011D01*
X30302089Y75483461D01*
X30476561Y75639276D01*
X29901280Y76214557D01*
X29325999Y75639276D01*
X27603701Y75639276D01*
X27716403Y75751978D01*
X28078280Y76625625D01*
X28078280Y76850714D01*
X28255851Y76850714D01*
X28286301Y76697631D01*
X28442116Y76523159D01*
X29017397Y77098440D01*
X30785163Y77098440D01*
X31360444Y76523159D01*
X31516259Y76697631D01*
X31546709Y77346166D01*
X31516259Y77499249D01*
X31360444Y77673721D01*
X30785163Y77098440D01*
X29017397Y77098440D01*
X28442116Y77673721D01*
X28286301Y77499249D01*
X28255851Y76850714D01*
X28078280Y76850714D01*
X28078280Y77571255D01*
X27716403Y78444902D01*
X27603701Y78557604D01*
X29325999Y78557604D01*
X29901280Y77982323D01*
X30476561Y78557604D01*
X30302089Y78713419D01*
X29653554Y78743869D01*
X29500471Y78713419D01*
X29325999Y78557604D01*
X27603701Y78557604D01*
X27047742Y79113563D01*
X26977846Y79142515D01*
X47034015Y79142515D01*
X47034015Y76854365D01*
X47387401Y75700561D01*
X49685279Y77998440D01*
X60291881Y77998440D01*
X62589759Y75700561D01*
X62943145Y76854365D01*
X62943145Y79142515D01*
X62589759Y80296319D01*
X60291881Y77998440D01*
X49685279Y77998440D01*
X47387401Y80296319D01*
X47034015Y79142515D01*
X26977846Y79142515D01*
X26842831Y79198440D01*
X27047742Y79283317D01*
X27603701Y79839276D01*
X29325999Y79839276D01*
X29500471Y79683461D01*
X30149006Y79653011D01*
X30302089Y79683461D01*
X30476561Y79839276D01*
X29901280Y80414557D01*
X29325999Y79839276D01*
X27603701Y79839276D01*
X27716403Y79951978D01*
X28078280Y80825625D01*
X28078280Y81050714D01*
X28255851Y81050714D01*
X28286301Y80897631D01*
X28442116Y80723159D01*
X29017397Y81298440D01*
X30785163Y81298440D01*
X31360444Y80723159D01*
X31516259Y80897631D01*
X31546709Y81546166D01*
X31516259Y81699249D01*
X31360444Y81873721D01*
X30785163Y81298440D01*
X29017397Y81298440D01*
X28442116Y81873721D01*
X28286301Y81699249D01*
X28255851Y81050714D01*
X28078280Y81050714D01*
X28078280Y81771255D01*
X27716403Y82644902D01*
X27603701Y82757604D01*
X29325999Y82757604D01*
X29901280Y82182323D01*
X30476561Y82757604D01*
X30302089Y82913419D01*
X29653554Y82943869D01*
X29500471Y82913419D01*
X29325999Y82757604D01*
X27603701Y82757604D01*
X27047742Y83313563D01*
X26174095Y83675440D01*
X25228465Y83675440D01*
X24354818Y83313563D01*
X23686157Y82644902D01*
X23324280Y81771255D01*
X12678280Y81771255D01*
X12316403Y82644902D01*
X11647742Y83313563D01*
X10774095Y83675440D01*
X9828465Y83675440D01*
X8954818Y83313563D01*
X8286157Y82644902D01*
X7924280Y81771255D01*
X7651953Y81771255D01*
X7560444Y81873721D01*
X6985163Y81298440D01*
X5217397Y81298440D01*
X4642116Y81873721D01*
X4486301Y81699249D01*
X4455851Y81050714D01*
X-3796720Y81050714D01*
X-3796720Y82757604D01*
X5525999Y82757604D01*
X6101280Y82182323D01*
X6676561Y82757604D01*
X6502089Y82913419D01*
X5853554Y82943869D01*
X5700471Y82913419D01*
X5525999Y82757604D01*
X-3796720Y82757604D01*
X-3796720Y85599619D01*
X52690701Y85599619D01*
X54988580Y83301741D01*
X57286459Y85599619D01*
X56132655Y85953005D01*
X53844505Y85953005D01*
X52690701Y85599619D01*
X-3796720Y85599619D01*
X-3796720Y90719895D01*
X-3625720Y90719895D01*
X-3625720Y89276985D01*
X-3073542Y87943910D01*
X-2053250Y86923618D01*
X-720175Y86371440D01*
X722735Y86371440D01*
X2055810Y86923618D01*
X3076102Y87943910D01*
X3326506Y88548440D01*
X100194280Y88548440D01*
X100194280Y82758440D01*
X100203947Y82709839D01*
X100231477Y82668637D01*
X100264280Y82646719D01*
X100264280Y6828440D01*
X100273947Y6779839D01*
X100301477Y6738637D01*
X105191477Y1848637D01*
X105232679Y1821107D01*
X105281280Y1811440D01*
X121821280Y1811440D01*
X121869881Y1821107D01*
X121911083Y1848637D01*
X127691083Y7628637D01*
X127718613Y7669839D01*
X127728280Y7718440D01*
X127728280Y87728440D01*
X127719075Y87775910D01*
X127691942Y87817375D01*
X124844709Y90719895D01*
X136374280Y90719895D01*
X136374280Y89276985D01*
X136926458Y87943910D01*
X137946750Y86923618D01*
X139279825Y86371440D01*
X140722735Y86371440D01*
X142055810Y86923618D01*
X143076102Y87943910D01*
X143628280Y89276985D01*
X143628280Y90719895D01*
X143076102Y92052970D01*
X142055810Y93073262D01*
X140722735Y93625440D01*
X139279825Y93625440D01*
X137946750Y93073262D01*
X136926458Y92052970D01*
X136374280Y90719895D01*
X124844709Y90719895D01*
X123571942Y92017375D01*
X123529524Y92045920D01*
X123480894Y92055439D01*
X103730894Y91995439D01*
X103684252Y91986412D01*
X103642686Y91959435D01*
X100232686Y88639435D01*
X100203947Y88597041D01*
X100194280Y88548440D01*
X3326506Y88548440D01*
X3628280Y89276985D01*
X3628280Y90719895D01*
X3076102Y92052970D01*
X2055810Y93073262D01*
X722735Y93625440D01*
X-720175Y93625440D01*
X-2053250Y93073262D01*
X-3073542Y92052970D01*
X-3625720Y90719895D01*
X-3796720Y90719895D01*
X-3796720Y92500556D01*
X-2500835Y93796440D01*
X142503396Y93796440D01*
X143799280Y92500555D01*
G36*
X127474280Y87676549D02*
X127474280Y7771046D01*
X121768674Y2065440D01*
X105333886Y2065440D01*
X100518280Y6881046D01*
X100518280Y15362282D01*
X104361580Y15362282D01*
X104361580Y11134598D01*
X105979445Y7228728D01*
X108968868Y4239305D01*
X112874738Y2621440D01*
X117102422Y2621440D01*
X121008292Y4239305D01*
X123997715Y7228728D01*
X125615580Y11134598D01*
X125615580Y15362282D01*
X123997715Y19268152D01*
X121008292Y22257575D01*
X117102422Y23875440D01*
X112874738Y23875440D01*
X108968868Y22257575D01*
X105979445Y19268152D01*
X104361580Y15362282D01*
X100518280Y15362282D01*
X100518280Y37862282D01*
X104361580Y37862282D01*
X104361580Y33634598D01*
X105979445Y29728728D01*
X108968868Y26739305D01*
X112874738Y25121440D01*
X117102422Y25121440D01*
X121008292Y26739305D01*
X123997715Y29728728D01*
X125615580Y33634598D01*
X125615580Y37862282D01*
X123997715Y41768152D01*
X121008292Y44757575D01*
X117102422Y46375440D01*
X112874738Y46375440D01*
X108968868Y44757575D01*
X105979445Y41768152D01*
X104361580Y37862282D01*
X100518280Y37862282D01*
X100518280Y60362282D01*
X104361580Y60362282D01*
X104361580Y56134598D01*
X105979445Y52228728D01*
X108968868Y49239305D01*
X112874738Y47621440D01*
X117102422Y47621440D01*
X121008292Y49239305D01*
X123997715Y52228728D01*
X125615580Y56134598D01*
X125615580Y60362282D01*
X123997715Y64268152D01*
X121008292Y67257575D01*
X117102422Y68875440D01*
X112874738Y68875440D01*
X108968868Y67257575D01*
X105979445Y64268152D01*
X104361580Y60362282D01*
X100518280Y60362282D01*
X100518280Y82748440D01*
X100508613Y82797041D01*
X100481083Y82838243D01*
X100448280Y82861885D01*
X100448280Y82862282D01*
X104361580Y82862282D01*
X104361580Y78634598D01*
X105979445Y74728728D01*
X108968868Y71739305D01*
X112874738Y70121440D01*
X117102422Y70121440D01*
X121008292Y71739305D01*
X123997715Y74728728D01*
X125615580Y78634598D01*
X125615580Y82862282D01*
X123997715Y86768152D01*
X121008292Y89757575D01*
X117102422Y91375440D01*
X112874738Y91375440D01*
X108968868Y89757575D01*
X105979445Y86768152D01*
X104361580Y82862282D01*
X100448280Y82862282D01*
X100448280Y88494837D01*
X103783054Y91741597D01*
X121835603Y91796440D01*
X123432863Y91796440D01*
X127474280Y87676549D01*
X127474280Y87676549D01*
G37*
X127474280Y87676549D02*
X127474280Y7771046D01*
X121768674Y2065440D01*
X105333886Y2065440D01*
X100518280Y6881046D01*
X100518280Y15362282D01*
X104361580Y15362282D01*
X104361580Y11134598D01*
X105979445Y7228728D01*
X108968868Y4239305D01*
X112874738Y2621440D01*
X117102422Y2621440D01*
X121008292Y4239305D01*
X123997715Y7228728D01*
X125615580Y11134598D01*
X125615580Y15362282D01*
X123997715Y19268152D01*
X121008292Y22257575D01*
X117102422Y23875440D01*
X112874738Y23875440D01*
X108968868Y22257575D01*
X105979445Y19268152D01*
X104361580Y15362282D01*
X100518280Y15362282D01*
X100518280Y37862282D01*
X104361580Y37862282D01*
X104361580Y33634598D01*
X105979445Y29728728D01*
X108968868Y26739305D01*
X112874738Y25121440D01*
X117102422Y25121440D01*
X121008292Y26739305D01*
X123997715Y29728728D01*
X125615580Y33634598D01*
X125615580Y37862282D01*
X123997715Y41768152D01*
X121008292Y44757575D01*
X117102422Y46375440D01*
X112874738Y46375440D01*
X108968868Y44757575D01*
X105979445Y41768152D01*
X104361580Y37862282D01*
X100518280Y37862282D01*
X100518280Y60362282D01*
X104361580Y60362282D01*
X104361580Y56134598D01*
X105979445Y52228728D01*
X108968868Y49239305D01*
X112874738Y47621440D01*
X117102422Y47621440D01*
X121008292Y49239305D01*
X123997715Y52228728D01*
X125615580Y56134598D01*
X125615580Y60362282D01*
X123997715Y64268152D01*
X121008292Y67257575D01*
X117102422Y68875440D01*
X112874738Y68875440D01*
X108968868Y67257575D01*
X105979445Y64268152D01*
X104361580Y60362282D01*
X100518280Y60362282D01*
X100518280Y82748440D01*
X100508613Y82797041D01*
X100481083Y82838243D01*
X100448280Y82861885D01*
X100448280Y82862282D01*
X104361580Y82862282D01*
X104361580Y78634598D01*
X105979445Y74728728D01*
X108968868Y71739305D01*
X112874738Y70121440D01*
X117102422Y70121440D01*
X121008292Y71739305D01*
X123997715Y74728728D01*
X125615580Y78634598D01*
X125615580Y82862282D01*
X123997715Y86768152D01*
X121008292Y89757575D01*
X117102422Y91375440D01*
X112874738Y91375440D01*
X108968868Y89757575D01*
X105979445Y86768152D01*
X104361580Y82862282D01*
X100448280Y82862282D01*
X100448280Y88494837D01*
X103783054Y91741597D01*
X121835603Y91796440D01*
X123432863Y91796440D01*
X127474280Y87676549D01*
G04 #@! TD*
M02*
