G04 #@! TF.GenerationSoftware,KiCad,Pcbnew,(5.0.1)-3*
G04 #@! TF.CreationDate,2019-04-10T15:36:06+02:00*
G04 #@! TF.ProjectId,discovery,646973636F766572792E6B696361645F,rev?*
G04 #@! TF.SameCoordinates,PX4c4640PY8a48028*
G04 #@! TF.FileFunction,Legend,Top*
G04 #@! TF.FilePolarity,Positive*
%FSLAX46Y46*%
G04 Gerber Fmt 4.6, Leading zero omitted, Abs format (unit mm)*
G04 Created by KiCad (PCBNEW (5.0.1)-3) date 10/04/2019 15:36:06*
%MOMM*%
%LPD*%
G01*
G04 APERTURE LIST*
%ADD10C,0.400000*%
%ADD11C,0.300000*%
%ADD12C,1.000000*%
%ADD13C,0.100000*%
%ADD14C,0.120000*%
%ADD15C,0.150000*%
G04 APERTURE END LIST*
D10*
X20060302Y19379730D02*
X20060302Y17855920D01*
X19298398Y18617825D02*
X20822207Y18617825D01*
X19298398Y15855920D02*
X19298398Y16998778D01*
X19298398Y16427349D02*
X21298398Y16427349D01*
X21012683Y16617825D01*
X20822207Y16808301D01*
X20726969Y16998778D01*
X21107921Y15094016D02*
X21203160Y14998778D01*
X21298398Y14808301D01*
X21298398Y14332111D01*
X21203160Y14141635D01*
X21107921Y14046397D01*
X20917445Y13951159D01*
X20726969Y13951159D01*
X20441255Y14046397D01*
X19298398Y15189254D01*
X19298398Y13951159D01*
X21298398Y13379730D02*
X19298398Y12713063D01*
X21298398Y12046397D01*
X15762662Y19379730D02*
X15762662Y17855920D01*
X15000758Y18617825D02*
X16524567Y18617825D01*
X15000758Y15855920D02*
X15000758Y16998778D01*
X15000758Y16427349D02*
X17000758Y16427349D01*
X16715043Y16617825D01*
X16524567Y16808301D01*
X16429329Y16998778D01*
X16810281Y15094016D02*
X16905520Y14998778D01*
X17000758Y14808301D01*
X17000758Y14332111D01*
X16905520Y14141635D01*
X16810281Y14046397D01*
X16619805Y13951159D01*
X16429329Y13951159D01*
X16143615Y14046397D01*
X15000758Y15189254D01*
X15000758Y13951159D01*
X17000758Y13379730D02*
X15000758Y12713063D01*
X17000758Y12046397D01*
X20803177Y41135711D02*
X20803177Y42659520D01*
X21565081Y41897616D02*
X20041272Y41897616D01*
X21565081Y44659520D02*
X21565081Y43516663D01*
X21565081Y44088092D02*
X19565081Y44088092D01*
X19850796Y43897616D01*
X20041272Y43707140D01*
X20136510Y43516663D01*
X19755558Y45421425D02*
X19660320Y45516663D01*
X19565081Y45707140D01*
X19565081Y46183330D01*
X19660320Y46373806D01*
X19755558Y46469044D01*
X19946034Y46564282D01*
X20136510Y46564282D01*
X20422224Y46469044D01*
X21565081Y45326187D01*
X21565081Y46564282D01*
X19565081Y47135711D02*
X21565081Y47802378D01*
X19565081Y48469044D01*
X15107302Y48168090D02*
X15107302Y46644280D01*
X14345398Y47406185D02*
X15869207Y47406185D01*
X14345398Y44644280D02*
X14345398Y45787138D01*
X14345398Y45215709D02*
X16345398Y45215709D01*
X16059683Y45406185D01*
X15869207Y45596661D01*
X15773969Y45787138D01*
X16154921Y43882376D02*
X16250160Y43787138D01*
X16345398Y43596661D01*
X16345398Y43120471D01*
X16250160Y42929995D01*
X16154921Y42834757D01*
X15964445Y42739519D01*
X15773969Y42739519D01*
X15488255Y42834757D01*
X14345398Y43977614D01*
X14345398Y42739519D01*
X16345398Y42168090D02*
X14345398Y41501423D01*
X16345398Y40834757D01*
X36591817Y71365551D02*
X36591817Y72889360D01*
X37353721Y72127456D02*
X35829912Y72127456D01*
X37353721Y74889360D02*
X37353721Y73746503D01*
X37353721Y74317932D02*
X35353721Y74317932D01*
X35639436Y74127456D01*
X35829912Y73936980D01*
X35925150Y73746503D01*
X35544198Y75651265D02*
X35448960Y75746503D01*
X35353721Y75936980D01*
X35353721Y76413170D01*
X35448960Y76603646D01*
X35544198Y76698884D01*
X35734674Y76794122D01*
X35925150Y76794122D01*
X36210864Y76698884D01*
X37353721Y75556027D01*
X37353721Y76794122D01*
X35353721Y77365551D02*
X37353721Y78032218D01*
X35353721Y78698884D01*
X-4503Y68527071D02*
X-4503Y70050880D01*
X757401Y69288976D02*
X-766408Y69288976D01*
X757401Y72050880D02*
X757401Y70908023D01*
X757401Y71479452D02*
X-1242599Y71479452D01*
X-956884Y71288976D01*
X-766408Y71098500D01*
X-671170Y70908023D01*
X-1052122Y72812785D02*
X-1147360Y72908023D01*
X-1242599Y73098500D01*
X-1242599Y73574690D01*
X-1147360Y73765166D01*
X-1052122Y73860404D01*
X-861646Y73955642D01*
X-671170Y73955642D01*
X-385456Y73860404D01*
X757401Y72717547D01*
X757401Y73955642D01*
X-1242599Y74527071D02*
X757401Y75193738D01*
X-1242599Y75860404D01*
D11*
X34758960Y80905320D02*
X34758960Y64847440D01*
X1487440Y81530160D02*
X1487440Y64222600D01*
X22321320Y50130680D02*
X22321320Y39162960D01*
X13686520Y38776880D02*
X13686520Y50653920D01*
X13995400Y9800560D02*
X13995400Y21906200D01*
X22060840Y9800560D02*
X22060840Y21906200D01*
D12*
X125101280Y43940821D02*
X124910803Y43559869D01*
X124910803Y42988440D01*
X125101280Y42417012D01*
X125482232Y42036060D01*
X125863184Y41845583D01*
X126625089Y41655107D01*
X127196518Y41655107D01*
X127958422Y41845583D01*
X128339375Y42036060D01*
X128720327Y42417012D01*
X128910803Y42988440D01*
X128910803Y43369393D01*
X128720327Y43940821D01*
X128529851Y44131298D01*
X127196518Y44131298D01*
X127196518Y43369393D01*
X128910803Y45845583D02*
X124910803Y45845583D01*
X128910803Y48131298D01*
X124910803Y48131298D01*
X128910803Y50036060D02*
X124910803Y50036060D01*
X124910803Y50988440D01*
X125101280Y51559869D01*
X125482232Y51940821D01*
X125863184Y52131298D01*
X126625089Y52321774D01*
X127196518Y52321774D01*
X127958422Y52131298D01*
X128339375Y51940821D01*
X128720327Y51559869D01*
X128910803Y50988440D01*
X128910803Y50036060D01*
X65786994Y36300821D02*
X65786994Y39348440D01*
X67310803Y37824631D02*
X64263184Y37824631D01*
X67310803Y43348440D02*
X67310803Y41062726D01*
X67310803Y42205583D02*
X63310803Y42205583D01*
X63882232Y41824631D01*
X64263184Y41443679D01*
X64453660Y41062726D01*
X63691756Y44872250D02*
X63501280Y45062726D01*
X63310803Y45443679D01*
X63310803Y46396060D01*
X63501280Y46777012D01*
X63691756Y46967488D01*
X64072708Y47157964D01*
X64453660Y47157964D01*
X65025089Y46967488D01*
X67310803Y44681774D01*
X67310803Y47157964D01*
X63310803Y48300821D02*
X67310803Y49634155D01*
X63310803Y50967488D01*
D10*
X25180919Y1555248D02*
X25180919Y4055248D01*
X26133300Y4055248D01*
X26371396Y3936200D01*
X26490443Y3817153D01*
X26609491Y3579058D01*
X26609491Y3221915D01*
X26490443Y2983820D01*
X26371396Y2864772D01*
X26133300Y2745724D01*
X25180919Y2745724D01*
X29109491Y1793343D02*
X28990443Y1674296D01*
X28633300Y1555248D01*
X28395205Y1555248D01*
X28038062Y1674296D01*
X27799967Y1912391D01*
X27680919Y2150486D01*
X27561872Y2626677D01*
X27561872Y2983820D01*
X27680919Y3460010D01*
X27799967Y3698105D01*
X28038062Y3936200D01*
X28395205Y4055248D01*
X28633300Y4055248D01*
X28990443Y3936200D01*
X29109491Y3817153D01*
X30180920Y1555248D02*
X30180920Y4055248D01*
X5450200Y1638888D02*
X5450200Y4138888D01*
X6402580Y4138888D01*
X6640676Y4019840D01*
X6759723Y3900793D01*
X6878771Y3662698D01*
X6878771Y3305555D01*
X6759723Y3067460D01*
X6640676Y2948412D01*
X6402580Y2829364D01*
X5450200Y2829364D01*
X9378771Y1876983D02*
X9259723Y1757936D01*
X8902580Y1638888D01*
X8664485Y1638888D01*
X8307342Y1757936D01*
X8069247Y1996031D01*
X7950200Y2234126D01*
X7831152Y2710317D01*
X7831152Y3067460D01*
X7950200Y3543650D01*
X8069247Y3781745D01*
X8307342Y4019840D01*
X8664485Y4138888D01*
X8902580Y4138888D01*
X9259723Y4019840D01*
X9378771Y3900793D01*
X10450200Y1638888D02*
X10450200Y4138888D01*
X25160599Y30483128D02*
X25160599Y32983128D01*
X26112980Y32983128D01*
X26351076Y32864080D01*
X26470123Y32745033D01*
X26589171Y32506938D01*
X26589171Y32149795D01*
X26470123Y31911700D01*
X26351076Y31792652D01*
X26112980Y31673604D01*
X25160599Y31673604D01*
X29089171Y30721223D02*
X28970123Y30602176D01*
X28612980Y30483128D01*
X28374885Y30483128D01*
X28017742Y30602176D01*
X27779647Y30840271D01*
X27660599Y31078366D01*
X27541552Y31554557D01*
X27541552Y31911700D01*
X27660599Y32387890D01*
X27779647Y32625985D01*
X28017742Y32864080D01*
X28374885Y32983128D01*
X28612980Y32983128D01*
X28970123Y32864080D01*
X29089171Y32745033D01*
X30160600Y30483128D02*
X30160600Y32983128D01*
X5160640Y30432328D02*
X5160640Y32932328D01*
X6113020Y32932328D01*
X6351116Y32813280D01*
X6470163Y32694233D01*
X6589211Y32456138D01*
X6589211Y32098995D01*
X6470163Y31860900D01*
X6351116Y31741852D01*
X6113020Y31622804D01*
X5160640Y31622804D01*
X9089211Y30670423D02*
X8970163Y30551376D01*
X8613020Y30432328D01*
X8374925Y30432328D01*
X8017782Y30551376D01*
X7779687Y30789471D01*
X7660640Y31027566D01*
X7541592Y31503757D01*
X7541592Y31860900D01*
X7660640Y32337090D01*
X7779687Y32575185D01*
X8017782Y32813280D01*
X8374925Y32932328D01*
X8613020Y32932328D01*
X8970163Y32813280D01*
X9089211Y32694233D01*
X10160640Y30432328D02*
X10160640Y32932328D01*
X26363977Y84152646D02*
X26483024Y84033599D01*
X26602072Y83676456D01*
X26602072Y83438360D01*
X26483024Y83081218D01*
X26244929Y82843122D01*
X26006834Y82724075D01*
X25530643Y82605027D01*
X25173500Y82605027D01*
X24697310Y82724075D01*
X24459215Y82843122D01*
X24221120Y83081218D01*
X24102072Y83438360D01*
X24102072Y83676456D01*
X24221120Y84033599D01*
X24340167Y84152646D01*
X26602072Y85224075D02*
X24102072Y85224075D01*
X24102072Y86176456D01*
X24221120Y86414551D01*
X24340167Y86533599D01*
X24578262Y86652646D01*
X24935405Y86652646D01*
X25173500Y86533599D01*
X25292548Y86414551D01*
X25411596Y86176456D01*
X25411596Y85224075D01*
X24102072Y87724075D02*
X26125881Y87724075D01*
X26363977Y87843122D01*
X26483024Y87962170D01*
X26602072Y88200265D01*
X26602072Y88676456D01*
X26483024Y88914551D01*
X26363977Y89033599D01*
X26125881Y89152646D01*
X24102072Y89152646D01*
X12145057Y84000246D02*
X12264104Y83881199D01*
X12383152Y83524056D01*
X12383152Y83285960D01*
X12264104Y82928818D01*
X12026009Y82690722D01*
X11787914Y82571675D01*
X11311723Y82452627D01*
X10954580Y82452627D01*
X10478390Y82571675D01*
X10240295Y82690722D01*
X10002200Y82928818D01*
X9883152Y83285960D01*
X9883152Y83524056D01*
X10002200Y83881199D01*
X10121247Y84000246D01*
X12383152Y85071675D02*
X9883152Y85071675D01*
X9883152Y86024056D01*
X10002200Y86262151D01*
X10121247Y86381199D01*
X10359342Y86500246D01*
X10716485Y86500246D01*
X10954580Y86381199D01*
X11073628Y86262151D01*
X11192676Y86024056D01*
X11192676Y85071675D01*
X9883152Y87571675D02*
X11906961Y87571675D01*
X12145057Y87690722D01*
X12264104Y87809770D01*
X12383152Y88047865D01*
X12383152Y88524056D01*
X12264104Y88762151D01*
X12145057Y88881199D01*
X11906961Y89000246D01*
X9883152Y89000246D01*
D13*
G04 #@! TO.C,J2*
X32601280Y37698440D02*
X32601280Y51498440D01*
X23001280Y37698440D02*
X32601280Y37698440D01*
X23001280Y51498440D02*
X23001280Y37698440D01*
X32601280Y51498440D02*
X23001280Y51498440D01*
X33401280Y43598440D02*
X32601280Y43598440D01*
X33401280Y45598440D02*
X33401280Y43598440D01*
X32601280Y45598440D02*
X33401280Y45598440D01*
G04 #@! TO.C,J4*
X3401280Y43598440D02*
X2601280Y43598440D01*
X2601280Y43598440D02*
X2601280Y45598440D01*
X2601280Y45598440D02*
X3401280Y45598440D01*
X3401280Y37698440D02*
X13001280Y37698440D01*
X13001280Y37698440D02*
X13001280Y51498440D01*
X13001280Y51498440D02*
X3401280Y51498440D01*
X3401280Y51498440D02*
X3401280Y37698440D01*
G04 #@! TO.C,J5*
X3401280Y22665840D02*
X3401280Y8865840D01*
X13001280Y22665840D02*
X3401280Y22665840D01*
X13001280Y8865840D02*
X13001280Y22665840D01*
X3401280Y8865840D02*
X13001280Y8865840D01*
X2601280Y16765840D02*
X3401280Y16765840D01*
X2601280Y14765840D02*
X2601280Y16765840D01*
X3401280Y14765840D02*
X2601280Y14765840D01*
G04 #@! TO.C,J6*
X32601280Y16765840D02*
X33401280Y16765840D01*
X33401280Y16765840D02*
X33401280Y14765840D01*
X33401280Y14765840D02*
X32601280Y14765840D01*
X32601280Y22665840D02*
X23001280Y22665840D01*
X23001280Y22665840D02*
X23001280Y8865840D01*
X23001280Y8865840D02*
X32601280Y8865840D01*
X32601280Y8865840D02*
X32601280Y22665840D01*
G04 #@! TO.C,J1*
X2001280Y73898440D02*
X3401280Y73898440D01*
X2001280Y71898440D02*
X2001280Y73898440D01*
X2001280Y71898440D02*
X3401280Y71898440D01*
X3401280Y63698440D02*
X3401280Y81698440D01*
X13001280Y81698440D02*
X3401280Y81698440D01*
X13001280Y63698440D02*
X13001280Y81698440D01*
X13001280Y63698440D02*
X3401280Y63698440D01*
G04 #@! TO.C,J3*
X23001280Y81698440D02*
X32601280Y81698440D01*
X23001280Y81698440D02*
X23001280Y63698440D01*
X23001280Y63698440D02*
X32601280Y63698440D01*
X32601280Y81698440D02*
X32601280Y63698440D01*
X34001280Y73498440D02*
X32601280Y73498440D01*
X34001280Y73498440D02*
X34001280Y71498440D01*
X34001280Y71498440D02*
X32601280Y71498440D01*
D14*
G04 #@! TO.C,W1*
X142751280Y-1560D02*
G75*
G03X142751280Y-1560I-2750000J0D01*
G01*
G04 #@! TO.C,W2*
X2751280Y89998440D02*
G75*
G03X2751280Y89998440I-2750000J0D01*
G01*
G04 #@! TO.C,W3*
X142751280Y89998440D02*
G75*
G03X142751280Y89998440I-2750000J0D01*
G01*
G04 #@! TO.C,W4*
X2751280Y-1560D02*
G75*
G03X2751280Y-1560I-2750000J0D01*
G01*
G04 #@! TO.C,J2*
D15*
X33070860Y50098307D02*
X33785146Y50098307D01*
X33928003Y50050688D01*
X34023241Y49955450D01*
X34070860Y49812593D01*
X34070860Y49717355D01*
X33166099Y50526879D02*
X33118480Y50574498D01*
X33070860Y50669736D01*
X33070860Y50907831D01*
X33118480Y51003069D01*
X33166099Y51050688D01*
X33261337Y51098307D01*
X33356575Y51098307D01*
X33499432Y51050688D01*
X34070860Y50479260D01*
X34070860Y51098307D01*
G04 #@! TO.C,J4*
X2078740Y50081827D02*
X2793026Y50081827D01*
X2935883Y50034208D01*
X3031121Y49938970D01*
X3078740Y49796113D01*
X3078740Y49700875D01*
X2412074Y50986589D02*
X3078740Y50986589D01*
X2031121Y50748494D02*
X2745407Y50510399D01*
X2745407Y51129446D01*
G04 #@! TO.C,J5*
X2033020Y21278227D02*
X2747306Y21278227D01*
X2890163Y21230608D01*
X2985401Y21135370D01*
X3033020Y20992513D01*
X3033020Y20897275D01*
X2033020Y22230608D02*
X2033020Y21754418D01*
X2509211Y21706799D01*
X2461592Y21754418D01*
X2413973Y21849656D01*
X2413973Y22087751D01*
X2461592Y22182989D01*
X2509211Y22230608D01*
X2604449Y22278227D01*
X2842544Y22278227D01*
X2937782Y22230608D01*
X2985401Y22182989D01*
X3033020Y22087751D01*
X3033020Y21849656D01*
X2985401Y21754418D01*
X2937782Y21706799D01*
G04 #@! TO.C,J6*
X32995620Y21311427D02*
X33709906Y21311427D01*
X33852763Y21263808D01*
X33948001Y21168570D01*
X33995620Y21025713D01*
X33995620Y20930475D01*
X32995620Y22216189D02*
X32995620Y22025713D01*
X33043240Y21930475D01*
X33090859Y21882856D01*
X33233716Y21787618D01*
X33424192Y21739999D01*
X33805144Y21739999D01*
X33900382Y21787618D01*
X33948001Y21835237D01*
X33995620Y21930475D01*
X33995620Y22120951D01*
X33948001Y22216189D01*
X33900382Y22263808D01*
X33805144Y22311427D01*
X33567049Y22311427D01*
X33471811Y22263808D01*
X33424192Y22216189D01*
X33376573Y22120951D01*
X33376573Y21930475D01*
X33424192Y21835237D01*
X33471811Y21787618D01*
X33567049Y21739999D01*
G04 #@! TO.C,J1*
X13530620Y80367867D02*
X14244906Y80367867D01*
X14387763Y80320248D01*
X14483001Y80225010D01*
X14530620Y80082153D01*
X14530620Y79986915D01*
X14530620Y81367867D02*
X14530620Y80796439D01*
X14530620Y81082153D02*
X13530620Y81082153D01*
X13673478Y80986915D01*
X13768716Y80891677D01*
X13816335Y80796439D01*
G04 #@! TO.C,J3*
X21483380Y80272907D02*
X22197666Y80272907D01*
X22340523Y80225288D01*
X22435761Y80130050D01*
X22483380Y79987193D01*
X22483380Y79891955D01*
X21483380Y80653860D02*
X21483380Y81272907D01*
X21864333Y80939574D01*
X21864333Y81082431D01*
X21911952Y81177669D01*
X21959571Y81225288D01*
X22054809Y81272907D01*
X22292904Y81272907D01*
X22388142Y81225288D01*
X22435761Y81177669D01*
X22483380Y81082431D01*
X22483380Y80796717D01*
X22435761Y80701479D01*
X22388142Y80653860D01*
G04 #@! TO.C,W1*
X142915298Y-1746180D02*
X143153393Y-2746180D01*
X143343869Y-2031895D01*
X143534345Y-2746180D01*
X143772440Y-1746180D01*
X144677202Y-2746180D02*
X144105774Y-2746180D01*
X144391488Y-2746180D02*
X144391488Y-1746180D01*
X144296250Y-1889038D01*
X144201012Y-1984276D01*
X144105774Y-2031895D01*
G04 #@! TO.C,W2*
X3260838Y90875100D02*
X3498933Y89875100D01*
X3689409Y90589385D01*
X3879885Y89875100D01*
X4117980Y90875100D01*
X4451314Y90779861D02*
X4498933Y90827480D01*
X4594171Y90875100D01*
X4832266Y90875100D01*
X4927504Y90827480D01*
X4975123Y90779861D01*
X5022742Y90684623D01*
X5022742Y90589385D01*
X4975123Y90446528D01*
X4403695Y89875100D01*
X5022742Y89875100D01*
G04 #@! TO.C,W3*
X142915298Y88253820D02*
X143153393Y87253820D01*
X143343869Y87968105D01*
X143534345Y87253820D01*
X143772440Y88253820D01*
X144058155Y88253820D02*
X144677202Y88253820D01*
X144343869Y87872867D01*
X144486726Y87872867D01*
X144581964Y87825248D01*
X144629583Y87777629D01*
X144677202Y87682391D01*
X144677202Y87444296D01*
X144629583Y87349058D01*
X144581964Y87301439D01*
X144486726Y87253820D01*
X144201012Y87253820D01*
X144105774Y87301439D01*
X144058155Y87349058D01*
G04 #@! TO.C,W4*
X2915298Y-1746180D02*
X3153393Y-2746180D01*
X3343869Y-2031895D01*
X3534345Y-2746180D01*
X3772440Y-1746180D01*
X4581964Y-2079514D02*
X4581964Y-2746180D01*
X4343869Y-1698561D02*
X4105774Y-2412847D01*
X4724821Y-2412847D01*
G04 #@! TO.C,W5*
X49664218Y86013660D02*
X49902313Y85013660D01*
X50092789Y85727945D01*
X50283265Y85013660D01*
X50521360Y86013660D01*
X51378503Y86013660D02*
X50902313Y86013660D01*
X50854694Y85537469D01*
X50902313Y85585088D01*
X50997551Y85632707D01*
X51235646Y85632707D01*
X51330884Y85585088D01*
X51378503Y85537469D01*
X51426122Y85442231D01*
X51426122Y85204136D01*
X51378503Y85108898D01*
X51330884Y85061279D01*
X51235646Y85013660D01*
X50997551Y85013660D01*
X50902313Y85061279D01*
X50854694Y85108898D01*
G04 #@! TO.C,W6*
X49664218Y63513660D02*
X49902313Y62513660D01*
X50092789Y63227945D01*
X50283265Y62513660D01*
X50521360Y63513660D01*
X51330884Y63513660D02*
X51140408Y63513660D01*
X51045170Y63466040D01*
X50997551Y63418421D01*
X50902313Y63275564D01*
X50854694Y63085088D01*
X50854694Y62704136D01*
X50902313Y62608898D01*
X50949932Y62561279D01*
X51045170Y62513660D01*
X51235646Y62513660D01*
X51330884Y62561279D01*
X51378503Y62608898D01*
X51426122Y62704136D01*
X51426122Y62942231D01*
X51378503Y63037469D01*
X51330884Y63085088D01*
X51235646Y63132707D01*
X51045170Y63132707D01*
X50949932Y63085088D01*
X50902313Y63037469D01*
X50854694Y62942231D01*
G04 #@! TO.C,W7*
X49664218Y41013660D02*
X49902313Y40013660D01*
X50092789Y40727945D01*
X50283265Y40013660D01*
X50521360Y41013660D01*
X50807075Y41013660D02*
X51473741Y41013660D01*
X51045170Y40013660D01*
G04 #@! TO.C,W8*
X49664218Y18513660D02*
X49902313Y17513660D01*
X50092789Y18227945D01*
X50283265Y17513660D01*
X50521360Y18513660D01*
X51045170Y18085088D02*
X50949932Y18132707D01*
X50902313Y18180326D01*
X50854694Y18275564D01*
X50854694Y18323183D01*
X50902313Y18418421D01*
X50949932Y18466040D01*
X51045170Y18513660D01*
X51235646Y18513660D01*
X51330884Y18466040D01*
X51378503Y18418421D01*
X51426122Y18323183D01*
X51426122Y18275564D01*
X51378503Y18180326D01*
X51330884Y18132707D01*
X51235646Y18085088D01*
X51045170Y18085088D01*
X50949932Y18037469D01*
X50902313Y17989850D01*
X50854694Y17894612D01*
X50854694Y17704136D01*
X50902313Y17608898D01*
X50949932Y17561279D01*
X51045170Y17513660D01*
X51235646Y17513660D01*
X51330884Y17561279D01*
X51378503Y17608898D01*
X51426122Y17704136D01*
X51426122Y17894612D01*
X51378503Y17989850D01*
X51330884Y18037469D01*
X51235646Y18085088D01*
G04 #@! TO.C,W9*
X109664218Y88763660D02*
X109902313Y87763660D01*
X110092789Y88477945D01*
X110283265Y87763660D01*
X110521360Y88763660D01*
X110949932Y87763660D02*
X111140408Y87763660D01*
X111235646Y87811279D01*
X111283265Y87858898D01*
X111378503Y88001755D01*
X111426122Y88192231D01*
X111426122Y88573183D01*
X111378503Y88668421D01*
X111330884Y88716040D01*
X111235646Y88763660D01*
X111045170Y88763660D01*
X110949932Y88716040D01*
X110902313Y88668421D01*
X110854694Y88573183D01*
X110854694Y88335088D01*
X110902313Y88239850D01*
X110949932Y88192231D01*
X111045170Y88144612D01*
X111235646Y88144612D01*
X111330884Y88192231D01*
X111378503Y88239850D01*
X111426122Y88335088D01*
G04 #@! TO.C,W10*
X109188027Y66263660D02*
X109426122Y65263660D01*
X109616599Y65977945D01*
X109807075Y65263660D01*
X110045170Y66263660D01*
X110949932Y65263660D02*
X110378503Y65263660D01*
X110664218Y65263660D02*
X110664218Y66263660D01*
X110568980Y66120802D01*
X110473741Y66025564D01*
X110378503Y65977945D01*
X111568980Y66263660D02*
X111664218Y66263660D01*
X111759456Y66216040D01*
X111807075Y66168421D01*
X111854694Y66073183D01*
X111902313Y65882707D01*
X111902313Y65644612D01*
X111854694Y65454136D01*
X111807075Y65358898D01*
X111759456Y65311279D01*
X111664218Y65263660D01*
X111568980Y65263660D01*
X111473741Y65311279D01*
X111426122Y65358898D01*
X111378503Y65454136D01*
X111330884Y65644612D01*
X111330884Y65882707D01*
X111378503Y66073183D01*
X111426122Y66168421D01*
X111473741Y66216040D01*
X111568980Y66263660D01*
G04 #@! TO.C,W11*
X109188027Y21263660D02*
X109426122Y20263660D01*
X109616599Y20977945D01*
X109807075Y20263660D01*
X110045170Y21263660D01*
X110949932Y20263660D02*
X110378503Y20263660D01*
X110664218Y20263660D02*
X110664218Y21263660D01*
X110568980Y21120802D01*
X110473741Y21025564D01*
X110378503Y20977945D01*
X111902313Y20263660D02*
X111330884Y20263660D01*
X111616599Y20263660D02*
X111616599Y21263660D01*
X111521360Y21120802D01*
X111426122Y21025564D01*
X111330884Y20977945D01*
G04 #@! TO.C,W12*
X109188027Y43763660D02*
X109426122Y42763660D01*
X109616599Y43477945D01*
X109807075Y42763660D01*
X110045170Y43763660D01*
X110949932Y42763660D02*
X110378503Y42763660D01*
X110664218Y42763660D02*
X110664218Y43763660D01*
X110568980Y43620802D01*
X110473741Y43525564D01*
X110378503Y43477945D01*
X111330884Y43668421D02*
X111378503Y43716040D01*
X111473741Y43763660D01*
X111711837Y43763660D01*
X111807075Y43716040D01*
X111854694Y43668421D01*
X111902313Y43573183D01*
X111902313Y43477945D01*
X111854694Y43335088D01*
X111283265Y42763660D01*
X111902313Y42763660D01*
G04 #@! TD*
M02*
