G04 #@! TF.GenerationSoftware,KiCad,Pcbnew,(5.0.1)-3*
G04 #@! TF.CreationDate,2019-04-03T23:09:03+02:00*
G04 #@! TF.ProjectId,discovery,646973636F766572792E6B696361645F,rev?*
G04 #@! TF.SameCoordinates,PX4c4640PY8a48028*
G04 #@! TF.FileFunction,Other,Fab,Top*
%FSLAX46Y46*%
G04 Gerber Fmt 4.6, Leading zero omitted, Abs format (unit mm)*
G04 Created by KiCad (PCBNEW (5.0.1)-3) date 03/04/2019 23:09:03*
%MOMM*%
%LPD*%
G01*
G04 APERTURE LIST*
%ADD10C,0.150000*%
G04 APERTURE END LIST*
G04 #@! TO.C,W1*
D10*
X136382232Y-3480131D02*
X136048899Y-3480131D01*
X136048899Y-4003940D02*
X136048899Y-3003940D01*
X136525089Y-3003940D01*
X136906041Y-4003940D02*
X136906041Y-3337274D01*
X136906041Y-3003940D02*
X136858422Y-3051560D01*
X136906041Y-3099179D01*
X136953660Y-3051560D01*
X136906041Y-3003940D01*
X136906041Y-3099179D01*
X137286994Y-4003940D02*
X137810803Y-3337274D01*
X137286994Y-3337274D02*
X137810803Y-4003940D01*
X138191756Y-4003940D02*
X138191756Y-3337274D01*
X138191756Y-3003940D02*
X138144137Y-3051560D01*
X138191756Y-3099179D01*
X138239375Y-3051560D01*
X138191756Y-3003940D01*
X138191756Y-3099179D01*
X138667946Y-3337274D02*
X138667946Y-4003940D01*
X138667946Y-3432512D02*
X138715565Y-3384893D01*
X138810803Y-3337274D01*
X138953660Y-3337274D01*
X139048899Y-3384893D01*
X139096518Y-3480131D01*
X139096518Y-4003940D01*
X140001280Y-3337274D02*
X140001280Y-4146798D01*
X139953660Y-4242036D01*
X139906041Y-4289655D01*
X139810803Y-4337274D01*
X139667946Y-4337274D01*
X139572708Y-4289655D01*
X140001280Y-3956321D02*
X139906041Y-4003940D01*
X139715565Y-4003940D01*
X139620327Y-3956321D01*
X139572708Y-3908702D01*
X139525089Y-3813464D01*
X139525089Y-3527750D01*
X139572708Y-3432512D01*
X139620327Y-3384893D01*
X139715565Y-3337274D01*
X139906041Y-3337274D01*
X140001280Y-3384893D01*
X141239375Y-4003940D02*
X141239375Y-3003940D01*
X141667946Y-4003940D02*
X141667946Y-3480131D01*
X141620327Y-3384893D01*
X141525089Y-3337274D01*
X141382232Y-3337274D01*
X141286994Y-3384893D01*
X141239375Y-3432512D01*
X142286994Y-4003940D02*
X142191756Y-3956321D01*
X142144137Y-3908702D01*
X142096518Y-3813464D01*
X142096518Y-3527750D01*
X142144137Y-3432512D01*
X142191756Y-3384893D01*
X142286994Y-3337274D01*
X142429851Y-3337274D01*
X142525089Y-3384893D01*
X142572708Y-3432512D01*
X142620327Y-3527750D01*
X142620327Y-3813464D01*
X142572708Y-3908702D01*
X142525089Y-3956321D01*
X142429851Y-4003940D01*
X142286994Y-4003940D01*
X143191756Y-4003940D02*
X143096518Y-3956321D01*
X143048899Y-3861083D01*
X143048899Y-3003940D01*
X143953660Y-3956321D02*
X143858422Y-4003940D01*
X143667946Y-4003940D01*
X143572708Y-3956321D01*
X143525089Y-3861083D01*
X143525089Y-3480131D01*
X143572708Y-3384893D01*
X143667946Y-3337274D01*
X143858422Y-3337274D01*
X143953660Y-3384893D01*
X144001280Y-3480131D01*
X144001280Y-3575369D01*
X143525089Y-3670607D01*
X139096518Y4096060D02*
X139334613Y3096060D01*
X139525089Y3810345D01*
X139715565Y3096060D01*
X139953660Y4096060D01*
X140858422Y3096060D02*
X140286994Y3096060D01*
X140572708Y3096060D02*
X140572708Y4096060D01*
X140477470Y3953202D01*
X140382232Y3857964D01*
X140286994Y3810345D01*
G04 #@! TO.C,W2*
X-3617768Y86519869D02*
X-3951101Y86519869D01*
X-3951101Y85996060D02*
X-3951101Y86996060D01*
X-3474911Y86996060D01*
X-3093959Y85996060D02*
X-3093959Y86662726D01*
X-3093959Y86996060D02*
X-3141578Y86948440D01*
X-3093959Y86900821D01*
X-3046340Y86948440D01*
X-3093959Y86996060D01*
X-3093959Y86900821D01*
X-2713006Y85996060D02*
X-2189197Y86662726D01*
X-2713006Y86662726D02*
X-2189197Y85996060D01*
X-1808244Y85996060D02*
X-1808244Y86662726D01*
X-1808244Y86996060D02*
X-1855863Y86948440D01*
X-1808244Y86900821D01*
X-1760625Y86948440D01*
X-1808244Y86996060D01*
X-1808244Y86900821D01*
X-1332054Y86662726D02*
X-1332054Y85996060D01*
X-1332054Y86567488D02*
X-1284435Y86615107D01*
X-1189197Y86662726D01*
X-1046340Y86662726D01*
X-951101Y86615107D01*
X-903482Y86519869D01*
X-903482Y85996060D01*
X1280Y86662726D02*
X1280Y85853202D01*
X-46340Y85757964D01*
X-93959Y85710345D01*
X-189197Y85662726D01*
X-332054Y85662726D01*
X-427292Y85710345D01*
X1280Y86043679D02*
X-93959Y85996060D01*
X-284435Y85996060D01*
X-379673Y86043679D01*
X-427292Y86091298D01*
X-474911Y86186536D01*
X-474911Y86472250D01*
X-427292Y86567488D01*
X-379673Y86615107D01*
X-284435Y86662726D01*
X-93959Y86662726D01*
X1280Y86615107D01*
X1239375Y85996060D02*
X1239375Y86996060D01*
X1667946Y85996060D02*
X1667946Y86519869D01*
X1620327Y86615107D01*
X1525089Y86662726D01*
X1382232Y86662726D01*
X1286994Y86615107D01*
X1239375Y86567488D01*
X2286994Y85996060D02*
X2191756Y86043679D01*
X2144137Y86091298D01*
X2096518Y86186536D01*
X2096518Y86472250D01*
X2144137Y86567488D01*
X2191756Y86615107D01*
X2286994Y86662726D01*
X2429851Y86662726D01*
X2525089Y86615107D01*
X2572708Y86567488D01*
X2620327Y86472250D01*
X2620327Y86186536D01*
X2572708Y86091298D01*
X2525089Y86043679D01*
X2429851Y85996060D01*
X2286994Y85996060D01*
X3191756Y85996060D02*
X3096518Y86043679D01*
X3048899Y86138917D01*
X3048899Y86996060D01*
X3953660Y86043679D02*
X3858422Y85996060D01*
X3667946Y85996060D01*
X3572708Y86043679D01*
X3525089Y86138917D01*
X3525089Y86519869D01*
X3572708Y86615107D01*
X3667946Y86662726D01*
X3858422Y86662726D01*
X3953660Y86615107D01*
X4001280Y86519869D01*
X4001280Y86424631D01*
X3525089Y86329393D01*
X-903482Y94096060D02*
X-665387Y93096060D01*
X-474911Y93810345D01*
X-284435Y93096060D01*
X-46340Y94096060D01*
X286994Y94000821D02*
X334613Y94048440D01*
X429851Y94096060D01*
X667946Y94096060D01*
X763184Y94048440D01*
X810803Y94000821D01*
X858422Y93905583D01*
X858422Y93810345D01*
X810803Y93667488D01*
X239375Y93096060D01*
X858422Y93096060D01*
G04 #@! TO.C,W3*
X136382232Y86519869D02*
X136048899Y86519869D01*
X136048899Y85996060D02*
X136048899Y86996060D01*
X136525089Y86996060D01*
X136906041Y85996060D02*
X136906041Y86662726D01*
X136906041Y86996060D02*
X136858422Y86948440D01*
X136906041Y86900821D01*
X136953660Y86948440D01*
X136906041Y86996060D01*
X136906041Y86900821D01*
X137286994Y85996060D02*
X137810803Y86662726D01*
X137286994Y86662726D02*
X137810803Y85996060D01*
X138191756Y85996060D02*
X138191756Y86662726D01*
X138191756Y86996060D02*
X138144137Y86948440D01*
X138191756Y86900821D01*
X138239375Y86948440D01*
X138191756Y86996060D01*
X138191756Y86900821D01*
X138667946Y86662726D02*
X138667946Y85996060D01*
X138667946Y86567488D02*
X138715565Y86615107D01*
X138810803Y86662726D01*
X138953660Y86662726D01*
X139048899Y86615107D01*
X139096518Y86519869D01*
X139096518Y85996060D01*
X140001280Y86662726D02*
X140001280Y85853202D01*
X139953660Y85757964D01*
X139906041Y85710345D01*
X139810803Y85662726D01*
X139667946Y85662726D01*
X139572708Y85710345D01*
X140001280Y86043679D02*
X139906041Y85996060D01*
X139715565Y85996060D01*
X139620327Y86043679D01*
X139572708Y86091298D01*
X139525089Y86186536D01*
X139525089Y86472250D01*
X139572708Y86567488D01*
X139620327Y86615107D01*
X139715565Y86662726D01*
X139906041Y86662726D01*
X140001280Y86615107D01*
X141239375Y85996060D02*
X141239375Y86996060D01*
X141667946Y85996060D02*
X141667946Y86519869D01*
X141620327Y86615107D01*
X141525089Y86662726D01*
X141382232Y86662726D01*
X141286994Y86615107D01*
X141239375Y86567488D01*
X142286994Y85996060D02*
X142191756Y86043679D01*
X142144137Y86091298D01*
X142096518Y86186536D01*
X142096518Y86472250D01*
X142144137Y86567488D01*
X142191756Y86615107D01*
X142286994Y86662726D01*
X142429851Y86662726D01*
X142525089Y86615107D01*
X142572708Y86567488D01*
X142620327Y86472250D01*
X142620327Y86186536D01*
X142572708Y86091298D01*
X142525089Y86043679D01*
X142429851Y85996060D01*
X142286994Y85996060D01*
X143191756Y85996060D02*
X143096518Y86043679D01*
X143048899Y86138917D01*
X143048899Y86996060D01*
X143953660Y86043679D02*
X143858422Y85996060D01*
X143667946Y85996060D01*
X143572708Y86043679D01*
X143525089Y86138917D01*
X143525089Y86519869D01*
X143572708Y86615107D01*
X143667946Y86662726D01*
X143858422Y86662726D01*
X143953660Y86615107D01*
X144001280Y86519869D01*
X144001280Y86424631D01*
X143525089Y86329393D01*
X139096518Y94096060D02*
X139334613Y93096060D01*
X139525089Y93810345D01*
X139715565Y93096060D01*
X139953660Y94096060D01*
X140239375Y94096060D02*
X140858422Y94096060D01*
X140525089Y93715107D01*
X140667946Y93715107D01*
X140763184Y93667488D01*
X140810803Y93619869D01*
X140858422Y93524631D01*
X140858422Y93286536D01*
X140810803Y93191298D01*
X140763184Y93143679D01*
X140667946Y93096060D01*
X140382232Y93096060D01*
X140286994Y93143679D01*
X140239375Y93191298D01*
G04 #@! TO.C,W4*
X-3617768Y-3480131D02*
X-3951101Y-3480131D01*
X-3951101Y-4003940D02*
X-3951101Y-3003940D01*
X-3474911Y-3003940D01*
X-3093959Y-4003940D02*
X-3093959Y-3337274D01*
X-3093959Y-3003940D02*
X-3141578Y-3051560D01*
X-3093959Y-3099179D01*
X-3046340Y-3051560D01*
X-3093959Y-3003940D01*
X-3093959Y-3099179D01*
X-2713006Y-4003940D02*
X-2189197Y-3337274D01*
X-2713006Y-3337274D02*
X-2189197Y-4003940D01*
X-1808244Y-4003940D02*
X-1808244Y-3337274D01*
X-1808244Y-3003940D02*
X-1855863Y-3051560D01*
X-1808244Y-3099179D01*
X-1760625Y-3051560D01*
X-1808244Y-3003940D01*
X-1808244Y-3099179D01*
X-1332054Y-3337274D02*
X-1332054Y-4003940D01*
X-1332054Y-3432512D02*
X-1284435Y-3384893D01*
X-1189197Y-3337274D01*
X-1046340Y-3337274D01*
X-951101Y-3384893D01*
X-903482Y-3480131D01*
X-903482Y-4003940D01*
X1280Y-3337274D02*
X1280Y-4146798D01*
X-46340Y-4242036D01*
X-93959Y-4289655D01*
X-189197Y-4337274D01*
X-332054Y-4337274D01*
X-427292Y-4289655D01*
X1280Y-3956321D02*
X-93959Y-4003940D01*
X-284435Y-4003940D01*
X-379673Y-3956321D01*
X-427292Y-3908702D01*
X-474911Y-3813464D01*
X-474911Y-3527750D01*
X-427292Y-3432512D01*
X-379673Y-3384893D01*
X-284435Y-3337274D01*
X-93959Y-3337274D01*
X1280Y-3384893D01*
X1239375Y-4003940D02*
X1239375Y-3003940D01*
X1667946Y-4003940D02*
X1667946Y-3480131D01*
X1620327Y-3384893D01*
X1525089Y-3337274D01*
X1382232Y-3337274D01*
X1286994Y-3384893D01*
X1239375Y-3432512D01*
X2286994Y-4003940D02*
X2191756Y-3956321D01*
X2144137Y-3908702D01*
X2096518Y-3813464D01*
X2096518Y-3527750D01*
X2144137Y-3432512D01*
X2191756Y-3384893D01*
X2286994Y-3337274D01*
X2429851Y-3337274D01*
X2525089Y-3384893D01*
X2572708Y-3432512D01*
X2620327Y-3527750D01*
X2620327Y-3813464D01*
X2572708Y-3908702D01*
X2525089Y-3956321D01*
X2429851Y-4003940D01*
X2286994Y-4003940D01*
X3191756Y-4003940D02*
X3096518Y-3956321D01*
X3048899Y-3861083D01*
X3048899Y-3003940D01*
X3953660Y-3956321D02*
X3858422Y-4003940D01*
X3667946Y-4003940D01*
X3572708Y-3956321D01*
X3525089Y-3861083D01*
X3525089Y-3480131D01*
X3572708Y-3384893D01*
X3667946Y-3337274D01*
X3858422Y-3337274D01*
X3953660Y-3384893D01*
X4001280Y-3480131D01*
X4001280Y-3575369D01*
X3525089Y-3670607D01*
X-903482Y4096060D02*
X-665387Y3096060D01*
X-474911Y3810345D01*
X-284435Y3096060D01*
X-46340Y4096060D01*
X763184Y3762726D02*
X763184Y3096060D01*
X525089Y4143679D02*
X286994Y3429393D01*
X906041Y3429393D01*
G04 #@! TO.C,W5*
X48724395Y13387418D02*
X48676776Y13339799D01*
X48533919Y13292180D01*
X48438680Y13292180D01*
X48295823Y13339799D01*
X48200585Y13435037D01*
X48152966Y13530275D01*
X48105347Y13720751D01*
X48105347Y13863608D01*
X48152966Y14054084D01*
X48200585Y14149322D01*
X48295823Y14244560D01*
X48438680Y14292180D01*
X48533919Y14292180D01*
X48676776Y14244560D01*
X48724395Y14196941D01*
X49581538Y13292180D02*
X49581538Y13815989D01*
X49533919Y13911227D01*
X49438680Y13958846D01*
X49248204Y13958846D01*
X49152966Y13911227D01*
X49581538Y13339799D02*
X49486300Y13292180D01*
X49248204Y13292180D01*
X49152966Y13339799D01*
X49105347Y13435037D01*
X49105347Y13530275D01*
X49152966Y13625513D01*
X49248204Y13673132D01*
X49486300Y13673132D01*
X49581538Y13720751D01*
X50057728Y13292180D02*
X50057728Y14292180D01*
X50057728Y13911227D02*
X50152966Y13958846D01*
X50343442Y13958846D01*
X50438680Y13911227D01*
X50486300Y13863608D01*
X50533919Y13768370D01*
X50533919Y13482656D01*
X50486300Y13387418D01*
X50438680Y13339799D01*
X50343442Y13292180D01*
X50152966Y13292180D01*
X50057728Y13339799D01*
X51105347Y13292180D02*
X51010109Y13339799D01*
X50962490Y13435037D01*
X50962490Y14292180D01*
X51867252Y13339799D02*
X51772014Y13292180D01*
X51581538Y13292180D01*
X51486300Y13339799D01*
X51438680Y13435037D01*
X51438680Y13815989D01*
X51486300Y13911227D01*
X51581538Y13958846D01*
X51772014Y13958846D01*
X51867252Y13911227D01*
X51914871Y13815989D01*
X51914871Y13720751D01*
X51438680Y13625513D01*
X53105347Y13292180D02*
X53105347Y14292180D01*
X53533919Y13292180D02*
X53533919Y13815989D01*
X53486300Y13911227D01*
X53391061Y13958846D01*
X53248204Y13958846D01*
X53152966Y13911227D01*
X53105347Y13863608D01*
X54152966Y13292180D02*
X54057728Y13339799D01*
X54010109Y13387418D01*
X53962490Y13482656D01*
X53962490Y13768370D01*
X54010109Y13863608D01*
X54057728Y13911227D01*
X54152966Y13958846D01*
X54295823Y13958846D01*
X54391061Y13911227D01*
X54438680Y13863608D01*
X54486300Y13768370D01*
X54486300Y13482656D01*
X54438680Y13387418D01*
X54391061Y13339799D01*
X54295823Y13292180D01*
X54152966Y13292180D01*
X55057728Y13292180D02*
X54962490Y13339799D01*
X54914871Y13435037D01*
X54914871Y14292180D01*
X55819633Y13339799D02*
X55724395Y13292180D01*
X55533919Y13292180D01*
X55438680Y13339799D01*
X55391061Y13435037D01*
X55391061Y13815989D01*
X55438680Y13911227D01*
X55533919Y13958846D01*
X55724395Y13958846D01*
X55819633Y13911227D01*
X55867252Y13815989D01*
X55867252Y13720751D01*
X55391061Y13625513D01*
G04 #@! TO.C,W6*
X48724395Y58387418D02*
X48676776Y58339799D01*
X48533919Y58292180D01*
X48438680Y58292180D01*
X48295823Y58339799D01*
X48200585Y58435037D01*
X48152966Y58530275D01*
X48105347Y58720751D01*
X48105347Y58863608D01*
X48152966Y59054084D01*
X48200585Y59149322D01*
X48295823Y59244560D01*
X48438680Y59292180D01*
X48533919Y59292180D01*
X48676776Y59244560D01*
X48724395Y59196941D01*
X49581538Y58292180D02*
X49581538Y58815989D01*
X49533919Y58911227D01*
X49438680Y58958846D01*
X49248204Y58958846D01*
X49152966Y58911227D01*
X49581538Y58339799D02*
X49486300Y58292180D01*
X49248204Y58292180D01*
X49152966Y58339799D01*
X49105347Y58435037D01*
X49105347Y58530275D01*
X49152966Y58625513D01*
X49248204Y58673132D01*
X49486300Y58673132D01*
X49581538Y58720751D01*
X50057728Y58292180D02*
X50057728Y59292180D01*
X50057728Y58911227D02*
X50152966Y58958846D01*
X50343442Y58958846D01*
X50438680Y58911227D01*
X50486300Y58863608D01*
X50533919Y58768370D01*
X50533919Y58482656D01*
X50486300Y58387418D01*
X50438680Y58339799D01*
X50343442Y58292180D01*
X50152966Y58292180D01*
X50057728Y58339799D01*
X51105347Y58292180D02*
X51010109Y58339799D01*
X50962490Y58435037D01*
X50962490Y59292180D01*
X51867252Y58339799D02*
X51772014Y58292180D01*
X51581538Y58292180D01*
X51486300Y58339799D01*
X51438680Y58435037D01*
X51438680Y58815989D01*
X51486300Y58911227D01*
X51581538Y58958846D01*
X51772014Y58958846D01*
X51867252Y58911227D01*
X51914871Y58815989D01*
X51914871Y58720751D01*
X51438680Y58625513D01*
X53105347Y58292180D02*
X53105347Y59292180D01*
X53533919Y58292180D02*
X53533919Y58815989D01*
X53486300Y58911227D01*
X53391061Y58958846D01*
X53248204Y58958846D01*
X53152966Y58911227D01*
X53105347Y58863608D01*
X54152966Y58292180D02*
X54057728Y58339799D01*
X54010109Y58387418D01*
X53962490Y58482656D01*
X53962490Y58768370D01*
X54010109Y58863608D01*
X54057728Y58911227D01*
X54152966Y58958846D01*
X54295823Y58958846D01*
X54391061Y58911227D01*
X54438680Y58863608D01*
X54486300Y58768370D01*
X54486300Y58482656D01*
X54438680Y58387418D01*
X54391061Y58339799D01*
X54295823Y58292180D01*
X54152966Y58292180D01*
X55057728Y58292180D02*
X54962490Y58339799D01*
X54914871Y58435037D01*
X54914871Y59292180D01*
X55819633Y58339799D02*
X55724395Y58292180D01*
X55533919Y58292180D01*
X55438680Y58339799D01*
X55391061Y58435037D01*
X55391061Y58815989D01*
X55438680Y58911227D01*
X55533919Y58958846D01*
X55724395Y58958846D01*
X55819633Y58911227D01*
X55867252Y58815989D01*
X55867252Y58720751D01*
X55391061Y58625513D01*
G04 #@! TO.C,W7*
X48724395Y35887418D02*
X48676776Y35839799D01*
X48533919Y35792180D01*
X48438680Y35792180D01*
X48295823Y35839799D01*
X48200585Y35935037D01*
X48152966Y36030275D01*
X48105347Y36220751D01*
X48105347Y36363608D01*
X48152966Y36554084D01*
X48200585Y36649322D01*
X48295823Y36744560D01*
X48438680Y36792180D01*
X48533919Y36792180D01*
X48676776Y36744560D01*
X48724395Y36696941D01*
X49581538Y35792180D02*
X49581538Y36315989D01*
X49533919Y36411227D01*
X49438680Y36458846D01*
X49248204Y36458846D01*
X49152966Y36411227D01*
X49581538Y35839799D02*
X49486300Y35792180D01*
X49248204Y35792180D01*
X49152966Y35839799D01*
X49105347Y35935037D01*
X49105347Y36030275D01*
X49152966Y36125513D01*
X49248204Y36173132D01*
X49486300Y36173132D01*
X49581538Y36220751D01*
X50057728Y35792180D02*
X50057728Y36792180D01*
X50057728Y36411227D02*
X50152966Y36458846D01*
X50343442Y36458846D01*
X50438680Y36411227D01*
X50486300Y36363608D01*
X50533919Y36268370D01*
X50533919Y35982656D01*
X50486300Y35887418D01*
X50438680Y35839799D01*
X50343442Y35792180D01*
X50152966Y35792180D01*
X50057728Y35839799D01*
X51105347Y35792180D02*
X51010109Y35839799D01*
X50962490Y35935037D01*
X50962490Y36792180D01*
X51867252Y35839799D02*
X51772014Y35792180D01*
X51581538Y35792180D01*
X51486300Y35839799D01*
X51438680Y35935037D01*
X51438680Y36315989D01*
X51486300Y36411227D01*
X51581538Y36458846D01*
X51772014Y36458846D01*
X51867252Y36411227D01*
X51914871Y36315989D01*
X51914871Y36220751D01*
X51438680Y36125513D01*
X53105347Y35792180D02*
X53105347Y36792180D01*
X53533919Y35792180D02*
X53533919Y36315989D01*
X53486300Y36411227D01*
X53391061Y36458846D01*
X53248204Y36458846D01*
X53152966Y36411227D01*
X53105347Y36363608D01*
X54152966Y35792180D02*
X54057728Y35839799D01*
X54010109Y35887418D01*
X53962490Y35982656D01*
X53962490Y36268370D01*
X54010109Y36363608D01*
X54057728Y36411227D01*
X54152966Y36458846D01*
X54295823Y36458846D01*
X54391061Y36411227D01*
X54438680Y36363608D01*
X54486300Y36268370D01*
X54486300Y35982656D01*
X54438680Y35887418D01*
X54391061Y35839799D01*
X54295823Y35792180D01*
X54152966Y35792180D01*
X55057728Y35792180D02*
X54962490Y35839799D01*
X54914871Y35935037D01*
X54914871Y36792180D01*
X55819633Y35839799D02*
X55724395Y35792180D01*
X55533919Y35792180D01*
X55438680Y35839799D01*
X55391061Y35935037D01*
X55391061Y36315989D01*
X55438680Y36411227D01*
X55533919Y36458846D01*
X55724395Y36458846D01*
X55819633Y36411227D01*
X55867252Y36315989D01*
X55867252Y36220751D01*
X55391061Y36125513D01*
G04 #@! TO.C,W8*
X48724395Y80887418D02*
X48676776Y80839799D01*
X48533919Y80792180D01*
X48438680Y80792180D01*
X48295823Y80839799D01*
X48200585Y80935037D01*
X48152966Y81030275D01*
X48105347Y81220751D01*
X48105347Y81363608D01*
X48152966Y81554084D01*
X48200585Y81649322D01*
X48295823Y81744560D01*
X48438680Y81792180D01*
X48533919Y81792180D01*
X48676776Y81744560D01*
X48724395Y81696941D01*
X49581538Y80792180D02*
X49581538Y81315989D01*
X49533919Y81411227D01*
X49438680Y81458846D01*
X49248204Y81458846D01*
X49152966Y81411227D01*
X49581538Y80839799D02*
X49486300Y80792180D01*
X49248204Y80792180D01*
X49152966Y80839799D01*
X49105347Y80935037D01*
X49105347Y81030275D01*
X49152966Y81125513D01*
X49248204Y81173132D01*
X49486300Y81173132D01*
X49581538Y81220751D01*
X50057728Y80792180D02*
X50057728Y81792180D01*
X50057728Y81411227D02*
X50152966Y81458846D01*
X50343442Y81458846D01*
X50438680Y81411227D01*
X50486300Y81363608D01*
X50533919Y81268370D01*
X50533919Y80982656D01*
X50486300Y80887418D01*
X50438680Y80839799D01*
X50343442Y80792180D01*
X50152966Y80792180D01*
X50057728Y80839799D01*
X51105347Y80792180D02*
X51010109Y80839799D01*
X50962490Y80935037D01*
X50962490Y81792180D01*
X51867252Y80839799D02*
X51772014Y80792180D01*
X51581538Y80792180D01*
X51486300Y80839799D01*
X51438680Y80935037D01*
X51438680Y81315989D01*
X51486300Y81411227D01*
X51581538Y81458846D01*
X51772014Y81458846D01*
X51867252Y81411227D01*
X51914871Y81315989D01*
X51914871Y81220751D01*
X51438680Y81125513D01*
X53105347Y80792180D02*
X53105347Y81792180D01*
X53533919Y80792180D02*
X53533919Y81315989D01*
X53486300Y81411227D01*
X53391061Y81458846D01*
X53248204Y81458846D01*
X53152966Y81411227D01*
X53105347Y81363608D01*
X54152966Y80792180D02*
X54057728Y80839799D01*
X54010109Y80887418D01*
X53962490Y80982656D01*
X53962490Y81268370D01*
X54010109Y81363608D01*
X54057728Y81411227D01*
X54152966Y81458846D01*
X54295823Y81458846D01*
X54391061Y81411227D01*
X54438680Y81363608D01*
X54486300Y81268370D01*
X54486300Y80982656D01*
X54438680Y80887418D01*
X54391061Y80839799D01*
X54295823Y80792180D01*
X54152966Y80792180D01*
X55057728Y80792180D02*
X54962490Y80839799D01*
X54914871Y80935037D01*
X54914871Y81792180D01*
X55819633Y80839799D02*
X55724395Y80792180D01*
X55533919Y80792180D01*
X55438680Y80839799D01*
X55391061Y80935037D01*
X55391061Y81315989D01*
X55438680Y81411227D01*
X55533919Y81458846D01*
X55724395Y81458846D01*
X55819633Y81411227D01*
X55867252Y81315989D01*
X55867252Y81220751D01*
X55391061Y81125513D01*
G04 #@! TO.C,W9*
X108724395Y16137418D02*
X108676776Y16089799D01*
X108533919Y16042180D01*
X108438680Y16042180D01*
X108295823Y16089799D01*
X108200585Y16185037D01*
X108152966Y16280275D01*
X108105347Y16470751D01*
X108105347Y16613608D01*
X108152966Y16804084D01*
X108200585Y16899322D01*
X108295823Y16994560D01*
X108438680Y17042180D01*
X108533919Y17042180D01*
X108676776Y16994560D01*
X108724395Y16946941D01*
X109581538Y16042180D02*
X109581538Y16565989D01*
X109533919Y16661227D01*
X109438680Y16708846D01*
X109248204Y16708846D01*
X109152966Y16661227D01*
X109581538Y16089799D02*
X109486300Y16042180D01*
X109248204Y16042180D01*
X109152966Y16089799D01*
X109105347Y16185037D01*
X109105347Y16280275D01*
X109152966Y16375513D01*
X109248204Y16423132D01*
X109486300Y16423132D01*
X109581538Y16470751D01*
X110057728Y16042180D02*
X110057728Y17042180D01*
X110057728Y16661227D02*
X110152966Y16708846D01*
X110343442Y16708846D01*
X110438680Y16661227D01*
X110486300Y16613608D01*
X110533919Y16518370D01*
X110533919Y16232656D01*
X110486300Y16137418D01*
X110438680Y16089799D01*
X110343442Y16042180D01*
X110152966Y16042180D01*
X110057728Y16089799D01*
X111105347Y16042180D02*
X111010109Y16089799D01*
X110962490Y16185037D01*
X110962490Y17042180D01*
X111867252Y16089799D02*
X111772014Y16042180D01*
X111581538Y16042180D01*
X111486300Y16089799D01*
X111438680Y16185037D01*
X111438680Y16565989D01*
X111486300Y16661227D01*
X111581538Y16708846D01*
X111772014Y16708846D01*
X111867252Y16661227D01*
X111914871Y16565989D01*
X111914871Y16470751D01*
X111438680Y16375513D01*
X113105347Y16042180D02*
X113105347Y17042180D01*
X113533919Y16042180D02*
X113533919Y16565989D01*
X113486300Y16661227D01*
X113391061Y16708846D01*
X113248204Y16708846D01*
X113152966Y16661227D01*
X113105347Y16613608D01*
X114152966Y16042180D02*
X114057728Y16089799D01*
X114010109Y16137418D01*
X113962490Y16232656D01*
X113962490Y16518370D01*
X114010109Y16613608D01*
X114057728Y16661227D01*
X114152966Y16708846D01*
X114295823Y16708846D01*
X114391061Y16661227D01*
X114438680Y16613608D01*
X114486300Y16518370D01*
X114486300Y16232656D01*
X114438680Y16137418D01*
X114391061Y16089799D01*
X114295823Y16042180D01*
X114152966Y16042180D01*
X115057728Y16042180D02*
X114962490Y16089799D01*
X114914871Y16185037D01*
X114914871Y17042180D01*
X115819633Y16089799D02*
X115724395Y16042180D01*
X115533919Y16042180D01*
X115438680Y16089799D01*
X115391061Y16185037D01*
X115391061Y16565989D01*
X115438680Y16661227D01*
X115533919Y16708846D01*
X115724395Y16708846D01*
X115819633Y16661227D01*
X115867252Y16565989D01*
X115867252Y16470751D01*
X115391061Y16375513D01*
G04 #@! TO.C,W10*
X108724395Y83637418D02*
X108676776Y83589799D01*
X108533919Y83542180D01*
X108438680Y83542180D01*
X108295823Y83589799D01*
X108200585Y83685037D01*
X108152966Y83780275D01*
X108105347Y83970751D01*
X108105347Y84113608D01*
X108152966Y84304084D01*
X108200585Y84399322D01*
X108295823Y84494560D01*
X108438680Y84542180D01*
X108533919Y84542180D01*
X108676776Y84494560D01*
X108724395Y84446941D01*
X109581538Y83542180D02*
X109581538Y84065989D01*
X109533919Y84161227D01*
X109438680Y84208846D01*
X109248204Y84208846D01*
X109152966Y84161227D01*
X109581538Y83589799D02*
X109486300Y83542180D01*
X109248204Y83542180D01*
X109152966Y83589799D01*
X109105347Y83685037D01*
X109105347Y83780275D01*
X109152966Y83875513D01*
X109248204Y83923132D01*
X109486300Y83923132D01*
X109581538Y83970751D01*
X110057728Y83542180D02*
X110057728Y84542180D01*
X110057728Y84161227D02*
X110152966Y84208846D01*
X110343442Y84208846D01*
X110438680Y84161227D01*
X110486300Y84113608D01*
X110533919Y84018370D01*
X110533919Y83732656D01*
X110486300Y83637418D01*
X110438680Y83589799D01*
X110343442Y83542180D01*
X110152966Y83542180D01*
X110057728Y83589799D01*
X111105347Y83542180D02*
X111010109Y83589799D01*
X110962490Y83685037D01*
X110962490Y84542180D01*
X111867252Y83589799D02*
X111772014Y83542180D01*
X111581538Y83542180D01*
X111486300Y83589799D01*
X111438680Y83685037D01*
X111438680Y84065989D01*
X111486300Y84161227D01*
X111581538Y84208846D01*
X111772014Y84208846D01*
X111867252Y84161227D01*
X111914871Y84065989D01*
X111914871Y83970751D01*
X111438680Y83875513D01*
X113105347Y83542180D02*
X113105347Y84542180D01*
X113533919Y83542180D02*
X113533919Y84065989D01*
X113486300Y84161227D01*
X113391061Y84208846D01*
X113248204Y84208846D01*
X113152966Y84161227D01*
X113105347Y84113608D01*
X114152966Y83542180D02*
X114057728Y83589799D01*
X114010109Y83637418D01*
X113962490Y83732656D01*
X113962490Y84018370D01*
X114010109Y84113608D01*
X114057728Y84161227D01*
X114152966Y84208846D01*
X114295823Y84208846D01*
X114391061Y84161227D01*
X114438680Y84113608D01*
X114486300Y84018370D01*
X114486300Y83732656D01*
X114438680Y83637418D01*
X114391061Y83589799D01*
X114295823Y83542180D01*
X114152966Y83542180D01*
X115057728Y83542180D02*
X114962490Y83589799D01*
X114914871Y83685037D01*
X114914871Y84542180D01*
X115819633Y83589799D02*
X115724395Y83542180D01*
X115533919Y83542180D01*
X115438680Y83589799D01*
X115391061Y83685037D01*
X115391061Y84065989D01*
X115438680Y84161227D01*
X115533919Y84208846D01*
X115724395Y84208846D01*
X115819633Y84161227D01*
X115867252Y84065989D01*
X115867252Y83970751D01*
X115391061Y83875513D01*
G04 #@! TO.C,W11*
X108724395Y38637418D02*
X108676776Y38589799D01*
X108533919Y38542180D01*
X108438680Y38542180D01*
X108295823Y38589799D01*
X108200585Y38685037D01*
X108152966Y38780275D01*
X108105347Y38970751D01*
X108105347Y39113608D01*
X108152966Y39304084D01*
X108200585Y39399322D01*
X108295823Y39494560D01*
X108438680Y39542180D01*
X108533919Y39542180D01*
X108676776Y39494560D01*
X108724395Y39446941D01*
X109581538Y38542180D02*
X109581538Y39065989D01*
X109533919Y39161227D01*
X109438680Y39208846D01*
X109248204Y39208846D01*
X109152966Y39161227D01*
X109581538Y38589799D02*
X109486300Y38542180D01*
X109248204Y38542180D01*
X109152966Y38589799D01*
X109105347Y38685037D01*
X109105347Y38780275D01*
X109152966Y38875513D01*
X109248204Y38923132D01*
X109486300Y38923132D01*
X109581538Y38970751D01*
X110057728Y38542180D02*
X110057728Y39542180D01*
X110057728Y39161227D02*
X110152966Y39208846D01*
X110343442Y39208846D01*
X110438680Y39161227D01*
X110486300Y39113608D01*
X110533919Y39018370D01*
X110533919Y38732656D01*
X110486300Y38637418D01*
X110438680Y38589799D01*
X110343442Y38542180D01*
X110152966Y38542180D01*
X110057728Y38589799D01*
X111105347Y38542180D02*
X111010109Y38589799D01*
X110962490Y38685037D01*
X110962490Y39542180D01*
X111867252Y38589799D02*
X111772014Y38542180D01*
X111581538Y38542180D01*
X111486300Y38589799D01*
X111438680Y38685037D01*
X111438680Y39065989D01*
X111486300Y39161227D01*
X111581538Y39208846D01*
X111772014Y39208846D01*
X111867252Y39161227D01*
X111914871Y39065989D01*
X111914871Y38970751D01*
X111438680Y38875513D01*
X113105347Y38542180D02*
X113105347Y39542180D01*
X113533919Y38542180D02*
X113533919Y39065989D01*
X113486300Y39161227D01*
X113391061Y39208846D01*
X113248204Y39208846D01*
X113152966Y39161227D01*
X113105347Y39113608D01*
X114152966Y38542180D02*
X114057728Y38589799D01*
X114010109Y38637418D01*
X113962490Y38732656D01*
X113962490Y39018370D01*
X114010109Y39113608D01*
X114057728Y39161227D01*
X114152966Y39208846D01*
X114295823Y39208846D01*
X114391061Y39161227D01*
X114438680Y39113608D01*
X114486300Y39018370D01*
X114486300Y38732656D01*
X114438680Y38637418D01*
X114391061Y38589799D01*
X114295823Y38542180D01*
X114152966Y38542180D01*
X115057728Y38542180D02*
X114962490Y38589799D01*
X114914871Y38685037D01*
X114914871Y39542180D01*
X115819633Y38589799D02*
X115724395Y38542180D01*
X115533919Y38542180D01*
X115438680Y38589799D01*
X115391061Y38685037D01*
X115391061Y39065989D01*
X115438680Y39161227D01*
X115533919Y39208846D01*
X115724395Y39208846D01*
X115819633Y39161227D01*
X115867252Y39065989D01*
X115867252Y38970751D01*
X115391061Y38875513D01*
G04 #@! TO.C,W12*
X108724395Y61137418D02*
X108676776Y61089799D01*
X108533919Y61042180D01*
X108438680Y61042180D01*
X108295823Y61089799D01*
X108200585Y61185037D01*
X108152966Y61280275D01*
X108105347Y61470751D01*
X108105347Y61613608D01*
X108152966Y61804084D01*
X108200585Y61899322D01*
X108295823Y61994560D01*
X108438680Y62042180D01*
X108533919Y62042180D01*
X108676776Y61994560D01*
X108724395Y61946941D01*
X109581538Y61042180D02*
X109581538Y61565989D01*
X109533919Y61661227D01*
X109438680Y61708846D01*
X109248204Y61708846D01*
X109152966Y61661227D01*
X109581538Y61089799D02*
X109486300Y61042180D01*
X109248204Y61042180D01*
X109152966Y61089799D01*
X109105347Y61185037D01*
X109105347Y61280275D01*
X109152966Y61375513D01*
X109248204Y61423132D01*
X109486300Y61423132D01*
X109581538Y61470751D01*
X110057728Y61042180D02*
X110057728Y62042180D01*
X110057728Y61661227D02*
X110152966Y61708846D01*
X110343442Y61708846D01*
X110438680Y61661227D01*
X110486300Y61613608D01*
X110533919Y61518370D01*
X110533919Y61232656D01*
X110486300Y61137418D01*
X110438680Y61089799D01*
X110343442Y61042180D01*
X110152966Y61042180D01*
X110057728Y61089799D01*
X111105347Y61042180D02*
X111010109Y61089799D01*
X110962490Y61185037D01*
X110962490Y62042180D01*
X111867252Y61089799D02*
X111772014Y61042180D01*
X111581538Y61042180D01*
X111486300Y61089799D01*
X111438680Y61185037D01*
X111438680Y61565989D01*
X111486300Y61661227D01*
X111581538Y61708846D01*
X111772014Y61708846D01*
X111867252Y61661227D01*
X111914871Y61565989D01*
X111914871Y61470751D01*
X111438680Y61375513D01*
X113105347Y61042180D02*
X113105347Y62042180D01*
X113533919Y61042180D02*
X113533919Y61565989D01*
X113486300Y61661227D01*
X113391061Y61708846D01*
X113248204Y61708846D01*
X113152966Y61661227D01*
X113105347Y61613608D01*
X114152966Y61042180D02*
X114057728Y61089799D01*
X114010109Y61137418D01*
X113962490Y61232656D01*
X113962490Y61518370D01*
X114010109Y61613608D01*
X114057728Y61661227D01*
X114152966Y61708846D01*
X114295823Y61708846D01*
X114391061Y61661227D01*
X114438680Y61613608D01*
X114486300Y61518370D01*
X114486300Y61232656D01*
X114438680Y61137418D01*
X114391061Y61089799D01*
X114295823Y61042180D01*
X114152966Y61042180D01*
X115057728Y61042180D02*
X114962490Y61089799D01*
X114914871Y61185037D01*
X114914871Y62042180D01*
X115819633Y61089799D02*
X115724395Y61042180D01*
X115533919Y61042180D01*
X115438680Y61089799D01*
X115391061Y61185037D01*
X115391061Y61565989D01*
X115438680Y61661227D01*
X115533919Y61708846D01*
X115724395Y61708846D01*
X115819633Y61661227D01*
X115867252Y61565989D01*
X115867252Y61470751D01*
X115391061Y61375513D01*
G04 #@! TO.C,J1*
X14209322Y71054063D02*
X14256941Y71006444D01*
X14304560Y70863587D01*
X14304560Y70768349D01*
X14256941Y70625492D01*
X14161703Y70530254D01*
X14066465Y70482635D01*
X13875989Y70435016D01*
X13733132Y70435016D01*
X13542656Y70482635D01*
X13447418Y70530254D01*
X13352180Y70625492D01*
X13304560Y70768349D01*
X13304560Y70863587D01*
X13352180Y71006444D01*
X13399799Y71054063D01*
X14304560Y71625492D02*
X14256941Y71530254D01*
X14209322Y71482635D01*
X14114084Y71435016D01*
X13828370Y71435016D01*
X13733132Y71482635D01*
X13685513Y71530254D01*
X13637894Y71625492D01*
X13637894Y71768349D01*
X13685513Y71863587D01*
X13733132Y71911206D01*
X13828370Y71958825D01*
X14114084Y71958825D01*
X14209322Y71911206D01*
X14256941Y71863587D01*
X14304560Y71768349D01*
X14304560Y71625492D01*
X13637894Y72387397D02*
X14304560Y72387397D01*
X13733132Y72387397D02*
X13685513Y72435016D01*
X13637894Y72530254D01*
X13637894Y72673111D01*
X13685513Y72768349D01*
X13780751Y72815968D01*
X14304560Y72815968D01*
X13637894Y73292159D02*
X14304560Y73292159D01*
X13733132Y73292159D02*
X13685513Y73339778D01*
X13637894Y73435016D01*
X13637894Y73577873D01*
X13685513Y73673111D01*
X13780751Y73720730D01*
X14304560Y73720730D01*
X14399799Y73958825D02*
X14399799Y74720730D01*
X13304560Y75149301D02*
X13304560Y75244540D01*
X13352180Y75339778D01*
X13399799Y75387397D01*
X13495037Y75435016D01*
X13685513Y75482635D01*
X13923608Y75482635D01*
X14114084Y75435016D01*
X14209322Y75387397D01*
X14256941Y75339778D01*
X14304560Y75244540D01*
X14304560Y75149301D01*
X14256941Y75054063D01*
X14209322Y75006444D01*
X14114084Y74958825D01*
X13923608Y74911206D01*
X13685513Y74911206D01*
X13495037Y74958825D01*
X13399799Y75006444D01*
X13352180Y75054063D01*
X13304560Y75149301D01*
X13399799Y75863587D02*
X13352180Y75911206D01*
X13304560Y76006444D01*
X13304560Y76244540D01*
X13352180Y76339778D01*
X13399799Y76387397D01*
X13495037Y76435016D01*
X13590275Y76435016D01*
X13733132Y76387397D01*
X14304560Y75815968D01*
X14304560Y76435016D01*
X14304560Y76768349D02*
X13637894Y77292159D01*
X13637894Y76768349D02*
X14304560Y77292159D01*
X13304560Y77863587D02*
X13304560Y77958825D01*
X13352180Y78054063D01*
X13399799Y78101682D01*
X13495037Y78149301D01*
X13685513Y78196920D01*
X13923608Y78196920D01*
X14114084Y78149301D01*
X14209322Y78101682D01*
X14256941Y78054063D01*
X14304560Y77958825D01*
X14304560Y77863587D01*
X14256941Y77768349D01*
X14209322Y77720730D01*
X14114084Y77673111D01*
X13923608Y77625492D01*
X13685513Y77625492D01*
X13495037Y77673111D01*
X13399799Y77720730D01*
X13352180Y77768349D01*
X13304560Y77863587D01*
X13637894Y79054063D02*
X14304560Y79054063D01*
X13256941Y78815968D02*
X13971227Y78577873D01*
X13971227Y79196920D01*
X14399799Y79339778D02*
X14399799Y80101682D01*
X14209322Y80911206D02*
X14256941Y80863587D01*
X14304560Y80720730D01*
X14304560Y80625492D01*
X14256941Y80482635D01*
X14161703Y80387397D01*
X14066465Y80339778D01*
X13875989Y80292159D01*
X13733132Y80292159D01*
X13542656Y80339778D01*
X13447418Y80387397D01*
X13352180Y80482635D01*
X13304560Y80625492D01*
X13304560Y80720730D01*
X13352180Y80863587D01*
X13399799Y80911206D01*
X14304560Y81339778D02*
X13304560Y81339778D01*
X13304560Y81720730D01*
X13352180Y81815968D01*
X13399799Y81863587D01*
X13495037Y81911206D01*
X13637894Y81911206D01*
X13733132Y81863587D01*
X13780751Y81815968D01*
X13828370Y81720730D01*
X13828370Y81339778D01*
X13304560Y82339778D02*
X14114084Y82339778D01*
X14209322Y82387397D01*
X14256941Y82435016D01*
X14304560Y82530254D01*
X14304560Y82720730D01*
X14256941Y82815968D01*
X14209322Y82863587D01*
X14114084Y82911206D01*
X13304560Y82911206D01*
G04 #@! TO.C,J2*
X14209322Y11911206D02*
X14256941Y11863587D01*
X14304560Y11720730D01*
X14304560Y11625492D01*
X14256941Y11482635D01*
X14161703Y11387397D01*
X14066465Y11339778D01*
X13875989Y11292159D01*
X13733132Y11292159D01*
X13542656Y11339778D01*
X13447418Y11387397D01*
X13352180Y11482635D01*
X13304560Y11625492D01*
X13304560Y11720730D01*
X13352180Y11863587D01*
X13399799Y11911206D01*
X14304560Y12482635D02*
X14256941Y12387397D01*
X14209322Y12339778D01*
X14114084Y12292159D01*
X13828370Y12292159D01*
X13733132Y12339778D01*
X13685513Y12387397D01*
X13637894Y12482635D01*
X13637894Y12625492D01*
X13685513Y12720730D01*
X13733132Y12768349D01*
X13828370Y12815968D01*
X14114084Y12815968D01*
X14209322Y12768349D01*
X14256941Y12720730D01*
X14304560Y12625492D01*
X14304560Y12482635D01*
X13637894Y13244540D02*
X14304560Y13244540D01*
X13733132Y13244540D02*
X13685513Y13292159D01*
X13637894Y13387397D01*
X13637894Y13530254D01*
X13685513Y13625492D01*
X13780751Y13673111D01*
X14304560Y13673111D01*
X13637894Y14149301D02*
X14304560Y14149301D01*
X13733132Y14149301D02*
X13685513Y14196920D01*
X13637894Y14292159D01*
X13637894Y14435016D01*
X13685513Y14530254D01*
X13780751Y14577873D01*
X14304560Y14577873D01*
X14399799Y14815968D02*
X14399799Y15577873D01*
X13304560Y16006444D02*
X13304560Y16101682D01*
X13352180Y16196920D01*
X13399799Y16244540D01*
X13495037Y16292159D01*
X13685513Y16339778D01*
X13923608Y16339778D01*
X14114084Y16292159D01*
X14209322Y16244540D01*
X14256941Y16196920D01*
X14304560Y16101682D01*
X14304560Y16006444D01*
X14256941Y15911206D01*
X14209322Y15863587D01*
X14114084Y15815968D01*
X13923608Y15768349D01*
X13685513Y15768349D01*
X13495037Y15815968D01*
X13399799Y15863587D01*
X13352180Y15911206D01*
X13304560Y16006444D01*
X13399799Y16720730D02*
X13352180Y16768349D01*
X13304560Y16863587D01*
X13304560Y17101682D01*
X13352180Y17196920D01*
X13399799Y17244540D01*
X13495037Y17292159D01*
X13590275Y17292159D01*
X13733132Y17244540D01*
X14304560Y16673111D01*
X14304560Y17292159D01*
X14304560Y17625492D02*
X13637894Y18149301D01*
X13637894Y17625492D02*
X14304560Y18149301D01*
X13304560Y18720730D02*
X13304560Y18815968D01*
X13352180Y18911206D01*
X13399799Y18958825D01*
X13495037Y19006444D01*
X13685513Y19054063D01*
X13923608Y19054063D01*
X14114084Y19006444D01*
X14209322Y18958825D01*
X14256941Y18911206D01*
X14304560Y18815968D01*
X14304560Y18720730D01*
X14256941Y18625492D01*
X14209322Y18577873D01*
X14114084Y18530254D01*
X13923608Y18482635D01*
X13685513Y18482635D01*
X13495037Y18530254D01*
X13399799Y18577873D01*
X13352180Y18625492D01*
X13304560Y18720730D01*
X13637894Y19911206D02*
X14304560Y19911206D01*
X13256941Y19673111D02*
X13971227Y19435016D01*
X13971227Y20054063D01*
X14399799Y20196920D02*
X14399799Y20958825D01*
X14304560Y21196920D02*
X13304560Y21196920D01*
X13304560Y21577873D01*
X13352180Y21673111D01*
X13399799Y21720730D01*
X13495037Y21768349D01*
X13637894Y21768349D01*
X13733132Y21720730D01*
X13780751Y21673111D01*
X13828370Y21577873D01*
X13828370Y21196920D01*
X14209322Y22768349D02*
X14256941Y22720730D01*
X14304560Y22577873D01*
X14304560Y22482635D01*
X14256941Y22339778D01*
X14161703Y22244540D01*
X14066465Y22196920D01*
X13875989Y22149301D01*
X13733132Y22149301D01*
X13542656Y22196920D01*
X13447418Y22244540D01*
X13352180Y22339778D01*
X13304560Y22482635D01*
X13304560Y22577873D01*
X13352180Y22720730D01*
X13399799Y22768349D01*
X14304560Y23196920D02*
X13304560Y23196920D01*
X14256941Y24054063D02*
X14304560Y23958825D01*
X14304560Y23768349D01*
X14256941Y23673111D01*
X14161703Y23625492D01*
X13780751Y23625492D01*
X13685513Y23673111D01*
X13637894Y23768349D01*
X13637894Y23958825D01*
X13685513Y24054063D01*
X13780751Y24101682D01*
X13875989Y24101682D01*
X13971227Y23625492D01*
G04 #@! TO.C,J3*
X22507522Y67657103D02*
X22555141Y67609484D01*
X22602760Y67466627D01*
X22602760Y67371389D01*
X22555141Y67228532D01*
X22459903Y67133294D01*
X22364665Y67085675D01*
X22174189Y67038056D01*
X22031332Y67038056D01*
X21840856Y67085675D01*
X21745618Y67133294D01*
X21650380Y67228532D01*
X21602760Y67371389D01*
X21602760Y67466627D01*
X21650380Y67609484D01*
X21697999Y67657103D01*
X22602760Y68228532D02*
X22555141Y68133294D01*
X22507522Y68085675D01*
X22412284Y68038056D01*
X22126570Y68038056D01*
X22031332Y68085675D01*
X21983713Y68133294D01*
X21936094Y68228532D01*
X21936094Y68371389D01*
X21983713Y68466627D01*
X22031332Y68514246D01*
X22126570Y68561865D01*
X22412284Y68561865D01*
X22507522Y68514246D01*
X22555141Y68466627D01*
X22602760Y68371389D01*
X22602760Y68228532D01*
X21936094Y68990437D02*
X22602760Y68990437D01*
X22031332Y68990437D02*
X21983713Y69038056D01*
X21936094Y69133294D01*
X21936094Y69276151D01*
X21983713Y69371389D01*
X22078951Y69419008D01*
X22602760Y69419008D01*
X21936094Y69895199D02*
X22602760Y69895199D01*
X22031332Y69895199D02*
X21983713Y69942818D01*
X21936094Y70038056D01*
X21936094Y70180913D01*
X21983713Y70276151D01*
X22078951Y70323770D01*
X22602760Y70323770D01*
X22697999Y70561865D02*
X22697999Y71323770D01*
X21602760Y71752341D02*
X21602760Y71847580D01*
X21650380Y71942818D01*
X21697999Y71990437D01*
X21793237Y72038056D01*
X21983713Y72085675D01*
X22221808Y72085675D01*
X22412284Y72038056D01*
X22507522Y71990437D01*
X22555141Y71942818D01*
X22602760Y71847580D01*
X22602760Y71752341D01*
X22555141Y71657103D01*
X22507522Y71609484D01*
X22412284Y71561865D01*
X22221808Y71514246D01*
X21983713Y71514246D01*
X21793237Y71561865D01*
X21697999Y71609484D01*
X21650380Y71657103D01*
X21602760Y71752341D01*
X21697999Y72466627D02*
X21650380Y72514246D01*
X21602760Y72609484D01*
X21602760Y72847580D01*
X21650380Y72942818D01*
X21697999Y72990437D01*
X21793237Y73038056D01*
X21888475Y73038056D01*
X22031332Y72990437D01*
X22602760Y72419008D01*
X22602760Y73038056D01*
X22602760Y73371389D02*
X21936094Y73895199D01*
X21936094Y73371389D02*
X22602760Y73895199D01*
X21602760Y74466627D02*
X21602760Y74561865D01*
X21650380Y74657103D01*
X21697999Y74704722D01*
X21793237Y74752341D01*
X21983713Y74799960D01*
X22221808Y74799960D01*
X22412284Y74752341D01*
X22507522Y74704722D01*
X22555141Y74657103D01*
X22602760Y74561865D01*
X22602760Y74466627D01*
X22555141Y74371389D01*
X22507522Y74323770D01*
X22412284Y74276151D01*
X22221808Y74228532D01*
X21983713Y74228532D01*
X21793237Y74276151D01*
X21697999Y74323770D01*
X21650380Y74371389D01*
X21602760Y74466627D01*
X21936094Y75657103D02*
X22602760Y75657103D01*
X21555141Y75419008D02*
X22269427Y75180913D01*
X22269427Y75799960D01*
X22697999Y75942818D02*
X22697999Y76704722D01*
X22507522Y77514246D02*
X22555141Y77466627D01*
X22602760Y77323770D01*
X22602760Y77228532D01*
X22555141Y77085675D01*
X22459903Y76990437D01*
X22364665Y76942818D01*
X22174189Y76895199D01*
X22031332Y76895199D01*
X21840856Y76942818D01*
X21745618Y76990437D01*
X21650380Y77085675D01*
X21602760Y77228532D01*
X21602760Y77323770D01*
X21650380Y77466627D01*
X21697999Y77514246D01*
X22602760Y77942818D02*
X21602760Y77942818D01*
X21602760Y78323770D01*
X21650380Y78419008D01*
X21697999Y78466627D01*
X21793237Y78514246D01*
X21936094Y78514246D01*
X22031332Y78466627D01*
X22078951Y78419008D01*
X22126570Y78323770D01*
X22126570Y77942818D01*
X21602760Y78942818D02*
X22412284Y78942818D01*
X22507522Y78990437D01*
X22555141Y79038056D01*
X22602760Y79133294D01*
X22602760Y79323770D01*
X22555141Y79419008D01*
X22507522Y79466627D01*
X22412284Y79514246D01*
X21602760Y79514246D01*
G04 #@! TO.C,J4*
X14209322Y40911206D02*
X14256941Y40863587D01*
X14304560Y40720730D01*
X14304560Y40625492D01*
X14256941Y40482635D01*
X14161703Y40387397D01*
X14066465Y40339778D01*
X13875989Y40292159D01*
X13733132Y40292159D01*
X13542656Y40339778D01*
X13447418Y40387397D01*
X13352180Y40482635D01*
X13304560Y40625492D01*
X13304560Y40720730D01*
X13352180Y40863587D01*
X13399799Y40911206D01*
X14304560Y41482635D02*
X14256941Y41387397D01*
X14209322Y41339778D01*
X14114084Y41292159D01*
X13828370Y41292159D01*
X13733132Y41339778D01*
X13685513Y41387397D01*
X13637894Y41482635D01*
X13637894Y41625492D01*
X13685513Y41720730D01*
X13733132Y41768349D01*
X13828370Y41815968D01*
X14114084Y41815968D01*
X14209322Y41768349D01*
X14256941Y41720730D01*
X14304560Y41625492D01*
X14304560Y41482635D01*
X13637894Y42244540D02*
X14304560Y42244540D01*
X13733132Y42244540D02*
X13685513Y42292159D01*
X13637894Y42387397D01*
X13637894Y42530254D01*
X13685513Y42625492D01*
X13780751Y42673111D01*
X14304560Y42673111D01*
X13637894Y43149301D02*
X14304560Y43149301D01*
X13733132Y43149301D02*
X13685513Y43196920D01*
X13637894Y43292159D01*
X13637894Y43435016D01*
X13685513Y43530254D01*
X13780751Y43577873D01*
X14304560Y43577873D01*
X14399799Y43815968D02*
X14399799Y44577873D01*
X13304560Y45006444D02*
X13304560Y45101682D01*
X13352180Y45196920D01*
X13399799Y45244540D01*
X13495037Y45292159D01*
X13685513Y45339778D01*
X13923608Y45339778D01*
X14114084Y45292159D01*
X14209322Y45244540D01*
X14256941Y45196920D01*
X14304560Y45101682D01*
X14304560Y45006444D01*
X14256941Y44911206D01*
X14209322Y44863587D01*
X14114084Y44815968D01*
X13923608Y44768349D01*
X13685513Y44768349D01*
X13495037Y44815968D01*
X13399799Y44863587D01*
X13352180Y44911206D01*
X13304560Y45006444D01*
X13399799Y45720730D02*
X13352180Y45768349D01*
X13304560Y45863587D01*
X13304560Y46101682D01*
X13352180Y46196920D01*
X13399799Y46244540D01*
X13495037Y46292159D01*
X13590275Y46292159D01*
X13733132Y46244540D01*
X14304560Y45673111D01*
X14304560Y46292159D01*
X14304560Y46625492D02*
X13637894Y47149301D01*
X13637894Y46625492D02*
X14304560Y47149301D01*
X13304560Y47720730D02*
X13304560Y47815968D01*
X13352180Y47911206D01*
X13399799Y47958825D01*
X13495037Y48006444D01*
X13685513Y48054063D01*
X13923608Y48054063D01*
X14114084Y48006444D01*
X14209322Y47958825D01*
X14256941Y47911206D01*
X14304560Y47815968D01*
X14304560Y47720730D01*
X14256941Y47625492D01*
X14209322Y47577873D01*
X14114084Y47530254D01*
X13923608Y47482635D01*
X13685513Y47482635D01*
X13495037Y47530254D01*
X13399799Y47577873D01*
X13352180Y47625492D01*
X13304560Y47720730D01*
X13637894Y48911206D02*
X14304560Y48911206D01*
X13256941Y48673111D02*
X13971227Y48435016D01*
X13971227Y49054063D01*
X14399799Y49196920D02*
X14399799Y49958825D01*
X14304560Y50196920D02*
X13304560Y50196920D01*
X13304560Y50577873D01*
X13352180Y50673111D01*
X13399799Y50720730D01*
X13495037Y50768349D01*
X13637894Y50768349D01*
X13733132Y50720730D01*
X13780751Y50673111D01*
X13828370Y50577873D01*
X13828370Y50196920D01*
X14209322Y51768349D02*
X14256941Y51720730D01*
X14304560Y51577873D01*
X14304560Y51482635D01*
X14256941Y51339778D01*
X14161703Y51244540D01*
X14066465Y51196920D01*
X13875989Y51149301D01*
X13733132Y51149301D01*
X13542656Y51196920D01*
X13447418Y51244540D01*
X13352180Y51339778D01*
X13304560Y51482635D01*
X13304560Y51577873D01*
X13352180Y51720730D01*
X13399799Y51768349D01*
X14304560Y52196920D02*
X13304560Y52196920D01*
X14256941Y53054063D02*
X14304560Y52958825D01*
X14304560Y52768349D01*
X14256941Y52673111D01*
X14161703Y52625492D01*
X13780751Y52625492D01*
X13685513Y52673111D01*
X13637894Y52768349D01*
X13637894Y52958825D01*
X13685513Y53054063D01*
X13780751Y53101682D01*
X13875989Y53101682D01*
X13971227Y52625492D01*
G04 #@! TO.C,J5*
X22507522Y37514246D02*
X22555141Y37466627D01*
X22602760Y37323770D01*
X22602760Y37228532D01*
X22555141Y37085675D01*
X22459903Y36990437D01*
X22364665Y36942818D01*
X22174189Y36895199D01*
X22031332Y36895199D01*
X21840856Y36942818D01*
X21745618Y36990437D01*
X21650380Y37085675D01*
X21602760Y37228532D01*
X21602760Y37323770D01*
X21650380Y37466627D01*
X21697999Y37514246D01*
X22602760Y38085675D02*
X22555141Y37990437D01*
X22507522Y37942818D01*
X22412284Y37895199D01*
X22126570Y37895199D01*
X22031332Y37942818D01*
X21983713Y37990437D01*
X21936094Y38085675D01*
X21936094Y38228532D01*
X21983713Y38323770D01*
X22031332Y38371389D01*
X22126570Y38419008D01*
X22412284Y38419008D01*
X22507522Y38371389D01*
X22555141Y38323770D01*
X22602760Y38228532D01*
X22602760Y38085675D01*
X21936094Y38847580D02*
X22602760Y38847580D01*
X22031332Y38847580D02*
X21983713Y38895199D01*
X21936094Y38990437D01*
X21936094Y39133294D01*
X21983713Y39228532D01*
X22078951Y39276151D01*
X22602760Y39276151D01*
X21936094Y39752341D02*
X22602760Y39752341D01*
X22031332Y39752341D02*
X21983713Y39799960D01*
X21936094Y39895199D01*
X21936094Y40038056D01*
X21983713Y40133294D01*
X22078951Y40180913D01*
X22602760Y40180913D01*
X22697999Y40419008D02*
X22697999Y41180913D01*
X21602760Y41609484D02*
X21602760Y41704722D01*
X21650380Y41799960D01*
X21697999Y41847580D01*
X21793237Y41895199D01*
X21983713Y41942818D01*
X22221808Y41942818D01*
X22412284Y41895199D01*
X22507522Y41847580D01*
X22555141Y41799960D01*
X22602760Y41704722D01*
X22602760Y41609484D01*
X22555141Y41514246D01*
X22507522Y41466627D01*
X22412284Y41419008D01*
X22221808Y41371389D01*
X21983713Y41371389D01*
X21793237Y41419008D01*
X21697999Y41466627D01*
X21650380Y41514246D01*
X21602760Y41609484D01*
X21697999Y42323770D02*
X21650380Y42371389D01*
X21602760Y42466627D01*
X21602760Y42704722D01*
X21650380Y42799960D01*
X21697999Y42847580D01*
X21793237Y42895199D01*
X21888475Y42895199D01*
X22031332Y42847580D01*
X22602760Y42276151D01*
X22602760Y42895199D01*
X22602760Y43228532D02*
X21936094Y43752341D01*
X21936094Y43228532D02*
X22602760Y43752341D01*
X21602760Y44323770D02*
X21602760Y44419008D01*
X21650380Y44514246D01*
X21697999Y44561865D01*
X21793237Y44609484D01*
X21983713Y44657103D01*
X22221808Y44657103D01*
X22412284Y44609484D01*
X22507522Y44561865D01*
X22555141Y44514246D01*
X22602760Y44419008D01*
X22602760Y44323770D01*
X22555141Y44228532D01*
X22507522Y44180913D01*
X22412284Y44133294D01*
X22221808Y44085675D01*
X21983713Y44085675D01*
X21793237Y44133294D01*
X21697999Y44180913D01*
X21650380Y44228532D01*
X21602760Y44323770D01*
X21936094Y45514246D02*
X22602760Y45514246D01*
X21555141Y45276151D02*
X22269427Y45038056D01*
X22269427Y45657103D01*
X22697999Y45799960D02*
X22697999Y46561865D01*
X22602760Y46799960D02*
X21602760Y46799960D01*
X21602760Y47180913D01*
X21650380Y47276151D01*
X21697999Y47323770D01*
X21793237Y47371389D01*
X21936094Y47371389D01*
X22031332Y47323770D01*
X22078951Y47276151D01*
X22126570Y47180913D01*
X22126570Y46799960D01*
X22507522Y48371389D02*
X22555141Y48323770D01*
X22602760Y48180913D01*
X22602760Y48085675D01*
X22555141Y47942818D01*
X22459903Y47847580D01*
X22364665Y47799960D01*
X22174189Y47752341D01*
X22031332Y47752341D01*
X21840856Y47799960D01*
X21745618Y47847580D01*
X21650380Y47942818D01*
X21602760Y48085675D01*
X21602760Y48180913D01*
X21650380Y48323770D01*
X21697999Y48371389D01*
X22602760Y48799960D02*
X21602760Y48799960D01*
X22555141Y49657103D02*
X22602760Y49561865D01*
X22602760Y49371389D01*
X22555141Y49276151D01*
X22459903Y49228532D01*
X22078951Y49228532D01*
X21983713Y49276151D01*
X21936094Y49371389D01*
X21936094Y49561865D01*
X21983713Y49657103D01*
X22078951Y49704722D01*
X22174189Y49704722D01*
X22269427Y49228532D01*
G04 #@! TO.C,J6*
X22507522Y8514246D02*
X22555141Y8466627D01*
X22602760Y8323770D01*
X22602760Y8228532D01*
X22555141Y8085675D01*
X22459903Y7990437D01*
X22364665Y7942818D01*
X22174189Y7895199D01*
X22031332Y7895199D01*
X21840856Y7942818D01*
X21745618Y7990437D01*
X21650380Y8085675D01*
X21602760Y8228532D01*
X21602760Y8323770D01*
X21650380Y8466627D01*
X21697999Y8514246D01*
X22602760Y9085675D02*
X22555141Y8990437D01*
X22507522Y8942818D01*
X22412284Y8895199D01*
X22126570Y8895199D01*
X22031332Y8942818D01*
X21983713Y8990437D01*
X21936094Y9085675D01*
X21936094Y9228532D01*
X21983713Y9323770D01*
X22031332Y9371389D01*
X22126570Y9419008D01*
X22412284Y9419008D01*
X22507522Y9371389D01*
X22555141Y9323770D01*
X22602760Y9228532D01*
X22602760Y9085675D01*
X21936094Y9847580D02*
X22602760Y9847580D01*
X22031332Y9847580D02*
X21983713Y9895199D01*
X21936094Y9990437D01*
X21936094Y10133294D01*
X21983713Y10228532D01*
X22078951Y10276151D01*
X22602760Y10276151D01*
X21936094Y10752341D02*
X22602760Y10752341D01*
X22031332Y10752341D02*
X21983713Y10799960D01*
X21936094Y10895199D01*
X21936094Y11038056D01*
X21983713Y11133294D01*
X22078951Y11180913D01*
X22602760Y11180913D01*
X22697999Y11419008D02*
X22697999Y12180913D01*
X21602760Y12609484D02*
X21602760Y12704722D01*
X21650380Y12799960D01*
X21697999Y12847580D01*
X21793237Y12895199D01*
X21983713Y12942818D01*
X22221808Y12942818D01*
X22412284Y12895199D01*
X22507522Y12847580D01*
X22555141Y12799960D01*
X22602760Y12704722D01*
X22602760Y12609484D01*
X22555141Y12514246D01*
X22507522Y12466627D01*
X22412284Y12419008D01*
X22221808Y12371389D01*
X21983713Y12371389D01*
X21793237Y12419008D01*
X21697999Y12466627D01*
X21650380Y12514246D01*
X21602760Y12609484D01*
X21697999Y13323770D02*
X21650380Y13371389D01*
X21602760Y13466627D01*
X21602760Y13704722D01*
X21650380Y13799960D01*
X21697999Y13847580D01*
X21793237Y13895199D01*
X21888475Y13895199D01*
X22031332Y13847580D01*
X22602760Y13276151D01*
X22602760Y13895199D01*
X22602760Y14228532D02*
X21936094Y14752341D01*
X21936094Y14228532D02*
X22602760Y14752341D01*
X21602760Y15323770D02*
X21602760Y15419008D01*
X21650380Y15514246D01*
X21697999Y15561865D01*
X21793237Y15609484D01*
X21983713Y15657103D01*
X22221808Y15657103D01*
X22412284Y15609484D01*
X22507522Y15561865D01*
X22555141Y15514246D01*
X22602760Y15419008D01*
X22602760Y15323770D01*
X22555141Y15228532D01*
X22507522Y15180913D01*
X22412284Y15133294D01*
X22221808Y15085675D01*
X21983713Y15085675D01*
X21793237Y15133294D01*
X21697999Y15180913D01*
X21650380Y15228532D01*
X21602760Y15323770D01*
X21936094Y16514246D02*
X22602760Y16514246D01*
X21555141Y16276151D02*
X22269427Y16038056D01*
X22269427Y16657103D01*
X22697999Y16799960D02*
X22697999Y17561865D01*
X22602760Y17799960D02*
X21602760Y17799960D01*
X21602760Y18180913D01*
X21650380Y18276151D01*
X21697999Y18323770D01*
X21793237Y18371389D01*
X21936094Y18371389D01*
X22031332Y18323770D01*
X22078951Y18276151D01*
X22126570Y18180913D01*
X22126570Y17799960D01*
X22507522Y19371389D02*
X22555141Y19323770D01*
X22602760Y19180913D01*
X22602760Y19085675D01*
X22555141Y18942818D01*
X22459903Y18847580D01*
X22364665Y18799960D01*
X22174189Y18752341D01*
X22031332Y18752341D01*
X21840856Y18799960D01*
X21745618Y18847580D01*
X21650380Y18942818D01*
X21602760Y19085675D01*
X21602760Y19180913D01*
X21650380Y19323770D01*
X21697999Y19371389D01*
X22602760Y19799960D02*
X21602760Y19799960D01*
X22555141Y20657103D02*
X22602760Y20561865D01*
X22602760Y20371389D01*
X22555141Y20276151D01*
X22459903Y20228532D01*
X22078951Y20228532D01*
X21983713Y20276151D01*
X21936094Y20371389D01*
X21936094Y20561865D01*
X21983713Y20657103D01*
X22078951Y20704722D01*
X22174189Y20704722D01*
X22269427Y20228532D01*
G04 #@! TD*
M02*
