G04 #@! TF.GenerationSoftware,KiCad,Pcbnew,(5.0.1)-3*
G04 #@! TF.CreationDate,2019-04-03T23:09:03+02:00*
G04 #@! TF.ProjectId,discovery,646973636F766572792E6B696361645F,rev?*
G04 #@! TF.SameCoordinates,PX4c4640PY8a48028*
G04 #@! TF.FileFunction,Soldermask,Bot*
G04 #@! TF.FilePolarity,Negative*
%FSLAX46Y46*%
G04 Gerber Fmt 4.6, Leading zero omitted, Abs format (unit mm)*
G04 Created by KiCad (PCBNEW (5.0.1)-3) date 03/04/2019 23:09:03*
%MOMM*%
%LPD*%
G01*
G04 APERTURE LIST*
%ADD10C,0.100000*%
G04 APERTURE END LIST*
D10*
G36*
X140745376Y2451407D02*
X140745378Y2451406D01*
X140745379Y2451406D01*
X141209632Y2259107D01*
X141625564Y1981190D01*
X141627451Y1979929D01*
X141982769Y1624611D01*
X141982771Y1624608D01*
X142261947Y1206792D01*
X142454246Y742539D01*
X142552280Y249692D01*
X142552280Y-252812D01*
X142454246Y-745659D01*
X142261947Y-1209912D01*
X141984030Y-1625844D01*
X141982769Y-1627731D01*
X141627451Y-1983049D01*
X141627448Y-1983051D01*
X141209632Y-2262227D01*
X140745379Y-2454526D01*
X140745378Y-2454526D01*
X140745376Y-2454527D01*
X140252533Y-2552560D01*
X139750027Y-2552560D01*
X139257184Y-2454527D01*
X139257182Y-2454526D01*
X139257181Y-2454526D01*
X138792928Y-2262227D01*
X138375112Y-1983051D01*
X138375109Y-1983049D01*
X138019791Y-1627731D01*
X138018530Y-1625844D01*
X137740613Y-1209912D01*
X137548314Y-745659D01*
X137450280Y-252812D01*
X137450280Y249692D01*
X137548314Y742539D01*
X137740613Y1206792D01*
X138019789Y1624608D01*
X138019791Y1624611D01*
X138375109Y1979929D01*
X138376996Y1981190D01*
X138792928Y2259107D01*
X139257181Y2451406D01*
X139257182Y2451406D01*
X139257184Y2451407D01*
X139750027Y2549440D01*
X140252533Y2549440D01*
X140745376Y2451407D01*
X140745376Y2451407D01*
G37*
G36*
X745376Y2451407D02*
X745378Y2451406D01*
X745379Y2451406D01*
X1209632Y2259107D01*
X1625564Y1981190D01*
X1627451Y1979929D01*
X1982769Y1624611D01*
X1982771Y1624608D01*
X2261947Y1206792D01*
X2454246Y742539D01*
X2552280Y249692D01*
X2552280Y-252812D01*
X2454246Y-745659D01*
X2261947Y-1209912D01*
X1984030Y-1625844D01*
X1982769Y-1627731D01*
X1627451Y-1983049D01*
X1627448Y-1983051D01*
X1209632Y-2262227D01*
X745379Y-2454526D01*
X745378Y-2454526D01*
X745376Y-2454527D01*
X252533Y-2552560D01*
X-249973Y-2552560D01*
X-742816Y-2454527D01*
X-742818Y-2454526D01*
X-742819Y-2454526D01*
X-1207072Y-2262227D01*
X-1624888Y-1983051D01*
X-1624891Y-1983049D01*
X-1980209Y-1627731D01*
X-1981470Y-1625844D01*
X-2259387Y-1209912D01*
X-2451686Y-745659D01*
X-2549720Y-252812D01*
X-2549720Y249692D01*
X-2451686Y742539D01*
X-2259387Y1206792D01*
X-1980211Y1624608D01*
X-1980209Y1624611D01*
X-1624891Y1979929D01*
X-1623004Y1981190D01*
X-1207072Y2259107D01*
X-742819Y2451406D01*
X-742818Y2451406D01*
X-742816Y2451407D01*
X-249973Y2549440D01*
X252533Y2549440D01*
X745376Y2451407D01*
X745376Y2451407D01*
G37*
G36*
X57191125Y17759260D02*
X58374472Y17269101D01*
X58565320Y17190049D01*
X58718213Y17087889D01*
X59802065Y16363683D01*
X60853823Y15311925D01*
X60853825Y15311922D01*
X61386515Y14514695D01*
X61680190Y14075178D01*
X62249400Y12700985D01*
X62539580Y11242150D01*
X62539580Y9754730D01*
X62249400Y8295895D01*
X61680190Y6921702D01*
X61680189Y6921700D01*
X61436391Y6556830D01*
X60853823Y5684955D01*
X59802065Y4633197D01*
X59802062Y4633195D01*
X58565320Y3806831D01*
X58565319Y3806830D01*
X58565318Y3806830D01*
X57191125Y3237620D01*
X55732290Y2947440D01*
X54244870Y2947440D01*
X52786035Y3237620D01*
X51411842Y3806830D01*
X51411841Y3806830D01*
X51411840Y3806831D01*
X50175098Y4633195D01*
X50175095Y4633197D01*
X49123337Y5684955D01*
X48540769Y6556830D01*
X48296971Y6921700D01*
X48296970Y6921702D01*
X47727760Y8295895D01*
X47437580Y9754730D01*
X47437580Y11242150D01*
X47727760Y12700985D01*
X48296970Y14075178D01*
X48590646Y14514695D01*
X49123335Y15311922D01*
X49123337Y15311925D01*
X50175095Y16363683D01*
X51258947Y17087889D01*
X51411840Y17190049D01*
X51602688Y17269101D01*
X52786035Y17759260D01*
X54244870Y18049440D01*
X55732290Y18049440D01*
X57191125Y17759260D01*
X57191125Y17759260D01*
G37*
G36*
X117191125Y20509260D02*
X118565318Y19940050D01*
X118565320Y19940049D01*
X119374399Y19399440D01*
X119802065Y19113683D01*
X120853823Y18061925D01*
X120853825Y18061922D01*
X121599788Y16945509D01*
X121680190Y16825178D01*
X122249400Y15450985D01*
X122539580Y13992150D01*
X122539580Y12504730D01*
X122249400Y11045895D01*
X121848453Y10077925D01*
X121680189Y9671700D01*
X121612436Y9570301D01*
X120853823Y8434955D01*
X119802065Y7383197D01*
X119802062Y7383195D01*
X118565320Y6556831D01*
X118565319Y6556830D01*
X118565318Y6556830D01*
X117191125Y5987620D01*
X115732290Y5697440D01*
X114244870Y5697440D01*
X112786035Y5987620D01*
X111411842Y6556830D01*
X111411841Y6556830D01*
X111411840Y6556831D01*
X110175098Y7383195D01*
X110175095Y7383197D01*
X109123337Y8434955D01*
X108364724Y9570301D01*
X108296971Y9671700D01*
X108128707Y10077925D01*
X107727760Y11045895D01*
X107437580Y12504730D01*
X107437580Y13992150D01*
X107727760Y15450985D01*
X108296970Y16825178D01*
X108377373Y16945509D01*
X109123335Y18061922D01*
X109123337Y18061925D01*
X110175095Y19113683D01*
X110602761Y19399440D01*
X111411840Y19940049D01*
X111411842Y19940050D01*
X112786035Y20509260D01*
X114244870Y20799440D01*
X115732290Y20799440D01*
X117191125Y20509260D01*
X117191125Y20509260D01*
G37*
G36*
X30280765Y10949444D02*
X30280767Y10949443D01*
X30280768Y10949443D01*
X30517535Y10851371D01*
X30730622Y10708991D01*
X30911831Y10527782D01*
X31054211Y10314695D01*
X31152284Y10077925D01*
X31202280Y9826579D01*
X31202280Y9570301D01*
X31152284Y9318955D01*
X31054211Y9082185D01*
X30911831Y8869098D01*
X30730622Y8687889D01*
X30730619Y8687887D01*
X30517535Y8545509D01*
X30280768Y8447437D01*
X30280767Y8447437D01*
X30280765Y8447436D01*
X30029419Y8397440D01*
X29773141Y8397440D01*
X29521795Y8447436D01*
X29521793Y8447437D01*
X29521792Y8447437D01*
X29285025Y8545509D01*
X29071941Y8687887D01*
X29071938Y8687889D01*
X28890729Y8869098D01*
X28748349Y9082185D01*
X28650276Y9318955D01*
X28600280Y9570301D01*
X28600280Y9826579D01*
X28650276Y10077925D01*
X28748349Y10314695D01*
X28890729Y10527782D01*
X29071938Y10708991D01*
X29285025Y10851371D01*
X29521792Y10949443D01*
X29521793Y10949443D01*
X29521795Y10949444D01*
X29773141Y10999440D01*
X30029419Y10999440D01*
X30280765Y10949444D01*
X30280765Y10949444D01*
G37*
G36*
X26080765Y10949444D02*
X26080767Y10949443D01*
X26080768Y10949443D01*
X26317535Y10851371D01*
X26530622Y10708991D01*
X26711831Y10527782D01*
X26854211Y10314695D01*
X26952284Y10077925D01*
X27002280Y9826579D01*
X27002280Y9570301D01*
X26952284Y9318955D01*
X26854211Y9082185D01*
X26711831Y8869098D01*
X26530622Y8687889D01*
X26530619Y8687887D01*
X26317535Y8545509D01*
X26080768Y8447437D01*
X26080767Y8447437D01*
X26080765Y8447436D01*
X25829419Y8397440D01*
X25573141Y8397440D01*
X25321795Y8447436D01*
X25321793Y8447437D01*
X25321792Y8447437D01*
X25085025Y8545509D01*
X24871941Y8687887D01*
X24871938Y8687889D01*
X24690729Y8869098D01*
X24548349Y9082185D01*
X24450276Y9318955D01*
X24400280Y9570301D01*
X24400280Y9826579D01*
X24450276Y10077925D01*
X24548349Y10314695D01*
X24690729Y10527782D01*
X24871938Y10708991D01*
X25085025Y10851371D01*
X25321792Y10949443D01*
X25321793Y10949443D01*
X25321795Y10949444D01*
X25573141Y10999440D01*
X25829419Y10999440D01*
X26080765Y10949444D01*
X26080765Y10949444D01*
G37*
G36*
X6480765Y10949444D02*
X6480767Y10949443D01*
X6480768Y10949443D01*
X6717535Y10851371D01*
X6930622Y10708991D01*
X7111831Y10527782D01*
X7254211Y10314695D01*
X7352284Y10077925D01*
X7402280Y9826579D01*
X7402280Y9570301D01*
X7352284Y9318955D01*
X7254211Y9082185D01*
X7111831Y8869098D01*
X6930622Y8687889D01*
X6930619Y8687887D01*
X6717535Y8545509D01*
X6480768Y8447437D01*
X6480767Y8447437D01*
X6480765Y8447436D01*
X6229419Y8397440D01*
X5973141Y8397440D01*
X5721795Y8447436D01*
X5721793Y8447437D01*
X5721792Y8447437D01*
X5485025Y8545509D01*
X5271941Y8687887D01*
X5271938Y8687889D01*
X5090729Y8869098D01*
X4948349Y9082185D01*
X4850276Y9318955D01*
X4800280Y9570301D01*
X4800280Y9826579D01*
X4850276Y10077925D01*
X4948349Y10314695D01*
X5090729Y10527782D01*
X5271938Y10708991D01*
X5485025Y10851371D01*
X5721792Y10949443D01*
X5721793Y10949443D01*
X5721795Y10949444D01*
X5973141Y10999440D01*
X6229419Y10999440D01*
X6480765Y10949444D01*
X6480765Y10949444D01*
G37*
G36*
X10680765Y10949444D02*
X10680767Y10949443D01*
X10680768Y10949443D01*
X10917535Y10851371D01*
X11130622Y10708991D01*
X11311831Y10527782D01*
X11454211Y10314695D01*
X11552284Y10077925D01*
X11602280Y9826579D01*
X11602280Y9570301D01*
X11552284Y9318955D01*
X11454211Y9082185D01*
X11311831Y8869098D01*
X11130622Y8687889D01*
X11130619Y8687887D01*
X10917535Y8545509D01*
X10680768Y8447437D01*
X10680767Y8447437D01*
X10680765Y8447436D01*
X10429419Y8397440D01*
X10173141Y8397440D01*
X9921795Y8447436D01*
X9921793Y8447437D01*
X9921792Y8447437D01*
X9685025Y8545509D01*
X9471941Y8687887D01*
X9471938Y8687889D01*
X9290729Y8869098D01*
X9148349Y9082185D01*
X9050276Y9318955D01*
X9000280Y9570301D01*
X9000280Y9826579D01*
X9050276Y10077925D01*
X9148349Y10314695D01*
X9290729Y10527782D01*
X9471938Y10708991D01*
X9685025Y10851371D01*
X9921792Y10949443D01*
X9921793Y10949443D01*
X9921795Y10949444D01*
X10173141Y10999440D01*
X10429419Y10999440D01*
X10680765Y10949444D01*
X10680765Y10949444D01*
G37*
G36*
X10680765Y15149444D02*
X10680767Y15149443D01*
X10680768Y15149443D01*
X10917535Y15051371D01*
X11130622Y14908991D01*
X11311831Y14727782D01*
X11454211Y14514695D01*
X11552284Y14277925D01*
X11602280Y14026579D01*
X11602280Y13770301D01*
X11552284Y13518955D01*
X11454211Y13282185D01*
X11311831Y13069098D01*
X11130622Y12887889D01*
X11130619Y12887887D01*
X10917535Y12745509D01*
X10680768Y12647437D01*
X10680767Y12647437D01*
X10680765Y12647436D01*
X10429419Y12597440D01*
X10173141Y12597440D01*
X9921795Y12647436D01*
X9921793Y12647437D01*
X9921792Y12647437D01*
X9685025Y12745509D01*
X9471941Y12887887D01*
X9471938Y12887889D01*
X9290729Y13069098D01*
X9148349Y13282185D01*
X9050276Y13518955D01*
X9000280Y13770301D01*
X9000280Y14026579D01*
X9050276Y14277925D01*
X9148349Y14514695D01*
X9290729Y14727782D01*
X9471938Y14908991D01*
X9685025Y15051371D01*
X9921792Y15149443D01*
X9921793Y15149443D01*
X9921795Y15149444D01*
X10173141Y15199440D01*
X10429419Y15199440D01*
X10680765Y15149444D01*
X10680765Y15149444D01*
G37*
G36*
X30280765Y15149444D02*
X30280767Y15149443D01*
X30280768Y15149443D01*
X30517535Y15051371D01*
X30730622Y14908991D01*
X30911831Y14727782D01*
X31054211Y14514695D01*
X31152284Y14277925D01*
X31202280Y14026579D01*
X31202280Y13770301D01*
X31152284Y13518955D01*
X31054211Y13282185D01*
X30911831Y13069098D01*
X30730622Y12887889D01*
X30730619Y12887887D01*
X30517535Y12745509D01*
X30280768Y12647437D01*
X30280767Y12647437D01*
X30280765Y12647436D01*
X30029419Y12597440D01*
X29773141Y12597440D01*
X29521795Y12647436D01*
X29521793Y12647437D01*
X29521792Y12647437D01*
X29285025Y12745509D01*
X29071941Y12887887D01*
X29071938Y12887889D01*
X28890729Y13069098D01*
X28748349Y13282185D01*
X28650276Y13518955D01*
X28600280Y13770301D01*
X28600280Y14026579D01*
X28650276Y14277925D01*
X28748349Y14514695D01*
X28890729Y14727782D01*
X29071938Y14908991D01*
X29285025Y15051371D01*
X29521792Y15149443D01*
X29521793Y15149443D01*
X29521795Y15149444D01*
X29773141Y15199440D01*
X30029419Y15199440D01*
X30280765Y15149444D01*
X30280765Y15149444D01*
G37*
G36*
X26080765Y15149444D02*
X26080767Y15149443D01*
X26080768Y15149443D01*
X26317535Y15051371D01*
X26530622Y14908991D01*
X26711831Y14727782D01*
X26854211Y14514695D01*
X26952284Y14277925D01*
X27002280Y14026579D01*
X27002280Y13770301D01*
X26952284Y13518955D01*
X26854211Y13282185D01*
X26711831Y13069098D01*
X26530622Y12887889D01*
X26530619Y12887887D01*
X26317535Y12745509D01*
X26080768Y12647437D01*
X26080767Y12647437D01*
X26080765Y12647436D01*
X25829419Y12597440D01*
X25573141Y12597440D01*
X25321795Y12647436D01*
X25321793Y12647437D01*
X25321792Y12647437D01*
X25085025Y12745509D01*
X24871941Y12887887D01*
X24871938Y12887889D01*
X24690729Y13069098D01*
X24548349Y13282185D01*
X24450276Y13518955D01*
X24400280Y13770301D01*
X24400280Y14026579D01*
X24450276Y14277925D01*
X24548349Y14514695D01*
X24690729Y14727782D01*
X24871938Y14908991D01*
X25085025Y15051371D01*
X25321792Y15149443D01*
X25321793Y15149443D01*
X25321795Y15149444D01*
X25573141Y15199440D01*
X25829419Y15199440D01*
X26080765Y15149444D01*
X26080765Y15149444D01*
G37*
G36*
X6480765Y15149444D02*
X6480767Y15149443D01*
X6480768Y15149443D01*
X6717535Y15051371D01*
X6930622Y14908991D01*
X7111831Y14727782D01*
X7254211Y14514695D01*
X7352284Y14277925D01*
X7402280Y14026579D01*
X7402280Y13770301D01*
X7352284Y13518955D01*
X7254211Y13282185D01*
X7111831Y13069098D01*
X6930622Y12887889D01*
X6930619Y12887887D01*
X6717535Y12745509D01*
X6480768Y12647437D01*
X6480767Y12647437D01*
X6480765Y12647436D01*
X6229419Y12597440D01*
X5973141Y12597440D01*
X5721795Y12647436D01*
X5721793Y12647437D01*
X5721792Y12647437D01*
X5485025Y12745509D01*
X5271941Y12887887D01*
X5271938Y12887889D01*
X5090729Y13069098D01*
X4948349Y13282185D01*
X4850276Y13518955D01*
X4800280Y13770301D01*
X4800280Y14026579D01*
X4850276Y14277925D01*
X4948349Y14514695D01*
X5090729Y14727782D01*
X5271938Y14908991D01*
X5485025Y15051371D01*
X5721792Y15149443D01*
X5721793Y15149443D01*
X5721795Y15149444D01*
X5973141Y15199440D01*
X6229419Y15199440D01*
X6480765Y15149444D01*
X6480765Y15149444D01*
G37*
G36*
X6480765Y19349444D02*
X6480767Y19349443D01*
X6480768Y19349443D01*
X6717535Y19251371D01*
X6930622Y19108991D01*
X7111831Y18927782D01*
X7254211Y18714695D01*
X7352284Y18477925D01*
X7402280Y18226579D01*
X7402280Y17970301D01*
X7352284Y17718955D01*
X7254211Y17482185D01*
X7111831Y17269098D01*
X6930622Y17087889D01*
X6930619Y17087887D01*
X6717535Y16945509D01*
X6480768Y16847437D01*
X6480767Y16847437D01*
X6480765Y16847436D01*
X6229419Y16797440D01*
X5973141Y16797440D01*
X5721795Y16847436D01*
X5721793Y16847437D01*
X5721792Y16847437D01*
X5485025Y16945509D01*
X5271941Y17087887D01*
X5271938Y17087889D01*
X5090729Y17269098D01*
X4948349Y17482185D01*
X4850276Y17718955D01*
X4800280Y17970301D01*
X4800280Y18226579D01*
X4850276Y18477925D01*
X4948349Y18714695D01*
X5090729Y18927782D01*
X5271938Y19108991D01*
X5485025Y19251371D01*
X5721792Y19349443D01*
X5721793Y19349443D01*
X5721795Y19349444D01*
X5973141Y19399440D01*
X6229419Y19399440D01*
X6480765Y19349444D01*
X6480765Y19349444D01*
G37*
G36*
X10680765Y19349444D02*
X10680767Y19349443D01*
X10680768Y19349443D01*
X10917535Y19251371D01*
X11130622Y19108991D01*
X11311831Y18927782D01*
X11454211Y18714695D01*
X11552284Y18477925D01*
X11602280Y18226579D01*
X11602280Y17970301D01*
X11552284Y17718955D01*
X11454211Y17482185D01*
X11311831Y17269098D01*
X11130622Y17087889D01*
X11130619Y17087887D01*
X10917535Y16945509D01*
X10680768Y16847437D01*
X10680767Y16847437D01*
X10680765Y16847436D01*
X10429419Y16797440D01*
X10173141Y16797440D01*
X9921795Y16847436D01*
X9921793Y16847437D01*
X9921792Y16847437D01*
X9685025Y16945509D01*
X9471941Y17087887D01*
X9471938Y17087889D01*
X9290729Y17269098D01*
X9148349Y17482185D01*
X9050276Y17718955D01*
X9000280Y17970301D01*
X9000280Y18226579D01*
X9050276Y18477925D01*
X9148349Y18714695D01*
X9290729Y18927782D01*
X9471938Y19108991D01*
X9685025Y19251371D01*
X9921792Y19349443D01*
X9921793Y19349443D01*
X9921795Y19349444D01*
X10173141Y19399440D01*
X10429419Y19399440D01*
X10680765Y19349444D01*
X10680765Y19349444D01*
G37*
G36*
X30280765Y19349444D02*
X30280767Y19349443D01*
X30280768Y19349443D01*
X30517535Y19251371D01*
X30730622Y19108991D01*
X30911831Y18927782D01*
X31054211Y18714695D01*
X31152284Y18477925D01*
X31202280Y18226579D01*
X31202280Y17970301D01*
X31152284Y17718955D01*
X31054211Y17482185D01*
X30911831Y17269098D01*
X30730622Y17087889D01*
X30730619Y17087887D01*
X30517535Y16945509D01*
X30280768Y16847437D01*
X30280767Y16847437D01*
X30280765Y16847436D01*
X30029419Y16797440D01*
X29773141Y16797440D01*
X29521795Y16847436D01*
X29521793Y16847437D01*
X29521792Y16847437D01*
X29285025Y16945509D01*
X29071941Y17087887D01*
X29071938Y17087889D01*
X28890729Y17269098D01*
X28748349Y17482185D01*
X28650276Y17718955D01*
X28600280Y17970301D01*
X28600280Y18226579D01*
X28650276Y18477925D01*
X28748349Y18714695D01*
X28890729Y18927782D01*
X29071938Y19108991D01*
X29285025Y19251371D01*
X29521792Y19349443D01*
X29521793Y19349443D01*
X29521795Y19349444D01*
X29773141Y19399440D01*
X30029419Y19399440D01*
X30280765Y19349444D01*
X30280765Y19349444D01*
G37*
G36*
X26080765Y19349444D02*
X26080767Y19349443D01*
X26080768Y19349443D01*
X26317535Y19251371D01*
X26530622Y19108991D01*
X26711831Y18927782D01*
X26854211Y18714695D01*
X26952284Y18477925D01*
X27002280Y18226579D01*
X27002280Y17970301D01*
X26952284Y17718955D01*
X26854211Y17482185D01*
X26711831Y17269098D01*
X26530622Y17087889D01*
X26530619Y17087887D01*
X26317535Y16945509D01*
X26080768Y16847437D01*
X26080767Y16847437D01*
X26080765Y16847436D01*
X25829419Y16797440D01*
X25573141Y16797440D01*
X25321795Y16847436D01*
X25321793Y16847437D01*
X25321792Y16847437D01*
X25085025Y16945509D01*
X24871941Y17087887D01*
X24871938Y17087889D01*
X24690729Y17269098D01*
X24548349Y17482185D01*
X24450276Y17718955D01*
X24400280Y17970301D01*
X24400280Y18226579D01*
X24450276Y18477925D01*
X24548349Y18714695D01*
X24690729Y18927782D01*
X24871938Y19108991D01*
X25085025Y19251371D01*
X25321792Y19349443D01*
X25321793Y19349443D01*
X25321795Y19349444D01*
X25573141Y19399440D01*
X25829419Y19399440D01*
X26080765Y19349444D01*
X26080765Y19349444D01*
G37*
G36*
X30280765Y23549444D02*
X30280767Y23549443D01*
X30280768Y23549443D01*
X30517535Y23451371D01*
X30730622Y23308991D01*
X30911831Y23127782D01*
X31054211Y22914695D01*
X31152284Y22677925D01*
X31202280Y22426579D01*
X31202280Y22170301D01*
X31152284Y21918955D01*
X31054211Y21682185D01*
X30911831Y21469098D01*
X30730622Y21287889D01*
X30730619Y21287887D01*
X30517535Y21145509D01*
X30280768Y21047437D01*
X30280767Y21047437D01*
X30280765Y21047436D01*
X30029419Y20997440D01*
X29773141Y20997440D01*
X29521795Y21047436D01*
X29521793Y21047437D01*
X29521792Y21047437D01*
X29285025Y21145509D01*
X29071941Y21287887D01*
X29071938Y21287889D01*
X28890729Y21469098D01*
X28748349Y21682185D01*
X28650276Y21918955D01*
X28600280Y22170301D01*
X28600280Y22426579D01*
X28650276Y22677925D01*
X28748349Y22914695D01*
X28890729Y23127782D01*
X29071938Y23308991D01*
X29285025Y23451371D01*
X29521792Y23549443D01*
X29521793Y23549443D01*
X29521795Y23549444D01*
X29773141Y23599440D01*
X30029419Y23599440D01*
X30280765Y23549444D01*
X30280765Y23549444D01*
G37*
G36*
X6480765Y23549444D02*
X6480767Y23549443D01*
X6480768Y23549443D01*
X6717535Y23451371D01*
X6930622Y23308991D01*
X7111831Y23127782D01*
X7254211Y22914695D01*
X7352284Y22677925D01*
X7402280Y22426579D01*
X7402280Y22170301D01*
X7352284Y21918955D01*
X7254211Y21682185D01*
X7111831Y21469098D01*
X6930622Y21287889D01*
X6930619Y21287887D01*
X6717535Y21145509D01*
X6480768Y21047437D01*
X6480767Y21047437D01*
X6480765Y21047436D01*
X6229419Y20997440D01*
X5973141Y20997440D01*
X5721795Y21047436D01*
X5721793Y21047437D01*
X5721792Y21047437D01*
X5485025Y21145509D01*
X5271941Y21287887D01*
X5271938Y21287889D01*
X5090729Y21469098D01*
X4948349Y21682185D01*
X4850276Y21918955D01*
X4800280Y22170301D01*
X4800280Y22426579D01*
X4850276Y22677925D01*
X4948349Y22914695D01*
X5090729Y23127782D01*
X5271938Y23308991D01*
X5485025Y23451371D01*
X5721792Y23549443D01*
X5721793Y23549443D01*
X5721795Y23549444D01*
X5973141Y23599440D01*
X6229419Y23599440D01*
X6480765Y23549444D01*
X6480765Y23549444D01*
G37*
G36*
X10680765Y23549444D02*
X10680767Y23549443D01*
X10680768Y23549443D01*
X10917535Y23451371D01*
X11130622Y23308991D01*
X11311831Y23127782D01*
X11454211Y22914695D01*
X11552284Y22677925D01*
X11602280Y22426579D01*
X11602280Y22170301D01*
X11552284Y21918955D01*
X11454211Y21682185D01*
X11311831Y21469098D01*
X11130622Y21287889D01*
X11130619Y21287887D01*
X10917535Y21145509D01*
X10680768Y21047437D01*
X10680767Y21047437D01*
X10680765Y21047436D01*
X10429419Y20997440D01*
X10173141Y20997440D01*
X9921795Y21047436D01*
X9921793Y21047437D01*
X9921792Y21047437D01*
X9685025Y21145509D01*
X9471941Y21287887D01*
X9471938Y21287889D01*
X9290729Y21469098D01*
X9148349Y21682185D01*
X9050276Y21918955D01*
X9000280Y22170301D01*
X9000280Y22426579D01*
X9050276Y22677925D01*
X9148349Y22914695D01*
X9290729Y23127782D01*
X9471938Y23308991D01*
X9685025Y23451371D01*
X9921792Y23549443D01*
X9921793Y23549443D01*
X9921795Y23549444D01*
X10173141Y23599440D01*
X10429419Y23599440D01*
X10680765Y23549444D01*
X10680765Y23549444D01*
G37*
G36*
X26080765Y23549444D02*
X26080767Y23549443D01*
X26080768Y23549443D01*
X26317535Y23451371D01*
X26530622Y23308991D01*
X26711831Y23127782D01*
X26854211Y22914695D01*
X26952284Y22677925D01*
X27002280Y22426579D01*
X27002280Y22170301D01*
X26952284Y21918955D01*
X26854211Y21682185D01*
X26711831Y21469098D01*
X26530622Y21287889D01*
X26530619Y21287887D01*
X26317535Y21145509D01*
X26080768Y21047437D01*
X26080767Y21047437D01*
X26080765Y21047436D01*
X25829419Y20997440D01*
X25573141Y20997440D01*
X25321795Y21047436D01*
X25321793Y21047437D01*
X25321792Y21047437D01*
X25085025Y21145509D01*
X24871941Y21287887D01*
X24871938Y21287889D01*
X24690729Y21469098D01*
X24548349Y21682185D01*
X24450276Y21918955D01*
X24400280Y22170301D01*
X24400280Y22426579D01*
X24450276Y22677925D01*
X24548349Y22914695D01*
X24690729Y23127782D01*
X24871938Y23308991D01*
X25085025Y23451371D01*
X25321792Y23549443D01*
X25321793Y23549443D01*
X25321795Y23549444D01*
X25573141Y23599440D01*
X25829419Y23599440D01*
X26080765Y23549444D01*
X26080765Y23549444D01*
G37*
G36*
X57191125Y40259260D02*
X58519590Y39708991D01*
X58565320Y39690049D01*
X58808174Y39527779D01*
X59802065Y38863683D01*
X60853823Y37811925D01*
X60853825Y37811922D01*
X61097367Y37447436D01*
X61680190Y36575178D01*
X62249400Y35200985D01*
X62539580Y33742150D01*
X62539580Y32254730D01*
X62249400Y30795895D01*
X61680190Y29421702D01*
X61680189Y29421700D01*
X61436391Y29056830D01*
X60853823Y28184955D01*
X59802065Y27133197D01*
X59802062Y27133195D01*
X58565320Y26306831D01*
X58565319Y26306830D01*
X58565318Y26306830D01*
X57191125Y25737620D01*
X55732290Y25447440D01*
X54244870Y25447440D01*
X52786035Y25737620D01*
X51411842Y26306830D01*
X51411841Y26306830D01*
X51411840Y26306831D01*
X50175098Y27133195D01*
X50175095Y27133197D01*
X49123337Y28184955D01*
X48540769Y29056830D01*
X48296971Y29421700D01*
X48296970Y29421702D01*
X47727760Y30795895D01*
X47437580Y32254730D01*
X47437580Y33742150D01*
X47727760Y35200985D01*
X48296970Y36575178D01*
X48879794Y37447436D01*
X49123335Y37811922D01*
X49123337Y37811925D01*
X50175095Y38863683D01*
X51168986Y39527779D01*
X51411840Y39690049D01*
X51457570Y39708991D01*
X52786035Y40259260D01*
X54244870Y40549440D01*
X55732290Y40549440D01*
X57191125Y40259260D01*
X57191125Y40259260D01*
G37*
G36*
X117191125Y43009260D02*
X118565318Y42440050D01*
X118565320Y42440049D01*
X118801580Y42282185D01*
X119802065Y41613683D01*
X120853823Y40561925D01*
X120853825Y40561922D01*
X121544817Y39527779D01*
X121680190Y39325178D01*
X122249400Y37950985D01*
X122539580Y36492150D01*
X122539580Y35004730D01*
X122249400Y33545895D01*
X121680190Y32171702D01*
X120853823Y30934955D01*
X119802065Y29883197D01*
X119802062Y29883195D01*
X118565320Y29056831D01*
X118565319Y29056830D01*
X118565318Y29056830D01*
X117191125Y28487620D01*
X115732290Y28197440D01*
X114244870Y28197440D01*
X112786035Y28487620D01*
X111411842Y29056830D01*
X111411841Y29056830D01*
X111411840Y29056831D01*
X110175098Y29883195D01*
X110175095Y29883197D01*
X109123337Y30934955D01*
X108296970Y32171702D01*
X107727760Y33545895D01*
X107437580Y35004730D01*
X107437580Y36492150D01*
X107727760Y37950985D01*
X108296970Y39325178D01*
X108432344Y39527779D01*
X109123335Y40561922D01*
X109123337Y40561925D01*
X110175095Y41613683D01*
X111175580Y42282185D01*
X111411840Y42440049D01*
X111411842Y42440050D01*
X112786035Y43009260D01*
X114244870Y43299440D01*
X115732290Y43299440D01*
X117191125Y43009260D01*
X117191125Y43009260D01*
G37*
G36*
X26080765Y39949444D02*
X26080767Y39949443D01*
X26080768Y39949443D01*
X26317535Y39851371D01*
X26530622Y39708991D01*
X26711831Y39527782D01*
X26854211Y39314695D01*
X26952284Y39077925D01*
X27002280Y38826579D01*
X27002280Y38570301D01*
X26952284Y38318955D01*
X26854211Y38082185D01*
X26711831Y37869098D01*
X26530622Y37687889D01*
X26530619Y37687887D01*
X26317535Y37545509D01*
X26080768Y37447437D01*
X26080767Y37447437D01*
X26080765Y37447436D01*
X25829419Y37397440D01*
X25573141Y37397440D01*
X25321795Y37447436D01*
X25321793Y37447437D01*
X25321792Y37447437D01*
X25085025Y37545509D01*
X24871941Y37687887D01*
X24871938Y37687889D01*
X24690729Y37869098D01*
X24548349Y38082185D01*
X24450276Y38318955D01*
X24400280Y38570301D01*
X24400280Y38826579D01*
X24450276Y39077925D01*
X24548349Y39314695D01*
X24690729Y39527782D01*
X24871938Y39708991D01*
X25085025Y39851371D01*
X25321792Y39949443D01*
X25321793Y39949443D01*
X25321795Y39949444D01*
X25573141Y39999440D01*
X25829419Y39999440D01*
X26080765Y39949444D01*
X26080765Y39949444D01*
G37*
G36*
X10680765Y39949444D02*
X10680767Y39949443D01*
X10680768Y39949443D01*
X10917535Y39851371D01*
X11130622Y39708991D01*
X11311831Y39527782D01*
X11454211Y39314695D01*
X11552284Y39077925D01*
X11602280Y38826579D01*
X11602280Y38570301D01*
X11552284Y38318955D01*
X11454211Y38082185D01*
X11311831Y37869098D01*
X11130622Y37687889D01*
X11130619Y37687887D01*
X10917535Y37545509D01*
X10680768Y37447437D01*
X10680767Y37447437D01*
X10680765Y37447436D01*
X10429419Y37397440D01*
X10173141Y37397440D01*
X9921795Y37447436D01*
X9921793Y37447437D01*
X9921792Y37447437D01*
X9685025Y37545509D01*
X9471941Y37687887D01*
X9471938Y37687889D01*
X9290729Y37869098D01*
X9148349Y38082185D01*
X9050276Y38318955D01*
X9000280Y38570301D01*
X9000280Y38826579D01*
X9050276Y39077925D01*
X9148349Y39314695D01*
X9290729Y39527782D01*
X9471938Y39708991D01*
X9685025Y39851371D01*
X9921792Y39949443D01*
X9921793Y39949443D01*
X9921795Y39949444D01*
X10173141Y39999440D01*
X10429419Y39999440D01*
X10680765Y39949444D01*
X10680765Y39949444D01*
G37*
G36*
X30280765Y39949444D02*
X30280767Y39949443D01*
X30280768Y39949443D01*
X30517535Y39851371D01*
X30730622Y39708991D01*
X30911831Y39527782D01*
X31054211Y39314695D01*
X31152284Y39077925D01*
X31202280Y38826579D01*
X31202280Y38570301D01*
X31152284Y38318955D01*
X31054211Y38082185D01*
X30911831Y37869098D01*
X30730622Y37687889D01*
X30730619Y37687887D01*
X30517535Y37545509D01*
X30280768Y37447437D01*
X30280767Y37447437D01*
X30280765Y37447436D01*
X30029419Y37397440D01*
X29773141Y37397440D01*
X29521795Y37447436D01*
X29521793Y37447437D01*
X29521792Y37447437D01*
X29285025Y37545509D01*
X29071941Y37687887D01*
X29071938Y37687889D01*
X28890729Y37869098D01*
X28748349Y38082185D01*
X28650276Y38318955D01*
X28600280Y38570301D01*
X28600280Y38826579D01*
X28650276Y39077925D01*
X28748349Y39314695D01*
X28890729Y39527782D01*
X29071938Y39708991D01*
X29285025Y39851371D01*
X29521792Y39949443D01*
X29521793Y39949443D01*
X29521795Y39949444D01*
X29773141Y39999440D01*
X30029419Y39999440D01*
X30280765Y39949444D01*
X30280765Y39949444D01*
G37*
G36*
X6480765Y39949444D02*
X6480767Y39949443D01*
X6480768Y39949443D01*
X6717535Y39851371D01*
X6930622Y39708991D01*
X7111831Y39527782D01*
X7254211Y39314695D01*
X7352284Y39077925D01*
X7402280Y38826579D01*
X7402280Y38570301D01*
X7352284Y38318955D01*
X7254211Y38082185D01*
X7111831Y37869098D01*
X6930622Y37687889D01*
X6930619Y37687887D01*
X6717535Y37545509D01*
X6480768Y37447437D01*
X6480767Y37447437D01*
X6480765Y37447436D01*
X6229419Y37397440D01*
X5973141Y37397440D01*
X5721795Y37447436D01*
X5721793Y37447437D01*
X5721792Y37447437D01*
X5485025Y37545509D01*
X5271941Y37687887D01*
X5271938Y37687889D01*
X5090729Y37869098D01*
X4948349Y38082185D01*
X4850276Y38318955D01*
X4800280Y38570301D01*
X4800280Y38826579D01*
X4850276Y39077925D01*
X4948349Y39314695D01*
X5090729Y39527782D01*
X5271938Y39708991D01*
X5485025Y39851371D01*
X5721792Y39949443D01*
X5721793Y39949443D01*
X5721795Y39949444D01*
X5973141Y39999440D01*
X6229419Y39999440D01*
X6480765Y39949444D01*
X6480765Y39949444D01*
G37*
G36*
X6480765Y44149444D02*
X6480767Y44149443D01*
X6480768Y44149443D01*
X6717535Y44051371D01*
X6930622Y43908991D01*
X7111831Y43727782D01*
X7254211Y43514695D01*
X7352284Y43277925D01*
X7402280Y43026579D01*
X7402280Y42770301D01*
X7352284Y42518955D01*
X7254211Y42282185D01*
X7111831Y42069098D01*
X6930622Y41887889D01*
X6930619Y41887887D01*
X6717535Y41745509D01*
X6480768Y41647437D01*
X6480767Y41647437D01*
X6480765Y41647436D01*
X6229419Y41597440D01*
X5973141Y41597440D01*
X5721795Y41647436D01*
X5721793Y41647437D01*
X5721792Y41647437D01*
X5485025Y41745509D01*
X5271941Y41887887D01*
X5271938Y41887889D01*
X5090729Y42069098D01*
X4948349Y42282185D01*
X4850276Y42518955D01*
X4800280Y42770301D01*
X4800280Y43026579D01*
X4850276Y43277925D01*
X4948349Y43514695D01*
X5090729Y43727782D01*
X5271938Y43908991D01*
X5485025Y44051371D01*
X5721792Y44149443D01*
X5721793Y44149443D01*
X5721795Y44149444D01*
X5973141Y44199440D01*
X6229419Y44199440D01*
X6480765Y44149444D01*
X6480765Y44149444D01*
G37*
G36*
X10680765Y44149444D02*
X10680767Y44149443D01*
X10680768Y44149443D01*
X10917535Y44051371D01*
X11130622Y43908991D01*
X11311831Y43727782D01*
X11454211Y43514695D01*
X11552284Y43277925D01*
X11602280Y43026579D01*
X11602280Y42770301D01*
X11552284Y42518955D01*
X11454211Y42282185D01*
X11311831Y42069098D01*
X11130622Y41887889D01*
X11130619Y41887887D01*
X10917535Y41745509D01*
X10680768Y41647437D01*
X10680767Y41647437D01*
X10680765Y41647436D01*
X10429419Y41597440D01*
X10173141Y41597440D01*
X9921795Y41647436D01*
X9921793Y41647437D01*
X9921792Y41647437D01*
X9685025Y41745509D01*
X9471941Y41887887D01*
X9471938Y41887889D01*
X9290729Y42069098D01*
X9148349Y42282185D01*
X9050276Y42518955D01*
X9000280Y42770301D01*
X9000280Y43026579D01*
X9050276Y43277925D01*
X9148349Y43514695D01*
X9290729Y43727782D01*
X9471938Y43908991D01*
X9685025Y44051371D01*
X9921792Y44149443D01*
X9921793Y44149443D01*
X9921795Y44149444D01*
X10173141Y44199440D01*
X10429419Y44199440D01*
X10680765Y44149444D01*
X10680765Y44149444D01*
G37*
G36*
X26080765Y44149444D02*
X26080767Y44149443D01*
X26080768Y44149443D01*
X26317535Y44051371D01*
X26530622Y43908991D01*
X26711831Y43727782D01*
X26854211Y43514695D01*
X26952284Y43277925D01*
X27002280Y43026579D01*
X27002280Y42770301D01*
X26952284Y42518955D01*
X26854211Y42282185D01*
X26711831Y42069098D01*
X26530622Y41887889D01*
X26530619Y41887887D01*
X26317535Y41745509D01*
X26080768Y41647437D01*
X26080767Y41647437D01*
X26080765Y41647436D01*
X25829419Y41597440D01*
X25573141Y41597440D01*
X25321795Y41647436D01*
X25321793Y41647437D01*
X25321792Y41647437D01*
X25085025Y41745509D01*
X24871941Y41887887D01*
X24871938Y41887889D01*
X24690729Y42069098D01*
X24548349Y42282185D01*
X24450276Y42518955D01*
X24400280Y42770301D01*
X24400280Y43026579D01*
X24450276Y43277925D01*
X24548349Y43514695D01*
X24690729Y43727782D01*
X24871938Y43908991D01*
X25085025Y44051371D01*
X25321792Y44149443D01*
X25321793Y44149443D01*
X25321795Y44149444D01*
X25573141Y44199440D01*
X25829419Y44199440D01*
X26080765Y44149444D01*
X26080765Y44149444D01*
G37*
G36*
X30280765Y44149444D02*
X30280767Y44149443D01*
X30280768Y44149443D01*
X30517535Y44051371D01*
X30730622Y43908991D01*
X30911831Y43727782D01*
X31054211Y43514695D01*
X31152284Y43277925D01*
X31202280Y43026579D01*
X31202280Y42770301D01*
X31152284Y42518955D01*
X31054211Y42282185D01*
X30911831Y42069098D01*
X30730622Y41887889D01*
X30730619Y41887887D01*
X30517535Y41745509D01*
X30280768Y41647437D01*
X30280767Y41647437D01*
X30280765Y41647436D01*
X30029419Y41597440D01*
X29773141Y41597440D01*
X29521795Y41647436D01*
X29521793Y41647437D01*
X29521792Y41647437D01*
X29285025Y41745509D01*
X29071941Y41887887D01*
X29071938Y41887889D01*
X28890729Y42069098D01*
X28748349Y42282185D01*
X28650276Y42518955D01*
X28600280Y42770301D01*
X28600280Y43026579D01*
X28650276Y43277925D01*
X28748349Y43514695D01*
X28890729Y43727782D01*
X29071938Y43908991D01*
X29285025Y44051371D01*
X29521792Y44149443D01*
X29521793Y44149443D01*
X29521795Y44149444D01*
X29773141Y44199440D01*
X30029419Y44199440D01*
X30280765Y44149444D01*
X30280765Y44149444D01*
G37*
G36*
X6480765Y48349444D02*
X6480767Y48349443D01*
X6480768Y48349443D01*
X6717535Y48251371D01*
X6930622Y48108991D01*
X7111831Y47927782D01*
X7254211Y47714695D01*
X7352284Y47477925D01*
X7402280Y47226579D01*
X7402280Y46970301D01*
X7352284Y46718955D01*
X7254211Y46482185D01*
X7111831Y46269098D01*
X6930622Y46087889D01*
X6930619Y46087887D01*
X6717535Y45945509D01*
X6480768Y45847437D01*
X6480767Y45847437D01*
X6480765Y45847436D01*
X6229419Y45797440D01*
X5973141Y45797440D01*
X5721795Y45847436D01*
X5721793Y45847437D01*
X5721792Y45847437D01*
X5485025Y45945509D01*
X5271941Y46087887D01*
X5271938Y46087889D01*
X5090729Y46269098D01*
X4948349Y46482185D01*
X4850276Y46718955D01*
X4800280Y46970301D01*
X4800280Y47226579D01*
X4850276Y47477925D01*
X4948349Y47714695D01*
X5090729Y47927782D01*
X5271938Y48108991D01*
X5485025Y48251371D01*
X5721792Y48349443D01*
X5721793Y48349443D01*
X5721795Y48349444D01*
X5973141Y48399440D01*
X6229419Y48399440D01*
X6480765Y48349444D01*
X6480765Y48349444D01*
G37*
G36*
X30280765Y48349444D02*
X30280767Y48349443D01*
X30280768Y48349443D01*
X30517535Y48251371D01*
X30730622Y48108991D01*
X30911831Y47927782D01*
X31054211Y47714695D01*
X31152284Y47477925D01*
X31202280Y47226579D01*
X31202280Y46970301D01*
X31152284Y46718955D01*
X31054211Y46482185D01*
X30911831Y46269098D01*
X30730622Y46087889D01*
X30730619Y46087887D01*
X30517535Y45945509D01*
X30280768Y45847437D01*
X30280767Y45847437D01*
X30280765Y45847436D01*
X30029419Y45797440D01*
X29773141Y45797440D01*
X29521795Y45847436D01*
X29521793Y45847437D01*
X29521792Y45847437D01*
X29285025Y45945509D01*
X29071941Y46087887D01*
X29071938Y46087889D01*
X28890729Y46269098D01*
X28748349Y46482185D01*
X28650276Y46718955D01*
X28600280Y46970301D01*
X28600280Y47226579D01*
X28650276Y47477925D01*
X28748349Y47714695D01*
X28890729Y47927782D01*
X29071938Y48108991D01*
X29285025Y48251371D01*
X29521792Y48349443D01*
X29521793Y48349443D01*
X29521795Y48349444D01*
X29773141Y48399440D01*
X30029419Y48399440D01*
X30280765Y48349444D01*
X30280765Y48349444D01*
G37*
G36*
X26080765Y48349444D02*
X26080767Y48349443D01*
X26080768Y48349443D01*
X26317535Y48251371D01*
X26530622Y48108991D01*
X26711831Y47927782D01*
X26854211Y47714695D01*
X26952284Y47477925D01*
X27002280Y47226579D01*
X27002280Y46970301D01*
X26952284Y46718955D01*
X26854211Y46482185D01*
X26711831Y46269098D01*
X26530622Y46087889D01*
X26530619Y46087887D01*
X26317535Y45945509D01*
X26080768Y45847437D01*
X26080767Y45847437D01*
X26080765Y45847436D01*
X25829419Y45797440D01*
X25573141Y45797440D01*
X25321795Y45847436D01*
X25321793Y45847437D01*
X25321792Y45847437D01*
X25085025Y45945509D01*
X24871941Y46087887D01*
X24871938Y46087889D01*
X24690729Y46269098D01*
X24548349Y46482185D01*
X24450276Y46718955D01*
X24400280Y46970301D01*
X24400280Y47226579D01*
X24450276Y47477925D01*
X24548349Y47714695D01*
X24690729Y47927782D01*
X24871938Y48108991D01*
X25085025Y48251371D01*
X25321792Y48349443D01*
X25321793Y48349443D01*
X25321795Y48349444D01*
X25573141Y48399440D01*
X25829419Y48399440D01*
X26080765Y48349444D01*
X26080765Y48349444D01*
G37*
G36*
X10680765Y48349444D02*
X10680767Y48349443D01*
X10680768Y48349443D01*
X10917535Y48251371D01*
X11130622Y48108991D01*
X11311831Y47927782D01*
X11454211Y47714695D01*
X11552284Y47477925D01*
X11602280Y47226579D01*
X11602280Y46970301D01*
X11552284Y46718955D01*
X11454211Y46482185D01*
X11311831Y46269098D01*
X11130622Y46087889D01*
X11130619Y46087887D01*
X10917535Y45945509D01*
X10680768Y45847437D01*
X10680767Y45847437D01*
X10680765Y45847436D01*
X10429419Y45797440D01*
X10173141Y45797440D01*
X9921795Y45847436D01*
X9921793Y45847437D01*
X9921792Y45847437D01*
X9685025Y45945509D01*
X9471941Y46087887D01*
X9471938Y46087889D01*
X9290729Y46269098D01*
X9148349Y46482185D01*
X9050276Y46718955D01*
X9000280Y46970301D01*
X9000280Y47226579D01*
X9050276Y47477925D01*
X9148349Y47714695D01*
X9290729Y47927782D01*
X9471938Y48108991D01*
X9685025Y48251371D01*
X9921792Y48349443D01*
X9921793Y48349443D01*
X9921795Y48349444D01*
X10173141Y48399440D01*
X10429419Y48399440D01*
X10680765Y48349444D01*
X10680765Y48349444D01*
G37*
G36*
X57191125Y62759260D02*
X58565318Y62190050D01*
X58565320Y62190049D01*
X59111385Y61825180D01*
X59802065Y61363683D01*
X60853823Y60311925D01*
X61680190Y59075178D01*
X62249400Y57700985D01*
X62539580Y56242150D01*
X62539580Y54754730D01*
X62249400Y53295895D01*
X61765551Y52127782D01*
X61680189Y51921700D01*
X61056058Y50987621D01*
X60853823Y50684955D01*
X59802065Y49633197D01*
X59802062Y49633195D01*
X58565320Y48806831D01*
X58565319Y48806830D01*
X58565318Y48806830D01*
X57191125Y48237620D01*
X55732290Y47947440D01*
X54244870Y47947440D01*
X52786035Y48237620D01*
X51411842Y48806830D01*
X51411841Y48806830D01*
X51411840Y48806831D01*
X50175098Y49633195D01*
X50175095Y49633197D01*
X49123337Y50684955D01*
X48921102Y50987621D01*
X48296971Y51921700D01*
X48211609Y52127782D01*
X47727760Y53295895D01*
X47437580Y54754730D01*
X47437580Y56242150D01*
X47727760Y57700985D01*
X48296970Y59075178D01*
X49123337Y60311925D01*
X50175095Y61363683D01*
X50865775Y61825180D01*
X51411840Y62190049D01*
X51411842Y62190050D01*
X52786035Y62759260D01*
X54244870Y63049440D01*
X55732290Y63049440D01*
X57191125Y62759260D01*
X57191125Y62759260D01*
G37*
G36*
X6480765Y52549444D02*
X6480767Y52549443D01*
X6480768Y52549443D01*
X6717535Y52451371D01*
X6930622Y52308991D01*
X7111831Y52127782D01*
X7254211Y51914695D01*
X7352284Y51677925D01*
X7402280Y51426579D01*
X7402280Y51170301D01*
X7352284Y50918955D01*
X7254211Y50682185D01*
X7111831Y50469098D01*
X6930622Y50287889D01*
X6930619Y50287887D01*
X6717535Y50145509D01*
X6480768Y50047437D01*
X6480767Y50047437D01*
X6480765Y50047436D01*
X6229419Y49997440D01*
X5973141Y49997440D01*
X5721795Y50047436D01*
X5721793Y50047437D01*
X5721792Y50047437D01*
X5485025Y50145509D01*
X5271941Y50287887D01*
X5271938Y50287889D01*
X5090729Y50469098D01*
X4948349Y50682185D01*
X4850276Y50918955D01*
X4800280Y51170301D01*
X4800280Y51426579D01*
X4850276Y51677925D01*
X4948349Y51914695D01*
X5090729Y52127782D01*
X5271938Y52308991D01*
X5485025Y52451371D01*
X5721792Y52549443D01*
X5721793Y52549443D01*
X5721795Y52549444D01*
X5973141Y52599440D01*
X6229419Y52599440D01*
X6480765Y52549444D01*
X6480765Y52549444D01*
G37*
G36*
X30280765Y52549444D02*
X30280767Y52549443D01*
X30280768Y52549443D01*
X30517535Y52451371D01*
X30730622Y52308991D01*
X30911831Y52127782D01*
X31054211Y51914695D01*
X31152284Y51677925D01*
X31202280Y51426579D01*
X31202280Y51170301D01*
X31152284Y50918955D01*
X31054211Y50682185D01*
X30911831Y50469098D01*
X30730622Y50287889D01*
X30730619Y50287887D01*
X30517535Y50145509D01*
X30280768Y50047437D01*
X30280767Y50047437D01*
X30280765Y50047436D01*
X30029419Y49997440D01*
X29773141Y49997440D01*
X29521795Y50047436D01*
X29521793Y50047437D01*
X29521792Y50047437D01*
X29285025Y50145509D01*
X29071941Y50287887D01*
X29071938Y50287889D01*
X28890729Y50469098D01*
X28748349Y50682185D01*
X28650276Y50918955D01*
X28600280Y51170301D01*
X28600280Y51426579D01*
X28650276Y51677925D01*
X28748349Y51914695D01*
X28890729Y52127782D01*
X29071938Y52308991D01*
X29285025Y52451371D01*
X29521792Y52549443D01*
X29521793Y52549443D01*
X29521795Y52549444D01*
X29773141Y52599440D01*
X30029419Y52599440D01*
X30280765Y52549444D01*
X30280765Y52549444D01*
G37*
G36*
X10680765Y52549444D02*
X10680767Y52549443D01*
X10680768Y52549443D01*
X10917535Y52451371D01*
X11130622Y52308991D01*
X11311831Y52127782D01*
X11454211Y51914695D01*
X11552284Y51677925D01*
X11602280Y51426579D01*
X11602280Y51170301D01*
X11552284Y50918955D01*
X11454211Y50682185D01*
X11311831Y50469098D01*
X11130622Y50287889D01*
X11130619Y50287887D01*
X10917535Y50145509D01*
X10680768Y50047437D01*
X10680767Y50047437D01*
X10680765Y50047436D01*
X10429419Y49997440D01*
X10173141Y49997440D01*
X9921795Y50047436D01*
X9921793Y50047437D01*
X9921792Y50047437D01*
X9685025Y50145509D01*
X9471941Y50287887D01*
X9471938Y50287889D01*
X9290729Y50469098D01*
X9148349Y50682185D01*
X9050276Y50918955D01*
X9000280Y51170301D01*
X9000280Y51426579D01*
X9050276Y51677925D01*
X9148349Y51914695D01*
X9290729Y52127782D01*
X9471938Y52308991D01*
X9685025Y52451371D01*
X9921792Y52549443D01*
X9921793Y52549443D01*
X9921795Y52549444D01*
X10173141Y52599440D01*
X10429419Y52599440D01*
X10680765Y52549444D01*
X10680765Y52549444D01*
G37*
G36*
X26080765Y52549444D02*
X26080767Y52549443D01*
X26080768Y52549443D01*
X26317535Y52451371D01*
X26530622Y52308991D01*
X26711831Y52127782D01*
X26854211Y51914695D01*
X26952284Y51677925D01*
X27002280Y51426579D01*
X27002280Y51170301D01*
X26952284Y50918955D01*
X26854211Y50682185D01*
X26711831Y50469098D01*
X26530622Y50287889D01*
X26530619Y50287887D01*
X26317535Y50145509D01*
X26080768Y50047437D01*
X26080767Y50047437D01*
X26080765Y50047436D01*
X25829419Y49997440D01*
X25573141Y49997440D01*
X25321795Y50047436D01*
X25321793Y50047437D01*
X25321792Y50047437D01*
X25085025Y50145509D01*
X24871941Y50287887D01*
X24871938Y50287889D01*
X24690729Y50469098D01*
X24548349Y50682185D01*
X24450276Y50918955D01*
X24400280Y51170301D01*
X24400280Y51426579D01*
X24450276Y51677925D01*
X24548349Y51914695D01*
X24690729Y52127782D01*
X24871938Y52308991D01*
X25085025Y52451371D01*
X25321792Y52549443D01*
X25321793Y52549443D01*
X25321795Y52549444D01*
X25573141Y52599440D01*
X25829419Y52599440D01*
X26080765Y52549444D01*
X26080765Y52549444D01*
G37*
G36*
X117191125Y65509260D02*
X118565318Y64940050D01*
X118565320Y64940049D01*
X119785614Y64124675D01*
X119802065Y64113683D01*
X120853823Y63061925D01*
X120853825Y63061922D01*
X121436392Y62190049D01*
X121680190Y61825178D01*
X122249400Y60450985D01*
X122539580Y58992150D01*
X122539580Y57504730D01*
X122249400Y56045895D01*
X121680190Y54671702D01*
X120853823Y53434955D01*
X119802065Y52383197D01*
X119802062Y52383195D01*
X118565320Y51556831D01*
X118565319Y51556830D01*
X118565318Y51556830D01*
X117191125Y50987620D01*
X115732290Y50697440D01*
X114244870Y50697440D01*
X112786035Y50987620D01*
X111411842Y51556830D01*
X111411841Y51556830D01*
X111411840Y51556831D01*
X110175098Y52383195D01*
X110175095Y52383197D01*
X109123337Y53434955D01*
X108296970Y54671702D01*
X107727760Y56045895D01*
X107437580Y57504730D01*
X107437580Y58992150D01*
X107727760Y60450985D01*
X108296970Y61825178D01*
X108540769Y62190049D01*
X109123335Y63061922D01*
X109123337Y63061925D01*
X110175095Y64113683D01*
X110191546Y64124675D01*
X111411840Y64940049D01*
X111411842Y64940050D01*
X112786035Y65509260D01*
X114244870Y65799440D01*
X115732290Y65799440D01*
X117191125Y65509260D01*
X117191125Y65509260D01*
G37*
G36*
X26080765Y69949444D02*
X26080767Y69949443D01*
X26080768Y69949443D01*
X26317535Y69851371D01*
X26530622Y69708991D01*
X26711831Y69527782D01*
X26854211Y69314695D01*
X26952284Y69077925D01*
X27002280Y68826579D01*
X27002280Y68570301D01*
X26952284Y68318955D01*
X26854211Y68082185D01*
X26711831Y67869098D01*
X26530622Y67687889D01*
X26530619Y67687887D01*
X26317535Y67545509D01*
X26080768Y67447437D01*
X26080767Y67447437D01*
X26080765Y67447436D01*
X25829419Y67397440D01*
X25573141Y67397440D01*
X25321795Y67447436D01*
X25321793Y67447437D01*
X25321792Y67447437D01*
X25085025Y67545509D01*
X24871941Y67687887D01*
X24871938Y67687889D01*
X24690729Y67869098D01*
X24548349Y68082185D01*
X24450276Y68318955D01*
X24400280Y68570301D01*
X24400280Y68826579D01*
X24450276Y69077925D01*
X24548349Y69314695D01*
X24690729Y69527782D01*
X24871938Y69708991D01*
X25085025Y69851371D01*
X25321792Y69949443D01*
X25321793Y69949443D01*
X25321795Y69949444D01*
X25573141Y69999440D01*
X25829419Y69999440D01*
X26080765Y69949444D01*
X26080765Y69949444D01*
G37*
G36*
X30280765Y69949444D02*
X30280767Y69949443D01*
X30280768Y69949443D01*
X30517535Y69851371D01*
X30730622Y69708991D01*
X30911831Y69527782D01*
X31054211Y69314695D01*
X31152284Y69077925D01*
X31202280Y68826579D01*
X31202280Y68570301D01*
X31152284Y68318955D01*
X31054211Y68082185D01*
X30911831Y67869098D01*
X30730622Y67687889D01*
X30730619Y67687887D01*
X30517535Y67545509D01*
X30280768Y67447437D01*
X30280767Y67447437D01*
X30280765Y67447436D01*
X30029419Y67397440D01*
X29773141Y67397440D01*
X29521795Y67447436D01*
X29521793Y67447437D01*
X29521792Y67447437D01*
X29285025Y67545509D01*
X29071941Y67687887D01*
X29071938Y67687889D01*
X28890729Y67869098D01*
X28748349Y68082185D01*
X28650276Y68318955D01*
X28600280Y68570301D01*
X28600280Y68826579D01*
X28650276Y69077925D01*
X28748349Y69314695D01*
X28890729Y69527782D01*
X29071938Y69708991D01*
X29285025Y69851371D01*
X29521792Y69949443D01*
X29521793Y69949443D01*
X29521795Y69949444D01*
X29773141Y69999440D01*
X30029419Y69999440D01*
X30280765Y69949444D01*
X30280765Y69949444D01*
G37*
G36*
X6480765Y69949444D02*
X6480767Y69949443D01*
X6480768Y69949443D01*
X6717535Y69851371D01*
X6930622Y69708991D01*
X7111831Y69527782D01*
X7254211Y69314695D01*
X7352284Y69077925D01*
X7402280Y68826579D01*
X7402280Y68570301D01*
X7352284Y68318955D01*
X7254211Y68082185D01*
X7111831Y67869098D01*
X6930622Y67687889D01*
X6930619Y67687887D01*
X6717535Y67545509D01*
X6480768Y67447437D01*
X6480767Y67447437D01*
X6480765Y67447436D01*
X6229419Y67397440D01*
X5973141Y67397440D01*
X5721795Y67447436D01*
X5721793Y67447437D01*
X5721792Y67447437D01*
X5485025Y67545509D01*
X5271941Y67687887D01*
X5271938Y67687889D01*
X5090729Y67869098D01*
X4948349Y68082185D01*
X4850276Y68318955D01*
X4800280Y68570301D01*
X4800280Y68826579D01*
X4850276Y69077925D01*
X4948349Y69314695D01*
X5090729Y69527782D01*
X5271938Y69708991D01*
X5485025Y69851371D01*
X5721792Y69949443D01*
X5721793Y69949443D01*
X5721795Y69949444D01*
X5973141Y69999440D01*
X6229419Y69999440D01*
X6480765Y69949444D01*
X6480765Y69949444D01*
G37*
G36*
X10680765Y69949444D02*
X10680767Y69949443D01*
X10680768Y69949443D01*
X10917535Y69851371D01*
X11130622Y69708991D01*
X11311831Y69527782D01*
X11454211Y69314695D01*
X11552284Y69077925D01*
X11602280Y68826579D01*
X11602280Y68570301D01*
X11552284Y68318955D01*
X11454211Y68082185D01*
X11311831Y67869098D01*
X11130622Y67687889D01*
X11130619Y67687887D01*
X10917535Y67545509D01*
X10680768Y67447437D01*
X10680767Y67447437D01*
X10680765Y67447436D01*
X10429419Y67397440D01*
X10173141Y67397440D01*
X9921795Y67447436D01*
X9921793Y67447437D01*
X9921792Y67447437D01*
X9685025Y67545509D01*
X9471941Y67687887D01*
X9471938Y67687889D01*
X9290729Y67869098D01*
X9148349Y68082185D01*
X9050276Y68318955D01*
X9000280Y68570301D01*
X9000280Y68826579D01*
X9050276Y69077925D01*
X9148349Y69314695D01*
X9290729Y69527782D01*
X9471938Y69708991D01*
X9685025Y69851371D01*
X9921792Y69949443D01*
X9921793Y69949443D01*
X9921795Y69949444D01*
X10173141Y69999440D01*
X10429419Y69999440D01*
X10680765Y69949444D01*
X10680765Y69949444D01*
G37*
G36*
X57191125Y85259260D02*
X58565318Y84690050D01*
X58565320Y84690049D01*
X59111385Y84325180D01*
X59802065Y83863683D01*
X60853823Y82811925D01*
X60853825Y82811922D01*
X61189873Y82308991D01*
X61680190Y81575178D01*
X62249400Y80200985D01*
X62539580Y78742150D01*
X62539580Y77254730D01*
X62249400Y75795895D01*
X61680190Y74421702D01*
X61680189Y74421700D01*
X60864815Y73201406D01*
X60853823Y73184955D01*
X59802065Y72133197D01*
X59802062Y72133195D01*
X58565320Y71306831D01*
X58565319Y71306830D01*
X58565318Y71306830D01*
X57191125Y70737620D01*
X55732290Y70447440D01*
X54244870Y70447440D01*
X52786035Y70737620D01*
X51411842Y71306830D01*
X51411841Y71306830D01*
X51411840Y71306831D01*
X50175098Y72133195D01*
X50175095Y72133197D01*
X49123337Y73184955D01*
X49112345Y73201406D01*
X48296971Y74421700D01*
X48296970Y74421702D01*
X47727760Y75795895D01*
X47437580Y77254730D01*
X47437580Y78742150D01*
X47727760Y80200985D01*
X48296970Y81575178D01*
X48787288Y82308991D01*
X49123335Y82811922D01*
X49123337Y82811925D01*
X50175095Y83863683D01*
X50865775Y84325180D01*
X51411840Y84690049D01*
X51411842Y84690050D01*
X52786035Y85259260D01*
X54244870Y85549440D01*
X55732290Y85549440D01*
X57191125Y85259260D01*
X57191125Y85259260D01*
G37*
G36*
X6480765Y74149444D02*
X6480767Y74149443D01*
X6480768Y74149443D01*
X6704353Y74056831D01*
X6717535Y74051371D01*
X6930622Y73908991D01*
X7111831Y73727782D01*
X7254211Y73514695D01*
X7352284Y73277925D01*
X7402280Y73026579D01*
X7402280Y72770301D01*
X7352284Y72518955D01*
X7254211Y72282185D01*
X7111831Y72069098D01*
X6930622Y71887889D01*
X6930619Y71887887D01*
X6717535Y71745509D01*
X6480768Y71647437D01*
X6480767Y71647437D01*
X6480765Y71647436D01*
X6229419Y71597440D01*
X5973141Y71597440D01*
X5721795Y71647436D01*
X5721793Y71647437D01*
X5721792Y71647437D01*
X5485025Y71745509D01*
X5271941Y71887887D01*
X5271938Y71887889D01*
X5090729Y72069098D01*
X4948349Y72282185D01*
X4850276Y72518955D01*
X4800280Y72770301D01*
X4800280Y73026579D01*
X4850276Y73277925D01*
X4948349Y73514695D01*
X5090729Y73727782D01*
X5271938Y73908991D01*
X5485025Y74051371D01*
X5498207Y74056831D01*
X5721792Y74149443D01*
X5721793Y74149443D01*
X5721795Y74149444D01*
X5973141Y74199440D01*
X6229419Y74199440D01*
X6480765Y74149444D01*
X6480765Y74149444D01*
G37*
G36*
X10680765Y74149444D02*
X10680767Y74149443D01*
X10680768Y74149443D01*
X10904353Y74056831D01*
X10917535Y74051371D01*
X11130622Y73908991D01*
X11311831Y73727782D01*
X11454211Y73514695D01*
X11552284Y73277925D01*
X11602280Y73026579D01*
X11602280Y72770301D01*
X11552284Y72518955D01*
X11454211Y72282185D01*
X11311831Y72069098D01*
X11130622Y71887889D01*
X11130619Y71887887D01*
X10917535Y71745509D01*
X10680768Y71647437D01*
X10680767Y71647437D01*
X10680765Y71647436D01*
X10429419Y71597440D01*
X10173141Y71597440D01*
X9921795Y71647436D01*
X9921793Y71647437D01*
X9921792Y71647437D01*
X9685025Y71745509D01*
X9471941Y71887887D01*
X9471938Y71887889D01*
X9290729Y72069098D01*
X9148349Y72282185D01*
X9050276Y72518955D01*
X9000280Y72770301D01*
X9000280Y73026579D01*
X9050276Y73277925D01*
X9148349Y73514695D01*
X9290729Y73727782D01*
X9471938Y73908991D01*
X9685025Y74051371D01*
X9698207Y74056831D01*
X9921792Y74149443D01*
X9921793Y74149443D01*
X9921795Y74149444D01*
X10173141Y74199440D01*
X10429419Y74199440D01*
X10680765Y74149444D01*
X10680765Y74149444D01*
G37*
G36*
X26080765Y74149444D02*
X26080767Y74149443D01*
X26080768Y74149443D01*
X26304353Y74056831D01*
X26317535Y74051371D01*
X26530622Y73908991D01*
X26711831Y73727782D01*
X26854211Y73514695D01*
X26952284Y73277925D01*
X27002280Y73026579D01*
X27002280Y72770301D01*
X26952284Y72518955D01*
X26854211Y72282185D01*
X26711831Y72069098D01*
X26530622Y71887889D01*
X26530619Y71887887D01*
X26317535Y71745509D01*
X26080768Y71647437D01*
X26080767Y71647437D01*
X26080765Y71647436D01*
X25829419Y71597440D01*
X25573141Y71597440D01*
X25321795Y71647436D01*
X25321793Y71647437D01*
X25321792Y71647437D01*
X25085025Y71745509D01*
X24871941Y71887887D01*
X24871938Y71887889D01*
X24690729Y72069098D01*
X24548349Y72282185D01*
X24450276Y72518955D01*
X24400280Y72770301D01*
X24400280Y73026579D01*
X24450276Y73277925D01*
X24548349Y73514695D01*
X24690729Y73727782D01*
X24871938Y73908991D01*
X25085025Y74051371D01*
X25098207Y74056831D01*
X25321792Y74149443D01*
X25321793Y74149443D01*
X25321795Y74149444D01*
X25573141Y74199440D01*
X25829419Y74199440D01*
X26080765Y74149444D01*
X26080765Y74149444D01*
G37*
G36*
X30280765Y74149444D02*
X30280767Y74149443D01*
X30280768Y74149443D01*
X30504353Y74056831D01*
X30517535Y74051371D01*
X30730622Y73908991D01*
X30911831Y73727782D01*
X31054211Y73514695D01*
X31152284Y73277925D01*
X31202280Y73026579D01*
X31202280Y72770301D01*
X31152284Y72518955D01*
X31054211Y72282185D01*
X30911831Y72069098D01*
X30730622Y71887889D01*
X30730619Y71887887D01*
X30517535Y71745509D01*
X30280768Y71647437D01*
X30280767Y71647437D01*
X30280765Y71647436D01*
X30029419Y71597440D01*
X29773141Y71597440D01*
X29521795Y71647436D01*
X29521793Y71647437D01*
X29521792Y71647437D01*
X29285025Y71745509D01*
X29071941Y71887887D01*
X29071938Y71887889D01*
X28890729Y72069098D01*
X28748349Y72282185D01*
X28650276Y72518955D01*
X28600280Y72770301D01*
X28600280Y73026579D01*
X28650276Y73277925D01*
X28748349Y73514695D01*
X28890729Y73727782D01*
X29071938Y73908991D01*
X29285025Y74051371D01*
X29298207Y74056831D01*
X29521792Y74149443D01*
X29521793Y74149443D01*
X29521795Y74149444D01*
X29773141Y74199440D01*
X30029419Y74199440D01*
X30280765Y74149444D01*
X30280765Y74149444D01*
G37*
G36*
X117191125Y88009260D02*
X118547477Y87447440D01*
X118565320Y87440049D01*
X119785614Y86624675D01*
X119802065Y86613683D01*
X120853823Y85561925D01*
X120853825Y85561922D01*
X121436392Y84690049D01*
X121680190Y84325178D01*
X122249400Y82950985D01*
X122539580Y81492150D01*
X122539580Y80004730D01*
X122249400Y78545895D01*
X121905105Y77714695D01*
X121680189Y77171700D01*
X121219470Y76482185D01*
X120853823Y75934955D01*
X119802065Y74883197D01*
X119802062Y74883195D01*
X118565320Y74056831D01*
X118565319Y74056830D01*
X118565318Y74056830D01*
X117191125Y73487620D01*
X115732290Y73197440D01*
X114244870Y73197440D01*
X112786035Y73487620D01*
X111411842Y74056830D01*
X111411841Y74056830D01*
X111411840Y74056831D01*
X110175098Y74883195D01*
X110175095Y74883197D01*
X109123337Y75934955D01*
X108757690Y76482185D01*
X108296971Y77171700D01*
X108072055Y77714695D01*
X107727760Y78545895D01*
X107437580Y80004730D01*
X107437580Y81492150D01*
X107727760Y82950985D01*
X108296970Y84325178D01*
X108540769Y84690049D01*
X109123335Y85561922D01*
X109123337Y85561925D01*
X110175095Y86613683D01*
X110191546Y86624675D01*
X111411840Y87440049D01*
X111429683Y87447440D01*
X112786035Y88009260D01*
X114244870Y88299440D01*
X115732290Y88299440D01*
X117191125Y88009260D01*
X117191125Y88009260D01*
G37*
G36*
X26080765Y78349444D02*
X26080767Y78349443D01*
X26080768Y78349443D01*
X26317535Y78251371D01*
X26530622Y78108991D01*
X26711831Y77927782D01*
X26854211Y77714695D01*
X26952284Y77477925D01*
X27002280Y77226579D01*
X27002280Y76970301D01*
X26952284Y76718955D01*
X26854211Y76482185D01*
X26711831Y76269098D01*
X26530622Y76087889D01*
X26530619Y76087887D01*
X26317535Y75945509D01*
X26080768Y75847437D01*
X26080767Y75847437D01*
X26080765Y75847436D01*
X25829419Y75797440D01*
X25573141Y75797440D01*
X25321795Y75847436D01*
X25321793Y75847437D01*
X25321792Y75847437D01*
X25085025Y75945509D01*
X24871941Y76087887D01*
X24871938Y76087889D01*
X24690729Y76269098D01*
X24548349Y76482185D01*
X24450276Y76718955D01*
X24400280Y76970301D01*
X24400280Y77226579D01*
X24450276Y77477925D01*
X24548349Y77714695D01*
X24690729Y77927782D01*
X24871938Y78108991D01*
X25085025Y78251371D01*
X25321792Y78349443D01*
X25321793Y78349443D01*
X25321795Y78349444D01*
X25573141Y78399440D01*
X25829419Y78399440D01*
X26080765Y78349444D01*
X26080765Y78349444D01*
G37*
G36*
X10680765Y78349444D02*
X10680767Y78349443D01*
X10680768Y78349443D01*
X10917535Y78251371D01*
X11130622Y78108991D01*
X11311831Y77927782D01*
X11454211Y77714695D01*
X11552284Y77477925D01*
X11602280Y77226579D01*
X11602280Y76970301D01*
X11552284Y76718955D01*
X11454211Y76482185D01*
X11311831Y76269098D01*
X11130622Y76087889D01*
X11130619Y76087887D01*
X10917535Y75945509D01*
X10680768Y75847437D01*
X10680767Y75847437D01*
X10680765Y75847436D01*
X10429419Y75797440D01*
X10173141Y75797440D01*
X9921795Y75847436D01*
X9921793Y75847437D01*
X9921792Y75847437D01*
X9685025Y75945509D01*
X9471941Y76087887D01*
X9471938Y76087889D01*
X9290729Y76269098D01*
X9148349Y76482185D01*
X9050276Y76718955D01*
X9000280Y76970301D01*
X9000280Y77226579D01*
X9050276Y77477925D01*
X9148349Y77714695D01*
X9290729Y77927782D01*
X9471938Y78108991D01*
X9685025Y78251371D01*
X9921792Y78349443D01*
X9921793Y78349443D01*
X9921795Y78349444D01*
X10173141Y78399440D01*
X10429419Y78399440D01*
X10680765Y78349444D01*
X10680765Y78349444D01*
G37*
G36*
X30280765Y78349444D02*
X30280767Y78349443D01*
X30280768Y78349443D01*
X30517535Y78251371D01*
X30730622Y78108991D01*
X30911831Y77927782D01*
X31054211Y77714695D01*
X31152284Y77477925D01*
X31202280Y77226579D01*
X31202280Y76970301D01*
X31152284Y76718955D01*
X31054211Y76482185D01*
X30911831Y76269098D01*
X30730622Y76087889D01*
X30730619Y76087887D01*
X30517535Y75945509D01*
X30280768Y75847437D01*
X30280767Y75847437D01*
X30280765Y75847436D01*
X30029419Y75797440D01*
X29773141Y75797440D01*
X29521795Y75847436D01*
X29521793Y75847437D01*
X29521792Y75847437D01*
X29285025Y75945509D01*
X29071941Y76087887D01*
X29071938Y76087889D01*
X28890729Y76269098D01*
X28748349Y76482185D01*
X28650276Y76718955D01*
X28600280Y76970301D01*
X28600280Y77226579D01*
X28650276Y77477925D01*
X28748349Y77714695D01*
X28890729Y77927782D01*
X29071938Y78108991D01*
X29285025Y78251371D01*
X29521792Y78349443D01*
X29521793Y78349443D01*
X29521795Y78349444D01*
X29773141Y78399440D01*
X30029419Y78399440D01*
X30280765Y78349444D01*
X30280765Y78349444D01*
G37*
G36*
X6480765Y78349444D02*
X6480767Y78349443D01*
X6480768Y78349443D01*
X6717535Y78251371D01*
X6930622Y78108991D01*
X7111831Y77927782D01*
X7254211Y77714695D01*
X7352284Y77477925D01*
X7402280Y77226579D01*
X7402280Y76970301D01*
X7352284Y76718955D01*
X7254211Y76482185D01*
X7111831Y76269098D01*
X6930622Y76087889D01*
X6930619Y76087887D01*
X6717535Y75945509D01*
X6480768Y75847437D01*
X6480767Y75847437D01*
X6480765Y75847436D01*
X6229419Y75797440D01*
X5973141Y75797440D01*
X5721795Y75847436D01*
X5721793Y75847437D01*
X5721792Y75847437D01*
X5485025Y75945509D01*
X5271941Y76087887D01*
X5271938Y76087889D01*
X5090729Y76269098D01*
X4948349Y76482185D01*
X4850276Y76718955D01*
X4800280Y76970301D01*
X4800280Y77226579D01*
X4850276Y77477925D01*
X4948349Y77714695D01*
X5090729Y77927782D01*
X5271938Y78108991D01*
X5485025Y78251371D01*
X5721792Y78349443D01*
X5721793Y78349443D01*
X5721795Y78349444D01*
X5973141Y78399440D01*
X6229419Y78399440D01*
X6480765Y78349444D01*
X6480765Y78349444D01*
G37*
G36*
X26080765Y82549444D02*
X26080767Y82549443D01*
X26080768Y82549443D01*
X26317535Y82451371D01*
X26530622Y82308991D01*
X26711831Y82127782D01*
X26854211Y81914695D01*
X26952284Y81677925D01*
X27002280Y81426579D01*
X27002280Y81170301D01*
X26952284Y80918955D01*
X26854211Y80682185D01*
X26711831Y80469098D01*
X26530622Y80287889D01*
X26530619Y80287887D01*
X26317535Y80145509D01*
X26080768Y80047437D01*
X26080767Y80047437D01*
X26080765Y80047436D01*
X25829419Y79997440D01*
X25573141Y79997440D01*
X25321795Y80047436D01*
X25321793Y80047437D01*
X25321792Y80047437D01*
X25085025Y80145509D01*
X24871941Y80287887D01*
X24871938Y80287889D01*
X24690729Y80469098D01*
X24548349Y80682185D01*
X24450276Y80918955D01*
X24400280Y81170301D01*
X24400280Y81426579D01*
X24450276Y81677925D01*
X24548349Y81914695D01*
X24690729Y82127782D01*
X24871938Y82308991D01*
X25085025Y82451371D01*
X25321792Y82549443D01*
X25321793Y82549443D01*
X25321795Y82549444D01*
X25573141Y82599440D01*
X25829419Y82599440D01*
X26080765Y82549444D01*
X26080765Y82549444D01*
G37*
G36*
X30280765Y82549444D02*
X30280767Y82549443D01*
X30280768Y82549443D01*
X30517535Y82451371D01*
X30730622Y82308991D01*
X30911831Y82127782D01*
X31054211Y81914695D01*
X31152284Y81677925D01*
X31202280Y81426579D01*
X31202280Y81170301D01*
X31152284Y80918955D01*
X31054211Y80682185D01*
X30911831Y80469098D01*
X30730622Y80287889D01*
X30730619Y80287887D01*
X30517535Y80145509D01*
X30280768Y80047437D01*
X30280767Y80047437D01*
X30280765Y80047436D01*
X30029419Y79997440D01*
X29773141Y79997440D01*
X29521795Y80047436D01*
X29521793Y80047437D01*
X29521792Y80047437D01*
X29285025Y80145509D01*
X29071941Y80287887D01*
X29071938Y80287889D01*
X28890729Y80469098D01*
X28748349Y80682185D01*
X28650276Y80918955D01*
X28600280Y81170301D01*
X28600280Y81426579D01*
X28650276Y81677925D01*
X28748349Y81914695D01*
X28890729Y82127782D01*
X29071938Y82308991D01*
X29285025Y82451371D01*
X29521792Y82549443D01*
X29521793Y82549443D01*
X29521795Y82549444D01*
X29773141Y82599440D01*
X30029419Y82599440D01*
X30280765Y82549444D01*
X30280765Y82549444D01*
G37*
G36*
X10680765Y82549444D02*
X10680767Y82549443D01*
X10680768Y82549443D01*
X10917535Y82451371D01*
X11130622Y82308991D01*
X11311831Y82127782D01*
X11454211Y81914695D01*
X11552284Y81677925D01*
X11602280Y81426579D01*
X11602280Y81170301D01*
X11552284Y80918955D01*
X11454211Y80682185D01*
X11311831Y80469098D01*
X11130622Y80287889D01*
X11130619Y80287887D01*
X10917535Y80145509D01*
X10680768Y80047437D01*
X10680767Y80047437D01*
X10680765Y80047436D01*
X10429419Y79997440D01*
X10173141Y79997440D01*
X9921795Y80047436D01*
X9921793Y80047437D01*
X9921792Y80047437D01*
X9685025Y80145509D01*
X9471941Y80287887D01*
X9471938Y80287889D01*
X9290729Y80469098D01*
X9148349Y80682185D01*
X9050276Y80918955D01*
X9000280Y81170301D01*
X9000280Y81426579D01*
X9050276Y81677925D01*
X9148349Y81914695D01*
X9290729Y82127782D01*
X9471938Y82308991D01*
X9685025Y82451371D01*
X9921792Y82549443D01*
X9921793Y82549443D01*
X9921795Y82549444D01*
X10173141Y82599440D01*
X10429419Y82599440D01*
X10680765Y82549444D01*
X10680765Y82549444D01*
G37*
G36*
X6480765Y82549444D02*
X6480767Y82549443D01*
X6480768Y82549443D01*
X6717535Y82451371D01*
X6930622Y82308991D01*
X7111831Y82127782D01*
X7254211Y81914695D01*
X7352284Y81677925D01*
X7402280Y81426579D01*
X7402280Y81170301D01*
X7352284Y80918955D01*
X7254211Y80682185D01*
X7111831Y80469098D01*
X6930622Y80287889D01*
X6930619Y80287887D01*
X6717535Y80145509D01*
X6480768Y80047437D01*
X6480767Y80047437D01*
X6480765Y80047436D01*
X6229419Y79997440D01*
X5973141Y79997440D01*
X5721795Y80047436D01*
X5721793Y80047437D01*
X5721792Y80047437D01*
X5485025Y80145509D01*
X5271941Y80287887D01*
X5271938Y80287889D01*
X5090729Y80469098D01*
X4948349Y80682185D01*
X4850276Y80918955D01*
X4800280Y81170301D01*
X4800280Y81426579D01*
X4850276Y81677925D01*
X4948349Y81914695D01*
X5090729Y82127782D01*
X5271938Y82308991D01*
X5485025Y82451371D01*
X5721792Y82549443D01*
X5721793Y82549443D01*
X5721795Y82549444D01*
X5973141Y82599440D01*
X6229419Y82599440D01*
X6480765Y82549444D01*
X6480765Y82549444D01*
G37*
G36*
X140745376Y92451407D02*
X140745378Y92451406D01*
X140745379Y92451406D01*
X141209632Y92259107D01*
X141625564Y91981190D01*
X141627451Y91979929D01*
X141982769Y91624611D01*
X141982771Y91624608D01*
X142261947Y91206792D01*
X142454246Y90742539D01*
X142552280Y90249692D01*
X142552280Y89747188D01*
X142454246Y89254341D01*
X142261947Y88790088D01*
X141984030Y88374156D01*
X141982769Y88372269D01*
X141627451Y88016951D01*
X141627448Y88016949D01*
X141209632Y87737773D01*
X140745379Y87545474D01*
X140745378Y87545474D01*
X140745376Y87545473D01*
X140252533Y87447440D01*
X139750027Y87447440D01*
X139257184Y87545473D01*
X139257182Y87545474D01*
X139257181Y87545474D01*
X138792928Y87737773D01*
X138375112Y88016949D01*
X138375109Y88016951D01*
X138019791Y88372269D01*
X138018530Y88374156D01*
X137740613Y88790088D01*
X137548314Y89254341D01*
X137450280Y89747188D01*
X137450280Y90249692D01*
X137548314Y90742539D01*
X137740613Y91206792D01*
X138019789Y91624608D01*
X138019791Y91624611D01*
X138375109Y91979929D01*
X138376996Y91981190D01*
X138792928Y92259107D01*
X139257181Y92451406D01*
X139257182Y92451406D01*
X139257184Y92451407D01*
X139750027Y92549440D01*
X140252533Y92549440D01*
X140745376Y92451407D01*
X140745376Y92451407D01*
G37*
G36*
X745376Y92451407D02*
X745378Y92451406D01*
X745379Y92451406D01*
X1209632Y92259107D01*
X1625564Y91981190D01*
X1627451Y91979929D01*
X1982769Y91624611D01*
X1982771Y91624608D01*
X2261947Y91206792D01*
X2454246Y90742539D01*
X2552280Y90249692D01*
X2552280Y89747188D01*
X2454246Y89254341D01*
X2261947Y88790088D01*
X1984030Y88374156D01*
X1982769Y88372269D01*
X1627451Y88016951D01*
X1627448Y88016949D01*
X1209632Y87737773D01*
X745379Y87545474D01*
X745378Y87545474D01*
X745376Y87545473D01*
X252533Y87447440D01*
X-249973Y87447440D01*
X-742816Y87545473D01*
X-742818Y87545474D01*
X-742819Y87545474D01*
X-1207072Y87737773D01*
X-1624888Y88016949D01*
X-1624891Y88016951D01*
X-1980209Y88372269D01*
X-1981470Y88374156D01*
X-2259387Y88790088D01*
X-2451686Y89254341D01*
X-2549720Y89747188D01*
X-2549720Y90249692D01*
X-2451686Y90742539D01*
X-2259387Y91206792D01*
X-1980211Y91624608D01*
X-1980209Y91624611D01*
X-1624891Y91979929D01*
X-1623004Y91981190D01*
X-1207072Y92259107D01*
X-742819Y92451406D01*
X-742818Y92451406D01*
X-742816Y92451407D01*
X-249973Y92549440D01*
X252533Y92549440D01*
X745376Y92451407D01*
X745376Y92451407D01*
G37*
M02*
