G04 #@! TF.GenerationSoftware,KiCad,Pcbnew,(5.0.1)-3*
G04 #@! TF.CreationDate,2019-04-10T15:36:06+02:00*
G04 #@! TF.ProjectId,discovery,646973636F766572792E6B696361645F,rev?*
G04 #@! TF.SameCoordinates,PX4c4640PY8a48028*
G04 #@! TF.FileFunction,Other,Fab,Top*
%FSLAX46Y46*%
G04 Gerber Fmt 4.6, Leading zero omitted, Abs format (unit mm)*
G04 Created by KiCad (PCBNEW (5.0.1)-3) date 10/04/2019 15:36:06*
%MOMM*%
%LPD*%
G01*
G04 APERTURE LIST*
%ADD10C,0.125000*%
%ADD11C,0.150000*%
G04 APERTURE END LIST*
G04 #@! TO.C,J2*
D10*
X34445137Y40263055D02*
X34480851Y40227340D01*
X34516565Y40120198D01*
X34516565Y40048769D01*
X34480851Y39941626D01*
X34409422Y39870198D01*
X34337994Y39834483D01*
X34195137Y39798769D01*
X34087994Y39798769D01*
X33945137Y39834483D01*
X33873708Y39870198D01*
X33802280Y39941626D01*
X33766565Y40048769D01*
X33766565Y40120198D01*
X33802280Y40227340D01*
X33837994Y40263055D01*
X34516565Y40691626D02*
X34480851Y40620198D01*
X34445137Y40584483D01*
X34373708Y40548769D01*
X34159422Y40548769D01*
X34087994Y40584483D01*
X34052280Y40620198D01*
X34016565Y40691626D01*
X34016565Y40798769D01*
X34052280Y40870198D01*
X34087994Y40905912D01*
X34159422Y40941626D01*
X34373708Y40941626D01*
X34445137Y40905912D01*
X34480851Y40870198D01*
X34516565Y40798769D01*
X34516565Y40691626D01*
X34016565Y41263055D02*
X34516565Y41263055D01*
X34087994Y41263055D02*
X34052280Y41298769D01*
X34016565Y41370198D01*
X34016565Y41477340D01*
X34052280Y41548769D01*
X34123708Y41584483D01*
X34516565Y41584483D01*
X34016565Y41941626D02*
X34516565Y41941626D01*
X34087994Y41941626D02*
X34052280Y41977340D01*
X34016565Y42048769D01*
X34016565Y42155912D01*
X34052280Y42227340D01*
X34123708Y42263055D01*
X34516565Y42263055D01*
X34587994Y42441626D02*
X34587994Y43013055D01*
X33766565Y43334483D02*
X33766565Y43405912D01*
X33802280Y43477340D01*
X33837994Y43513055D01*
X33909422Y43548769D01*
X34052280Y43584483D01*
X34230851Y43584483D01*
X34373708Y43548769D01*
X34445137Y43513055D01*
X34480851Y43477340D01*
X34516565Y43405912D01*
X34516565Y43334483D01*
X34480851Y43263055D01*
X34445137Y43227340D01*
X34373708Y43191626D01*
X34230851Y43155912D01*
X34052280Y43155912D01*
X33909422Y43191626D01*
X33837994Y43227340D01*
X33802280Y43263055D01*
X33766565Y43334483D01*
X33837994Y43870198D02*
X33802280Y43905912D01*
X33766565Y43977340D01*
X33766565Y44155912D01*
X33802280Y44227340D01*
X33837994Y44263055D01*
X33909422Y44298769D01*
X33980851Y44298769D01*
X34087994Y44263055D01*
X34516565Y43834483D01*
X34516565Y44298769D01*
X34516565Y44548769D02*
X34016565Y44941626D01*
X34016565Y44548769D02*
X34516565Y44941626D01*
X33766565Y45370198D02*
X33766565Y45441626D01*
X33802280Y45513055D01*
X33837994Y45548769D01*
X33909422Y45584483D01*
X34052280Y45620198D01*
X34230851Y45620198D01*
X34373708Y45584483D01*
X34445137Y45548769D01*
X34480851Y45513055D01*
X34516565Y45441626D01*
X34516565Y45370198D01*
X34480851Y45298769D01*
X34445137Y45263055D01*
X34373708Y45227340D01*
X34230851Y45191626D01*
X34052280Y45191626D01*
X33909422Y45227340D01*
X33837994Y45263055D01*
X33802280Y45298769D01*
X33766565Y45370198D01*
X33766565Y45870198D02*
X33766565Y46334483D01*
X34052280Y46084483D01*
X34052280Y46191626D01*
X34087994Y46263055D01*
X34123708Y46298769D01*
X34195137Y46334483D01*
X34373708Y46334483D01*
X34445137Y46298769D01*
X34480851Y46263055D01*
X34516565Y46191626D01*
X34516565Y45977340D01*
X34480851Y45905912D01*
X34445137Y45870198D01*
X34587994Y46477340D02*
X34587994Y47048769D01*
X34516565Y47227340D02*
X33766565Y47227340D01*
X33766565Y47513055D01*
X33802280Y47584483D01*
X33837994Y47620198D01*
X33909422Y47655912D01*
X34016565Y47655912D01*
X34087994Y47620198D01*
X34123708Y47584483D01*
X34159422Y47513055D01*
X34159422Y47227340D01*
X34445137Y48405912D02*
X34480851Y48370198D01*
X34516565Y48263055D01*
X34516565Y48191626D01*
X34480851Y48084483D01*
X34409422Y48013055D01*
X34337994Y47977340D01*
X34195137Y47941626D01*
X34087994Y47941626D01*
X33945137Y47977340D01*
X33873708Y48013055D01*
X33802280Y48084483D01*
X33766565Y48191626D01*
X33766565Y48263055D01*
X33802280Y48370198D01*
X33837994Y48405912D01*
X34516565Y48727340D02*
X33766565Y48727340D01*
X34480851Y49370198D02*
X34516565Y49298769D01*
X34516565Y49155912D01*
X34480851Y49084483D01*
X34409422Y49048769D01*
X34123708Y49048769D01*
X34052280Y49084483D01*
X34016565Y49155912D01*
X34016565Y49298769D01*
X34052280Y49370198D01*
X34123708Y49405912D01*
X34195137Y49405912D01*
X34266565Y49048769D01*
G04 #@! TO.C,J4*
X2093137Y40255255D02*
X2128851Y40219540D01*
X2164565Y40112398D01*
X2164565Y40040969D01*
X2128851Y39933826D01*
X2057422Y39862398D01*
X1985994Y39826683D01*
X1843137Y39790969D01*
X1735994Y39790969D01*
X1593137Y39826683D01*
X1521708Y39862398D01*
X1450280Y39933826D01*
X1414565Y40040969D01*
X1414565Y40112398D01*
X1450280Y40219540D01*
X1485994Y40255255D01*
X2164565Y40683826D02*
X2128851Y40612398D01*
X2093137Y40576683D01*
X2021708Y40540969D01*
X1807422Y40540969D01*
X1735994Y40576683D01*
X1700280Y40612398D01*
X1664565Y40683826D01*
X1664565Y40790969D01*
X1700280Y40862398D01*
X1735994Y40898112D01*
X1807422Y40933826D01*
X2021708Y40933826D01*
X2093137Y40898112D01*
X2128851Y40862398D01*
X2164565Y40790969D01*
X2164565Y40683826D01*
X1664565Y41255255D02*
X2164565Y41255255D01*
X1735994Y41255255D02*
X1700280Y41290969D01*
X1664565Y41362398D01*
X1664565Y41469540D01*
X1700280Y41540969D01*
X1771708Y41576683D01*
X2164565Y41576683D01*
X1664565Y41933826D02*
X2164565Y41933826D01*
X1735994Y41933826D02*
X1700280Y41969540D01*
X1664565Y42040969D01*
X1664565Y42148112D01*
X1700280Y42219540D01*
X1771708Y42255255D01*
X2164565Y42255255D01*
X2235994Y42433826D02*
X2235994Y43005255D01*
X1414565Y43326683D02*
X1414565Y43398112D01*
X1450280Y43469540D01*
X1485994Y43505255D01*
X1557422Y43540969D01*
X1700280Y43576683D01*
X1878851Y43576683D01*
X2021708Y43540969D01*
X2093137Y43505255D01*
X2128851Y43469540D01*
X2164565Y43398112D01*
X2164565Y43326683D01*
X2128851Y43255255D01*
X2093137Y43219540D01*
X2021708Y43183826D01*
X1878851Y43148112D01*
X1700280Y43148112D01*
X1557422Y43183826D01*
X1485994Y43219540D01*
X1450280Y43255255D01*
X1414565Y43326683D01*
X1485994Y43862398D02*
X1450280Y43898112D01*
X1414565Y43969540D01*
X1414565Y44148112D01*
X1450280Y44219540D01*
X1485994Y44255255D01*
X1557422Y44290969D01*
X1628851Y44290969D01*
X1735994Y44255255D01*
X2164565Y43826683D01*
X2164565Y44290969D01*
X2164565Y44540969D02*
X1664565Y44933826D01*
X1664565Y44540969D02*
X2164565Y44933826D01*
X1414565Y45362398D02*
X1414565Y45433826D01*
X1450280Y45505255D01*
X1485994Y45540969D01*
X1557422Y45576683D01*
X1700280Y45612398D01*
X1878851Y45612398D01*
X2021708Y45576683D01*
X2093137Y45540969D01*
X2128851Y45505255D01*
X2164565Y45433826D01*
X2164565Y45362398D01*
X2128851Y45290969D01*
X2093137Y45255255D01*
X2021708Y45219540D01*
X1878851Y45183826D01*
X1700280Y45183826D01*
X1557422Y45219540D01*
X1485994Y45255255D01*
X1450280Y45290969D01*
X1414565Y45362398D01*
X1414565Y45862398D02*
X1414565Y46326683D01*
X1700280Y46076683D01*
X1700280Y46183826D01*
X1735994Y46255255D01*
X1771708Y46290969D01*
X1843137Y46326683D01*
X2021708Y46326683D01*
X2093137Y46290969D01*
X2128851Y46255255D01*
X2164565Y46183826D01*
X2164565Y45969540D01*
X2128851Y45898112D01*
X2093137Y45862398D01*
X2235994Y46469540D02*
X2235994Y47040969D01*
X2164565Y47219540D02*
X1414565Y47219540D01*
X1414565Y47505255D01*
X1450280Y47576683D01*
X1485994Y47612398D01*
X1557422Y47648112D01*
X1664565Y47648112D01*
X1735994Y47612398D01*
X1771708Y47576683D01*
X1807422Y47505255D01*
X1807422Y47219540D01*
X2093137Y48398112D02*
X2128851Y48362398D01*
X2164565Y48255255D01*
X2164565Y48183826D01*
X2128851Y48076683D01*
X2057422Y48005255D01*
X1985994Y47969540D01*
X1843137Y47933826D01*
X1735994Y47933826D01*
X1593137Y47969540D01*
X1521708Y48005255D01*
X1450280Y48076683D01*
X1414565Y48183826D01*
X1414565Y48255255D01*
X1450280Y48362398D01*
X1485994Y48398112D01*
X2164565Y48719540D02*
X1414565Y48719540D01*
X2128851Y49362398D02*
X2164565Y49290969D01*
X2164565Y49148112D01*
X2128851Y49076683D01*
X2057422Y49040969D01*
X1771708Y49040969D01*
X1700280Y49076683D01*
X1664565Y49148112D01*
X1664565Y49290969D01*
X1700280Y49362398D01*
X1771708Y49398112D01*
X1843137Y49398112D01*
X1914565Y49040969D01*
G04 #@! TO.C,J5*
X2093137Y11422655D02*
X2128851Y11386940D01*
X2164565Y11279798D01*
X2164565Y11208369D01*
X2128851Y11101226D01*
X2057422Y11029798D01*
X1985994Y10994083D01*
X1843137Y10958369D01*
X1735994Y10958369D01*
X1593137Y10994083D01*
X1521708Y11029798D01*
X1450280Y11101226D01*
X1414565Y11208369D01*
X1414565Y11279798D01*
X1450280Y11386940D01*
X1485994Y11422655D01*
X2164565Y11851226D02*
X2128851Y11779798D01*
X2093137Y11744083D01*
X2021708Y11708369D01*
X1807422Y11708369D01*
X1735994Y11744083D01*
X1700280Y11779798D01*
X1664565Y11851226D01*
X1664565Y11958369D01*
X1700280Y12029798D01*
X1735994Y12065512D01*
X1807422Y12101226D01*
X2021708Y12101226D01*
X2093137Y12065512D01*
X2128851Y12029798D01*
X2164565Y11958369D01*
X2164565Y11851226D01*
X1664565Y12422655D02*
X2164565Y12422655D01*
X1735994Y12422655D02*
X1700280Y12458369D01*
X1664565Y12529798D01*
X1664565Y12636940D01*
X1700280Y12708369D01*
X1771708Y12744083D01*
X2164565Y12744083D01*
X1664565Y13101226D02*
X2164565Y13101226D01*
X1735994Y13101226D02*
X1700280Y13136940D01*
X1664565Y13208369D01*
X1664565Y13315512D01*
X1700280Y13386940D01*
X1771708Y13422655D01*
X2164565Y13422655D01*
X2235994Y13601226D02*
X2235994Y14172655D01*
X1414565Y14494083D02*
X1414565Y14565512D01*
X1450280Y14636940D01*
X1485994Y14672655D01*
X1557422Y14708369D01*
X1700280Y14744083D01*
X1878851Y14744083D01*
X2021708Y14708369D01*
X2093137Y14672655D01*
X2128851Y14636940D01*
X2164565Y14565512D01*
X2164565Y14494083D01*
X2128851Y14422655D01*
X2093137Y14386940D01*
X2021708Y14351226D01*
X1878851Y14315512D01*
X1700280Y14315512D01*
X1557422Y14351226D01*
X1485994Y14386940D01*
X1450280Y14422655D01*
X1414565Y14494083D01*
X1485994Y15029798D02*
X1450280Y15065512D01*
X1414565Y15136940D01*
X1414565Y15315512D01*
X1450280Y15386940D01*
X1485994Y15422655D01*
X1557422Y15458369D01*
X1628851Y15458369D01*
X1735994Y15422655D01*
X2164565Y14994083D01*
X2164565Y15458369D01*
X2164565Y15708369D02*
X1664565Y16101226D01*
X1664565Y15708369D02*
X2164565Y16101226D01*
X1414565Y16529798D02*
X1414565Y16601226D01*
X1450280Y16672655D01*
X1485994Y16708369D01*
X1557422Y16744083D01*
X1700280Y16779798D01*
X1878851Y16779798D01*
X2021708Y16744083D01*
X2093137Y16708369D01*
X2128851Y16672655D01*
X2164565Y16601226D01*
X2164565Y16529798D01*
X2128851Y16458369D01*
X2093137Y16422655D01*
X2021708Y16386940D01*
X1878851Y16351226D01*
X1700280Y16351226D01*
X1557422Y16386940D01*
X1485994Y16422655D01*
X1450280Y16458369D01*
X1414565Y16529798D01*
X1414565Y17029798D02*
X1414565Y17494083D01*
X1700280Y17244083D01*
X1700280Y17351226D01*
X1735994Y17422655D01*
X1771708Y17458369D01*
X1843137Y17494083D01*
X2021708Y17494083D01*
X2093137Y17458369D01*
X2128851Y17422655D01*
X2164565Y17351226D01*
X2164565Y17136940D01*
X2128851Y17065512D01*
X2093137Y17029798D01*
X2235994Y17636940D02*
X2235994Y18208369D01*
X2164565Y18386940D02*
X1414565Y18386940D01*
X1414565Y18672655D01*
X1450280Y18744083D01*
X1485994Y18779798D01*
X1557422Y18815512D01*
X1664565Y18815512D01*
X1735994Y18779798D01*
X1771708Y18744083D01*
X1807422Y18672655D01*
X1807422Y18386940D01*
X2093137Y19565512D02*
X2128851Y19529798D01*
X2164565Y19422655D01*
X2164565Y19351226D01*
X2128851Y19244083D01*
X2057422Y19172655D01*
X1985994Y19136940D01*
X1843137Y19101226D01*
X1735994Y19101226D01*
X1593137Y19136940D01*
X1521708Y19172655D01*
X1450280Y19244083D01*
X1414565Y19351226D01*
X1414565Y19422655D01*
X1450280Y19529798D01*
X1485994Y19565512D01*
X2164565Y19886940D02*
X1414565Y19886940D01*
X2128851Y20529798D02*
X2164565Y20458369D01*
X2164565Y20315512D01*
X2128851Y20244083D01*
X2057422Y20208369D01*
X1771708Y20208369D01*
X1700280Y20244083D01*
X1664565Y20315512D01*
X1664565Y20458369D01*
X1700280Y20529798D01*
X1771708Y20565512D01*
X1843137Y20565512D01*
X1914565Y20208369D01*
G04 #@! TO.C,J6*
X34445137Y11430455D02*
X34480851Y11394740D01*
X34516565Y11287598D01*
X34516565Y11216169D01*
X34480851Y11109026D01*
X34409422Y11037598D01*
X34337994Y11001883D01*
X34195137Y10966169D01*
X34087994Y10966169D01*
X33945137Y11001883D01*
X33873708Y11037598D01*
X33802280Y11109026D01*
X33766565Y11216169D01*
X33766565Y11287598D01*
X33802280Y11394740D01*
X33837994Y11430455D01*
X34516565Y11859026D02*
X34480851Y11787598D01*
X34445137Y11751883D01*
X34373708Y11716169D01*
X34159422Y11716169D01*
X34087994Y11751883D01*
X34052280Y11787598D01*
X34016565Y11859026D01*
X34016565Y11966169D01*
X34052280Y12037598D01*
X34087994Y12073312D01*
X34159422Y12109026D01*
X34373708Y12109026D01*
X34445137Y12073312D01*
X34480851Y12037598D01*
X34516565Y11966169D01*
X34516565Y11859026D01*
X34016565Y12430455D02*
X34516565Y12430455D01*
X34087994Y12430455D02*
X34052280Y12466169D01*
X34016565Y12537598D01*
X34016565Y12644740D01*
X34052280Y12716169D01*
X34123708Y12751883D01*
X34516565Y12751883D01*
X34016565Y13109026D02*
X34516565Y13109026D01*
X34087994Y13109026D02*
X34052280Y13144740D01*
X34016565Y13216169D01*
X34016565Y13323312D01*
X34052280Y13394740D01*
X34123708Y13430455D01*
X34516565Y13430455D01*
X34587994Y13609026D02*
X34587994Y14180455D01*
X33766565Y14501883D02*
X33766565Y14573312D01*
X33802280Y14644740D01*
X33837994Y14680455D01*
X33909422Y14716169D01*
X34052280Y14751883D01*
X34230851Y14751883D01*
X34373708Y14716169D01*
X34445137Y14680455D01*
X34480851Y14644740D01*
X34516565Y14573312D01*
X34516565Y14501883D01*
X34480851Y14430455D01*
X34445137Y14394740D01*
X34373708Y14359026D01*
X34230851Y14323312D01*
X34052280Y14323312D01*
X33909422Y14359026D01*
X33837994Y14394740D01*
X33802280Y14430455D01*
X33766565Y14501883D01*
X33837994Y15037598D02*
X33802280Y15073312D01*
X33766565Y15144740D01*
X33766565Y15323312D01*
X33802280Y15394740D01*
X33837994Y15430455D01*
X33909422Y15466169D01*
X33980851Y15466169D01*
X34087994Y15430455D01*
X34516565Y15001883D01*
X34516565Y15466169D01*
X34516565Y15716169D02*
X34016565Y16109026D01*
X34016565Y15716169D02*
X34516565Y16109026D01*
X33766565Y16537598D02*
X33766565Y16609026D01*
X33802280Y16680455D01*
X33837994Y16716169D01*
X33909422Y16751883D01*
X34052280Y16787598D01*
X34230851Y16787598D01*
X34373708Y16751883D01*
X34445137Y16716169D01*
X34480851Y16680455D01*
X34516565Y16609026D01*
X34516565Y16537598D01*
X34480851Y16466169D01*
X34445137Y16430455D01*
X34373708Y16394740D01*
X34230851Y16359026D01*
X34052280Y16359026D01*
X33909422Y16394740D01*
X33837994Y16430455D01*
X33802280Y16466169D01*
X33766565Y16537598D01*
X33766565Y17037598D02*
X33766565Y17501883D01*
X34052280Y17251883D01*
X34052280Y17359026D01*
X34087994Y17430455D01*
X34123708Y17466169D01*
X34195137Y17501883D01*
X34373708Y17501883D01*
X34445137Y17466169D01*
X34480851Y17430455D01*
X34516565Y17359026D01*
X34516565Y17144740D01*
X34480851Y17073312D01*
X34445137Y17037598D01*
X34587994Y17644740D02*
X34587994Y18216169D01*
X34516565Y18394740D02*
X33766565Y18394740D01*
X33766565Y18680455D01*
X33802280Y18751883D01*
X33837994Y18787598D01*
X33909422Y18823312D01*
X34016565Y18823312D01*
X34087994Y18787598D01*
X34123708Y18751883D01*
X34159422Y18680455D01*
X34159422Y18394740D01*
X34445137Y19573312D02*
X34480851Y19537598D01*
X34516565Y19430455D01*
X34516565Y19359026D01*
X34480851Y19251883D01*
X34409422Y19180455D01*
X34337994Y19144740D01*
X34195137Y19109026D01*
X34087994Y19109026D01*
X33945137Y19144740D01*
X33873708Y19180455D01*
X33802280Y19251883D01*
X33766565Y19359026D01*
X33766565Y19430455D01*
X33802280Y19537598D01*
X33837994Y19573312D01*
X34516565Y19894740D02*
X33766565Y19894740D01*
X34480851Y20537598D02*
X34516565Y20466169D01*
X34516565Y20323312D01*
X34480851Y20251883D01*
X34409422Y20216169D01*
X34123708Y20216169D01*
X34052280Y20251883D01*
X34016565Y20323312D01*
X34016565Y20466169D01*
X34052280Y20537598D01*
X34123708Y20573312D01*
X34195137Y20573312D01*
X34266565Y20216169D01*
G04 #@! TO.C,J1*
D11*
X14209322Y68754063D02*
X14256941Y68706444D01*
X14304560Y68563587D01*
X14304560Y68468349D01*
X14256941Y68325492D01*
X14161703Y68230254D01*
X14066465Y68182635D01*
X13875989Y68135016D01*
X13733132Y68135016D01*
X13542656Y68182635D01*
X13447418Y68230254D01*
X13352180Y68325492D01*
X13304560Y68468349D01*
X13304560Y68563587D01*
X13352180Y68706444D01*
X13399799Y68754063D01*
X14304560Y69325492D02*
X14256941Y69230254D01*
X14209322Y69182635D01*
X14114084Y69135016D01*
X13828370Y69135016D01*
X13733132Y69182635D01*
X13685513Y69230254D01*
X13637894Y69325492D01*
X13637894Y69468349D01*
X13685513Y69563587D01*
X13733132Y69611206D01*
X13828370Y69658825D01*
X14114084Y69658825D01*
X14209322Y69611206D01*
X14256941Y69563587D01*
X14304560Y69468349D01*
X14304560Y69325492D01*
X13637894Y70087397D02*
X14304560Y70087397D01*
X13733132Y70087397D02*
X13685513Y70135016D01*
X13637894Y70230254D01*
X13637894Y70373111D01*
X13685513Y70468349D01*
X13780751Y70515968D01*
X14304560Y70515968D01*
X13637894Y70992159D02*
X14304560Y70992159D01*
X13733132Y70992159D02*
X13685513Y71039778D01*
X13637894Y71135016D01*
X13637894Y71277873D01*
X13685513Y71373111D01*
X13780751Y71420730D01*
X14304560Y71420730D01*
X14399799Y71658825D02*
X14399799Y72420730D01*
X13304560Y72849301D02*
X13304560Y72944540D01*
X13352180Y73039778D01*
X13399799Y73087397D01*
X13495037Y73135016D01*
X13685513Y73182635D01*
X13923608Y73182635D01*
X14114084Y73135016D01*
X14209322Y73087397D01*
X14256941Y73039778D01*
X14304560Y72944540D01*
X14304560Y72849301D01*
X14256941Y72754063D01*
X14209322Y72706444D01*
X14114084Y72658825D01*
X13923608Y72611206D01*
X13685513Y72611206D01*
X13495037Y72658825D01*
X13399799Y72706444D01*
X13352180Y72754063D01*
X13304560Y72849301D01*
X13399799Y73563587D02*
X13352180Y73611206D01*
X13304560Y73706444D01*
X13304560Y73944540D01*
X13352180Y74039778D01*
X13399799Y74087397D01*
X13495037Y74135016D01*
X13590275Y74135016D01*
X13733132Y74087397D01*
X14304560Y73515968D01*
X14304560Y74135016D01*
X14304560Y74468349D02*
X13637894Y74992159D01*
X13637894Y74468349D02*
X14304560Y74992159D01*
X13304560Y75563587D02*
X13304560Y75658825D01*
X13352180Y75754063D01*
X13399799Y75801682D01*
X13495037Y75849301D01*
X13685513Y75896920D01*
X13923608Y75896920D01*
X14114084Y75849301D01*
X14209322Y75801682D01*
X14256941Y75754063D01*
X14304560Y75658825D01*
X14304560Y75563587D01*
X14256941Y75468349D01*
X14209322Y75420730D01*
X14114084Y75373111D01*
X13923608Y75325492D01*
X13685513Y75325492D01*
X13495037Y75373111D01*
X13399799Y75420730D01*
X13352180Y75468349D01*
X13304560Y75563587D01*
X13637894Y76754063D02*
X14304560Y76754063D01*
X13256941Y76515968D02*
X13971227Y76277873D01*
X13971227Y76896920D01*
X14399799Y77039778D02*
X14399799Y77801682D01*
X14209322Y78611206D02*
X14256941Y78563587D01*
X14304560Y78420730D01*
X14304560Y78325492D01*
X14256941Y78182635D01*
X14161703Y78087397D01*
X14066465Y78039778D01*
X13875989Y77992159D01*
X13733132Y77992159D01*
X13542656Y78039778D01*
X13447418Y78087397D01*
X13352180Y78182635D01*
X13304560Y78325492D01*
X13304560Y78420730D01*
X13352180Y78563587D01*
X13399799Y78611206D01*
X14304560Y79039778D02*
X13304560Y79039778D01*
X13304560Y79420730D01*
X13352180Y79515968D01*
X13399799Y79563587D01*
X13495037Y79611206D01*
X13637894Y79611206D01*
X13733132Y79563587D01*
X13780751Y79515968D01*
X13828370Y79420730D01*
X13828370Y79039778D01*
X13304560Y80039778D02*
X14114084Y80039778D01*
X14209322Y80087397D01*
X14256941Y80135016D01*
X14304560Y80230254D01*
X14304560Y80420730D01*
X14256941Y80515968D01*
X14209322Y80563587D01*
X14114084Y80611206D01*
X13304560Y80611206D01*
G04 #@! TO.C,J3*
X22507522Y65357103D02*
X22555141Y65309484D01*
X22602760Y65166627D01*
X22602760Y65071389D01*
X22555141Y64928532D01*
X22459903Y64833294D01*
X22364665Y64785675D01*
X22174189Y64738056D01*
X22031332Y64738056D01*
X21840856Y64785675D01*
X21745618Y64833294D01*
X21650380Y64928532D01*
X21602760Y65071389D01*
X21602760Y65166627D01*
X21650380Y65309484D01*
X21697999Y65357103D01*
X22602760Y65928532D02*
X22555141Y65833294D01*
X22507522Y65785675D01*
X22412284Y65738056D01*
X22126570Y65738056D01*
X22031332Y65785675D01*
X21983713Y65833294D01*
X21936094Y65928532D01*
X21936094Y66071389D01*
X21983713Y66166627D01*
X22031332Y66214246D01*
X22126570Y66261865D01*
X22412284Y66261865D01*
X22507522Y66214246D01*
X22555141Y66166627D01*
X22602760Y66071389D01*
X22602760Y65928532D01*
X21936094Y66690437D02*
X22602760Y66690437D01*
X22031332Y66690437D02*
X21983713Y66738056D01*
X21936094Y66833294D01*
X21936094Y66976151D01*
X21983713Y67071389D01*
X22078951Y67119008D01*
X22602760Y67119008D01*
X21936094Y67595199D02*
X22602760Y67595199D01*
X22031332Y67595199D02*
X21983713Y67642818D01*
X21936094Y67738056D01*
X21936094Y67880913D01*
X21983713Y67976151D01*
X22078951Y68023770D01*
X22602760Y68023770D01*
X22697999Y68261865D02*
X22697999Y69023770D01*
X21602760Y69452341D02*
X21602760Y69547580D01*
X21650380Y69642818D01*
X21697999Y69690437D01*
X21793237Y69738056D01*
X21983713Y69785675D01*
X22221808Y69785675D01*
X22412284Y69738056D01*
X22507522Y69690437D01*
X22555141Y69642818D01*
X22602760Y69547580D01*
X22602760Y69452341D01*
X22555141Y69357103D01*
X22507522Y69309484D01*
X22412284Y69261865D01*
X22221808Y69214246D01*
X21983713Y69214246D01*
X21793237Y69261865D01*
X21697999Y69309484D01*
X21650380Y69357103D01*
X21602760Y69452341D01*
X21697999Y70166627D02*
X21650380Y70214246D01*
X21602760Y70309484D01*
X21602760Y70547580D01*
X21650380Y70642818D01*
X21697999Y70690437D01*
X21793237Y70738056D01*
X21888475Y70738056D01*
X22031332Y70690437D01*
X22602760Y70119008D01*
X22602760Y70738056D01*
X22602760Y71071389D02*
X21936094Y71595199D01*
X21936094Y71071389D02*
X22602760Y71595199D01*
X21602760Y72166627D02*
X21602760Y72261865D01*
X21650380Y72357103D01*
X21697999Y72404722D01*
X21793237Y72452341D01*
X21983713Y72499960D01*
X22221808Y72499960D01*
X22412284Y72452341D01*
X22507522Y72404722D01*
X22555141Y72357103D01*
X22602760Y72261865D01*
X22602760Y72166627D01*
X22555141Y72071389D01*
X22507522Y72023770D01*
X22412284Y71976151D01*
X22221808Y71928532D01*
X21983713Y71928532D01*
X21793237Y71976151D01*
X21697999Y72023770D01*
X21650380Y72071389D01*
X21602760Y72166627D01*
X21936094Y73357103D02*
X22602760Y73357103D01*
X21555141Y73119008D02*
X22269427Y72880913D01*
X22269427Y73499960D01*
X22697999Y73642818D02*
X22697999Y74404722D01*
X22507522Y75214246D02*
X22555141Y75166627D01*
X22602760Y75023770D01*
X22602760Y74928532D01*
X22555141Y74785675D01*
X22459903Y74690437D01*
X22364665Y74642818D01*
X22174189Y74595199D01*
X22031332Y74595199D01*
X21840856Y74642818D01*
X21745618Y74690437D01*
X21650380Y74785675D01*
X21602760Y74928532D01*
X21602760Y75023770D01*
X21650380Y75166627D01*
X21697999Y75214246D01*
X22602760Y75642818D02*
X21602760Y75642818D01*
X21602760Y76023770D01*
X21650380Y76119008D01*
X21697999Y76166627D01*
X21793237Y76214246D01*
X21936094Y76214246D01*
X22031332Y76166627D01*
X22078951Y76119008D01*
X22126570Y76023770D01*
X22126570Y75642818D01*
X21602760Y76642818D02*
X22412284Y76642818D01*
X22507522Y76690437D01*
X22555141Y76738056D01*
X22602760Y76833294D01*
X22602760Y77023770D01*
X22555141Y77119008D01*
X22507522Y77166627D01*
X22412284Y77214246D01*
X21602760Y77214246D01*
G04 #@! TO.C,W1*
X136382232Y-3480131D02*
X136048899Y-3480131D01*
X136048899Y-4003940D02*
X136048899Y-3003940D01*
X136525089Y-3003940D01*
X136906041Y-4003940D02*
X136906041Y-3337274D01*
X136906041Y-3003940D02*
X136858422Y-3051560D01*
X136906041Y-3099179D01*
X136953660Y-3051560D01*
X136906041Y-3003940D01*
X136906041Y-3099179D01*
X137286994Y-4003940D02*
X137810803Y-3337274D01*
X137286994Y-3337274D02*
X137810803Y-4003940D01*
X138191756Y-4003940D02*
X138191756Y-3337274D01*
X138191756Y-3003940D02*
X138144137Y-3051560D01*
X138191756Y-3099179D01*
X138239375Y-3051560D01*
X138191756Y-3003940D01*
X138191756Y-3099179D01*
X138667946Y-3337274D02*
X138667946Y-4003940D01*
X138667946Y-3432512D02*
X138715565Y-3384893D01*
X138810803Y-3337274D01*
X138953660Y-3337274D01*
X139048899Y-3384893D01*
X139096518Y-3480131D01*
X139096518Y-4003940D01*
X140001280Y-3337274D02*
X140001280Y-4146798D01*
X139953660Y-4242036D01*
X139906041Y-4289655D01*
X139810803Y-4337274D01*
X139667946Y-4337274D01*
X139572708Y-4289655D01*
X140001280Y-3956321D02*
X139906041Y-4003940D01*
X139715565Y-4003940D01*
X139620327Y-3956321D01*
X139572708Y-3908702D01*
X139525089Y-3813464D01*
X139525089Y-3527750D01*
X139572708Y-3432512D01*
X139620327Y-3384893D01*
X139715565Y-3337274D01*
X139906041Y-3337274D01*
X140001280Y-3384893D01*
X141239375Y-4003940D02*
X141239375Y-3003940D01*
X141667946Y-4003940D02*
X141667946Y-3480131D01*
X141620327Y-3384893D01*
X141525089Y-3337274D01*
X141382232Y-3337274D01*
X141286994Y-3384893D01*
X141239375Y-3432512D01*
X142286994Y-4003940D02*
X142191756Y-3956321D01*
X142144137Y-3908702D01*
X142096518Y-3813464D01*
X142096518Y-3527750D01*
X142144137Y-3432512D01*
X142191756Y-3384893D01*
X142286994Y-3337274D01*
X142429851Y-3337274D01*
X142525089Y-3384893D01*
X142572708Y-3432512D01*
X142620327Y-3527750D01*
X142620327Y-3813464D01*
X142572708Y-3908702D01*
X142525089Y-3956321D01*
X142429851Y-4003940D01*
X142286994Y-4003940D01*
X143191756Y-4003940D02*
X143096518Y-3956321D01*
X143048899Y-3861083D01*
X143048899Y-3003940D01*
X143953660Y-3956321D02*
X143858422Y-4003940D01*
X143667946Y-4003940D01*
X143572708Y-3956321D01*
X143525089Y-3861083D01*
X143525089Y-3480131D01*
X143572708Y-3384893D01*
X143667946Y-3337274D01*
X143858422Y-3337274D01*
X143953660Y-3384893D01*
X144001280Y-3480131D01*
X144001280Y-3575369D01*
X143525089Y-3670607D01*
X139096518Y4096060D02*
X139334613Y3096060D01*
X139525089Y3810345D01*
X139715565Y3096060D01*
X139953660Y4096060D01*
X140858422Y3096060D02*
X140286994Y3096060D01*
X140572708Y3096060D02*
X140572708Y4096060D01*
X140477470Y3953202D01*
X140382232Y3857964D01*
X140286994Y3810345D01*
G04 #@! TO.C,W2*
X-3617768Y86519869D02*
X-3951101Y86519869D01*
X-3951101Y85996060D02*
X-3951101Y86996060D01*
X-3474911Y86996060D01*
X-3093959Y85996060D02*
X-3093959Y86662726D01*
X-3093959Y86996060D02*
X-3141578Y86948440D01*
X-3093959Y86900821D01*
X-3046340Y86948440D01*
X-3093959Y86996060D01*
X-3093959Y86900821D01*
X-2713006Y85996060D02*
X-2189197Y86662726D01*
X-2713006Y86662726D02*
X-2189197Y85996060D01*
X-1808244Y85996060D02*
X-1808244Y86662726D01*
X-1808244Y86996060D02*
X-1855863Y86948440D01*
X-1808244Y86900821D01*
X-1760625Y86948440D01*
X-1808244Y86996060D01*
X-1808244Y86900821D01*
X-1332054Y86662726D02*
X-1332054Y85996060D01*
X-1332054Y86567488D02*
X-1284435Y86615107D01*
X-1189197Y86662726D01*
X-1046340Y86662726D01*
X-951101Y86615107D01*
X-903482Y86519869D01*
X-903482Y85996060D01*
X1280Y86662726D02*
X1280Y85853202D01*
X-46340Y85757964D01*
X-93959Y85710345D01*
X-189197Y85662726D01*
X-332054Y85662726D01*
X-427292Y85710345D01*
X1280Y86043679D02*
X-93959Y85996060D01*
X-284435Y85996060D01*
X-379673Y86043679D01*
X-427292Y86091298D01*
X-474911Y86186536D01*
X-474911Y86472250D01*
X-427292Y86567488D01*
X-379673Y86615107D01*
X-284435Y86662726D01*
X-93959Y86662726D01*
X1280Y86615107D01*
X1239375Y85996060D02*
X1239375Y86996060D01*
X1667946Y85996060D02*
X1667946Y86519869D01*
X1620327Y86615107D01*
X1525089Y86662726D01*
X1382232Y86662726D01*
X1286994Y86615107D01*
X1239375Y86567488D01*
X2286994Y85996060D02*
X2191756Y86043679D01*
X2144137Y86091298D01*
X2096518Y86186536D01*
X2096518Y86472250D01*
X2144137Y86567488D01*
X2191756Y86615107D01*
X2286994Y86662726D01*
X2429851Y86662726D01*
X2525089Y86615107D01*
X2572708Y86567488D01*
X2620327Y86472250D01*
X2620327Y86186536D01*
X2572708Y86091298D01*
X2525089Y86043679D01*
X2429851Y85996060D01*
X2286994Y85996060D01*
X3191756Y85996060D02*
X3096518Y86043679D01*
X3048899Y86138917D01*
X3048899Y86996060D01*
X3953660Y86043679D02*
X3858422Y85996060D01*
X3667946Y85996060D01*
X3572708Y86043679D01*
X3525089Y86138917D01*
X3525089Y86519869D01*
X3572708Y86615107D01*
X3667946Y86662726D01*
X3858422Y86662726D01*
X3953660Y86615107D01*
X4001280Y86519869D01*
X4001280Y86424631D01*
X3525089Y86329393D01*
X-903482Y94096060D02*
X-665387Y93096060D01*
X-474911Y93810345D01*
X-284435Y93096060D01*
X-46340Y94096060D01*
X286994Y94000821D02*
X334613Y94048440D01*
X429851Y94096060D01*
X667946Y94096060D01*
X763184Y94048440D01*
X810803Y94000821D01*
X858422Y93905583D01*
X858422Y93810345D01*
X810803Y93667488D01*
X239375Y93096060D01*
X858422Y93096060D01*
G04 #@! TO.C,W3*
X136382232Y86519869D02*
X136048899Y86519869D01*
X136048899Y85996060D02*
X136048899Y86996060D01*
X136525089Y86996060D01*
X136906041Y85996060D02*
X136906041Y86662726D01*
X136906041Y86996060D02*
X136858422Y86948440D01*
X136906041Y86900821D01*
X136953660Y86948440D01*
X136906041Y86996060D01*
X136906041Y86900821D01*
X137286994Y85996060D02*
X137810803Y86662726D01*
X137286994Y86662726D02*
X137810803Y85996060D01*
X138191756Y85996060D02*
X138191756Y86662726D01*
X138191756Y86996060D02*
X138144137Y86948440D01*
X138191756Y86900821D01*
X138239375Y86948440D01*
X138191756Y86996060D01*
X138191756Y86900821D01*
X138667946Y86662726D02*
X138667946Y85996060D01*
X138667946Y86567488D02*
X138715565Y86615107D01*
X138810803Y86662726D01*
X138953660Y86662726D01*
X139048899Y86615107D01*
X139096518Y86519869D01*
X139096518Y85996060D01*
X140001280Y86662726D02*
X140001280Y85853202D01*
X139953660Y85757964D01*
X139906041Y85710345D01*
X139810803Y85662726D01*
X139667946Y85662726D01*
X139572708Y85710345D01*
X140001280Y86043679D02*
X139906041Y85996060D01*
X139715565Y85996060D01*
X139620327Y86043679D01*
X139572708Y86091298D01*
X139525089Y86186536D01*
X139525089Y86472250D01*
X139572708Y86567488D01*
X139620327Y86615107D01*
X139715565Y86662726D01*
X139906041Y86662726D01*
X140001280Y86615107D01*
X141239375Y85996060D02*
X141239375Y86996060D01*
X141667946Y85996060D02*
X141667946Y86519869D01*
X141620327Y86615107D01*
X141525089Y86662726D01*
X141382232Y86662726D01*
X141286994Y86615107D01*
X141239375Y86567488D01*
X142286994Y85996060D02*
X142191756Y86043679D01*
X142144137Y86091298D01*
X142096518Y86186536D01*
X142096518Y86472250D01*
X142144137Y86567488D01*
X142191756Y86615107D01*
X142286994Y86662726D01*
X142429851Y86662726D01*
X142525089Y86615107D01*
X142572708Y86567488D01*
X142620327Y86472250D01*
X142620327Y86186536D01*
X142572708Y86091298D01*
X142525089Y86043679D01*
X142429851Y85996060D01*
X142286994Y85996060D01*
X143191756Y85996060D02*
X143096518Y86043679D01*
X143048899Y86138917D01*
X143048899Y86996060D01*
X143953660Y86043679D02*
X143858422Y85996060D01*
X143667946Y85996060D01*
X143572708Y86043679D01*
X143525089Y86138917D01*
X143525089Y86519869D01*
X143572708Y86615107D01*
X143667946Y86662726D01*
X143858422Y86662726D01*
X143953660Y86615107D01*
X144001280Y86519869D01*
X144001280Y86424631D01*
X143525089Y86329393D01*
X139096518Y94096060D02*
X139334613Y93096060D01*
X139525089Y93810345D01*
X139715565Y93096060D01*
X139953660Y94096060D01*
X140239375Y94096060D02*
X140858422Y94096060D01*
X140525089Y93715107D01*
X140667946Y93715107D01*
X140763184Y93667488D01*
X140810803Y93619869D01*
X140858422Y93524631D01*
X140858422Y93286536D01*
X140810803Y93191298D01*
X140763184Y93143679D01*
X140667946Y93096060D01*
X140382232Y93096060D01*
X140286994Y93143679D01*
X140239375Y93191298D01*
G04 #@! TO.C,W4*
X-3617768Y-3480131D02*
X-3951101Y-3480131D01*
X-3951101Y-4003940D02*
X-3951101Y-3003940D01*
X-3474911Y-3003940D01*
X-3093959Y-4003940D02*
X-3093959Y-3337274D01*
X-3093959Y-3003940D02*
X-3141578Y-3051560D01*
X-3093959Y-3099179D01*
X-3046340Y-3051560D01*
X-3093959Y-3003940D01*
X-3093959Y-3099179D01*
X-2713006Y-4003940D02*
X-2189197Y-3337274D01*
X-2713006Y-3337274D02*
X-2189197Y-4003940D01*
X-1808244Y-4003940D02*
X-1808244Y-3337274D01*
X-1808244Y-3003940D02*
X-1855863Y-3051560D01*
X-1808244Y-3099179D01*
X-1760625Y-3051560D01*
X-1808244Y-3003940D01*
X-1808244Y-3099179D01*
X-1332054Y-3337274D02*
X-1332054Y-4003940D01*
X-1332054Y-3432512D02*
X-1284435Y-3384893D01*
X-1189197Y-3337274D01*
X-1046340Y-3337274D01*
X-951101Y-3384893D01*
X-903482Y-3480131D01*
X-903482Y-4003940D01*
X1280Y-3337274D02*
X1280Y-4146798D01*
X-46340Y-4242036D01*
X-93959Y-4289655D01*
X-189197Y-4337274D01*
X-332054Y-4337274D01*
X-427292Y-4289655D01*
X1280Y-3956321D02*
X-93959Y-4003940D01*
X-284435Y-4003940D01*
X-379673Y-3956321D01*
X-427292Y-3908702D01*
X-474911Y-3813464D01*
X-474911Y-3527750D01*
X-427292Y-3432512D01*
X-379673Y-3384893D01*
X-284435Y-3337274D01*
X-93959Y-3337274D01*
X1280Y-3384893D01*
X1239375Y-4003940D02*
X1239375Y-3003940D01*
X1667946Y-4003940D02*
X1667946Y-3480131D01*
X1620327Y-3384893D01*
X1525089Y-3337274D01*
X1382232Y-3337274D01*
X1286994Y-3384893D01*
X1239375Y-3432512D01*
X2286994Y-4003940D02*
X2191756Y-3956321D01*
X2144137Y-3908702D01*
X2096518Y-3813464D01*
X2096518Y-3527750D01*
X2144137Y-3432512D01*
X2191756Y-3384893D01*
X2286994Y-3337274D01*
X2429851Y-3337274D01*
X2525089Y-3384893D01*
X2572708Y-3432512D01*
X2620327Y-3527750D01*
X2620327Y-3813464D01*
X2572708Y-3908702D01*
X2525089Y-3956321D01*
X2429851Y-4003940D01*
X2286994Y-4003940D01*
X3191756Y-4003940D02*
X3096518Y-3956321D01*
X3048899Y-3861083D01*
X3048899Y-3003940D01*
X3953660Y-3956321D02*
X3858422Y-4003940D01*
X3667946Y-4003940D01*
X3572708Y-3956321D01*
X3525089Y-3861083D01*
X3525089Y-3480131D01*
X3572708Y-3384893D01*
X3667946Y-3337274D01*
X3858422Y-3337274D01*
X3953660Y-3384893D01*
X4001280Y-3480131D01*
X4001280Y-3575369D01*
X3525089Y-3670607D01*
X-903482Y4096060D02*
X-665387Y3096060D01*
X-474911Y3810345D01*
X-284435Y3096060D01*
X-46340Y4096060D01*
X763184Y3762726D02*
X763184Y3096060D01*
X525089Y4143679D02*
X286994Y3429393D01*
X906041Y3429393D01*
G04 #@! TO.C,W5*
X57111475Y69310098D02*
X57063856Y69262479D01*
X56920999Y69214860D01*
X56825760Y69214860D01*
X56682903Y69262479D01*
X56587665Y69357717D01*
X56540046Y69452955D01*
X56492427Y69643431D01*
X56492427Y69786288D01*
X56540046Y69976764D01*
X56587665Y70072002D01*
X56682903Y70167240D01*
X56825760Y70214860D01*
X56920999Y70214860D01*
X57063856Y70167240D01*
X57111475Y70119621D01*
X57968618Y69214860D02*
X57968618Y69738669D01*
X57920999Y69833907D01*
X57825760Y69881526D01*
X57635284Y69881526D01*
X57540046Y69833907D01*
X57968618Y69262479D02*
X57873380Y69214860D01*
X57635284Y69214860D01*
X57540046Y69262479D01*
X57492427Y69357717D01*
X57492427Y69452955D01*
X57540046Y69548193D01*
X57635284Y69595812D01*
X57873380Y69595812D01*
X57968618Y69643431D01*
X58444808Y69214860D02*
X58444808Y70214860D01*
X58444808Y69833907D02*
X58540046Y69881526D01*
X58730522Y69881526D01*
X58825760Y69833907D01*
X58873380Y69786288D01*
X58920999Y69691050D01*
X58920999Y69405336D01*
X58873380Y69310098D01*
X58825760Y69262479D01*
X58730522Y69214860D01*
X58540046Y69214860D01*
X58444808Y69262479D01*
X59492427Y69214860D02*
X59397189Y69262479D01*
X59349570Y69357717D01*
X59349570Y70214860D01*
X60254332Y69262479D02*
X60159094Y69214860D01*
X59968618Y69214860D01*
X59873380Y69262479D01*
X59825760Y69357717D01*
X59825760Y69738669D01*
X59873380Y69833907D01*
X59968618Y69881526D01*
X60159094Y69881526D01*
X60254332Y69833907D01*
X60301951Y69738669D01*
X60301951Y69643431D01*
X59825760Y69548193D01*
X61492427Y69214860D02*
X61492427Y70214860D01*
X61920999Y69214860D02*
X61920999Y69738669D01*
X61873380Y69833907D01*
X61778141Y69881526D01*
X61635284Y69881526D01*
X61540046Y69833907D01*
X61492427Y69786288D01*
X62540046Y69214860D02*
X62444808Y69262479D01*
X62397189Y69310098D01*
X62349570Y69405336D01*
X62349570Y69691050D01*
X62397189Y69786288D01*
X62444808Y69833907D01*
X62540046Y69881526D01*
X62682903Y69881526D01*
X62778141Y69833907D01*
X62825760Y69786288D01*
X62873380Y69691050D01*
X62873380Y69405336D01*
X62825760Y69310098D01*
X62778141Y69262479D01*
X62682903Y69214860D01*
X62540046Y69214860D01*
X63444808Y69214860D02*
X63349570Y69262479D01*
X63301951Y69357717D01*
X63301951Y70214860D01*
X64206713Y69262479D02*
X64111475Y69214860D01*
X63920999Y69214860D01*
X63825760Y69262479D01*
X63778141Y69357717D01*
X63778141Y69738669D01*
X63825760Y69833907D01*
X63920999Y69881526D01*
X64111475Y69881526D01*
X64206713Y69833907D01*
X64254332Y69738669D01*
X64254332Y69643431D01*
X63778141Y69548193D01*
G04 #@! TO.C,W6*
X57111475Y46810098D02*
X57063856Y46762479D01*
X56920999Y46714860D01*
X56825760Y46714860D01*
X56682903Y46762479D01*
X56587665Y46857717D01*
X56540046Y46952955D01*
X56492427Y47143431D01*
X56492427Y47286288D01*
X56540046Y47476764D01*
X56587665Y47572002D01*
X56682903Y47667240D01*
X56825760Y47714860D01*
X56920999Y47714860D01*
X57063856Y47667240D01*
X57111475Y47619621D01*
X57968618Y46714860D02*
X57968618Y47238669D01*
X57920999Y47333907D01*
X57825760Y47381526D01*
X57635284Y47381526D01*
X57540046Y47333907D01*
X57968618Y46762479D02*
X57873380Y46714860D01*
X57635284Y46714860D01*
X57540046Y46762479D01*
X57492427Y46857717D01*
X57492427Y46952955D01*
X57540046Y47048193D01*
X57635284Y47095812D01*
X57873380Y47095812D01*
X57968618Y47143431D01*
X58444808Y46714860D02*
X58444808Y47714860D01*
X58444808Y47333907D02*
X58540046Y47381526D01*
X58730522Y47381526D01*
X58825760Y47333907D01*
X58873380Y47286288D01*
X58920999Y47191050D01*
X58920999Y46905336D01*
X58873380Y46810098D01*
X58825760Y46762479D01*
X58730522Y46714860D01*
X58540046Y46714860D01*
X58444808Y46762479D01*
X59492427Y46714860D02*
X59397189Y46762479D01*
X59349570Y46857717D01*
X59349570Y47714860D01*
X60254332Y46762479D02*
X60159094Y46714860D01*
X59968618Y46714860D01*
X59873380Y46762479D01*
X59825760Y46857717D01*
X59825760Y47238669D01*
X59873380Y47333907D01*
X59968618Y47381526D01*
X60159094Y47381526D01*
X60254332Y47333907D01*
X60301951Y47238669D01*
X60301951Y47143431D01*
X59825760Y47048193D01*
X61492427Y46714860D02*
X61492427Y47714860D01*
X61920999Y46714860D02*
X61920999Y47238669D01*
X61873380Y47333907D01*
X61778141Y47381526D01*
X61635284Y47381526D01*
X61540046Y47333907D01*
X61492427Y47286288D01*
X62540046Y46714860D02*
X62444808Y46762479D01*
X62397189Y46810098D01*
X62349570Y46905336D01*
X62349570Y47191050D01*
X62397189Y47286288D01*
X62444808Y47333907D01*
X62540046Y47381526D01*
X62682903Y47381526D01*
X62778141Y47333907D01*
X62825760Y47286288D01*
X62873380Y47191050D01*
X62873380Y46905336D01*
X62825760Y46810098D01*
X62778141Y46762479D01*
X62682903Y46714860D01*
X62540046Y46714860D01*
X63444808Y46714860D02*
X63349570Y46762479D01*
X63301951Y46857717D01*
X63301951Y47714860D01*
X64206713Y46762479D02*
X64111475Y46714860D01*
X63920999Y46714860D01*
X63825760Y46762479D01*
X63778141Y46857717D01*
X63778141Y47238669D01*
X63825760Y47333907D01*
X63920999Y47381526D01*
X64111475Y47381526D01*
X64206713Y47333907D01*
X64254332Y47238669D01*
X64254332Y47143431D01*
X63778141Y47048193D01*
G04 #@! TO.C,W7*
X57111475Y24310098D02*
X57063856Y24262479D01*
X56920999Y24214860D01*
X56825760Y24214860D01*
X56682903Y24262479D01*
X56587665Y24357717D01*
X56540046Y24452955D01*
X56492427Y24643431D01*
X56492427Y24786288D01*
X56540046Y24976764D01*
X56587665Y25072002D01*
X56682903Y25167240D01*
X56825760Y25214860D01*
X56920999Y25214860D01*
X57063856Y25167240D01*
X57111475Y25119621D01*
X57968618Y24214860D02*
X57968618Y24738669D01*
X57920999Y24833907D01*
X57825760Y24881526D01*
X57635284Y24881526D01*
X57540046Y24833907D01*
X57968618Y24262479D02*
X57873380Y24214860D01*
X57635284Y24214860D01*
X57540046Y24262479D01*
X57492427Y24357717D01*
X57492427Y24452955D01*
X57540046Y24548193D01*
X57635284Y24595812D01*
X57873380Y24595812D01*
X57968618Y24643431D01*
X58444808Y24214860D02*
X58444808Y25214860D01*
X58444808Y24833907D02*
X58540046Y24881526D01*
X58730522Y24881526D01*
X58825760Y24833907D01*
X58873380Y24786288D01*
X58920999Y24691050D01*
X58920999Y24405336D01*
X58873380Y24310098D01*
X58825760Y24262479D01*
X58730522Y24214860D01*
X58540046Y24214860D01*
X58444808Y24262479D01*
X59492427Y24214860D02*
X59397189Y24262479D01*
X59349570Y24357717D01*
X59349570Y25214860D01*
X60254332Y24262479D02*
X60159094Y24214860D01*
X59968618Y24214860D01*
X59873380Y24262479D01*
X59825760Y24357717D01*
X59825760Y24738669D01*
X59873380Y24833907D01*
X59968618Y24881526D01*
X60159094Y24881526D01*
X60254332Y24833907D01*
X60301951Y24738669D01*
X60301951Y24643431D01*
X59825760Y24548193D01*
X61492427Y24214860D02*
X61492427Y25214860D01*
X61920999Y24214860D02*
X61920999Y24738669D01*
X61873380Y24833907D01*
X61778141Y24881526D01*
X61635284Y24881526D01*
X61540046Y24833907D01*
X61492427Y24786288D01*
X62540046Y24214860D02*
X62444808Y24262479D01*
X62397189Y24310098D01*
X62349570Y24405336D01*
X62349570Y24691050D01*
X62397189Y24786288D01*
X62444808Y24833907D01*
X62540046Y24881526D01*
X62682903Y24881526D01*
X62778141Y24833907D01*
X62825760Y24786288D01*
X62873380Y24691050D01*
X62873380Y24405336D01*
X62825760Y24310098D01*
X62778141Y24262479D01*
X62682903Y24214860D01*
X62540046Y24214860D01*
X63444808Y24214860D02*
X63349570Y24262479D01*
X63301951Y24357717D01*
X63301951Y25214860D01*
X64206713Y24262479D02*
X64111475Y24214860D01*
X63920999Y24214860D01*
X63825760Y24262479D01*
X63778141Y24357717D01*
X63778141Y24738669D01*
X63825760Y24833907D01*
X63920999Y24881526D01*
X64111475Y24881526D01*
X64206713Y24833907D01*
X64254332Y24738669D01*
X64254332Y24643431D01*
X63778141Y24548193D01*
G04 #@! TO.C,W8*
X57111475Y1810098D02*
X57063856Y1762479D01*
X56920999Y1714860D01*
X56825760Y1714860D01*
X56682903Y1762479D01*
X56587665Y1857717D01*
X56540046Y1952955D01*
X56492427Y2143431D01*
X56492427Y2286288D01*
X56540046Y2476764D01*
X56587665Y2572002D01*
X56682903Y2667240D01*
X56825760Y2714860D01*
X56920999Y2714860D01*
X57063856Y2667240D01*
X57111475Y2619621D01*
X57968618Y1714860D02*
X57968618Y2238669D01*
X57920999Y2333907D01*
X57825760Y2381526D01*
X57635284Y2381526D01*
X57540046Y2333907D01*
X57968618Y1762479D02*
X57873380Y1714860D01*
X57635284Y1714860D01*
X57540046Y1762479D01*
X57492427Y1857717D01*
X57492427Y1952955D01*
X57540046Y2048193D01*
X57635284Y2095812D01*
X57873380Y2095812D01*
X57968618Y2143431D01*
X58444808Y1714860D02*
X58444808Y2714860D01*
X58444808Y2333907D02*
X58540046Y2381526D01*
X58730522Y2381526D01*
X58825760Y2333907D01*
X58873380Y2286288D01*
X58920999Y2191050D01*
X58920999Y1905336D01*
X58873380Y1810098D01*
X58825760Y1762479D01*
X58730522Y1714860D01*
X58540046Y1714860D01*
X58444808Y1762479D01*
X59492427Y1714860D02*
X59397189Y1762479D01*
X59349570Y1857717D01*
X59349570Y2714860D01*
X60254332Y1762479D02*
X60159094Y1714860D01*
X59968618Y1714860D01*
X59873380Y1762479D01*
X59825760Y1857717D01*
X59825760Y2238669D01*
X59873380Y2333907D01*
X59968618Y2381526D01*
X60159094Y2381526D01*
X60254332Y2333907D01*
X60301951Y2238669D01*
X60301951Y2143431D01*
X59825760Y2048193D01*
X61492427Y1714860D02*
X61492427Y2714860D01*
X61920999Y1714860D02*
X61920999Y2238669D01*
X61873380Y2333907D01*
X61778141Y2381526D01*
X61635284Y2381526D01*
X61540046Y2333907D01*
X61492427Y2286288D01*
X62540046Y1714860D02*
X62444808Y1762479D01*
X62397189Y1810098D01*
X62349570Y1905336D01*
X62349570Y2191050D01*
X62397189Y2286288D01*
X62444808Y2333907D01*
X62540046Y2381526D01*
X62682903Y2381526D01*
X62778141Y2333907D01*
X62825760Y2286288D01*
X62873380Y2191050D01*
X62873380Y1905336D01*
X62825760Y1810098D01*
X62778141Y1762479D01*
X62682903Y1714860D01*
X62540046Y1714860D01*
X63444808Y1714860D02*
X63349570Y1762479D01*
X63301951Y1857717D01*
X63301951Y2714860D01*
X64206713Y1762479D02*
X64111475Y1714860D01*
X63920999Y1714860D01*
X63825760Y1762479D01*
X63778141Y1857717D01*
X63778141Y2238669D01*
X63825760Y2333907D01*
X63920999Y2381526D01*
X64111475Y2381526D01*
X64206713Y2333907D01*
X64254332Y2238669D01*
X64254332Y2143431D01*
X63778141Y2048193D01*
G04 #@! TO.C,W9*
X117111475Y72060098D02*
X117063856Y72012479D01*
X116920999Y71964860D01*
X116825760Y71964860D01*
X116682903Y72012479D01*
X116587665Y72107717D01*
X116540046Y72202955D01*
X116492427Y72393431D01*
X116492427Y72536288D01*
X116540046Y72726764D01*
X116587665Y72822002D01*
X116682903Y72917240D01*
X116825760Y72964860D01*
X116920999Y72964860D01*
X117063856Y72917240D01*
X117111475Y72869621D01*
X117968618Y71964860D02*
X117968618Y72488669D01*
X117920999Y72583907D01*
X117825760Y72631526D01*
X117635284Y72631526D01*
X117540046Y72583907D01*
X117968618Y72012479D02*
X117873380Y71964860D01*
X117635284Y71964860D01*
X117540046Y72012479D01*
X117492427Y72107717D01*
X117492427Y72202955D01*
X117540046Y72298193D01*
X117635284Y72345812D01*
X117873380Y72345812D01*
X117968618Y72393431D01*
X118444808Y71964860D02*
X118444808Y72964860D01*
X118444808Y72583907D02*
X118540046Y72631526D01*
X118730522Y72631526D01*
X118825760Y72583907D01*
X118873380Y72536288D01*
X118920999Y72441050D01*
X118920999Y72155336D01*
X118873380Y72060098D01*
X118825760Y72012479D01*
X118730522Y71964860D01*
X118540046Y71964860D01*
X118444808Y72012479D01*
X119492427Y71964860D02*
X119397189Y72012479D01*
X119349570Y72107717D01*
X119349570Y72964860D01*
X120254332Y72012479D02*
X120159094Y71964860D01*
X119968618Y71964860D01*
X119873380Y72012479D01*
X119825760Y72107717D01*
X119825760Y72488669D01*
X119873380Y72583907D01*
X119968618Y72631526D01*
X120159094Y72631526D01*
X120254332Y72583907D01*
X120301951Y72488669D01*
X120301951Y72393431D01*
X119825760Y72298193D01*
X121492427Y71964860D02*
X121492427Y72964860D01*
X121920999Y71964860D02*
X121920999Y72488669D01*
X121873380Y72583907D01*
X121778141Y72631526D01*
X121635284Y72631526D01*
X121540046Y72583907D01*
X121492427Y72536288D01*
X122540046Y71964860D02*
X122444808Y72012479D01*
X122397189Y72060098D01*
X122349570Y72155336D01*
X122349570Y72441050D01*
X122397189Y72536288D01*
X122444808Y72583907D01*
X122540046Y72631526D01*
X122682903Y72631526D01*
X122778141Y72583907D01*
X122825760Y72536288D01*
X122873380Y72441050D01*
X122873380Y72155336D01*
X122825760Y72060098D01*
X122778141Y72012479D01*
X122682903Y71964860D01*
X122540046Y71964860D01*
X123444808Y71964860D02*
X123349570Y72012479D01*
X123301951Y72107717D01*
X123301951Y72964860D01*
X124206713Y72012479D02*
X124111475Y71964860D01*
X123920999Y71964860D01*
X123825760Y72012479D01*
X123778141Y72107717D01*
X123778141Y72488669D01*
X123825760Y72583907D01*
X123920999Y72631526D01*
X124111475Y72631526D01*
X124206713Y72583907D01*
X124254332Y72488669D01*
X124254332Y72393431D01*
X123778141Y72298193D01*
G04 #@! TO.C,W10*
X117111475Y49560098D02*
X117063856Y49512479D01*
X116920999Y49464860D01*
X116825760Y49464860D01*
X116682903Y49512479D01*
X116587665Y49607717D01*
X116540046Y49702955D01*
X116492427Y49893431D01*
X116492427Y50036288D01*
X116540046Y50226764D01*
X116587665Y50322002D01*
X116682903Y50417240D01*
X116825760Y50464860D01*
X116920999Y50464860D01*
X117063856Y50417240D01*
X117111475Y50369621D01*
X117968618Y49464860D02*
X117968618Y49988669D01*
X117920999Y50083907D01*
X117825760Y50131526D01*
X117635284Y50131526D01*
X117540046Y50083907D01*
X117968618Y49512479D02*
X117873380Y49464860D01*
X117635284Y49464860D01*
X117540046Y49512479D01*
X117492427Y49607717D01*
X117492427Y49702955D01*
X117540046Y49798193D01*
X117635284Y49845812D01*
X117873380Y49845812D01*
X117968618Y49893431D01*
X118444808Y49464860D02*
X118444808Y50464860D01*
X118444808Y50083907D02*
X118540046Y50131526D01*
X118730522Y50131526D01*
X118825760Y50083907D01*
X118873380Y50036288D01*
X118920999Y49941050D01*
X118920999Y49655336D01*
X118873380Y49560098D01*
X118825760Y49512479D01*
X118730522Y49464860D01*
X118540046Y49464860D01*
X118444808Y49512479D01*
X119492427Y49464860D02*
X119397189Y49512479D01*
X119349570Y49607717D01*
X119349570Y50464860D01*
X120254332Y49512479D02*
X120159094Y49464860D01*
X119968618Y49464860D01*
X119873380Y49512479D01*
X119825760Y49607717D01*
X119825760Y49988669D01*
X119873380Y50083907D01*
X119968618Y50131526D01*
X120159094Y50131526D01*
X120254332Y50083907D01*
X120301951Y49988669D01*
X120301951Y49893431D01*
X119825760Y49798193D01*
X121492427Y49464860D02*
X121492427Y50464860D01*
X121920999Y49464860D02*
X121920999Y49988669D01*
X121873380Y50083907D01*
X121778141Y50131526D01*
X121635284Y50131526D01*
X121540046Y50083907D01*
X121492427Y50036288D01*
X122540046Y49464860D02*
X122444808Y49512479D01*
X122397189Y49560098D01*
X122349570Y49655336D01*
X122349570Y49941050D01*
X122397189Y50036288D01*
X122444808Y50083907D01*
X122540046Y50131526D01*
X122682903Y50131526D01*
X122778141Y50083907D01*
X122825760Y50036288D01*
X122873380Y49941050D01*
X122873380Y49655336D01*
X122825760Y49560098D01*
X122778141Y49512479D01*
X122682903Y49464860D01*
X122540046Y49464860D01*
X123444808Y49464860D02*
X123349570Y49512479D01*
X123301951Y49607717D01*
X123301951Y50464860D01*
X124206713Y49512479D02*
X124111475Y49464860D01*
X123920999Y49464860D01*
X123825760Y49512479D01*
X123778141Y49607717D01*
X123778141Y49988669D01*
X123825760Y50083907D01*
X123920999Y50131526D01*
X124111475Y50131526D01*
X124206713Y50083907D01*
X124254332Y49988669D01*
X124254332Y49893431D01*
X123778141Y49798193D01*
G04 #@! TO.C,W11*
X117111475Y4560098D02*
X117063856Y4512479D01*
X116920999Y4464860D01*
X116825760Y4464860D01*
X116682903Y4512479D01*
X116587665Y4607717D01*
X116540046Y4702955D01*
X116492427Y4893431D01*
X116492427Y5036288D01*
X116540046Y5226764D01*
X116587665Y5322002D01*
X116682903Y5417240D01*
X116825760Y5464860D01*
X116920999Y5464860D01*
X117063856Y5417240D01*
X117111475Y5369621D01*
X117968618Y4464860D02*
X117968618Y4988669D01*
X117920999Y5083907D01*
X117825760Y5131526D01*
X117635284Y5131526D01*
X117540046Y5083907D01*
X117968618Y4512479D02*
X117873380Y4464860D01*
X117635284Y4464860D01*
X117540046Y4512479D01*
X117492427Y4607717D01*
X117492427Y4702955D01*
X117540046Y4798193D01*
X117635284Y4845812D01*
X117873380Y4845812D01*
X117968618Y4893431D01*
X118444808Y4464860D02*
X118444808Y5464860D01*
X118444808Y5083907D02*
X118540046Y5131526D01*
X118730522Y5131526D01*
X118825760Y5083907D01*
X118873380Y5036288D01*
X118920999Y4941050D01*
X118920999Y4655336D01*
X118873380Y4560098D01*
X118825760Y4512479D01*
X118730522Y4464860D01*
X118540046Y4464860D01*
X118444808Y4512479D01*
X119492427Y4464860D02*
X119397189Y4512479D01*
X119349570Y4607717D01*
X119349570Y5464860D01*
X120254332Y4512479D02*
X120159094Y4464860D01*
X119968618Y4464860D01*
X119873380Y4512479D01*
X119825760Y4607717D01*
X119825760Y4988669D01*
X119873380Y5083907D01*
X119968618Y5131526D01*
X120159094Y5131526D01*
X120254332Y5083907D01*
X120301951Y4988669D01*
X120301951Y4893431D01*
X119825760Y4798193D01*
X121492427Y4464860D02*
X121492427Y5464860D01*
X121920999Y4464860D02*
X121920999Y4988669D01*
X121873380Y5083907D01*
X121778141Y5131526D01*
X121635284Y5131526D01*
X121540046Y5083907D01*
X121492427Y5036288D01*
X122540046Y4464860D02*
X122444808Y4512479D01*
X122397189Y4560098D01*
X122349570Y4655336D01*
X122349570Y4941050D01*
X122397189Y5036288D01*
X122444808Y5083907D01*
X122540046Y5131526D01*
X122682903Y5131526D01*
X122778141Y5083907D01*
X122825760Y5036288D01*
X122873380Y4941050D01*
X122873380Y4655336D01*
X122825760Y4560098D01*
X122778141Y4512479D01*
X122682903Y4464860D01*
X122540046Y4464860D01*
X123444808Y4464860D02*
X123349570Y4512479D01*
X123301951Y4607717D01*
X123301951Y5464860D01*
X124206713Y4512479D02*
X124111475Y4464860D01*
X123920999Y4464860D01*
X123825760Y4512479D01*
X123778141Y4607717D01*
X123778141Y4988669D01*
X123825760Y5083907D01*
X123920999Y5131526D01*
X124111475Y5131526D01*
X124206713Y5083907D01*
X124254332Y4988669D01*
X124254332Y4893431D01*
X123778141Y4798193D01*
G04 #@! TO.C,W12*
X117111475Y27060098D02*
X117063856Y27012479D01*
X116920999Y26964860D01*
X116825760Y26964860D01*
X116682903Y27012479D01*
X116587665Y27107717D01*
X116540046Y27202955D01*
X116492427Y27393431D01*
X116492427Y27536288D01*
X116540046Y27726764D01*
X116587665Y27822002D01*
X116682903Y27917240D01*
X116825760Y27964860D01*
X116920999Y27964860D01*
X117063856Y27917240D01*
X117111475Y27869621D01*
X117968618Y26964860D02*
X117968618Y27488669D01*
X117920999Y27583907D01*
X117825760Y27631526D01*
X117635284Y27631526D01*
X117540046Y27583907D01*
X117968618Y27012479D02*
X117873380Y26964860D01*
X117635284Y26964860D01*
X117540046Y27012479D01*
X117492427Y27107717D01*
X117492427Y27202955D01*
X117540046Y27298193D01*
X117635284Y27345812D01*
X117873380Y27345812D01*
X117968618Y27393431D01*
X118444808Y26964860D02*
X118444808Y27964860D01*
X118444808Y27583907D02*
X118540046Y27631526D01*
X118730522Y27631526D01*
X118825760Y27583907D01*
X118873380Y27536288D01*
X118920999Y27441050D01*
X118920999Y27155336D01*
X118873380Y27060098D01*
X118825760Y27012479D01*
X118730522Y26964860D01*
X118540046Y26964860D01*
X118444808Y27012479D01*
X119492427Y26964860D02*
X119397189Y27012479D01*
X119349570Y27107717D01*
X119349570Y27964860D01*
X120254332Y27012479D02*
X120159094Y26964860D01*
X119968618Y26964860D01*
X119873380Y27012479D01*
X119825760Y27107717D01*
X119825760Y27488669D01*
X119873380Y27583907D01*
X119968618Y27631526D01*
X120159094Y27631526D01*
X120254332Y27583907D01*
X120301951Y27488669D01*
X120301951Y27393431D01*
X119825760Y27298193D01*
X121492427Y26964860D02*
X121492427Y27964860D01*
X121920999Y26964860D02*
X121920999Y27488669D01*
X121873380Y27583907D01*
X121778141Y27631526D01*
X121635284Y27631526D01*
X121540046Y27583907D01*
X121492427Y27536288D01*
X122540046Y26964860D02*
X122444808Y27012479D01*
X122397189Y27060098D01*
X122349570Y27155336D01*
X122349570Y27441050D01*
X122397189Y27536288D01*
X122444808Y27583907D01*
X122540046Y27631526D01*
X122682903Y27631526D01*
X122778141Y27583907D01*
X122825760Y27536288D01*
X122873380Y27441050D01*
X122873380Y27155336D01*
X122825760Y27060098D01*
X122778141Y27012479D01*
X122682903Y26964860D01*
X122540046Y26964860D01*
X123444808Y26964860D02*
X123349570Y27012479D01*
X123301951Y27107717D01*
X123301951Y27964860D01*
X124206713Y27012479D02*
X124111475Y26964860D01*
X123920999Y26964860D01*
X123825760Y27012479D01*
X123778141Y27107717D01*
X123778141Y27488669D01*
X123825760Y27583907D01*
X123920999Y27631526D01*
X124111475Y27631526D01*
X124206713Y27583907D01*
X124254332Y27488669D01*
X124254332Y27393431D01*
X123778141Y27298193D01*
G04 #@! TD*
M02*
